<svg width="24" height="26" fill="none" xmlns="http://www.w3.org/2000/svg"><path d="M5.468 8.91c1.498 2.909 3.31 4.341 4.904 5.132 1.074.535 2.246.845 3.309.845 1.367 0 2.701-.364 3.428-1.508.434-.684.553-1.55.336-2.415-.41-1.691-2.996-2.033-3.16-2.052-4.76 1.431-6.832.95-8.817-.001Z" fill="#fff"/><path d="M10.372 14.042c-1.595-.79-3.406-2.223-4.904-5.131-.78-.374-1.53-.855-2.506-1.262-.26-.106-.52-.213-.78-.288-.402-.118-.771 0-.988.267a.962.962 0 0 0-.163.834c.087.395.326.834.489 1.154.195.375.26.738.195 1.134-.13.844.032 1.454.51 1.924a.971.971 0 0 1 .293.695c.021.705.303 1.261.846 1.646.51.364.813.834.944 1.497.325 1.646 1.974 2.972 3.764 3.057.25.34 1.04 1.518 1.309 1.654.78.393 1.208.527 1.23.527.369.021.792.15 1.095.203.004-.004.436-.318 1.024-.73 1.048-.737 2.59-1.789 3.077-1.953 1.172-.385 2.105-.898 2.843-1.55 1.388-1.23 2.104-2.865 2.213-5.003.087-1.71-.195-3.475-.879-5.549-.12-.342-.163-.449-.575-1.614.922-.075 1.747-.107 2.105-.77.013-.021.102-.285.207-.606.157-.48.348-1.087.368-1.19.108-.513-.054-.962-.456-1.218-.304-.203-.564-.385-.846-.567a1.184 1.184 0 0 0-.64-.203c-.174 0-.358.043-.532.139-.369.203-.542.492-.542.92 0 .074 0 .085.032.673l-.005.001c-.91.257-2.134.601-3.304 2.479-.723 1.17-.864 2.518-1.507 3.699h-.003c.163.02 2.749.362 3.16 2.053.216.865.097 1.731-.337 2.415-.727 1.144-2.061 1.508-3.428 1.508-1.063 0-2.235-.31-3.309-.845Z" fill="#fff"/><path d="m15.33 24.743-2.105-.192a.992.992 0 0 0-.434.054L11.565 25m.185-3.047.347.716.9 1.86M5.469 8.912c1.498 2.908 3.31 4.34 4.904 5.131 1.074.535 2.246.845 3.309.845 1.367 0 2.701-.364 3.428-1.508.434-.684.553-1.55.336-2.415-.41-1.691-2.996-2.033-3.16-2.052M5.469 8.91c-.78-.374-1.53-.855-2.506-1.262-.26-.106-.52-.213-.78-.288-.402-.118-.771 0-.988.267a.962.962 0 0 0-.163.834c.087.395.326.834.489 1.154.195.375.26.738.195 1.134-.13.844.032 1.454.51 1.924a.971.971 0 0 1 .293.695c.021.705.303 1.261.846 1.646.51.364.813.834.944 1.497.325 1.646 1.974 2.972 3.764 3.057M5.468 8.911c1.985.951 4.057 1.432 8.818 0M8.072 19.57c-.401-.491-.39-1.657-.39-1.657m.39 1.657c.25.34 1.04 1.518 1.309 1.654M23 3.918l-1.14-.085M9.017 23.429l-1.421.416m1.786-2.622c.78.393 1.208.527 1.23.527.369.021.792.15 1.095.203.004-.004.436-.318 1.024-.73m-3.349 0s-.325 1.478-.365 1.917c-.01.139 0 .288.033.427l.282 1.059c.021.085.097.16.195.17l1.063.13m8.527-22.194c1.485-.313 2.767.403 2.605 1.446m-.044.19a1.31 1.31 0 0 0 .044-.19M1.563 9.606c.315.524 1.106 1.058 2.213 1.144M2.28 12.663c.673.567 1.8.492 2.365.385m-1.226 1.957c1.14.587 2.116.33 2.81.224m6.39 6.094.111-.1m1.744-3.31s-.37 2.038-1.744 3.31m1.557-12.311.003-.001c.643-1.181.784-2.53 1.507-3.699 1.17-1.878 2.393-2.222 3.304-2.479l.005-.001c-.032-.588-.032-.599-.032-.674 0-.427.173-.716.542-.919.174-.096.358-.139.532-.139.206 0 .423.064.64.203.282.182.542.364.846.567.402.256.564.705.456 1.218-.02.103-.211.71-.368 1.19M12.73 21.223c1.049-.737 2.592-1.789 3.078-1.953 1.172-.385 2.105-.898 2.843-1.55 1.388-1.23 2.104-2.865 2.213-5.003.087-1.71-.195-3.475-.879-5.549-.12-.342-.163-.449-.575-1.614.922-.075 1.747-.107 2.105-.77.013-.021.102-.285.207-.606" stroke="#72D0CA" stroke-width="1.5" stroke-linecap="round" stroke-linejoin="round"/></svg>