<svg width="516" height="258" fill="none" xmlns="http://www.w3.org/2000/svg"><path opacity=".5" d="M22.395 235.605v-22.526H44.79v-22.395h22.395v-22.395H89.71v22.395h22.395v22.395H134.5v22.526h22.525V258H89.711v-22.395H67.185V258H0v-22.395h22.395Zm358.973 0v-22.526h22.395v-22.395h22.395v-22.395h22.526v22.395h22.395v22.395h22.395v22.526H516V258h-67.316v-22.395h-22.526V258h-67.315v-22.395h22.525ZM134.5 168.289v22.395h22.395v22.395h22.395v22.395h22.395v22.395h112.237v-22.395h22.395v-22.395h22.395v-22.395h22.395v-22.395h-22.395v-22.395h-22.395V123.5h-22.395v22.394h-22.395v22.395h-22.395v22.395h-22.395v-22.395h-22.395v-22.395h-22.395V123.5h-22.395v22.394h-22.395v22.395H134.5Zm134.632 67.316V213.21h22.395v-22.395h22.395V168.42h22.395v22.395h-22.395v22.395h-22.395v22.395h-22.395Zm-89.711-44.921v-22.395h22.395v22.395h22.395v22.395h22.395v22.395h-22.395v-22.395h-22.395v-22.395h-22.395Z" fill="#fff"/><path opacity=".5" d="M269.132 145.894h-22.395V123.5h22.395v22.394Zm-22.395-44.92h-22.395v22.395h22.395v-22.395Zm22.395 22.395h22.395v-22.395h-22.395v22.395Zm44.921-56.053V89.71h22.395v22.395h22.395V134.5h22.395v22.394h22.395V134.5h22.395v-22.395h22.656V89.711h22.395V67.316h-22.395V44.92h-22.395l.001-22.526h-22.395V0H381.5v22.395h-22.395V44.79H336.71v22.526h-22.657Zm44.79 22.395V67.316h22.395V44.92h22.395v22.395h22.395V89.71h-22.395v22.395h-22.395V89.711h-22.395Zm44.921 0h-22.395V67.316h22.395V89.71Z" fill="#fff"/></svg>