<svg width="255" height="255" fill="none" xmlns="http://www.w3.org/2000/svg"><path d="M145.763 0h-36.441v36.425h-36.44v36.341H36.44v36.426H0v36.51h36.44v36.426h36.442v36.425h36.44V255h36.441v-36.447h36.441v-36.425h36.355v-36.426H255v-36.425h-36.441V72.766h-36.355v-36.34h-36.441V0Zm-36.441 72.766h36.441v36.426h36.441v36.51h-36.441v36.426h-36.441v-36.426h-36.44v-36.425h36.44V72.766Zm0 72.851v-36.34h36.441v36.425l-36.441-.085Z" fill="#fff" fill-opacity=".4"/><path d="M36 216.918 1 217v-35.041h35V147h35v35.041l-35-.082v34.959Z" fill="#C6202C"/></svg>