<svg width="463" height="101" fill="none" xmlns="http://www.w3.org/2000/svg"><path d="M78.344 0c10.865 4.973 21.7 9.975 32.595 14.873 2.098.946 3.417 2.268 4.271 4.432 2.173 5.513 4.391 11.026 6.939 16.374 1.993 4.207 2.638 8.398 2.398 13.07-.33 6.37-1.469 12.109-5.995 16.946-2.233 2.389-3.956 5.273-5.784 8.008-1.124 1.682-2.368 1.983-4.212 1.276-4.151-1.577-8.437-2.854-12.543-4.567-5.56-2.343-11.27-3.44-17.295-3.35-4.376.06-8.752-.09-13.113-.36-1.709-.105-2.458.51-3.162 1.953-4.766 9.675-9.622 19.32-14.447 28.964-1.544 3.08-2.428 3.305-5.276 1.292-13.562-9.525-27.125-19.08-40.718-28.574C.578 69.346-.186 68.34.04 66.491 1.358 56.202 2.542 45.88 3.89 35.59c.15-1.096.795-2.358 1.619-3.11A3190.764 3190.764 0 0 1 34.613 6.386c.854-.751 2.143-1.247 3.297-1.397C50.349 3.425 62.803 1.953 75.256.436 75.631.39 75.976.15 76.32 0h2.024Zm31.621 19.8c-8.168 1.517-15.78 2.945-23.394 4.342-1.528.285-2.518.916-1.274 2.404a783.83 783.83 0 0 0 14.133 16.57c.27.3 2.008-.015 2.158-.39 2.817-7.452 5.5-14.964 8.377-22.926Zm-2.638-1.187c.03-.18.075-.375.105-.555-9.441-4.297-18.868-8.579-28.699-13.055 1.154 5.303 2.038 10.245 3.432 15.023.33 1.126 2.518 2.614 3.642 2.448 7.193-1.051 14.342-2.523 21.52-3.86ZM40.922 92.376l.285-.285c-.39-.586-.75-1.187-1.17-1.758-4.06-5.604-8.092-11.207-12.198-16.78-1.349-1.834-2.218-4.282-5.17-4.237-.375 0-.735-.616-1.17-.841-.719-.391-1.483-.947-2.247-.977-2.383-.09-4.781.015-7.164.09-1.798.06-3.597.196-6.01.33 12.02 8.428 23.424 16.45 34.844 24.458Zm-5.62-62.57c.03.21.045.405.075.615 8.348 1.773 16.68 3.576 25.043 5.288 1.888.391 1.828-.87 1.378-2.133-1.363-3.876-2.727-7.752-4.18-11.582-.615-1.623-2.159-2.404-3.643-1.683-6.294 3.05-12.468 6.31-18.673 9.494Zm75.967-8.699c-2.383 6.595-4.631 12.68-6.774 18.794-.54 1.547-.719 3.23-1.049 4.837 1.589-.09 3.207-.015 4.766-.285 3.941-.661 7.853-1.472 11.974-2.269a62138.48 62138.48 0 0 1-8.917-21.077ZM10.499 33.712c6.085-1.112 11.48-1.863 16.725-3.215 1.859-.481 4.212-2.134 4.811-3.801 1.799-5.018 2.863-10.306 4.391-16.21-8.842 7.932-17.1 15.323-25.927 23.226Zm72.955-6.67c-.21.044-.42.104-.644.15-.3 5.949-.72 11.898-.765 17.847 0 .826 1.814 2.433 2.743 2.388 4.18-.165 8.347-.766 12.499-1.277 1.498-.18 1.513-1.021.644-2.043-4.81-5.678-9.651-11.372-14.477-17.066ZM59.835 16.81c.06.24.105.495.165.736 1.244.345 2.473.69 3.717 1.006 4.705 1.217 9.396 2.45 14.117 3.636 1.289.33 2.877.36 2.548-1.472-.93-5.123-2.143-10.2-3.327-15.624-5.995 4.086-11.615 7.902-17.22 11.718ZM34.718 31.954c.075.6.03.886.134 1.051 2.818 4.057 5.53 8.203 8.603 12.049.72.901 3.087 1.547 4.031 1.051 4.631-2.403 9.037-5.243 13.533-7.932-.03-.21-.06-.42-.09-.616-8.677-1.848-17.354-3.71-26.211-5.603Zm8.632 19.29c-5.41 4.596-10.76 9.073-16.036 13.64-1.334 1.157-.33 1.818.87 2.178 2.832.842 5.694 1.623 8.512 2.54 5.455 1.802 6.624 1.847 6.639-4.523.03-4.491.015-8.968.015-13.836Zm19.123 10.62c5.29-4.026 10.086-7.631 14.821-11.327 1.274-.991 1.184-2.358-.12-3.275-3.371-2.373-6.803-4.657-10.25-6.91-1.2-.782-2.278-.631-2.443 1.066-.674 6.64-1.319 13.266-2.008 20.446Zm45.978 8.503c-2.412-7.03-4.615-13.46-6.848-19.89-.435-1.232-1.214-1.307-1.964-.255-3.177 4.446-6.324 8.908-9.621 13.55 6.174 2.209 12.034 4.312 18.433 6.595Zm-54.49-52.009a21.1 21.1 0 0 1 .33-.931c-5.276-2.389-10.551-4.793-16.051-7.287-1.59 6.145-3.118 11.989-4.631 17.833.18.165.36.33.54.51 6.593-3.38 13.202-6.745 19.811-10.125Zm6.878 43.056c.705-7.046 1.379-13.566 2.023-20.07.12-1.248-.224-2.104-1.648-1.278-4.181 2.449-8.363 4.898-12.484 7.467-1.334.84-1.514 2.133-.225 3.26 3.972 3.455 7.958 6.865 12.334 10.62ZM21.425 47.668c.884.315 1.244.556 1.618.556 6.01-.045 12.02-.12 18.029-.21 1.529-.03 1.678-.812.9-1.939a2007.44 2007.44 0 0 0-8.229-11.703c-.899-1.261-2.233-1.382-3.072-.21-3.102 4.327-6.04 8.773-9.246 13.506Zm58.043-22.67c-.45-.51-.54-.69-.66-.736-6.114-1.622-12.214-3.26-18.344-4.807-1.498-.376-1.708.676-1.318 1.787a577.55 577.55 0 0 0 4.346 12.049c.57 1.532 1.933 1.938 3.162 1.066 4.271-3.004 8.452-6.174 12.814-9.359ZM40.681 8.908l-.045.496c3.882 1.758 7.868 3.32 11.6 5.334 2.503 1.352 4.87-.662 7.223.285 4.736-3.215 9.457-6.43 14.193-9.645-.06-.15-.135-.285-.195-.435-10.94 1.322-21.85 2.644-32.776 3.966Zm1.589 41.028c-6.624 0-12.709-.06-18.778.045-1.694.03-2.683 1.157-2.233 2.975a423.98 423.98 0 0 0 2.457 9.54c.45 1.667 1.47 1.847 2.758.856.914-.706 1.768-1.472 2.638-2.224 4.3-3.65 8.587-7.316 13.158-11.192ZM25.995 68.114c6.175 8.518 11.945 16.45 17.715 24.382.18-5.513.09-10.801-.645-16-.225-1.562-1.933-3.575-3.447-4.176-4.181-1.667-8.602-2.704-13.623-4.206ZM7.953 37.016c-1.124 9.42-2.173 18.193-3.207 26.967.194.09.39.165.584.255 3.672-4.282 7.493-8.458 10.895-12.95.75-.991.54-3.53-.24-4.657-2.262-3.215-5.02-6.07-8.032-9.614Zm72.564-10.2c-.074-.015-.3-.105-.39-.03-4.21 3.02-8.467 5.994-12.558 9.179-.434.345-.33 2.404.18 2.78 3.372 2.508 6.909 4.791 10.4 7.12 1.424.947 2.144.496 2.174-1.187.03-1.232.165-2.464.18-3.695.03-4.688.014-9.36.014-14.167Zm-34.08 24.442c-.255.12-.524.24-.78.36-.299 5.785-.644 11.553-.808 17.337-.015.33 1.603 1.187 2.053.962 4.39-2.133 8.707-4.432 13.308-6.836-4.751-4.07-9.262-7.947-13.773-11.823ZM9.031 35.694c3.027 3.576 5.65 6.85 8.527 9.87.525.541 2.728.541 3.102.016 3.163-4.282 6.07-8.744 9.067-13.145-.105-.18-.21-.361-.33-.541-6.639 1.232-13.278 2.479-20.366 3.8Zm94.415 13.13c-.165.136-.33.27-.495.391 2.323 6.775 4.661 13.566 7.149 20.792 3.177-4.432 6.084-8.473 9.112-12.695-5.425-2.914-10.596-5.708-15.766-8.487ZM65.186 61.91c.074.255.15.51.21.75H86.48c-1.573-3.41-3.012-6.88-4.84-10.14-.36-.63-2.623-1.006-3.313-.51-4.48 3.154-8.782 6.564-13.143 9.9Zm-6.22 4.251c-.135-.105-.285-.21-.42-.316-3.432 1.773-7.058 3.276-10.22 5.454-1.59 1.096-3.208 3.38-3.268 5.183-.194 4.957.42 9.96.72 14.933.165.045.315.09.48.135 4.225-8.458 8.467-16.916 12.708-25.389Zm-52.798-.33c5.02 0 9.577.105 14.118-.12.659-.03 1.888-1.834 1.738-2.615-.614-3.38-1.648-6.685-2.533-10.02-.33-1.217-1.019-1.547-1.888-.54-3.747 4.31-7.463 8.667-11.435 13.294Zm92.677-17.427c-.135-.21-.27-.42-.39-.616-4.54.466-9.096.841-13.592 1.532-.6.09-1.589 2.058-1.32 2.734 1.44 3.621 3.208 7.106 4.991 10.922 3.537-5.017 6.924-9.795 10.311-14.572Zm21.641-4.537c-5.59 1.052-10.851 2.028-16.815 3.155 5.635 3.05 10.595 5.724 15.915 8.608.3-4.041.585-7.737.9-11.763Zm54.035-36.372V2.708h9.793v7.217c11.948 3.033 16.607 7.564 16.187 15.566-.384 7.308-6.102 12.277-16.078 13.739v5.791h-6.924v-5.755c-1.663-.292-3.106-.438-4.494-.785-7.381-1.81-11.985-7.51-11.766-14.47.219-6.504 5.59-12.113 12.807-13.373.256-.037.53-.037.767-.128.877-.348 1.736-.713 2.613-1.078-.804-.548-1.608-1.078-2.905-1.937Zm9.994 25.468c5.736-.402 9.463-4.293 8.934-9.171-.476-4.33-4.714-7.747-8.934-7.162v16.333Zm-7.162-16.406c-4.823-.402-9.044 3.38-9.117 8.02-.073 4.696 4.093 8.496 9.117 8.204V16.557ZM250.486 55.8c.877.731 2.302 1.919 3.818 3.161-1.699 3.343-4.457 5.042-7.746 6.029-1.973.603-4.001 1.005-5.938 1.68-3.014 1.06-4.969 3.125-5.882 6.907 3.672-2.357 7.253-2.869 10.925-2.193 6.102 1.133 9.975 6.03 10.03 12.497.055 6.157-3.983 11.144-10.103 12.515-8.916 1.991-16.754-3.307-17.631-12.497-.401-4.165.11-8.55.987-12.679 1.188-5.609 5.116-9.025 10.578-10.87 3.599-1.188 7.034-2.887 10.962-4.55Zm-8.97 21.12c-3.746.037-7.089 2.558-7.034 5.335.109 5.152 3.179 8.788 7.454 8.788 4.056 0 6.924-2.887 6.961-6.98.054-4.201-3.033-7.18-7.381-7.143Zm31.224-31.57v5.298h-6.522V39.54c3.325.694 3.946-1.699 4.439-4.074.658-3.216 1.188-6.45 1.827-9.939-1.827-.164-2.978-.256-4.311-.384v-5.499h24.006v19.659c1.626.073 3.051.128 4.622.2V50.63h-6.54v-5.298c-5.847.018-11.455.018-17.521.018Zm12.57-19.878h-6.157c-.694 4.732-1.352 9.227-2.01 13.776h8.167V25.472Zm-108.195 57.44c-2.484 3.874-4.878 7.418-7.07 11.09-1.023 1.736-2.174 2.631-4.275 2.375-1.498-.182-3.051-.036-5.061-.036.877-1.462 1.516-2.613 2.229-3.727 2.722-4.257 5.389-8.532 8.203-12.716 1.005-1.48 1.188-2.594.037-4.074-1.407-1.827-2.54-3.855-3.801-5.792-2.283-3.544-2.283-3.544-6.23-4.184v-5.462c2.376 0 4.623-.128 6.815.073.731.073 1.59.858 2.065 1.553 2.356 3.453 4.585 6.979 7.07 10.779 2.302-3.526 4.531-6.742 6.522-10.103 1.042-1.754 2.211-2.595 4.294-2.357 1.516.183 3.051.036 5.17.036-.913 1.426-1.589 2.467-2.247 3.49-2.704 4.165-5.445 8.294-8.039 12.515-.42.676-.548 1.973-.164 2.63 2.046 3.454 4.11 6.925 6.54 10.122.804 1.06 2.649 1.352 4.33 2.138v5.06c-2.32 0-4.549.128-6.741-.073-.731-.073-1.572-.895-2.028-1.59-2.54-3.8-5.006-7.69-7.619-11.747Zm38.604-9.646c.091-.913.146-1.589.219-2.43h6.595v19.458c1.151.164 2.065.292 3.033.438v5.5h-9.519c-.146-.75-.292-1.517-.438-2.32-8.459 4.128-14.324 3.562-18.288-1.663-3.837-5.06-3.599-13.575.511-18.16 4.385-4.878 10.414-5.207 17.887-.823ZM201.413 83.48c0 4.257 3.033 7.473 7.107 7.546 4.129.073 7.326-3.252 7.308-7.6-.018-4.24-3.069-7.491-7.107-7.546-4.129-.036-7.308 3.252-7.308 7.6ZM308.145 70.8h6.723v19.457c1.042.164 1.937.292 2.978.457v5.444H308.2v-9.372h-11.382v9.354h-6.815V76.646c-1.151-.164-2.046-.31-3.051-.457V70.8h9.793v9.958h11.382c.018-3.325.018-6.687.018-9.957Zm-47.408-31.479c1.224.073 2.065.128 3.015.183v5.5h-9.72v-9.428H242.76v9.409h-6.979v-19.44c-1.133-.182-1.955-.31-2.924-.474v-5.463h9.756v9.939h11.383v-9.92h6.759c-.018 6.558-.018 13.008-.018 19.694Zm24.937 45.875h-20.097c.347 2.832 1.973 4.586 4.312 5.353 3.763 1.224 7.106.292 9.719-3.07 1.699 1.115 3.325 2.175 4.951 3.234-2.923 5.847-12.021 7.528-17.959 4.952-6.467-2.814-9.665-9.702-7.509-16.315 2.156-6.596 9.464-10.542 16.516-8.934 6.815 1.553 11.071 7.655 10.067 14.78Zm-7.199-4.312c-.895-3.562-3.416-5.316-6.833-4.969-2.978.31-5.298 2.393-5.426 4.97h12.259Zm-61.44-35.224c-7.911.019-13.995-5.736-13.995-13.3 0-7.509 6.102-13.392 13.922-13.428 7.837-.019 13.976 5.846 13.994 13.373.037 7.6-5.937 13.319-13.921 13.355Zm7.143-13.282c.018-4.421-3.087-7.655-7.271-7.6-4.038.055-7.125 3.307-7.162 7.509-.036 4.275 3.234 7.655 7.344 7.618 4.02-.018 7.071-3.27 7.089-7.527Zm167.26 37.764c7.875.055 13.867 5.92 13.812 13.52-.055 7.453-6.358 13.318-14.195 13.19-7.856-.128-13.922-6.084-13.812-13.574.091-7.527 6.211-13.191 14.195-13.136Zm-.128 5.737c-4.147-.037-7.308 3.27-7.289 7.618.018 4.239 3.087 7.472 7.143 7.509 4.02.036 7.199-3.18 7.29-7.381.091-4.312-3.033-7.71-7.144-7.746Zm57.604-5.737c7.892-.018 14.031 5.755 14.086 13.282.055 7.473-6.102 13.374-13.976 13.428-7.82.055-14.013-5.828-14.032-13.336-.036-7.582 5.956-13.337 13.922-13.374Zm-7.144 13.374c.019 4.275 3.051 7.472 7.126 7.508 4.129.037 7.344-3.343 7.308-7.636-.037-4.202-3.179-7.49-7.18-7.51-4.184-.017-7.272 3.235-7.254 7.638Zm-89.758-6.998a127.234 127.234 0 0 0-2.942-.2v-5.445h9.519v8.568c4.184 1.096 4.878.84 6.906-2.393.457-.73.913-1.443 1.37-2.174 3.033-4.823 3.471-5.006 9.811-3.873-2.174 3.47-4.239 6.887-6.449 10.212-.822 1.225-.859 2.156-.037 3.435 2.412 3.709 4.677 7.49 7.272 11.711-2.43 0-4.367.11-6.285-.055-.695-.073-1.498-.712-1.919-1.315-1.388-2.046-2.85-4.093-3.873-6.34-1.37-2.978-3.471-3.635-6.632-2.777v10.286h-6.741v-19.64Zm-5.555 12.314c-3.434 6.943-11.217 9.774-18.324 6.924-6.614-2.63-10.012-9.737-7.856-16.388 2.119-6.558 9.463-10.541 16.534-8.988 6.632 1.461 10.267 6.01 9.409 11.912h-6.267c-.712-4.477-2.32-6.23-5.81-6.431-3.434-.202-6.412 1.918-7.344 5.225-1.023 3.617.438 7.435 3.471 9.098a7.046 7.046 0 0 0 8.825-1.772c.931-1.133 1.699-1.407 3.014-.877 1.352.566 2.795.859 4.348 1.297Zm85.813-5.974h-5.993v-6.303h-8.605v19.603h-6.759V76.555c-1.279-.11-2.339-.202-3.545-.311V70.78h24.92c-.018 3.928-.018 7.893-.018 12.077Z" fill="#79378A"/></svg>