<svg width="256" height="516" fill="none" xmlns="http://www.w3.org/2000/svg"><path opacity=".5" d="M20.395 22.395h22.526V44.79h22.395v22.395h22.395V89.71H65.316v22.395H42.921V134.5H20.395v22.525H-2V89.711h22.395V67.185H-2V0h22.395v22.395Zm0 358.973h22.526v22.395h22.395v22.395h22.395v22.526H65.316v22.395H42.921v22.395H20.395V516H-2v-67.316h22.395v-22.526H-2v-67.315h22.395v22.525ZM87.71 134.5H65.315v22.395H42.92v22.395H20.525v22.395H-1.87v112.237h22.395v22.395H42.92v22.395h22.395v22.395H87.71v-22.395h22.395v-22.395H132.5v-22.395h-22.395v-22.395H87.71v-22.395H65.315v-22.395H87.71v-22.395h22.395v-22.395H132.5v-22.395h-22.395v-22.395H87.71V134.5ZM20.394 269.132H42.79v22.395h22.395v22.395H87.58v22.395H65.184v-22.395H42.79v-22.395H20.394v-22.395Zm44.921-89.711H87.71v22.395H65.315v22.395H42.92v22.395H20.525v-22.395H42.92v-22.395h22.395v-22.395Z" fill="#fff"/><path opacity=".5" d="M110.106 269.132v-22.395H132.5v22.395h-22.394Zm44.92-22.395v-22.395h-22.395v22.395h22.395Zm-22.395 22.395v22.395h22.395v-22.395h-22.395Zm56.053 44.921h-22.395v22.395h-22.395v22.395h-22.395v22.395H99.105v22.395h22.394v22.395h22.395v22.656h22.395v22.395h22.395v-22.395h22.395V426.29h22.526v-22.395H256V381.5h-22.395v-22.395H211.21V336.71h-22.526v-22.657Zm-22.395 44.79h22.395v22.395h22.395v22.395h-22.395v22.395h-22.395v-22.395h-22.395v-22.395h22.395v-22.395Zm0 44.921v-22.395h22.395v22.395h-22.395Z" fill="#fff"/></svg>