<svg width="41" height="24" fill="none" xmlns="http://www.w3.org/2000/svg"><path d="M40 10.846v2.482s-2.443 1.987-7.984 1.387a55.575 55.575 0 0 1-4.2.413 31.8 31.8 0 0 0-.239 2.695c-.092 2.309.959 5.177.959 5.177h-3.257l-1.996-7.244v-.008c-1.724.658-4.753 1.622-7.367 1.462-3.913-.254-6.46-2.588-6.75-2.789 0 0-.393 2.589.395 4.63.788 2.028 1.155 2.708 1.155 2.708H7.381l-1.81-3.226c-.248.19-.503.365-.764.518-.538 1.494-.486 3.175-.446 3.949H1.078l.288-5.937 1.209-1.534S.316 12.78 1.209 8.458c.155-.746.41-1.444.742-2.09C3.7 2.973 7.598 1.012 10.467 1c2.061 0 3.94.32 5.515.654 1.379.293 2.535.613 3.362.747.788.12 2.061.16 3.375.173 1.667.027 3.374.014 4.228.094 1.68.16 4.263 1.092 6.27 2.237 1.078-.61 2.503-1.167 4.078-1.13.535.543-.164 2.414-1.154 3.55 1.22 1.481 2.034 3.067 3.859 3.521Z" fill="#fff"/><path d="M36.14 7.324v.002M9.168 14.422c.289.2 2.836 2.534 6.75 2.788 2.613.16 5.642-.804 7.366-1.462M9.167 14.422s-.394 2.588.394 4.629c.788 2.028 1.155 2.708 1.155 2.708H7.381l-1.81-3.226m3.596-4.112 1.851-2.841m-1.851 2.84c-.802 1.16-2.07 2.94-3.596 4.112M4.36 23c-.04-.774-.092-2.455.446-3.95.26-.152.516-.326.764-.517M4.36 23H1.078m3.283 0H1.078m0 0 .288-5.937 1.209-1.534S.316 12.78 1.209 8.458c.155-.746.41-1.444.742-2.09M33.224 4.91a.291.291 0 0 0-.006-.004M23.073 11.78l.21 3.968m4.86-2.74s-.17.9-.327 2.12m3.858-5.31c.526 0 1.182.08 1.878-.4.644-.44.67-.6 1.957-1.507a3.64 3.64 0 0 0 .632-.585m-4.952-.936s.78-.777 2.029-1.485M1.577 2.881S.936 5.087 1.95 6.37m.006.008a1.5 1.5 0 0 1-.006-.008m34.19.957c1.22 1.48 2.034 3.067 3.859 3.52v2.482s-2.443 1.987-7.984 1.387a55.575 55.575 0 0 1-4.2.413m8.325-7.802c.99-1.137 1.689-3.008 1.154-3.551-1.575-.037-3 .52-4.077 1.13m0 0c-2.008-1.145-4.592-2.077-6.27-2.237-.855-.08-2.562-.067-4.23-.094-1.313-.013-2.586-.053-3.374-.173-.828-.134-1.983-.454-3.362-.747C14.406 1.32 12.528 1 10.467 1 7.597 1.011 3.7 2.972 1.95 6.369m21.332 9.379v.008L25.28 23h3.257s-1.05-2.868-.959-5.177a31.8 31.8 0 0 1 .24-2.695" stroke="#72D0CA" stroke-width="1.5" stroke-linecap="round" stroke-linejoin="round"/></svg>