<svg width="22" height="16" fill="none" xmlns="http://www.w3.org/2000/svg"><path d="M6.455 15h5.507c3.813 0 6.401-3.069 6.308-7 0-3.836-2.495-7-6.308-7H6.455" stroke="#72D0CA" stroke-width="1.5" stroke-miterlimit="10"/><path d="M6.455 15C3.45 15 1 12.068 1 8.473v-.946C1 3.932 3.45 1 6.455 1c3.004 0 5.454 2.932 5.454 6.527v.946c0 3.69-2.45 6.527-5.454 6.527Zm12.818-5.374-1-.522V6.866l1-.523c.818-.298 1.727.15 1.727.896V8.73c0 .746-1 1.269-1.727.895Z" stroke="#72D0CA" stroke-width="1.5" stroke-miterlimit="10"/><path d="M7.364 12.375c1.004 0 1.818-.784 1.818-1.75s-.814-1.75-1.818-1.75-1.818.784-1.818 1.75.814 1.75 1.818 1.75Z" fill="#72D0CA"/></svg>