<svg width="1431" height="862" viewBox="0 0 1431 862" fill="none" xmlns="http://www.w3.org/2000/svg">
<path d="M-11.5 0.5C-12.0523 0.5 -12.5 0.947715 -12.5 1.5C-12.5 2.05228 -12.0523 2.5 -11.5 2.5V0.5ZM520 110.07L519.125 110.554L520 110.07ZM704.046 219.64H775.551V217.64H704.046V219.64ZM912.867 178.747L968.227 142.567L967.133 140.893L911.773 177.073L912.867 178.747ZM1104.45 102H1180V100H1104.45V102ZM1429 351V432H1431V351H1429ZM1180 681H1065V683H1180V681ZM335.954 0.5H-11.5V2.5H335.954V0.5ZM1065 681C965.036 681 884 762.036 884 862H886C886 763.141 966.141 683 1065 683V681ZM1429 432C1429 569.519 1317.52 681 1180 681V683C1318.62 683 1431 570.623 1431 432H1429ZM1180 102C1317.52 102 1429 213.481 1429 351H1431C1431 212.377 1318.62 100 1180 100V102ZM968.227 142.567C1008.73 116.097 1056.06 102 1104.45 102V100C1055.68 100 1007.96 114.21 967.133 140.893L968.227 142.567ZM775.551 219.64C824.324 219.64 872.04 205.43 912.867 178.747L911.773 177.073C871.271 203.543 823.935 217.64 775.551 217.64V219.64ZM519.125 110.554C556.32 177.859 627.147 219.64 704.046 219.64V217.64C627.875 217.64 557.719 176.254 520.875 109.586L519.125 110.554ZM520.875 109.586C483.68 42.2811 412.853 0.5 335.954 0.5V2.5C412.125 2.5 482.281 43.8856 519.125 110.554L520.875 109.586Z" fill="#C6202C"/>
</svg>
