<svg width="335" height="456" viewBox="0 0 335 456" fill="none" xmlns="http://www.w3.org/2000/svg">
<path d="M0 0.352696C-0.357496 0.352696 -0.647304 0.642504 -0.647304 1C-0.647304 1.3575 -0.357496 1.6473 0 1.6473V0.352696ZM238 358.731V358.084V358.731ZM284 358.731V359.378V358.731ZM104.46 20.7641L119.656 40.3677L120.679 39.5746L105.483 19.971L104.46 20.7641ZM159.685 59.986H189.634V58.6914H159.685V59.986ZM218.729 50.7948L240.704 35.3717L239.961 34.3121L217.985 49.7351L218.729 50.7948ZM269.056 26.4155H284V25.1209H269.056V26.4155ZM333.353 75.7682V308.731H334.647V75.7682H333.353ZM284 358.084L238 358.084V359.378L284 359.378V358.084ZM187.353 408.731V456H188.647V408.731H187.353ZM65.4535 0.352696H0V1.6473H65.4535V0.352696ZM238 358.084C210.028 358.084 187.353 380.759 187.353 408.731H188.647C188.647 381.474 210.743 359.378 238 359.378V358.084ZM333.353 308.731C333.353 335.988 311.257 358.084 284 358.084V359.378C311.972 359.378 334.647 336.703 334.647 308.731H333.353ZM284 26.4155C311.257 26.4155 333.353 48.5114 333.353 75.7682H334.647C334.647 47.7964 311.972 25.1209 284 25.1209V26.4155ZM240.704 35.3717C249.01 29.5429 258.91 26.4155 269.056 26.4155V25.1209C258.643 25.1209 248.484 28.3303 239.961 34.3121L240.704 35.3717ZM189.634 59.986C200.046 59.986 210.206 56.7766 218.729 50.7948L217.985 49.7351C209.68 55.564 199.78 58.6914 189.634 58.6914V59.986ZM119.656 40.3677C129.249 52.7434 144.027 59.986 159.685 59.986V58.6914C144.427 58.6914 130.027 51.6339 120.679 39.5746L119.656 40.3677ZM105.483 19.971C95.8898 7.59532 81.1119 0.352696 65.4535 0.352696V1.6473C80.7116 1.6473 95.1118 8.70479 104.46 20.7641L105.483 19.971Z" fill="#C6202C"/>
</svg>
