<svg width="88" height="48" viewBox="0 0 88 48" fill="none" xmlns="http://www.w3.org/2000/svg">
<path d="M88 32.0016L88 24.0012L80.0002 24.0012L80.0002 16.0008L72.0004 16.0008L72.0004 8.0004L64.0006 8.0004L64.0006 1.11902e-05L24.0017 4.19659e-06L24.0017 8.00039L15.9972 8.00039L15.9972 16.0008L7.99978 16.0008L7.99978 24.0012L-4.1965e-06 24.0012L-5.59533e-06 32.0016L7.99977 32.0016L7.99977 40.0019L15.9972 40.0019L15.9972 48L23.997 48L23.997 40.0019L31.9968 40.0019L31.9968 32.0016L39.9966 32.0016L39.9966 24.0012L47.9964 24.0012L47.9964 32.0016L55.9962 32.0016L55.9962 40.0019L63.996 40.0019L63.996 48L71.9957 48L71.9957 40.0019L79.9955 40.0019L79.9955 32.0016L88 32.0016ZM40.0013 8.00039L40.0013 16.0008L32.0015 16.0008L32.0015 24.0012L24.0017 24.0012L24.0017 32.0016L15.9972 32.0016L15.9972 24.0012L23.997 24.0012L23.997 16.0008L31.9968 16.0008L31.9968 8.00039L40.0013 8.00039ZM72.0004 24.0012L72.0004 32.0016L64.0006 32.0016L64.0006 24.0012L56.0009 24.0012L56.0009 16.0008L48.0011 16.0008L48.0011 8.0004L56.0009 8.0004L56.0009 16.0008L64.0006 16.0008L64.0006 24.0012L72.0004 24.0012Z" fill="white" fill-opacity="0.4"/>
</svg>
