<svg width="84" height="84" viewBox="0 0 84 84" fill="none" xmlns="http://www.w3.org/2000/svg">
<circle cx="42" cy="42" r="41" fill="#5E8D66" stroke="white" stroke-width="2"/>
<path d="M28.0241 31.5105C28.1074 30.5909 28.4618 29.8235 29.1288 29.1597L31.7135 26.5877C32.1165 26.2005 32.5612 26 32.992 26C33.4158 26 33.8466 26.2005 34.2426 26.6015C34.7081 27.0302 35.1459 27.4796 35.6184 27.9567C35.8546 28.1987 36.0978 28.4407 36.341 28.6896L38.4115 30.7499C38.8423 31.1786 39.0646 31.6142 39.0646 32.0429C39.0646 32.4715 38.8423 32.9071 38.4115 33.3358C38.1961 33.5501 37.9807 33.7714 37.7653 33.9857C37.1191 34.6356 36.5147 35.251 35.8476 35.8387C35.8337 35.8525 35.8268 35.8594 35.8129 35.8732C35.2362 36.4471 35.3265 36.9933 35.4655 37.4082C35.4724 37.4289 35.4794 37.4427 35.4863 37.4635C36.0213 38.7426 36.7648 39.9594 37.9251 41.4114C40.0096 43.9696 42.2052 45.9539 44.6231 47.4819C44.9219 47.6755 45.2415 47.8276 45.5403 47.9797C45.8182 48.118 46.0753 48.2494 46.3045 48.3946C46.3323 48.4084 46.3532 48.4222 46.381 48.436C46.6103 48.5536 46.8326 48.6089 47.0549 48.6089C47.6108 48.6089 47.9721 48.2563 48.0902 48.1387L50.6888 45.5529C51.0918 45.1519 51.5295 44.9375 51.9603 44.9375C52.4884 44.9375 52.9191 45.2625 53.1901 45.5529L57.3798 49.7151C58.2136 50.5448 58.2067 51.4437 57.359 52.3217C57.0672 52.6329 56.7615 52.9302 56.4349 53.2413C55.9485 53.7115 55.4413 54.1954 54.9827 54.7416C54.1837 55.599 53.2318 56 52.002 56C51.8839 56 51.7588 55.9931 51.6407 55.9862C49.3617 55.841 47.2425 54.956 45.6514 54.2023C41.3297 52.1212 37.536 49.1689 34.3885 45.4215C31.7969 42.3171 30.0529 39.4271 28.8995 36.3296C28.1839 34.4282 27.9129 32.9002 28.0241 31.5105Z" fill="white"/>
</svg>
