<svg width="361" height="120" viewBox="0 0 361 120" fill="none" xmlns="http://www.w3.org/2000/svg">
<g clip-path="url(#clip0_1103_3147)">
<g filter="url(#filter0_b_1103_3147)">
<path fill-rule="evenodd" clip-rule="evenodd" d="M361 15C361 6.71573 354.284 0 346 0H15C6.71573 0 0 6.71573 0 15V135C0 143.284 6.71572 150 15 150H346C354.284 150 361 143.284 361 135V97.3192C361 91.3571 357.21 86.1983 352.803 82.1832C346.78 76.6963 343 68.7896 343 60C343 51.2104 346.78 43.3037 352.803 37.8168C357.21 33.8017 361 28.6429 361 22.6808V15Z" fill="#D5DAD3" fill-opacity="0.9"/>
</g>
</g>
<defs>
<filter id="filter0_b_1103_3147" x="-7" y="-7" width="375" height="164" filterUnits="userSpaceOnUse" color-interpolation-filters="sRGB">
<feFlood flood-opacity="0" result="BackgroundImageFix"/>
<feGaussianBlur in="BackgroundImageFix" stdDeviation="3.5"/>
<feComposite in2="SourceAlpha" operator="in" result="effect1_backgroundBlur_1103_3147"/>
<feBlend mode="normal" in="SourceGraphic" in2="effect1_backgroundBlur_1103_3147" result="shape"/>
</filter>
<clipPath id="clip0_1103_3147">
<rect width="361" height="120" fill="white"/>
</clipPath>
</defs>
</svg>
