<svg width="102" height="94" viewBox="0 0 102 94" fill="none" xmlns="http://www.w3.org/2000/svg">
<path d="M102 28.824C102 34.5607 100.57 41.1872 97.2645 47.4624C91.7554 57.8353 84.4178 66.8268 76.1425 75.0923C69.9301 81.2973 62.5691 87.1745 55.3487 92.56C52.7699 94.48 49.2535 94.48 46.6748 92.56C39.4544 87.1979 32.1168 81.3207 25.8809 75.0923C17.6056 66.8268 10.268 57.8353 4.75891 47.4624C1.43002 41.1872 0 34.5607 0 28.824C0 11.5671 13.8782 0 29.0692 0C39.384 0 48.5268 8.49969 51.0117 11.9417C53.4732 8.49969 62.6394 0 72.9543 0C88.1453 0 102 11.5671 102 28.824Z" fill="#9946AE"/>
</svg>
