<svg width="1667" height="1047" viewBox="0 0 1667 1047" fill="none" xmlns="http://www.w3.org/2000/svg">
<path d="M-11.5 91.5C-12.0523 91.5 -12.5 91.9477 -12.5 92.5C-12.5 93.0523 -12.0523 93.5 -11.5 93.5V91.5ZM520 201.07L519.125 201.554L520 201.07ZM704.046 310.64H775.551V308.64H704.046V310.64ZM912.867 269.747L968.227 233.567L967.133 231.893L911.773 268.073L912.867 269.747ZM1104.45 193H1180V191H1104.45V193ZM1429 442V523H1431V442H1429ZM1180 772H1065V774H1180V772ZM335.954 91.5H-11.5V93.5H335.954V91.5ZM1065 772C965.036 772 884 853.036 884 953H886C886 854.141 966.141 774 1065 774V772ZM1429 523C1429 660.519 1317.52 772 1180 772V774C1318.62 774 1431 661.623 1431 523H1429ZM1180 193C1317.52 193 1429 304.481 1429 442H1431C1431 303.377 1318.62 191 1180 191V193ZM968.227 233.567C1008.73 207.097 1056.06 193 1104.45 193V191C1055.68 191 1007.96 205.21 967.133 231.893L968.227 233.567ZM775.551 310.64C824.324 310.64 872.04 296.43 912.867 269.747L911.773 268.073C871.271 294.543 823.935 308.64 775.551 308.64V310.64ZM519.125 201.554C556.32 268.859 627.147 310.64 704.046 310.64V308.64C627.875 308.64 557.719 267.254 520.875 200.586L519.125 201.554ZM520.875 200.586C483.68 133.281 412.853 91.5 335.954 91.5V93.5C412.125 93.5 482.281 134.886 519.125 201.554L520.875 200.586Z" fill="#C6202C"/>
<path d="M264.058 10.486H263.72V18H260.158V0.189998H263.72V7.314H264.006C264.925 7.314 265.618 7.17533 266.086 6.898C266.554 6.60333 267.057 6.014 267.594 5.13L270.61 0.189998H274.432L271.416 5.104C270.983 5.81467 270.575 6.43867 270.194 6.976C269.83 7.496 269.475 7.95533 269.128 8.354L275.03 18H270.948L266.216 10.252C265.887 10.3387 265.54 10.3993 265.176 10.434C264.829 10.4687 264.457 10.486 264.058 10.486ZM288.582 18H285.54L285.15 16.388C284.717 16.9947 284.188 17.4627 283.564 17.792C282.94 18.104 282.273 18.26 281.562 18.26C279.967 18.26 278.633 17.6707 277.558 16.492C276.501 15.296 275.972 13.814 275.972 12.046C275.972 10.2607 276.501 8.77867 277.558 7.6C278.633 6.404 279.967 5.806 281.562 5.806C282.29 5.806 282.957 5.97067 283.564 6.3C284.188 6.612 284.717 7.07133 285.15 7.678L285.54 6.066H288.582V18ZM279.352 12.046C279.352 12.9473 279.629 13.7013 280.184 14.308C280.756 14.8973 281.467 15.192 282.316 15.192C283.165 15.192 283.867 14.8973 284.422 14.308C284.994 13.7013 285.28 12.9473 285.28 12.046C285.28 11.1273 284.994 10.3733 284.422 9.784C283.867 9.17733 283.165 8.874 282.316 8.874C281.467 8.874 280.756 9.17733 280.184 9.784C279.629 10.3733 279.352 11.1273 279.352 12.046ZM299.267 6.066H302.725V18H299.267V12.956C298.747 13.4413 298.201 13.7967 297.629 14.022C297.074 14.2473 296.459 14.36 295.783 14.36C294.431 14.36 293.339 13.918 292.507 13.034C291.692 12.15 291.285 10.98 291.285 9.524V6.066H294.743V9.03C294.743 9.706 294.925 10.2433 295.289 10.642C295.67 11.0233 296.182 11.214 296.823 11.214C297.308 11.214 297.742 11.1273 298.123 10.954C298.522 10.7633 298.903 10.4687 299.267 10.07V6.066ZM314.813 14.178L316.503 16.362C315.879 16.986 315.151 17.4627 314.319 17.792C313.505 18.104 312.621 18.26 311.667 18.26C309.847 18.26 308.331 17.6707 307.117 16.492C305.921 15.3133 305.323 13.8313 305.323 12.046C305.323 10.278 305.904 8.796 307.065 7.6C308.227 6.404 309.674 5.806 311.407 5.806C313.141 5.806 314.588 6.404 315.749 7.6C316.911 8.796 317.491 10.278 317.491 12.046C317.491 12.2887 317.483 12.514 317.465 12.722C317.448 12.93 317.431 13.086 317.413 13.19H308.547C308.755 13.9007 309.137 14.464 309.691 14.88C310.246 15.296 310.905 15.504 311.667 15.504C312.274 15.504 312.82 15.4 313.305 15.192C313.808 14.984 314.311 14.646 314.813 14.178ZM311.407 8.562C310.749 8.562 310.168 8.76133 309.665 9.16C309.163 9.54133 308.807 10.07 308.599 10.746H314.215C314.007 10.07 313.652 9.54133 313.149 9.16C312.664 8.76133 312.083 8.562 311.407 8.562ZM325.505 8.874C324.656 8.874 323.945 9.17733 323.373 9.784C322.819 10.3733 322.541 11.1273 322.541 12.046C322.541 12.9473 322.819 13.7013 323.373 14.308C323.945 14.8973 324.656 15.192 325.505 15.192C325.973 15.192 326.415 15.0967 326.831 14.906C327.265 14.698 327.681 14.3947 328.079 13.996L330.289 16.232C329.631 16.9253 328.903 17.4367 328.105 17.766C327.325 18.0953 326.459 18.26 325.505 18.26C323.685 18.26 322.169 17.6707 320.955 16.492C319.759 15.3133 319.161 13.8313 319.161 12.046C319.161 10.2433 319.759 8.75267 320.955 7.574C322.151 6.39533 323.668 5.806 325.505 5.806C326.337 5.806 327.135 5.97067 327.897 6.3C328.677 6.612 329.388 7.06267 330.029 7.652L327.819 9.888C327.455 9.54133 327.083 9.29 326.701 9.134C326.32 8.96067 325.921 8.874 325.505 8.874ZM335.295 9.03H331.317V6.066H342.705V9.03H338.727V18H335.295V9.03ZM351.191 18H345.028V6.066H351.633C352.95 6.066 353.999 6.34333 354.779 6.898C355.576 7.45267 355.975 8.198 355.975 9.134C355.975 9.74067 355.784 10.278 355.403 10.746C355.021 11.214 354.467 11.578 353.739 11.838C354.623 12.0807 355.299 12.4447 355.767 12.93C356.252 13.4153 356.495 13.996 356.495 14.672C356.495 15.7467 356.035 16.57 355.117 17.142C354.215 17.714 352.907 18 351.191 18ZM352.595 9.576C352.595 9.22933 352.439 8.96933 352.127 8.796C351.815 8.60533 351.355 8.51 350.749 8.51H348.383V10.694H350.749C351.355 10.694 351.815 10.5987 352.127 10.408C352.439 10.2173 352.595 9.94 352.595 9.576ZM353.037 14.36C353.037 13.944 352.855 13.6407 352.491 13.45C352.144 13.242 351.607 13.138 350.879 13.138H348.383V15.556H350.879C351.607 15.556 352.144 15.4607 352.491 15.27C352.855 15.062 353.037 14.7587 353.037 14.36ZM364.683 5.806C366.52 5.806 368.037 6.39533 369.233 7.574C370.429 8.75267 371.027 10.2433 371.027 12.046C371.027 13.8313 370.42 15.3133 369.207 16.492C368.011 17.6707 366.503 18.26 364.683 18.26C362.863 18.26 361.346 17.6707 360.133 16.492C358.937 15.3133 358.339 13.8313 358.339 12.046C358.339 10.2433 358.937 8.75267 360.133 7.574C361.329 6.39533 362.846 5.806 364.683 5.806ZM364.683 8.874C363.834 8.874 363.123 9.17733 362.551 9.784C361.996 10.3733 361.719 11.1273 361.719 12.046C361.719 12.9473 361.996 13.7013 362.551 14.308C363.123 14.8973 363.834 15.192 364.683 15.192C365.532 15.192 366.234 14.8973 366.789 14.308C367.361 13.7013 367.647 12.9473 367.647 12.046C367.647 11.1273 367.361 10.3733 366.789 9.784C366.234 9.17733 365.532 8.874 364.683 8.874Z" fill="#2A2A2A"/>
<circle cx="315" cy="93" r="50" fill="white"/>
<g filter="url(#filter0_d_103_802)">
<circle cx="315" cy="93" r="15" fill="#C6202C"/>
</g>
<path d="M309 99L321 87" stroke="white" stroke-width="1.5" stroke-linejoin="round"/>
<path d="M309 87L321 99" stroke="white" stroke-width="1.5" stroke-linejoin="round"/>
<g filter="url(#filter1_b_103_802)">
<path fill-rule="evenodd" clip-rule="evenodd" d="M303 48C303 39.7157 296.284 33 288 33H-43C-51.2843 33 -58 39.7157 -58 48V168C-58 176.284 -51.2843 183 -43 183H288C296.284 183 303 176.284 303 168V130.319C303 124.357 299.21 119.198 294.803 115.183C288.78 109.696 285 101.79 285 93C285 84.2104 288.78 76.3037 294.803 70.8168C299.21 66.8017 303 61.6429 303 55.6808V48Z" fill="#D5DAD3" fill-opacity="0.9"/>
</g>
<path d="M44 65.0016L44 57.0012L36.0002 57.0012L36.0002 49.0008L28.0004 49.0008L28.0004 41.0004L20.0006 41.0004L20.0006 33L-19.9983 33L-19.9983 41.0004L-28.0028 41.0004L-28.0028 49.0008L-36.0002 49.0008L-36.0002 57.0012L-44 57.0012L-44 65.0016L-36.0002 65.0016L-36.0002 73.0019L-28.0028 73.0019L-28.0028 81L-20.003 81L-20.003 73.0019L-12.0032 73.0019L-12.0032 65.0016L-4.00341 65.0016L-4.00341 57.0012L3.99637 57.0012L3.99637 65.0016L11.9962 65.0016L11.9962 73.0019L19.996 73.0019L19.996 81L27.9957 81L27.9957 73.0019L35.9955 73.0019L35.9955 65.0016L44 65.0016ZM-3.99873 41.0004L-3.99873 49.0008L-11.9985 49.0008L-11.9985 57.0012L-19.9983 57.0012L-19.9983 65.0016L-28.0028 65.0016L-28.0028 57.0012L-20.003 57.0012L-20.003 49.0008L-12.0032 49.0008L-12.0032 41.0004L-3.99873 41.0004ZM28.0004 57.0012L28.0004 65.0016L20.0006 65.0016L20.0006 57.0012L12.0009 57.0012L12.0009 49.0008L4.00106 49.0008L4.00107 41.0004L12.0009 41.0004L12.0009 49.0008L20.0006 49.0008L20.0006 57.0012L28.0004 57.0012Z" fill="white" fill-opacity="0.4"/>
<circle cx="740" cy="310" r="50" fill="white"/>
<g filter="url(#filter2_d_103_802)">
<circle cx="740" cy="310" r="15" fill="#C6202C"/>
</g>
<path d="M734 316L746 304" stroke="white" stroke-width="1.5" stroke-linejoin="round"/>
<path d="M734 304L746 316" stroke="white" stroke-width="1.5" stroke-linejoin="round"/>
<path d="M685.746 220.362H680.52V217.19H694.534V220.362H689.308V235H685.746V220.362ZM708.215 229.046C708.215 230.814 707.677 232.296 706.603 233.492C705.545 234.671 704.219 235.26 702.625 235.26C701.897 235.26 701.229 235.104 700.623 234.792C700.016 234.48 699.496 234.021 699.063 233.414V240.2H695.605V223.066H698.647L699.037 224.678C699.47 224.071 699.99 223.612 700.597 223.3C701.221 222.971 701.897 222.806 702.625 222.806C704.219 222.806 705.545 223.404 706.603 224.6C707.677 225.779 708.215 227.261 708.215 229.046ZM701.871 225.874C701.021 225.874 700.311 226.177 699.739 226.784C699.184 227.373 698.907 228.127 698.907 229.046C698.907 229.947 699.184 230.701 699.739 231.308C700.311 231.897 701.021 232.192 701.871 232.192C702.72 232.192 703.422 231.897 703.977 231.308C704.549 230.701 704.835 229.947 704.835 229.046C704.835 228.127 704.549 227.373 703.977 226.784C703.422 226.177 702.72 225.874 701.871 225.874ZM722.592 235H719.55L719.16 233.388C718.726 233.995 718.198 234.463 717.574 234.792C716.95 235.104 716.282 235.26 715.572 235.26C713.977 235.26 712.642 234.671 711.568 233.492C710.51 232.296 709.982 230.814 709.982 229.046C709.982 227.261 710.51 225.779 711.568 224.6C712.642 223.404 713.977 222.806 715.572 222.806C716.3 222.806 716.967 222.971 717.574 223.3C718.198 223.612 718.726 224.071 719.16 224.678L719.55 223.066H722.592V235ZM713.362 229.046C713.362 229.947 713.639 230.701 714.194 231.308C714.766 231.897 715.476 232.192 716.326 232.192C717.175 232.192 717.877 231.897 718.432 231.308C719.004 230.701 719.29 229.947 719.29 229.046C719.29 228.127 719.004 227.373 718.432 226.784C717.877 226.177 717.175 225.874 716.326 225.874C715.476 225.874 714.766 226.177 714.194 226.784C713.639 227.373 713.362 228.127 713.362 229.046ZM739.127 238.718H736.059V235H727.713V238.718H724.645V232.296H726.101L729.975 223.066H733.693L737.645 232.296H739.127V238.718ZM731.795 225.926L729.273 232.296H734.343L731.795 225.926ZM752.543 235H749.371V227.772L744.379 235H741.181V223.066H744.379V230.268L749.371 223.066H752.543V235ZM769.556 238.718H766.332V235H755.984V223.066H759.416V232.036H763.94V223.066H767.372V232.036H769.556V238.718ZM782.986 235H779.814V227.772L774.822 235H771.624V223.066H774.822V230.268L779.814 223.066H782.986V235ZM797.789 235H794.617V227.772L789.625 235H786.427V223.066H789.625V230.268L794.617 223.066H797.789V235Z" fill="#2A2A2A"/>
<g filter="url(#filter3_b_103_802)">
<path fill-rule="evenodd" clip-rule="evenodd" d="M728 265C728 256.716 721.284 250 713 250H382C373.716 250 367 256.716 367 265V385C367 393.284 373.716 400 382 400H713C721.284 400 728 393.284 728 385V347.319C728 341.357 724.21 336.198 719.803 332.183C713.78 326.696 710 318.79 710 310C710 301.21 713.78 293.304 719.803 287.817C724.21 283.802 728 278.643 728 272.681V265Z" fill="#D5DAD3" fill-opacity="0.9"/>
</g>
<path d="M467 282.002L467 274.001L459 274.001L459 266.001L451 266.001L451 258L443.001 258L443.001 250L403.002 250L403.002 258L394.997 258L394.997 266.001L387 266.001L387 274.001L379 274.001L379 282.002L387 282.002L387 290.002L394.997 290.002L394.997 298L402.997 298L402.997 290.002L410.997 290.002L410.997 282.002L418.997 282.002L418.997 274.001L426.996 274.001L426.996 282.002L434.996 282.002L434.996 290.002L442.996 290.002L442.996 298L450.996 298L450.996 290.002L458.996 290.002L458.996 282.002L467 282.002ZM419.001 258L419.001 266.001L411.001 266.001L411.001 274.001L403.002 274.001L403.002 282.002L394.997 282.002L394.997 274.001L402.997 274.001L402.997 266.001L410.997 266.001L410.997 258L419.001 258ZM451 274.001L451 282.002L443.001 282.002L443.001 274.001L435.001 274.001L435.001 266.001L427.001 266.001L427.001 258L435.001 258L435.001 266.001L443.001 266.001L443.001 274.001L451 274.001Z" fill="white" fill-opacity="0.4"/>
<g filter="url(#filter4_d_103_802)">
<circle cx="1135" cy="198" r="50" fill="white"/>
</g>
<g filter="url(#filter5_d_103_802)">
<circle cx="1135" cy="198" r="30" fill="white"/>
<circle cx="1135" cy="198" r="29.55" stroke="white" stroke-width="0.9"/>
</g>
<g filter="url(#filter6_d_103_802)">
<circle cx="1135" cy="198" r="15" fill="#C6202C"/>
</g>
<path d="M1136.38 198C1136.38 197.448 1135.94 197 1135.38 197H1126.38C1125.83 197 1125.38 197.448 1125.38 198C1125.38 198.552 1125.83 199 1126.38 199H1134.38V207C1134.38 207.552 1134.83 208 1135.38 208C1135.94 208 1136.38 207.552 1136.38 207V198ZM1117.71 217.092L1136.09 198.707L1134.68 197.293L1116.29 215.678L1117.71 217.092Z" fill="white"/>
<path d="M1118.13 111H1114.42L1109.63 97.558L1104.82 111H1101.31L1107.97 93.19H1111.48L1118.13 111ZM1131.63 98.806C1133.46 98.806 1134.98 99.3953 1136.18 100.574C1137.37 101.753 1137.97 103.243 1137.97 105.046C1137.97 106.831 1137.36 108.313 1136.15 109.492C1134.95 110.671 1133.45 111.26 1131.63 111.26C1130.05 111.26 1128.69 110.809 1127.54 109.908C1126.42 109.007 1125.71 107.828 1125.41 106.372H1123.62V111H1120.16V99.066H1123.62V103.408H1125.49C1125.84 102.021 1126.56 100.912 1127.67 100.08C1128.8 99.2307 1130.12 98.806 1131.63 98.806ZM1131.63 101.874C1130.78 101.874 1130.07 102.177 1129.49 102.784C1128.94 103.373 1128.66 104.127 1128.66 105.046C1128.66 105.947 1128.94 106.701 1129.49 107.308C1130.07 107.897 1130.78 108.192 1131.63 108.192C1132.47 108.192 1133.18 107.897 1133.73 107.308C1134.3 106.701 1134.59 105.947 1134.59 105.046C1134.59 104.127 1134.3 103.373 1133.73 102.784C1133.18 102.177 1132.47 101.874 1131.63 101.874ZM1153.7 114.718H1150.63V111H1142.29V114.718H1139.22V108.296H1140.68L1144.55 99.066H1148.27L1152.22 108.296H1153.7V114.718ZM1146.37 101.926L1143.85 108.296H1148.92L1146.37 101.926ZM1167.12 111H1163.95V103.772L1158.96 111H1155.76V99.066H1158.96V106.268L1163.95 99.066H1167.12V111Z" fill="#2A2A2A"/>
<g filter="url(#filter7_b_103_802)">
<path fill-rule="evenodd" clip-rule="evenodd" d="M1123 153C1123 144.716 1116.28 138 1108 138H777C768.716 138 762 144.716 762 153V273C762 281.284 768.716 288 777 288H1108C1116.28 288 1123 281.284 1123 273V235.319C1123 229.357 1119.21 224.198 1114.8 220.183C1108.78 214.696 1105 206.79 1105 198C1105 189.21 1108.78 181.304 1114.8 175.817C1119.21 171.802 1123 166.643 1123 160.681V153Z" fill="#D5DAD3" fill-opacity="0.9"/>
</g>
<path d="M855 170.002L855 162.001L847 162.001L847 154.001L839 154.001L839 146L831.001 146L831.001 138L791.002 138L791.002 146L782.997 146L782.997 154.001L775 154.001L775 162.001L767 162.001L767 170.002L775 170.002L775 178.002L782.997 178.002L782.997 186L790.997 186L790.997 178.002L798.997 178.002L798.997 170.002L806.997 170.002L806.997 162.001L814.996 162.001L814.996 170.002L822.996 170.002L822.996 178.002L830.996 178.002L830.996 186L838.996 186L838.996 178.002L846.996 178.002L846.996 170.002L855 170.002ZM807.001 146L807.001 154.001L799.001 154.001L799.001 162.001L791.002 162.001L791.002 170.002L782.997 170.002L782.997 162.001L790.997 162.001L790.997 154.001L798.997 154.001L798.997 146L807.001 146ZM839 162.001L839 170.002L831.001 170.002L831.001 162.001L823.001 162.001L823.001 154.001L815.001 154.001L815.001 146L823.001 146L823.001 154.001L831.001 154.001L831.001 162.001L839 162.001Z" fill="white" fill-opacity="0.4"/>
<circle cx="1430" cy="474" r="50" fill="white"/>
<g filter="url(#filter8_d_103_802)">
<circle cx="1430" cy="474" r="15" fill="#C6202C"/>
</g>
<path d="M1424 480L1436 468" stroke="white" stroke-width="1.5" stroke-linejoin="round"/>
<path d="M1424 468L1436 480" stroke="white" stroke-width="1.5" stroke-linejoin="round"/>
<path d="M1517.56 450.19H1521.12V468H1517.56V460.824C1516.92 461.101 1516.23 461.318 1515.5 461.474C1514.79 461.63 1514.11 461.708 1513.45 461.708C1511.47 461.708 1509.9 461.136 1508.72 459.992C1507.56 458.831 1506.98 457.288 1506.98 455.364V450.19H1510.54V455.026C1510.54 456.17 1510.85 457.054 1511.47 457.678C1512.1 458.285 1512.97 458.588 1514.1 458.588C1514.74 458.588 1515.35 458.519 1515.92 458.38C1516.51 458.224 1517.06 457.999 1517.56 457.704V450.19ZM1533.66 464.178L1535.35 466.362C1534.72 466.986 1533.99 467.463 1533.16 467.792C1532.35 468.104 1531.46 468.26 1530.51 468.26C1528.69 468.26 1527.17 467.671 1525.96 466.492C1524.76 465.313 1524.17 463.831 1524.17 462.046C1524.17 460.278 1524.75 458.796 1525.91 457.6C1527.07 456.404 1528.52 455.806 1530.25 455.806C1531.98 455.806 1533.43 456.404 1534.59 457.6C1535.75 458.796 1536.33 460.278 1536.33 462.046C1536.33 462.289 1536.32 462.514 1536.31 462.722C1536.29 462.93 1536.27 463.086 1536.26 463.19H1527.39C1527.6 463.901 1527.98 464.464 1528.53 464.88C1529.09 465.296 1529.75 465.504 1530.51 465.504C1531.12 465.504 1531.66 465.4 1532.15 465.192C1532.65 464.984 1533.15 464.646 1533.66 464.178ZM1530.25 458.562C1529.59 458.562 1529.01 458.761 1528.51 459.16C1528 459.541 1527.65 460.07 1527.44 460.746H1533.06C1532.85 460.07 1532.49 459.541 1531.99 459.16C1531.51 458.761 1530.93 458.562 1530.25 458.562ZM1544.35 458.874C1543.5 458.874 1542.79 459.177 1542.22 459.784C1541.66 460.373 1541.38 461.127 1541.38 462.046C1541.38 462.947 1541.66 463.701 1542.22 464.308C1542.79 464.897 1543.5 465.192 1544.35 465.192C1544.82 465.192 1545.26 465.097 1545.67 464.906C1546.11 464.698 1546.52 464.395 1546.92 463.996L1549.13 466.232C1548.47 466.925 1547.74 467.437 1546.95 467.766C1546.17 468.095 1545.3 468.26 1544.35 468.26C1542.53 468.26 1541.01 467.671 1539.8 466.492C1538.6 465.313 1538 463.831 1538 462.046C1538 460.243 1538.6 458.753 1539.8 457.574C1540.99 456.395 1542.51 455.806 1544.35 455.806C1545.18 455.806 1545.98 455.971 1546.74 456.3C1547.52 456.612 1548.23 457.063 1548.87 457.652L1546.66 459.888C1546.3 459.541 1545.92 459.29 1545.54 459.134C1545.16 458.961 1544.76 458.874 1544.35 458.874ZM1554.14 459.03H1550.16V456.066H1561.55V459.03H1557.57V468H1554.14V459.03ZM1575.41 468H1572.01V463.372H1567.3V468H1563.87V456.066H1567.3V460.408H1572.01V456.066H1575.41V468ZM1584.36 455.806C1586.2 455.806 1587.72 456.395 1588.91 457.574C1590.11 458.753 1590.71 460.243 1590.71 462.046C1590.71 463.831 1590.1 465.313 1588.89 466.492C1587.69 467.671 1586.18 468.26 1584.36 468.26C1582.54 468.26 1581.03 467.671 1579.81 466.492C1578.62 465.313 1578.02 463.831 1578.02 462.046C1578.02 460.243 1578.62 458.753 1579.81 457.574C1581.01 456.395 1582.53 455.806 1584.36 455.806ZM1584.36 458.874C1583.51 458.874 1582.8 459.177 1582.23 459.784C1581.68 460.373 1581.4 461.127 1581.4 462.046C1581.4 462.947 1581.68 463.701 1582.23 464.308C1582.8 464.897 1583.51 465.192 1584.36 465.192C1585.21 465.192 1585.91 464.897 1586.47 464.308C1587.04 463.701 1587.33 462.947 1587.33 462.046C1587.33 461.127 1587.04 460.373 1586.47 459.784C1585.91 459.177 1585.21 458.874 1584.36 458.874ZM1598.81 458.874C1597.96 458.874 1597.25 459.177 1596.68 459.784C1596.12 460.373 1595.85 461.127 1595.85 462.046C1595.85 462.947 1596.12 463.701 1596.68 464.308C1597.25 464.897 1597.96 465.192 1598.81 465.192C1599.28 465.192 1599.72 465.097 1600.14 464.906C1600.57 464.698 1600.99 464.395 1601.38 463.996L1603.59 466.232C1602.94 466.925 1602.21 467.437 1601.41 467.766C1600.63 468.095 1599.76 468.26 1598.81 468.26C1596.99 468.26 1595.47 467.671 1594.26 466.492C1593.06 465.313 1592.47 463.831 1592.47 462.046C1592.47 460.243 1593.06 458.753 1594.26 457.574C1595.46 456.395 1596.97 455.806 1598.81 455.806C1599.64 455.806 1600.44 455.971 1601.2 456.3C1601.98 456.612 1602.69 457.063 1603.33 457.652L1601.12 459.888C1600.76 459.541 1600.39 459.29 1600.01 459.134C1599.62 458.961 1599.23 458.874 1598.81 458.874ZM1608.6 459.03H1604.62V456.066H1616.01V459.03H1612.03V468H1608.6V459.03ZM1629.36 464.074C1629.36 465.287 1628.91 466.249 1628.01 466.96C1627.12 467.653 1625.95 468 1624.5 468H1618.33V456.066H1621.77V460.148H1624.39C1625.9 460.148 1627.1 460.503 1628.01 461.214C1628.91 461.907 1629.36 462.861 1629.36 464.074ZM1625.98 464.074C1625.98 463.589 1625.79 463.225 1625.41 462.982C1625.02 462.722 1624.48 462.592 1623.77 462.592H1621.77V465.556H1623.77C1624.48 465.556 1625.02 465.435 1625.41 465.192C1625.79 464.932 1625.98 464.559 1625.98 464.074ZM1518.08 497H1514.91V489.772L1509.91 497H1506.72V485.066H1509.91V492.268L1514.91 485.066H1518.08V497ZM1532.49 484.806C1534.33 484.806 1535.84 485.395 1537.04 486.574C1538.24 487.753 1538.83 489.243 1538.83 491.046C1538.83 492.831 1538.23 494.313 1537.01 495.492C1535.82 496.671 1534.31 497.26 1532.49 497.26C1530.67 497.26 1529.15 496.671 1527.94 495.492C1526.74 494.313 1526.15 492.831 1526.15 491.046C1526.15 489.243 1526.74 487.753 1527.94 486.574C1529.14 485.395 1530.65 484.806 1532.49 484.806ZM1532.49 487.874C1531.64 487.874 1530.93 488.177 1530.36 488.784C1529.8 489.373 1529.53 490.127 1529.53 491.046C1529.53 491.947 1529.8 492.701 1530.36 493.308C1530.93 493.897 1531.64 494.192 1532.49 494.192C1533.34 494.192 1534.04 493.897 1534.6 493.308C1535.17 492.701 1535.45 491.947 1535.45 491.046C1535.45 490.127 1535.17 489.373 1534.6 488.784C1534.04 488.177 1533.34 487.874 1532.49 487.874ZM1544.28 488.03H1540.31V485.066H1551.69V488.03H1547.72V497H1544.28V488.03ZM1557.92 492.32H1557.48V497H1554.02V485.066H1557.48V489.356H1557.94C1558.59 489.356 1559.13 489.209 1559.58 488.914C1560.03 488.602 1560.49 488.073 1560.96 487.328L1562.39 485.066H1566.06L1564.63 487.328C1564.21 488.039 1563.8 488.663 1563.4 489.2C1563.02 489.737 1562.65 490.197 1562.29 490.578L1566.55 497H1562.49L1559.5 492.19C1559.23 492.242 1558.96 492.277 1558.7 492.294C1558.44 492.311 1558.18 492.32 1557.92 492.32ZM1581.15 491.046C1581.15 492.814 1580.61 494.296 1579.54 495.492C1578.48 496.671 1577.16 497.26 1575.56 497.26C1574.83 497.26 1574.17 497.104 1573.56 496.792C1572.95 496.48 1572.43 496.021 1572 495.414V502.2H1568.54V485.066H1571.58L1571.97 486.678C1572.41 486.071 1572.93 485.612 1573.53 485.3C1574.16 484.971 1574.83 484.806 1575.56 484.806C1577.16 484.806 1578.48 485.404 1579.54 486.6C1580.61 487.779 1581.15 489.261 1581.15 491.046ZM1574.81 487.874C1573.96 487.874 1573.25 488.177 1572.68 488.784C1572.12 489.373 1571.84 490.127 1571.84 491.046C1571.84 491.947 1572.12 492.701 1572.68 493.308C1573.25 493.897 1573.96 494.192 1574.81 494.192C1575.66 494.192 1576.36 493.897 1576.91 493.308C1577.49 492.701 1577.77 491.947 1577.77 491.046C1577.77 490.127 1577.49 489.373 1576.91 488.784C1576.36 488.177 1575.66 487.874 1574.81 487.874ZM1594.78 493.074C1594.78 494.287 1594.32 495.249 1593.42 495.96C1592.54 496.653 1591.37 497 1589.91 497H1583.75V485.066H1587.18V489.148H1589.81C1591.32 489.148 1592.52 489.503 1593.42 490.214C1594.32 490.907 1594.78 491.861 1594.78 493.074ZM1591.4 493.074C1591.4 492.589 1591.2 492.225 1590.82 491.982C1590.44 491.722 1589.9 491.592 1589.19 491.592H1587.18V494.556H1589.19C1589.9 494.556 1590.44 494.435 1590.82 494.192C1591.2 493.932 1591.4 493.559 1591.4 493.074ZM1596.39 485.066H1599.85V497H1596.39V485.066ZM1606.19 488.03H1602.21V485.066H1613.6V488.03H1609.62V497H1606.19V488.03ZM1621.43 484.806C1623.27 484.806 1624.79 485.395 1625.98 486.574C1627.18 487.753 1627.78 489.243 1627.78 491.046C1627.78 492.831 1627.17 494.313 1625.96 495.492C1624.76 496.671 1623.25 497.26 1621.43 497.26C1619.61 497.26 1618.1 496.671 1616.88 495.492C1615.69 494.313 1615.09 492.831 1615.09 491.046C1615.09 489.243 1615.69 487.753 1616.88 486.574C1618.08 485.395 1619.6 484.806 1621.43 484.806ZM1621.43 487.874C1620.58 487.874 1619.87 488.177 1619.3 488.784C1618.75 489.373 1618.47 490.127 1618.47 491.046C1618.47 491.947 1618.75 492.701 1619.3 493.308C1619.87 493.897 1620.58 494.192 1621.43 494.192C1622.28 494.192 1622.98 493.897 1623.54 493.308C1624.11 492.701 1624.4 491.947 1624.4 491.046C1624.4 490.127 1624.11 489.373 1623.54 488.784C1622.98 488.177 1622.28 487.874 1621.43 487.874ZM1635.88 487.874C1635.03 487.874 1634.32 488.177 1633.75 488.784C1633.19 489.373 1632.92 490.127 1632.92 491.046C1632.92 491.947 1633.19 492.701 1633.75 493.308C1634.32 493.897 1635.03 494.192 1635.88 494.192C1636.35 494.192 1636.79 494.097 1637.21 493.906C1637.64 493.698 1638.06 493.395 1638.45 492.996L1640.66 495.232C1640.01 495.925 1639.28 496.437 1638.48 496.766C1637.7 497.095 1636.83 497.26 1635.88 497.26C1634.06 497.26 1632.54 496.671 1631.33 495.492C1630.13 494.313 1629.54 492.831 1629.54 491.046C1629.54 489.243 1630.13 487.753 1631.33 486.574C1632.53 485.395 1634.04 484.806 1635.88 484.806C1636.71 484.806 1637.51 484.971 1638.27 485.3C1639.05 485.612 1639.76 486.063 1640.4 486.652L1638.19 488.888C1637.83 488.541 1637.46 488.29 1637.08 488.134C1636.7 487.961 1636.3 487.874 1635.88 487.874ZM1645.67 488.03H1641.69V485.066H1653.08V488.03H1649.1V497H1645.67V488.03ZM1666.43 493.074C1666.43 494.287 1665.98 495.249 1665.08 495.96C1664.19 496.653 1663.02 497 1661.57 497H1655.4V485.066H1658.84V489.148H1661.46C1662.97 489.148 1664.17 489.503 1665.08 490.214C1665.98 490.907 1666.43 491.861 1666.43 493.074ZM1663.05 493.074C1663.05 492.589 1662.86 492.225 1662.48 491.982C1662.09 491.722 1661.55 491.592 1660.84 491.592H1658.84V494.556H1660.84C1661.55 494.556 1662.09 494.435 1662.48 494.192C1662.86 493.932 1663.05 493.559 1663.05 493.074Z" fill="#2A2A2A"/>
<g filter="url(#filter9_b_103_802)">
<path fill-rule="evenodd" clip-rule="evenodd" d="M1418 429C1418 420.716 1411.28 414 1403 414H1072C1063.72 414 1057 420.716 1057 429V549C1057 557.284 1063.72 564 1072 564H1403C1411.28 564 1418 557.284 1418 549V511.319C1418 505.357 1414.21 500.198 1409.8 496.183C1403.78 490.696 1400 482.79 1400 474C1400 465.21 1403.78 457.304 1409.8 451.817C1414.21 447.802 1418 442.643 1418 436.681V429Z" fill="#D5DAD3" fill-opacity="0.9"/>
</g>
<path d="M1159 446.002L1159 438.001L1151 438.001L1151 430.001L1143 430.001L1143 422L1135 422L1135 414L1095 414L1095 422L1087 422L1087 430.001L1079 430.001L1079 438.001L1071 438.001L1071 446.002L1079 446.002L1079 454.002L1087 454.002L1087 462L1095 462L1095 454.002L1103 454.002L1103 446.002L1111 446.002L1111 438.001L1119 438.001L1119 446.002L1127 446.002L1127 454.002L1135 454.002L1135 462L1143 462L1143 454.002L1151 454.002L1151 446.002L1159 446.002ZM1111 422L1111 430.001L1103 430.001L1103 438.001L1095 438.001L1095 446.002L1087 446.002L1087 438.001L1095 438.001L1095 430.001L1103 430.001L1103 422L1111 422ZM1143 438.001L1143 446.002L1135 446.002L1135 438.001L1127 438.001L1127 430.001L1119 430.001L1119 422L1127 422L1127 430.001L1135 430.001L1135 438.001L1143 438.001Z" fill="white" fill-opacity="0.4"/>
<path d="M1079.88 697H1076.43L1072.32 685.118L1070.6 697H1067.14L1069.98 679.19H1073.46L1078.22 693.152L1082.95 679.19H1086.41L1089.27 697H1085.71L1083.89 685.404L1079.88 697ZM1103.92 697H1100.88L1100.49 695.388C1100.05 695.995 1099.53 696.463 1098.9 696.792C1098.28 697.104 1097.61 697.26 1096.9 697.26C1095.31 697.26 1093.97 696.671 1092.9 695.492C1091.84 694.296 1091.31 692.814 1091.31 691.046C1091.31 689.261 1091.84 687.779 1092.9 686.6C1093.97 685.404 1095.31 684.806 1096.9 684.806C1097.63 684.806 1098.3 684.971 1098.9 685.3C1099.53 685.612 1100.05 686.071 1100.49 686.678L1100.88 685.066H1103.92V697ZM1094.69 691.046C1094.69 691.947 1094.97 692.701 1095.52 693.308C1096.09 693.897 1096.8 694.192 1097.65 694.192C1098.5 694.192 1099.21 693.897 1099.76 693.308C1100.33 692.701 1100.62 691.947 1100.62 691.046C1100.62 690.127 1100.33 689.373 1099.76 688.784C1099.21 688.177 1098.5 687.874 1097.65 687.874C1096.8 687.874 1096.09 688.177 1095.52 688.784C1094.97 689.373 1094.69 690.127 1094.69 691.046ZM1119.96 691.046C1119.96 692.814 1119.42 694.296 1118.35 695.492C1117.29 696.671 1115.97 697.26 1114.37 697.26C1113.64 697.26 1112.98 697.104 1112.37 696.792C1111.76 696.48 1111.24 696.021 1110.81 695.414V702.2H1107.35V685.066H1110.39L1110.78 686.678C1111.22 686.071 1111.74 685.612 1112.34 685.3C1112.97 684.971 1113.64 684.806 1114.37 684.806C1115.97 684.806 1117.29 685.404 1118.35 686.6C1119.42 687.779 1119.96 689.261 1119.96 691.046ZM1113.62 687.874C1112.77 687.874 1112.06 688.177 1111.48 688.784C1110.93 689.373 1110.65 690.127 1110.65 691.046C1110.65 691.947 1110.93 692.701 1111.48 693.308C1112.06 693.897 1112.77 694.192 1113.62 694.192C1114.47 694.192 1115.17 693.897 1115.72 693.308C1116.29 692.701 1116.58 691.947 1116.58 691.046C1116.58 690.127 1116.29 689.373 1115.72 688.784C1115.17 688.177 1114.47 687.874 1113.62 687.874ZM1126.46 692.32H1126.02V697H1122.56V685.066H1126.02V689.356H1126.49C1127.13 689.356 1127.67 689.209 1128.12 688.914C1128.57 688.602 1129.03 688.073 1129.5 687.328L1130.93 685.066H1134.6L1133.17 687.328C1132.75 688.039 1132.34 688.663 1131.95 689.2C1131.56 689.737 1131.19 690.197 1130.83 690.578L1135.09 697H1131.04L1128.05 692.19C1127.77 692.242 1127.5 692.277 1127.24 692.294C1126.98 692.311 1126.72 692.32 1126.46 692.32ZM1145.49 693.178L1147.18 695.362C1146.55 695.986 1145.83 696.463 1144.99 696.792C1144.18 697.104 1143.29 697.26 1142.34 697.26C1140.52 697.26 1139 696.671 1137.79 695.492C1136.6 694.313 1136 692.831 1136 691.046C1136 689.278 1136.58 687.796 1137.74 686.6C1138.9 685.404 1140.35 684.806 1142.08 684.806C1143.81 684.806 1145.26 685.404 1146.42 686.6C1147.58 687.796 1148.17 689.278 1148.17 691.046C1148.17 691.289 1148.16 691.514 1148.14 691.722C1148.12 691.93 1148.1 692.086 1148.09 692.19H1139.22C1139.43 692.901 1139.81 693.464 1140.37 693.88C1140.92 694.296 1141.58 694.504 1142.34 694.504C1142.95 694.504 1143.49 694.4 1143.98 694.192C1144.48 693.984 1144.98 693.646 1145.49 693.178ZM1142.08 687.562C1141.42 687.562 1140.84 687.761 1140.34 688.16C1139.84 688.541 1139.48 689.07 1139.27 689.746H1144.89C1144.68 689.07 1144.33 688.541 1143.82 688.16C1143.34 687.761 1142.76 687.562 1142.08 687.562ZM1153.53 688.03H1149.55V685.066H1160.94V688.03H1156.96V697H1153.53V688.03ZM1174.62 697H1171.45V689.772L1166.46 697H1163.26V685.066H1166.46V692.268L1171.45 685.066H1174.62V697ZM1189.61 697H1186.2V692.372H1181.5V697H1178.06V685.066H1181.5V689.408H1186.2V685.066H1189.61V697ZM1196.5 697H1193.04V685.066H1201.99V688.03H1196.5V697Z" fill="#2A2A2A"/>
<circle cx="1135" cy="772" r="50" fill="white"/>
<g filter="url(#filter10_d_103_802)">
<circle cx="1135" cy="772" r="15" fill="#C6202C"/>
</g>
<path d="M1129 778L1141 766" stroke="white" stroke-width="1.5" stroke-linejoin="round"/>
<path d="M1129 766L1141 778" stroke="white" stroke-width="1.5" stroke-linejoin="round"/>
<g filter="url(#filter11_b_103_802)">
<path fill-rule="evenodd" clip-rule="evenodd" d="M1123 727C1123 718.716 1116.28 712 1108 712H777C768.716 712 762 718.716 762 727V847C762 855.284 768.716 862 777 862H1108C1116.28 862 1123 855.284 1123 847V809.319C1123 803.357 1119.21 798.198 1114.8 794.183C1108.78 788.696 1105 780.79 1105 772C1105 763.21 1108.78 755.304 1114.8 749.817C1119.21 745.802 1123 740.643 1123 734.681V727Z" fill="#D5DAD3" fill-opacity="0.9"/>
</g>
<path d="M864 744.002L864 736.001L856 736.001L856 728.001L848 728.001L848 720L840.001 720L840.001 712L800.002 712L800.002 720L791.997 720L791.997 728.001L784 728.001L784 736.001L776 736.001L776 744.002L784 744.002L784 752.002L791.997 752.002L791.997 760L799.997 760L799.997 752.002L807.997 752.002L807.997 744.002L815.997 744.002L815.997 736.001L823.996 736.001L823.996 744.002L831.996 744.002L831.996 752.002L839.996 752.002L839.996 760L847.996 760L847.996 752.002L855.996 752.002L855.996 744.002L864 744.002ZM816.001 720L816.001 728.001L808.001 728.001L808.001 736.001L800.002 736.001L800.002 744.002L791.997 744.002L791.997 736.001L799.997 736.001L799.997 728.001L807.997 728.001L807.997 720L816.001 720ZM848 736.001L848 744.002L840.001 744.002L840.001 736.001L832.001 736.001L832.001 728.001L824.001 728.001L824.001 720L832.001 720L832.001 728.001L840.001 728.001L840.001 736.001L848 736.001Z" fill="white" fill-opacity="0.4"/>
<path d="M833.642 1046H830.158V1028.19H835.696C837.811 1028.19 839.475 1028.71 840.688 1029.75C841.901 1030.77 842.508 1032.19 842.508 1033.99C842.508 1035.77 841.893 1037.19 840.662 1038.23C839.431 1039.27 837.776 1039.79 835.696 1039.79H833.642V1046ZM838.92 1033.99C838.92 1033.16 838.634 1032.51 838.062 1032.06C837.507 1031.6 836.727 1031.36 835.722 1031.36H833.642V1036.64H835.722C836.745 1036.64 837.533 1036.41 838.088 1035.96C838.643 1035.5 838.92 1034.84 838.92 1033.99ZM856.855 1046H853.813L853.423 1044.39C852.99 1044.99 852.461 1045.46 851.837 1045.79C851.213 1046.1 850.546 1046.26 849.835 1046.26C848.241 1046.26 846.906 1045.67 845.831 1044.49C844.774 1043.3 844.245 1041.81 844.245 1040.05C844.245 1038.26 844.774 1036.78 845.831 1035.6C846.906 1034.4 848.241 1033.81 849.835 1033.81C850.563 1033.81 851.231 1033.97 851.837 1034.3C852.461 1034.61 852.99 1035.07 853.423 1035.68L853.813 1034.07H856.855V1046ZM847.625 1040.05C847.625 1040.95 847.903 1041.7 848.457 1042.31C849.029 1042.9 849.74 1043.19 850.589 1043.19C851.439 1043.19 852.141 1042.9 852.695 1042.31C853.267 1041.7 853.553 1040.95 853.553 1040.05C853.553 1039.13 853.267 1038.37 852.695 1037.78C852.141 1037.18 851.439 1036.87 850.589 1036.87C849.74 1036.87 849.029 1037.18 848.457 1037.78C847.903 1038.37 847.625 1039.13 847.625 1040.05ZM867.228 1042.39C867.228 1041.99 867.029 1041.69 866.63 1041.5C866.232 1041.29 865.651 1041.19 864.888 1041.19H862.678V1038.75H864.81C865.504 1038.75 866.032 1038.65 866.396 1038.46C866.778 1038.25 866.968 1037.97 866.968 1037.6C866.968 1037.24 866.786 1036.95 866.422 1036.74C866.076 1036.52 865.599 1036.41 864.992 1036.41C864.368 1036.41 863.762 1036.52 863.172 1036.74C862.583 1036.97 862.011 1037.3 861.456 1037.73L859.922 1035.7C860.754 1035.06 861.595 1034.59 862.444 1034.27C863.294 1033.96 864.186 1033.81 865.122 1033.81C866.665 1033.81 867.913 1034.11 868.866 1034.72C869.837 1035.31 870.322 1036.09 870.322 1037.06C870.322 1037.63 870.132 1038.16 869.75 1038.64C869.386 1039.13 868.858 1039.53 868.164 1039.84C869.014 1040.08 869.664 1040.44 870.114 1040.93C870.565 1041.42 870.79 1042 870.79 1042.67C870.79 1043.75 870.262 1044.61 869.204 1045.27C868.164 1045.93 866.778 1046.26 865.044 1046.26C863.866 1046.26 862.8 1046.1 861.846 1045.77C860.91 1045.42 860.061 1044.9 859.298 1044.21L860.936 1042.15C861.526 1042.64 862.158 1043.01 862.834 1043.27C863.528 1043.53 864.247 1043.66 864.992 1043.66C865.703 1043.66 866.249 1043.55 866.63 1043.32C867.029 1043.1 867.228 1042.78 867.228 1042.39ZM879.626 1046H873.464V1034.07H880.068C881.385 1034.07 882.434 1034.34 883.214 1034.9C884.011 1035.45 884.41 1036.2 884.41 1037.13C884.41 1037.74 884.219 1038.28 883.838 1038.75C883.457 1039.21 882.902 1039.58 882.174 1039.84C883.058 1040.08 883.734 1040.44 884.202 1040.93C884.687 1041.42 884.93 1042 884.93 1042.67C884.93 1043.75 884.471 1044.57 883.552 1045.14C882.651 1045.71 881.342 1046 879.626 1046ZM881.03 1037.58C881.03 1037.23 880.874 1036.97 880.562 1036.8C880.25 1036.61 879.791 1036.51 879.184 1036.51H876.818V1038.69H879.184C879.791 1038.69 880.25 1038.6 880.562 1038.41C880.874 1038.22 881.03 1037.94 881.03 1037.58ZM881.472 1042.36C881.472 1041.94 881.29 1041.64 880.926 1041.45C880.579 1041.24 880.042 1041.14 879.314 1041.14H876.818V1043.56H879.314C880.042 1043.56 880.579 1043.46 880.926 1043.27C881.29 1043.06 881.472 1042.76 881.472 1042.36ZM898.969 1046H895.797V1038.77L890.805 1046H887.607V1034.07H890.805V1041.27L895.797 1034.07H898.969V1046ZM905.269 1037.03H901.291V1034.07H912.679V1037.03H908.701V1046H905.269V1037.03ZM926.365 1046H923.193V1038.77L918.201 1046H915.003V1034.07H918.201V1041.27L923.193 1034.07H926.365V1046ZM938.464 1042.18L940.154 1044.36C939.53 1044.99 938.802 1045.46 937.97 1045.79C937.155 1046.1 936.271 1046.26 935.318 1046.26C933.498 1046.26 931.981 1045.67 930.768 1044.49C929.572 1043.31 928.974 1041.83 928.974 1040.05C928.974 1038.28 929.555 1036.8 930.716 1035.6C931.877 1034.4 933.325 1033.81 935.058 1033.81C936.791 1033.81 938.239 1034.4 939.4 1035.6C940.561 1036.8 941.142 1038.28 941.142 1040.05C941.142 1040.29 941.133 1040.51 941.116 1040.72C941.099 1040.93 941.081 1041.09 941.064 1041.19H932.198C932.406 1041.9 932.787 1042.46 933.342 1042.88C933.897 1043.3 934.555 1043.5 935.318 1043.5C935.925 1043.5 936.471 1043.4 936.956 1043.19C937.459 1042.98 937.961 1042.65 938.464 1042.18ZM935.058 1036.56C934.399 1036.56 933.819 1036.76 933.316 1037.16C932.813 1037.54 932.458 1038.07 932.25 1038.75H937.866C937.658 1038.07 937.303 1037.54 936.8 1037.16C936.315 1036.76 935.734 1036.56 935.058 1036.56Z" fill="#2A2A2A"/>
<circle cx="885" cy="953" r="50" fill="white"/>
<g filter="url(#filter12_d_103_802)">
<circle cx="885" cy="953" r="15" fill="#C6202C"/>
</g>
<path d="M879 959L891 947" stroke="white" stroke-width="1.5" stroke-linejoin="round"/>
<path d="M879 947L891 959" stroke="white" stroke-width="1.5" stroke-linejoin="round"/>
<g filter="url(#filter13_b_103_802)">
<path fill-rule="evenodd" clip-rule="evenodd" d="M873 908C873 899.716 866.284 893 858 893H527C518.716 893 512 899.716 512 908V1028C512 1036.28 518.716 1043 527 1043H858C866.284 1043 873 1036.28 873 1028V990.319C873 984.357 869.21 979.198 864.803 975.183C858.78 969.696 855 961.79 855 953C855 944.21 858.78 936.304 864.803 930.817C869.21 926.802 873 921.643 873 915.681V908Z" fill="#D5DAD3" fill-opacity="0.9"/>
</g>
<path d="M614 925.002L614 917.001L606 917.001L606 909.001L598 909.001L598 901L590.001 901L590.001 893L550.002 893L550.002 901L541.997 901L541.997 909.001L534 909.001L534 917.001L526 917.001L526 925.002L534 925.002L534 933.002L541.997 933.002L541.997 941L549.997 941L549.997 933.002L557.997 933.002L557.997 925.002L565.997 925.002L565.997 917.001L573.996 917.001L573.996 925.002L581.996 925.002L581.996 933.002L589.996 933.002L589.996 941L597.996 941L597.996 933.002L605.996 933.002L605.996 925.002L614 925.002ZM566.001 901L566.001 909.001L558.001 909.001L558.001 917.001L550.002 917.001L550.002 925.002L541.997 925.002L541.997 917.001L549.997 917.001L549.997 909.001L557.997 909.001L557.997 901L566.001 901ZM598 917.001L598 925.002L590.001 925.002L590.001 917.001L582.001 917.001L582.001 909.001L574.001 909.001L574.001 901L582.001 901L582.001 909.001L590.001 909.001L590.001 917.001L598 917.001Z" fill="white" fill-opacity="0.4"/>
<defs>
<filter id="filter0_d_103_802" x="288" y="72" width="54" height="54" filterUnits="userSpaceOnUse" color-interpolation-filters="sRGB">
<feFlood flood-opacity="0" result="BackgroundImageFix"/>
<feColorMatrix in="SourceAlpha" type="matrix" values="0 0 0 0 0 0 0 0 0 0 0 0 0 0 0 0 0 0 127 0" result="hardAlpha"/>
<feOffset dy="6"/>
<feGaussianBlur stdDeviation="6"/>
<feComposite in2="hardAlpha" operator="out"/>
<feColorMatrix type="matrix" values="0 0 0 0 0.776471 0 0 0 0 0.12549 0 0 0 0 0.172549 0 0 0 0.3 0"/>
<feBlend mode="normal" in2="BackgroundImageFix" result="effect1_dropShadow_103_802"/>
<feBlend mode="normal" in="SourceGraphic" in2="effect1_dropShadow_103_802" result="shape"/>
</filter>
<filter id="filter1_b_103_802" x="-65" y="26" width="375" height="164" filterUnits="userSpaceOnUse" color-interpolation-filters="sRGB">
<feFlood flood-opacity="0" result="BackgroundImageFix"/>
<feGaussianBlur in="BackgroundImageFix" stdDeviation="3.5"/>
<feComposite in2="SourceAlpha" operator="in" result="effect1_backgroundBlur_103_802"/>
<feBlend mode="normal" in="SourceGraphic" in2="effect1_backgroundBlur_103_802" result="shape"/>
</filter>
<filter id="filter2_d_103_802" x="713" y="289" width="54" height="54" filterUnits="userSpaceOnUse" color-interpolation-filters="sRGB">
<feFlood flood-opacity="0" result="BackgroundImageFix"/>
<feColorMatrix in="SourceAlpha" type="matrix" values="0 0 0 0 0 0 0 0 0 0 0 0 0 0 0 0 0 0 127 0" result="hardAlpha"/>
<feOffset dy="6"/>
<feGaussianBlur stdDeviation="6"/>
<feComposite in2="hardAlpha" operator="out"/>
<feColorMatrix type="matrix" values="0 0 0 0 0.776471 0 0 0 0 0.12549 0 0 0 0 0.172549 0 0 0 0.3 0"/>
<feBlend mode="normal" in2="BackgroundImageFix" result="effect1_dropShadow_103_802"/>
<feBlend mode="normal" in="SourceGraphic" in2="effect1_dropShadow_103_802" result="shape"/>
</filter>
<filter id="filter3_b_103_802" x="360" y="243" width="375" height="164" filterUnits="userSpaceOnUse" color-interpolation-filters="sRGB">
<feFlood flood-opacity="0" result="BackgroundImageFix"/>
<feGaussianBlur in="BackgroundImageFix" stdDeviation="3.5"/>
<feComposite in2="SourceAlpha" operator="in" result="effect1_backgroundBlur_103_802"/>
<feBlend mode="normal" in="SourceGraphic" in2="effect1_backgroundBlur_103_802" result="shape"/>
</filter>
<filter id="filter4_d_103_802" x="1069" y="132" width="140" height="140" filterUnits="userSpaceOnUse" color-interpolation-filters="sRGB">
<feFlood flood-opacity="0" result="BackgroundImageFix"/>
<feColorMatrix in="SourceAlpha" type="matrix" values="0 0 0 0 0 0 0 0 0 0 0 0 0 0 0 0 0 0 127 0" result="hardAlpha"/>
<feOffset dx="4" dy="4"/>
<feGaussianBlur stdDeviation="10"/>
<feColorMatrix type="matrix" values="0 0 0 0 0.164706 0 0 0 0 0.164706 0 0 0 0 0.164706 0 0 0 0.1 0"/>
<feBlend mode="multiply" in2="BackgroundImageFix" result="effect1_dropShadow_103_802"/>
<feBlend mode="normal" in="SourceGraphic" in2="effect1_dropShadow_103_802" result="shape"/>
</filter>
<filter id="filter5_d_103_802" x="1093.6" y="156.6" width="90" height="90" filterUnits="userSpaceOnUse" color-interpolation-filters="sRGB">
<feFlood flood-opacity="0" result="BackgroundImageFix"/>
<feColorMatrix in="SourceAlpha" type="matrix" values="0 0 0 0 0 0 0 0 0 0 0 0 0 0 0 0 0 0 127 0" result="hardAlpha"/>
<feOffset dx="3.6" dy="3.6"/>
<feGaussianBlur stdDeviation="7.5"/>
<feColorMatrix type="matrix" values="0 0 0 0 0.164706 0 0 0 0 0.164706 0 0 0 0 0.164706 0 0 0 0.15 0"/>
<feBlend mode="multiply" in2="BackgroundImageFix" result="effect1_dropShadow_103_802"/>
<feBlend mode="normal" in="SourceGraphic" in2="effect1_dropShadow_103_802" result="shape"/>
</filter>
<filter id="filter6_d_103_802" x="1108" y="177" width="54" height="54" filterUnits="userSpaceOnUse" color-interpolation-filters="sRGB">
<feFlood flood-opacity="0" result="BackgroundImageFix"/>
<feColorMatrix in="SourceAlpha" type="matrix" values="0 0 0 0 0 0 0 0 0 0 0 0 0 0 0 0 0 0 127 0" result="hardAlpha"/>
<feOffset dy="6"/>
<feGaussianBlur stdDeviation="6"/>
<feComposite in2="hardAlpha" operator="out"/>
<feColorMatrix type="matrix" values="0 0 0 0 0.776471 0 0 0 0 0.12549 0 0 0 0 0.172549 0 0 0 0.3 0"/>
<feBlend mode="normal" in2="BackgroundImageFix" result="effect1_dropShadow_103_802"/>
<feBlend mode="normal" in="SourceGraphic" in2="effect1_dropShadow_103_802" result="shape"/>
</filter>
<filter id="filter7_b_103_802" x="755" y="131" width="375" height="164" filterUnits="userSpaceOnUse" color-interpolation-filters="sRGB">
<feFlood flood-opacity="0" result="BackgroundImageFix"/>
<feGaussianBlur in="BackgroundImageFix" stdDeviation="3.5"/>
<feComposite in2="SourceAlpha" operator="in" result="effect1_backgroundBlur_103_802"/>
<feBlend mode="normal" in="SourceGraphic" in2="effect1_backgroundBlur_103_802" result="shape"/>
</filter>
<filter id="filter8_d_103_802" x="1403" y="453" width="54" height="54" filterUnits="userSpaceOnUse" color-interpolation-filters="sRGB">
<feFlood flood-opacity="0" result="BackgroundImageFix"/>
<feColorMatrix in="SourceAlpha" type="matrix" values="0 0 0 0 0 0 0 0 0 0 0 0 0 0 0 0 0 0 127 0" result="hardAlpha"/>
<feOffset dy="6"/>
<feGaussianBlur stdDeviation="6"/>
<feComposite in2="hardAlpha" operator="out"/>
<feColorMatrix type="matrix" values="0 0 0 0 0.776471 0 0 0 0 0.12549 0 0 0 0 0.172549 0 0 0 0.3 0"/>
<feBlend mode="normal" in2="BackgroundImageFix" result="effect1_dropShadow_103_802"/>
<feBlend mode="normal" in="SourceGraphic" in2="effect1_dropShadow_103_802" result="shape"/>
</filter>
<filter id="filter9_b_103_802" x="1050" y="407" width="375" height="164" filterUnits="userSpaceOnUse" color-interpolation-filters="sRGB">
<feFlood flood-opacity="0" result="BackgroundImageFix"/>
<feGaussianBlur in="BackgroundImageFix" stdDeviation="3.5"/>
<feComposite in2="SourceAlpha" operator="in" result="effect1_backgroundBlur_103_802"/>
<feBlend mode="normal" in="SourceGraphic" in2="effect1_backgroundBlur_103_802" result="shape"/>
</filter>
<filter id="filter10_d_103_802" x="1108" y="751" width="54" height="54" filterUnits="userSpaceOnUse" color-interpolation-filters="sRGB">
<feFlood flood-opacity="0" result="BackgroundImageFix"/>
<feColorMatrix in="SourceAlpha" type="matrix" values="0 0 0 0 0 0 0 0 0 0 0 0 0 0 0 0 0 0 127 0" result="hardAlpha"/>
<feOffset dy="6"/>
<feGaussianBlur stdDeviation="6"/>
<feComposite in2="hardAlpha" operator="out"/>
<feColorMatrix type="matrix" values="0 0 0 0 0.776471 0 0 0 0 0.12549 0 0 0 0 0.172549 0 0 0 0.3 0"/>
<feBlend mode="normal" in2="BackgroundImageFix" result="effect1_dropShadow_103_802"/>
<feBlend mode="normal" in="SourceGraphic" in2="effect1_dropShadow_103_802" result="shape"/>
</filter>
<filter id="filter11_b_103_802" x="755" y="705" width="375" height="164" filterUnits="userSpaceOnUse" color-interpolation-filters="sRGB">
<feFlood flood-opacity="0" result="BackgroundImageFix"/>
<feGaussianBlur in="BackgroundImageFix" stdDeviation="3.5"/>
<feComposite in2="SourceAlpha" operator="in" result="effect1_backgroundBlur_103_802"/>
<feBlend mode="normal" in="SourceGraphic" in2="effect1_backgroundBlur_103_802" result="shape"/>
</filter>
<filter id="filter12_d_103_802" x="858" y="932" width="54" height="54" filterUnits="userSpaceOnUse" color-interpolation-filters="sRGB">
<feFlood flood-opacity="0" result="BackgroundImageFix"/>
<feColorMatrix in="SourceAlpha" type="matrix" values="0 0 0 0 0 0 0 0 0 0 0 0 0 0 0 0 0 0 127 0" result="hardAlpha"/>
<feOffset dy="6"/>
<feGaussianBlur stdDeviation="6"/>
<feComposite in2="hardAlpha" operator="out"/>
<feColorMatrix type="matrix" values="0 0 0 0 0.776471 0 0 0 0 0.12549 0 0 0 0 0.172549 0 0 0 0.3 0"/>
<feBlend mode="normal" in2="BackgroundImageFix" result="effect1_dropShadow_103_802"/>
<feBlend mode="normal" in="SourceGraphic" in2="effect1_dropShadow_103_802" result="shape"/>
</filter>
<filter id="filter13_b_103_802" x="505" y="886" width="375" height="164" filterUnits="userSpaceOnUse" color-interpolation-filters="sRGB">
<feFlood flood-opacity="0" result="BackgroundImageFix"/>
<feGaussianBlur in="BackgroundImageFix" stdDeviation="3.5"/>
<feComposite in2="SourceAlpha" operator="in" result="effect1_backgroundBlur_103_802"/>
<feBlend mode="normal" in="SourceGraphic" in2="effect1_backgroundBlur_103_802" result="shape"/>
</filter>
</defs>
</svg>
