<svg width="1667" height="1047" viewBox="0 0 1667 1047" fill="none" xmlns="http://www.w3.org/2000/svg">
<path d="M-11.5 91.5C-12.0523 91.5 -12.5 91.9477 -12.5 92.5C-12.5 93.0523 -12.0523 93.5 -11.5 93.5V91.5ZM520 201.07L519.125 201.554L520 201.07ZM704.046 310.64H775.551V308.64H704.046V310.64ZM912.867 269.747L968.227 233.567L967.133 231.893L911.773 268.073L912.867 269.747ZM1104.45 193H1180V191H1104.45V193ZM1429 442V523H1431V442H1429ZM1180 772H1065V774H1180V772ZM335.954 91.5H-11.5V93.5H335.954V91.5ZM1065 772C965.036 772 884 853.036 884 953H886C886 854.141 966.141 774 1065 774V772ZM1429 523C1429 660.519 1317.52 772 1180 772V774C1318.62 774 1431 661.623 1431 523H1429ZM1180 193C1317.52 193 1429 304.481 1429 442H1431C1431 303.377 1318.62 191 1180 191V193ZM968.227 233.567C1008.73 207.097 1056.06 193 1104.45 193V191C1055.68 191 1007.96 205.21 967.133 231.893L968.227 233.567ZM775.551 310.64C824.324 310.64 872.04 296.43 912.867 269.747L911.773 268.073C871.271 294.543 823.935 308.64 775.551 308.64V310.64ZM519.125 201.554C556.32 268.859 627.147 310.64 704.046 310.64V308.64C627.875 308.64 557.719 267.254 520.875 200.586L519.125 201.554ZM520.875 200.586C483.68 133.281 412.853 91.5 335.954 91.5V93.5C412.125 93.5 482.281 134.886 519.125 201.554L520.875 200.586Z" fill="#C6202C"/>
<path d="M833.642 1046H830.158V1028.19H835.696C837.811 1028.19 839.475 1028.71 840.688 1029.75C841.901 1030.77 842.508 1032.19 842.508 1033.99C842.508 1035.77 841.893 1037.19 840.662 1038.23C839.431 1039.27 837.776 1039.79 835.696 1039.79H833.642V1046ZM838.92 1033.99C838.92 1033.16 838.634 1032.51 838.062 1032.06C837.507 1031.6 836.727 1031.36 835.722 1031.36H833.642V1036.64H835.722C836.745 1036.64 837.533 1036.41 838.088 1035.96C838.643 1035.5 838.92 1034.84 838.92 1033.99ZM856.855 1046H853.813L853.423 1044.39C852.99 1044.99 852.461 1045.46 851.837 1045.79C851.213 1046.1 850.546 1046.26 849.835 1046.26C848.241 1046.26 846.906 1045.67 845.831 1044.49C844.774 1043.3 844.245 1041.81 844.245 1040.05C844.245 1038.26 844.774 1036.78 845.831 1035.6C846.906 1034.4 848.241 1033.81 849.835 1033.81C850.563 1033.81 851.231 1033.97 851.837 1034.3C852.461 1034.61 852.99 1035.07 853.423 1035.68L853.813 1034.07H856.855V1046ZM847.625 1040.05C847.625 1040.95 847.903 1041.7 848.457 1042.31C849.029 1042.9 849.74 1043.19 850.589 1043.19C851.439 1043.19 852.141 1042.9 852.695 1042.31C853.267 1041.7 853.553 1040.95 853.553 1040.05C853.553 1039.13 853.267 1038.37 852.695 1037.78C852.141 1037.18 851.439 1036.87 850.589 1036.87C849.74 1036.87 849.029 1037.18 848.457 1037.78C847.903 1038.37 847.625 1039.13 847.625 1040.05ZM867.228 1042.39C867.228 1041.99 867.029 1041.69 866.63 1041.5C866.232 1041.29 865.651 1041.19 864.888 1041.19H862.678V1038.75H864.81C865.504 1038.75 866.032 1038.65 866.396 1038.46C866.778 1038.25 866.968 1037.97 866.968 1037.6C866.968 1037.24 866.786 1036.95 866.422 1036.74C866.076 1036.52 865.599 1036.41 864.992 1036.41C864.368 1036.41 863.762 1036.52 863.172 1036.74C862.583 1036.97 862.011 1037.3 861.456 1037.73L859.922 1035.7C860.754 1035.06 861.595 1034.59 862.444 1034.27C863.294 1033.96 864.186 1033.81 865.122 1033.81C866.665 1033.81 867.913 1034.11 868.866 1034.72C869.837 1035.31 870.322 1036.09 870.322 1037.06C870.322 1037.63 870.132 1038.16 869.75 1038.64C869.386 1039.13 868.858 1039.53 868.164 1039.84C869.014 1040.08 869.664 1040.44 870.114 1040.93C870.565 1041.42 870.79 1042 870.79 1042.67C870.79 1043.75 870.262 1044.61 869.204 1045.27C868.164 1045.93 866.778 1046.26 865.044 1046.26C863.866 1046.26 862.8 1046.1 861.846 1045.77C860.91 1045.42 860.061 1044.9 859.298 1044.21L860.936 1042.15C861.526 1042.64 862.158 1043.01 862.834 1043.27C863.528 1043.53 864.247 1043.66 864.992 1043.66C865.703 1043.66 866.249 1043.55 866.63 1043.32C867.029 1043.1 867.228 1042.78 867.228 1042.39ZM879.626 1046H873.464V1034.07H880.068C881.385 1034.07 882.434 1034.34 883.214 1034.9C884.011 1035.45 884.41 1036.2 884.41 1037.13C884.41 1037.74 884.219 1038.28 883.838 1038.75C883.457 1039.21 882.902 1039.58 882.174 1039.84C883.058 1040.08 883.734 1040.44 884.202 1040.93C884.687 1041.42 884.93 1042 884.93 1042.67C884.93 1043.75 884.471 1044.57 883.552 1045.14C882.651 1045.71 881.342 1046 879.626 1046ZM881.03 1037.58C881.03 1037.23 880.874 1036.97 880.562 1036.8C880.25 1036.61 879.791 1036.51 879.184 1036.51H876.818V1038.69H879.184C879.791 1038.69 880.25 1038.6 880.562 1038.41C880.874 1038.22 881.03 1037.94 881.03 1037.58ZM881.472 1042.36C881.472 1041.94 881.29 1041.64 880.926 1041.45C880.579 1041.24 880.042 1041.14 879.314 1041.14H876.818V1043.56H879.314C880.042 1043.56 880.579 1043.46 880.926 1043.27C881.29 1043.06 881.472 1042.76 881.472 1042.36ZM898.969 1046H895.797V1038.77L890.805 1046H887.607V1034.07H890.805V1041.27L895.797 1034.07H898.969V1046ZM905.269 1037.03H901.291V1034.07H912.679V1037.03H908.701V1046H905.269V1037.03ZM926.365 1046H923.193V1038.77L918.201 1046H915.003V1034.07H918.201V1041.27L923.193 1034.07H926.365V1046ZM938.464 1042.18L940.154 1044.36C939.53 1044.99 938.802 1045.46 937.97 1045.79C937.155 1046.1 936.271 1046.26 935.318 1046.26C933.498 1046.26 931.981 1045.67 930.768 1044.49C929.572 1043.31 928.974 1041.83 928.974 1040.05C928.974 1038.28 929.555 1036.8 930.716 1035.6C931.877 1034.4 933.325 1033.81 935.058 1033.81C936.791 1033.81 938.239 1034.4 939.4 1035.6C940.561 1036.8 941.142 1038.28 941.142 1040.05C941.142 1040.29 941.133 1040.51 941.116 1040.72C941.099 1040.93 941.081 1041.09 941.064 1041.19H932.198C932.406 1041.9 932.787 1042.46 933.342 1042.88C933.897 1043.3 934.555 1043.5 935.318 1043.5C935.925 1043.5 936.471 1043.4 936.956 1043.19C937.459 1042.98 937.961 1042.65 938.464 1042.18ZM935.058 1036.56C934.399 1036.56 933.819 1036.76 933.316 1037.16C932.813 1037.54 932.458 1038.07 932.25 1038.75H937.866C937.658 1038.07 937.303 1037.54 936.8 1037.16C936.315 1036.76 935.734 1036.56 935.058 1036.56Z" fill="#2A2A2A"/>
<circle cx="885" cy="953" r="50" fill="white"/>
<g filter="url(#filter0_d_103_802)">
<circle cx="885" cy="953" r="30" fill="white"/>
<circle cx="885" cy="953" r="29.55" stroke="white" stroke-width="0.9"/>
</g>
<g filter="url(#filter1_d_103_802)">
<circle cx="885" cy="953" r="15" fill="#C6202C"/>
</g>
<path d="M886.385 953C886.385 952.448 885.937 952 885.385 952L876.385 952C875.832 952 875.385 952.448 875.385 953C875.385 953.552 875.832 954 876.385 954L884.385 954L884.385 962C884.385 962.552 884.832 963 885.385 963C885.937 963 886.385 962.552 886.385 962L886.385 953ZM867.707 972.092L886.092 953.707L884.678 952.293L866.293 970.678L867.707 972.092Z" fill="white"/>
<path d="M1079.88 697H1076.43L1072.32 685.118L1070.6 697H1067.14L1069.98 679.19H1073.46L1078.22 693.152L1082.95 679.19H1086.41L1089.27 697H1085.71L1083.89 685.404L1079.88 697ZM1103.92 697H1100.88L1100.49 695.388C1100.05 695.995 1099.53 696.463 1098.9 696.792C1098.28 697.104 1097.61 697.26 1096.9 697.26C1095.31 697.26 1093.97 696.671 1092.9 695.492C1091.84 694.296 1091.31 692.814 1091.31 691.046C1091.31 689.261 1091.84 687.779 1092.9 686.6C1093.97 685.404 1095.31 684.806 1096.9 684.806C1097.63 684.806 1098.3 684.971 1098.9 685.3C1099.53 685.612 1100.05 686.071 1100.49 686.678L1100.88 685.066H1103.92V697ZM1094.69 691.046C1094.69 691.947 1094.97 692.701 1095.52 693.308C1096.09 693.897 1096.8 694.192 1097.65 694.192C1098.5 694.192 1099.21 693.897 1099.76 693.308C1100.33 692.701 1100.62 691.947 1100.62 691.046C1100.62 690.127 1100.33 689.373 1099.76 688.784C1099.21 688.177 1098.5 687.874 1097.65 687.874C1096.8 687.874 1096.09 688.177 1095.52 688.784C1094.97 689.373 1094.69 690.127 1094.69 691.046ZM1119.96 691.046C1119.96 692.814 1119.42 694.296 1118.35 695.492C1117.29 696.671 1115.97 697.26 1114.37 697.26C1113.64 697.26 1112.98 697.104 1112.37 696.792C1111.76 696.48 1111.24 696.021 1110.81 695.414V702.2H1107.35V685.066H1110.39L1110.78 686.678C1111.22 686.071 1111.74 685.612 1112.34 685.3C1112.97 684.971 1113.64 684.806 1114.37 684.806C1115.97 684.806 1117.29 685.404 1118.35 686.6C1119.42 687.779 1119.96 689.261 1119.96 691.046ZM1113.62 687.874C1112.77 687.874 1112.06 688.177 1111.48 688.784C1110.93 689.373 1110.65 690.127 1110.65 691.046C1110.65 691.947 1110.93 692.701 1111.48 693.308C1112.06 693.897 1112.77 694.192 1113.62 694.192C1114.47 694.192 1115.17 693.897 1115.72 693.308C1116.29 692.701 1116.58 691.947 1116.58 691.046C1116.58 690.127 1116.29 689.373 1115.72 688.784C1115.17 688.177 1114.47 687.874 1113.62 687.874ZM1126.46 692.32H1126.02V697H1122.56V685.066H1126.02V689.356H1126.49C1127.13 689.356 1127.67 689.209 1128.12 688.914C1128.57 688.602 1129.03 688.073 1129.5 687.328L1130.93 685.066H1134.6L1133.17 687.328C1132.75 688.039 1132.34 688.663 1131.95 689.2C1131.56 689.737 1131.19 690.197 1130.83 690.578L1135.09 697H1131.04L1128.05 692.19C1127.77 692.242 1127.5 692.277 1127.24 692.294C1126.98 692.311 1126.72 692.32 1126.46 692.32ZM1145.49 693.178L1147.18 695.362C1146.55 695.986 1145.83 696.463 1144.99 696.792C1144.18 697.104 1143.29 697.26 1142.34 697.26C1140.52 697.26 1139 696.671 1137.79 695.492C1136.6 694.313 1136 692.831 1136 691.046C1136 689.278 1136.58 687.796 1137.74 686.6C1138.9 685.404 1140.35 684.806 1142.08 684.806C1143.81 684.806 1145.26 685.404 1146.42 686.6C1147.58 687.796 1148.17 689.278 1148.17 691.046C1148.17 691.289 1148.16 691.514 1148.14 691.722C1148.12 691.93 1148.1 692.086 1148.09 692.19H1139.22C1139.43 692.901 1139.81 693.464 1140.37 693.88C1140.92 694.296 1141.58 694.504 1142.34 694.504C1142.95 694.504 1143.49 694.4 1143.98 694.192C1144.48 693.984 1144.98 693.646 1145.49 693.178ZM1142.08 687.562C1141.42 687.562 1140.84 687.761 1140.34 688.16C1139.84 688.541 1139.48 689.07 1139.27 689.746H1144.89C1144.68 689.07 1144.33 688.541 1143.82 688.16C1143.34 687.761 1142.76 687.562 1142.08 687.562ZM1153.53 688.03H1149.55V685.066H1160.94V688.03H1156.96V697H1153.53V688.03ZM1174.62 697H1171.45V689.772L1166.46 697H1163.26V685.066H1166.46V692.268L1171.45 685.066H1174.62V697ZM1189.61 697H1186.2V692.372H1181.5V697H1178.06V685.066H1181.5V689.408H1186.2V685.066H1189.61V697ZM1196.5 697H1193.04V685.066H1201.99V688.03H1196.5V697Z" fill="#2A2A2A"/>
<circle cx="1135" cy="772" r="50" fill="white"/>
<g filter="url(#filter2_d_103_802)">
<circle cx="1135" cy="772" r="30" fill="white"/>
<circle cx="1135" cy="772" r="29.55" stroke="white" stroke-width="0.9"/>
</g>
<g filter="url(#filter3_d_103_802)">
<circle cx="1135" cy="772" r="15" fill="#C6202C"/>
</g>
<path d="M1136.38 772C1136.38 771.448 1135.94 771 1135.38 771L1126.38 771C1125.83 771 1125.38 771.448 1125.38 772C1125.38 772.552 1125.83 773 1126.38 773L1134.38 773L1134.38 781C1134.38 781.552 1134.83 782 1135.38 782C1135.94 782 1136.38 781.552 1136.38 781L1136.38 772ZM1117.71 791.092L1136.09 772.707L1134.68 771.293L1116.29 789.678L1117.71 791.092Z" fill="white"/>
<path d="M1517.56 450.19H1521.12V468H1517.56V460.824C1516.92 461.101 1516.23 461.318 1515.5 461.474C1514.79 461.63 1514.11 461.708 1513.45 461.708C1511.47 461.708 1509.9 461.136 1508.72 459.992C1507.56 458.831 1506.98 457.288 1506.98 455.364V450.19H1510.54V455.026C1510.54 456.17 1510.85 457.054 1511.47 457.678C1512.1 458.285 1512.97 458.588 1514.1 458.588C1514.74 458.588 1515.35 458.519 1515.92 458.38C1516.51 458.224 1517.06 457.999 1517.56 457.704V450.19ZM1533.66 464.178L1535.35 466.362C1534.72 466.986 1533.99 467.463 1533.16 467.792C1532.35 468.104 1531.46 468.26 1530.51 468.26C1528.69 468.26 1527.17 467.671 1525.96 466.492C1524.76 465.313 1524.17 463.831 1524.17 462.046C1524.17 460.278 1524.75 458.796 1525.91 457.6C1527.07 456.404 1528.52 455.806 1530.25 455.806C1531.98 455.806 1533.43 456.404 1534.59 457.6C1535.75 458.796 1536.33 460.278 1536.33 462.046C1536.33 462.289 1536.32 462.514 1536.31 462.722C1536.29 462.93 1536.27 463.086 1536.26 463.19H1527.39C1527.6 463.901 1527.98 464.464 1528.53 464.88C1529.09 465.296 1529.75 465.504 1530.51 465.504C1531.12 465.504 1531.66 465.4 1532.15 465.192C1532.65 464.984 1533.15 464.646 1533.66 464.178ZM1530.25 458.562C1529.59 458.562 1529.01 458.761 1528.51 459.16C1528 459.541 1527.65 460.07 1527.44 460.746H1533.06C1532.85 460.07 1532.49 459.541 1531.99 459.16C1531.51 458.761 1530.93 458.562 1530.25 458.562ZM1544.35 458.874C1543.5 458.874 1542.79 459.177 1542.22 459.784C1541.66 460.373 1541.38 461.127 1541.38 462.046C1541.38 462.947 1541.66 463.701 1542.22 464.308C1542.79 464.897 1543.5 465.192 1544.35 465.192C1544.82 465.192 1545.26 465.097 1545.67 464.906C1546.11 464.698 1546.52 464.395 1546.92 463.996L1549.13 466.232C1548.47 466.925 1547.74 467.437 1546.95 467.766C1546.17 468.095 1545.3 468.26 1544.35 468.26C1542.53 468.26 1541.01 467.671 1539.8 466.492C1538.6 465.313 1538 463.831 1538 462.046C1538 460.243 1538.6 458.753 1539.8 457.574C1540.99 456.395 1542.51 455.806 1544.35 455.806C1545.18 455.806 1545.98 455.971 1546.74 456.3C1547.52 456.612 1548.23 457.063 1548.87 457.652L1546.66 459.888C1546.3 459.541 1545.92 459.29 1545.54 459.134C1545.16 458.961 1544.76 458.874 1544.35 458.874ZM1554.14 459.03H1550.16V456.066H1561.55V459.03H1557.57V468H1554.14V459.03ZM1575.41 468H1572.01V463.372H1567.3V468H1563.87V456.066H1567.3V460.408H1572.01V456.066H1575.41V468ZM1584.36 455.806C1586.2 455.806 1587.72 456.395 1588.91 457.574C1590.11 458.753 1590.71 460.243 1590.71 462.046C1590.71 463.831 1590.1 465.313 1588.89 466.492C1587.69 467.671 1586.18 468.26 1584.36 468.26C1582.54 468.26 1581.03 467.671 1579.81 466.492C1578.62 465.313 1578.02 463.831 1578.02 462.046C1578.02 460.243 1578.62 458.753 1579.81 457.574C1581.01 456.395 1582.53 455.806 1584.36 455.806ZM1584.36 458.874C1583.51 458.874 1582.8 459.177 1582.23 459.784C1581.68 460.373 1581.4 461.127 1581.4 462.046C1581.4 462.947 1581.68 463.701 1582.23 464.308C1582.8 464.897 1583.51 465.192 1584.36 465.192C1585.21 465.192 1585.91 464.897 1586.47 464.308C1587.04 463.701 1587.33 462.947 1587.33 462.046C1587.33 461.127 1587.04 460.373 1586.47 459.784C1585.91 459.177 1585.21 458.874 1584.36 458.874ZM1598.81 458.874C1597.96 458.874 1597.25 459.177 1596.68 459.784C1596.12 460.373 1595.85 461.127 1595.85 462.046C1595.85 462.947 1596.12 463.701 1596.68 464.308C1597.25 464.897 1597.96 465.192 1598.81 465.192C1599.28 465.192 1599.72 465.097 1600.14 464.906C1600.57 464.698 1600.99 464.395 1601.38 463.996L1603.59 466.232C1602.94 466.925 1602.21 467.437 1601.41 467.766C1600.63 468.095 1599.76 468.26 1598.81 468.26C1596.99 468.26 1595.47 467.671 1594.26 466.492C1593.06 465.313 1592.47 463.831 1592.47 462.046C1592.47 460.243 1593.06 458.753 1594.26 457.574C1595.46 456.395 1596.97 455.806 1598.81 455.806C1599.64 455.806 1600.44 455.971 1601.2 456.3C1601.98 456.612 1602.69 457.063 1603.33 457.652L1601.12 459.888C1600.76 459.541 1600.39 459.29 1600.01 459.134C1599.62 458.961 1599.23 458.874 1598.81 458.874ZM1608.6 459.03H1604.62V456.066H1616.01V459.03H1612.03V468H1608.6V459.03ZM1629.36 464.074C1629.36 465.287 1628.91 466.249 1628.01 466.96C1627.12 467.653 1625.95 468 1624.5 468H1618.33V456.066H1621.77V460.148H1624.39C1625.9 460.148 1627.1 460.503 1628.01 461.214C1628.91 461.907 1629.36 462.861 1629.36 464.074ZM1625.98 464.074C1625.98 463.589 1625.79 463.225 1625.41 462.982C1625.02 462.722 1624.48 462.592 1623.77 462.592H1621.77V465.556H1623.77C1624.48 465.556 1625.02 465.435 1625.41 465.192C1625.79 464.932 1625.98 464.559 1625.98 464.074ZM1518.08 497H1514.91V489.772L1509.91 497H1506.72V485.066H1509.91V492.268L1514.91 485.066H1518.08V497ZM1532.49 484.806C1534.33 484.806 1535.84 485.395 1537.04 486.574C1538.24 487.753 1538.83 489.243 1538.83 491.046C1538.83 492.831 1538.23 494.313 1537.01 495.492C1535.82 496.671 1534.31 497.26 1532.49 497.26C1530.67 497.26 1529.15 496.671 1527.94 495.492C1526.74 494.313 1526.15 492.831 1526.15 491.046C1526.15 489.243 1526.74 487.753 1527.94 486.574C1529.14 485.395 1530.65 484.806 1532.49 484.806ZM1532.49 487.874C1531.64 487.874 1530.93 488.177 1530.36 488.784C1529.8 489.373 1529.53 490.127 1529.53 491.046C1529.53 491.947 1529.8 492.701 1530.36 493.308C1530.93 493.897 1531.64 494.192 1532.49 494.192C1533.34 494.192 1534.04 493.897 1534.6 493.308C1535.17 492.701 1535.45 491.947 1535.45 491.046C1535.45 490.127 1535.17 489.373 1534.6 488.784C1534.04 488.177 1533.34 487.874 1532.49 487.874ZM1544.28 488.03H1540.31V485.066H1551.69V488.03H1547.72V497H1544.28V488.03ZM1557.92 492.32H1557.48V497H1554.02V485.066H1557.48V489.356H1557.94C1558.59 489.356 1559.13 489.209 1559.58 488.914C1560.03 488.602 1560.49 488.073 1560.96 487.328L1562.39 485.066H1566.06L1564.63 487.328C1564.21 488.039 1563.8 488.663 1563.4 489.2C1563.02 489.737 1562.65 490.197 1562.29 490.578L1566.55 497H1562.49L1559.5 492.19C1559.23 492.242 1558.96 492.277 1558.7 492.294C1558.44 492.311 1558.18 492.32 1557.92 492.32ZM1581.15 491.046C1581.15 492.814 1580.61 494.296 1579.54 495.492C1578.48 496.671 1577.16 497.26 1575.56 497.26C1574.83 497.26 1574.17 497.104 1573.56 496.792C1572.95 496.48 1572.43 496.021 1572 495.414V502.2H1568.54V485.066H1571.58L1571.97 486.678C1572.41 486.071 1572.93 485.612 1573.53 485.3C1574.16 484.971 1574.83 484.806 1575.56 484.806C1577.16 484.806 1578.48 485.404 1579.54 486.6C1580.61 487.779 1581.15 489.261 1581.15 491.046ZM1574.81 487.874C1573.96 487.874 1573.25 488.177 1572.68 488.784C1572.12 489.373 1571.84 490.127 1571.84 491.046C1571.84 491.947 1572.12 492.701 1572.68 493.308C1573.25 493.897 1573.96 494.192 1574.81 494.192C1575.66 494.192 1576.36 493.897 1576.91 493.308C1577.49 492.701 1577.77 491.947 1577.77 491.046C1577.77 490.127 1577.49 489.373 1576.91 488.784C1576.36 488.177 1575.66 487.874 1574.81 487.874ZM1594.78 493.074C1594.78 494.287 1594.32 495.249 1593.42 495.96C1592.54 496.653 1591.37 497 1589.91 497H1583.75V485.066H1587.18V489.148H1589.81C1591.32 489.148 1592.52 489.503 1593.42 490.214C1594.32 490.907 1594.78 491.861 1594.78 493.074ZM1591.4 493.074C1591.4 492.589 1591.2 492.225 1590.82 491.982C1590.44 491.722 1589.9 491.592 1589.19 491.592H1587.18V494.556H1589.19C1589.9 494.556 1590.44 494.435 1590.82 494.192C1591.2 493.932 1591.4 493.559 1591.4 493.074ZM1596.39 485.066H1599.85V497H1596.39V485.066ZM1606.19 488.03H1602.21V485.066H1613.6V488.03H1609.62V497H1606.19V488.03ZM1621.43 484.806C1623.27 484.806 1624.79 485.395 1625.98 486.574C1627.18 487.753 1627.78 489.243 1627.78 491.046C1627.78 492.831 1627.17 494.313 1625.96 495.492C1624.76 496.671 1623.25 497.26 1621.43 497.26C1619.61 497.26 1618.1 496.671 1616.88 495.492C1615.69 494.313 1615.09 492.831 1615.09 491.046C1615.09 489.243 1615.69 487.753 1616.88 486.574C1618.08 485.395 1619.6 484.806 1621.43 484.806ZM1621.43 487.874C1620.58 487.874 1619.87 488.177 1619.3 488.784C1618.75 489.373 1618.47 490.127 1618.47 491.046C1618.47 491.947 1618.75 492.701 1619.3 493.308C1619.87 493.897 1620.58 494.192 1621.43 494.192C1622.28 494.192 1622.98 493.897 1623.54 493.308C1624.11 492.701 1624.4 491.947 1624.4 491.046C1624.4 490.127 1624.11 489.373 1623.54 488.784C1622.98 488.177 1622.28 487.874 1621.43 487.874ZM1635.88 487.874C1635.03 487.874 1634.32 488.177 1633.75 488.784C1633.19 489.373 1632.92 490.127 1632.92 491.046C1632.92 491.947 1633.19 492.701 1633.75 493.308C1634.32 493.897 1635.03 494.192 1635.88 494.192C1636.35 494.192 1636.79 494.097 1637.21 493.906C1637.64 493.698 1638.06 493.395 1638.45 492.996L1640.66 495.232C1640.01 495.925 1639.28 496.437 1638.48 496.766C1637.7 497.095 1636.83 497.26 1635.88 497.26C1634.06 497.26 1632.54 496.671 1631.33 495.492C1630.13 494.313 1629.54 492.831 1629.54 491.046C1629.54 489.243 1630.13 487.753 1631.33 486.574C1632.53 485.395 1634.04 484.806 1635.88 484.806C1636.71 484.806 1637.51 484.971 1638.27 485.3C1639.05 485.612 1639.76 486.063 1640.4 486.652L1638.19 488.888C1637.83 488.541 1637.46 488.29 1637.08 488.134C1636.7 487.961 1636.3 487.874 1635.88 487.874ZM1645.67 488.03H1641.69V485.066H1653.08V488.03H1649.1V497H1645.67V488.03ZM1666.43 493.074C1666.43 494.287 1665.98 495.249 1665.08 495.96C1664.19 496.653 1663.02 497 1661.57 497H1655.4V485.066H1658.84V489.148H1661.46C1662.97 489.148 1664.17 489.503 1665.08 490.214C1665.98 490.907 1666.43 491.861 1666.43 493.074ZM1663.05 493.074C1663.05 492.589 1662.86 492.225 1662.48 491.982C1662.09 491.722 1661.55 491.592 1660.84 491.592H1658.84V494.556H1660.84C1661.55 494.556 1662.09 494.435 1662.48 494.192C1662.86 493.932 1663.05 493.559 1663.05 493.074Z" fill="#2A2A2A"/>
<circle cx="1430" cy="474" r="50" fill="white"/>
<g filter="url(#filter4_d_103_802)">
<circle cx="1430" cy="474" r="30" fill="white"/>
<circle cx="1430" cy="474" r="29.55" stroke="white" stroke-width="0.9"/>
</g>
<g filter="url(#filter5_d_103_802)">
<circle cx="1430" cy="474" r="15" fill="#C6202C"/>
</g>
<path d="M1431.38 474C1431.38 473.448 1430.94 473 1430.38 473L1421.38 473C1420.83 473 1420.38 473.448 1420.38 474C1420.38 474.552 1420.83 475 1421.38 475L1429.38 475L1429.38 483C1429.38 483.552 1429.83 484 1430.38 484C1430.94 484 1431.38 483.552 1431.38 483L1431.38 474ZM1412.71 493.092L1431.09 474.707L1429.68 473.293L1411.29 491.678L1412.71 493.092Z" fill="white"/>
<path d="M1118.13 111H1114.42L1109.63 97.558L1104.82 111H1101.31L1107.97 93.19H1111.48L1118.13 111ZM1131.63 98.806C1133.46 98.806 1134.98 99.3953 1136.18 100.574C1137.37 101.753 1137.97 103.243 1137.97 105.046C1137.97 106.831 1137.36 108.313 1136.15 109.492C1134.95 110.671 1133.45 111.26 1131.63 111.26C1130.05 111.26 1128.69 110.809 1127.54 109.908C1126.42 109.007 1125.71 107.828 1125.41 106.372H1123.62V111H1120.16V99.066H1123.62V103.408H1125.49C1125.84 102.021 1126.56 100.912 1127.67 100.08C1128.8 99.2307 1130.12 98.806 1131.63 98.806ZM1131.63 101.874C1130.78 101.874 1130.07 102.177 1129.49 102.784C1128.94 103.373 1128.66 104.127 1128.66 105.046C1128.66 105.947 1128.94 106.701 1129.49 107.308C1130.07 107.897 1130.78 108.192 1131.63 108.192C1132.47 108.192 1133.18 107.897 1133.73 107.308C1134.3 106.701 1134.59 105.947 1134.59 105.046C1134.59 104.127 1134.3 103.373 1133.73 102.784C1133.18 102.177 1132.47 101.874 1131.63 101.874ZM1153.7 114.718H1150.63V111H1142.29V114.718H1139.22V108.296H1140.68L1144.55 99.066H1148.27L1152.22 108.296H1153.7V114.718ZM1146.37 101.926L1143.85 108.296H1148.92L1146.37 101.926ZM1167.12 111H1163.95V103.772L1158.96 111H1155.76V99.066H1158.96V106.268L1163.95 99.066H1167.12V111Z" fill="#2A2A2A"/>
<g filter="url(#filter6_d_103_802)">
<circle cx="1135" cy="198" r="50" fill="white"/>
</g>
<g filter="url(#filter7_d_103_802)">
<circle cx="1135" cy="198" r="15" fill="#C6202C"/>
</g>
<path d="M1129 204L1141 192" stroke="white" stroke-width="1.5" stroke-linejoin="round"/>
<path d="M1129 192L1141 204" stroke="white" stroke-width="1.5" stroke-linejoin="round"/>
<circle cx="740" cy="310" r="50" fill="white"/>
<g filter="url(#filter8_d_103_802)">
<circle cx="740" cy="310" r="30" fill="white"/>
<circle cx="740" cy="310" r="29.55" stroke="white" stroke-width="0.9"/>
</g>
<g filter="url(#filter9_d_103_802)">
<circle cx="740" cy="310" r="15" fill="#C6202C"/>
</g>
<path d="M741.385 310C741.385 309.448 740.937 309 740.385 309L731.385 309C730.832 309 730.385 309.448 730.385 310C730.385 310.552 730.832 311 731.385 311L739.385 311L739.385 319C739.385 319.552 739.832 320 740.385 320C740.937 320 741.385 319.552 741.385 319L741.385 310ZM722.707 329.092L741.092 310.707L739.678 309.293L721.293 327.678L722.707 329.092Z" fill="white"/>
<path d="M685.746 220.362H680.52V217.19H694.534V220.362H689.308V235H685.746V220.362ZM708.215 229.046C708.215 230.814 707.677 232.296 706.603 233.492C705.545 234.671 704.219 235.26 702.625 235.26C701.897 235.26 701.229 235.104 700.623 234.792C700.016 234.48 699.496 234.021 699.063 233.414V240.2H695.605V223.066H698.647L699.037 224.678C699.47 224.071 699.99 223.612 700.597 223.3C701.221 222.971 701.897 222.806 702.625 222.806C704.219 222.806 705.545 223.404 706.603 224.6C707.677 225.779 708.215 227.261 708.215 229.046ZM701.871 225.874C701.021 225.874 700.311 226.177 699.739 226.784C699.184 227.373 698.907 228.127 698.907 229.046C698.907 229.947 699.184 230.701 699.739 231.308C700.311 231.897 701.021 232.192 701.871 232.192C702.72 232.192 703.422 231.897 703.977 231.308C704.549 230.701 704.835 229.947 704.835 229.046C704.835 228.127 704.549 227.373 703.977 226.784C703.422 226.177 702.72 225.874 701.871 225.874ZM722.592 235H719.55L719.16 233.388C718.726 233.995 718.198 234.463 717.574 234.792C716.95 235.104 716.282 235.26 715.572 235.26C713.977 235.26 712.642 234.671 711.568 233.492C710.51 232.296 709.982 230.814 709.982 229.046C709.982 227.261 710.51 225.779 711.568 224.6C712.642 223.404 713.977 222.806 715.572 222.806C716.3 222.806 716.967 222.971 717.574 223.3C718.198 223.612 718.726 224.071 719.16 224.678L719.55 223.066H722.592V235ZM713.362 229.046C713.362 229.947 713.639 230.701 714.194 231.308C714.766 231.897 715.476 232.192 716.326 232.192C717.175 232.192 717.877 231.897 718.432 231.308C719.004 230.701 719.29 229.947 719.29 229.046C719.29 228.127 719.004 227.373 718.432 226.784C717.877 226.177 717.175 225.874 716.326 225.874C715.476 225.874 714.766 226.177 714.194 226.784C713.639 227.373 713.362 228.127 713.362 229.046ZM739.127 238.718H736.059V235H727.713V238.718H724.645V232.296H726.101L729.975 223.066H733.693L737.645 232.296H739.127V238.718ZM731.795 225.926L729.273 232.296H734.343L731.795 225.926ZM752.543 235H749.371V227.772L744.379 235H741.181V223.066H744.379V230.268L749.371 223.066H752.543V235ZM769.556 238.718H766.332V235H755.984V223.066H759.416V232.036H763.94V223.066H767.372V232.036H769.556V238.718ZM782.986 235H779.814V227.772L774.822 235H771.624V223.066H774.822V230.268L779.814 223.066H782.986V235ZM797.789 235H794.617V227.772L789.625 235H786.427V223.066H789.625V230.268L794.617 223.066H797.789V235Z" fill="#2A2A2A"/>
<path d="M264.058 10.486H263.72V18H260.158V0.189998H263.72V7.314H264.006C264.925 7.314 265.618 7.17533 266.086 6.898C266.554 6.60333 267.057 6.014 267.594 5.13L270.61 0.189998H274.432L271.416 5.104C270.983 5.81467 270.575 6.43867 270.194 6.976C269.83 7.496 269.475 7.95533 269.128 8.354L275.03 18H270.948L266.216 10.252C265.887 10.3387 265.54 10.3993 265.176 10.434C264.829 10.4687 264.457 10.486 264.058 10.486ZM288.582 18H285.54L285.15 16.388C284.717 16.9947 284.188 17.4627 283.564 17.792C282.94 18.104 282.273 18.26 281.562 18.26C279.967 18.26 278.633 17.6707 277.558 16.492C276.501 15.296 275.972 13.814 275.972 12.046C275.972 10.2607 276.501 8.77867 277.558 7.6C278.633 6.404 279.967 5.806 281.562 5.806C282.29 5.806 282.957 5.97067 283.564 6.3C284.188 6.612 284.717 7.07133 285.15 7.678L285.54 6.066H288.582V18ZM279.352 12.046C279.352 12.9473 279.629 13.7013 280.184 14.308C280.756 14.8973 281.467 15.192 282.316 15.192C283.165 15.192 283.867 14.8973 284.422 14.308C284.994 13.7013 285.28 12.9473 285.28 12.046C285.28 11.1273 284.994 10.3733 284.422 9.784C283.867 9.17733 283.165 8.874 282.316 8.874C281.467 8.874 280.756 9.17733 280.184 9.784C279.629 10.3733 279.352 11.1273 279.352 12.046ZM299.267 6.066H302.725V18H299.267V12.956C298.747 13.4413 298.201 13.7967 297.629 14.022C297.074 14.2473 296.459 14.36 295.783 14.36C294.431 14.36 293.339 13.918 292.507 13.034C291.692 12.15 291.285 10.98 291.285 9.524V6.066H294.743V9.03C294.743 9.706 294.925 10.2433 295.289 10.642C295.67 11.0233 296.182 11.214 296.823 11.214C297.308 11.214 297.742 11.1273 298.123 10.954C298.522 10.7633 298.903 10.4687 299.267 10.07V6.066ZM314.813 14.178L316.503 16.362C315.879 16.986 315.151 17.4627 314.319 17.792C313.505 18.104 312.621 18.26 311.667 18.26C309.847 18.26 308.331 17.6707 307.117 16.492C305.921 15.3133 305.323 13.8313 305.323 12.046C305.323 10.278 305.904 8.796 307.065 7.6C308.227 6.404 309.674 5.806 311.407 5.806C313.141 5.806 314.588 6.404 315.749 7.6C316.911 8.796 317.491 10.278 317.491 12.046C317.491 12.2887 317.483 12.514 317.465 12.722C317.448 12.93 317.431 13.086 317.413 13.19H308.547C308.755 13.9007 309.137 14.464 309.691 14.88C310.246 15.296 310.905 15.504 311.667 15.504C312.274 15.504 312.82 15.4 313.305 15.192C313.808 14.984 314.311 14.646 314.813 14.178ZM311.407 8.562C310.749 8.562 310.168 8.76133 309.665 9.16C309.163 9.54133 308.807 10.07 308.599 10.746H314.215C314.007 10.07 313.652 9.54133 313.149 9.16C312.664 8.76133 312.083 8.562 311.407 8.562ZM325.505 8.874C324.656 8.874 323.945 9.17733 323.373 9.784C322.819 10.3733 322.541 11.1273 322.541 12.046C322.541 12.9473 322.819 13.7013 323.373 14.308C323.945 14.8973 324.656 15.192 325.505 15.192C325.973 15.192 326.415 15.0967 326.831 14.906C327.265 14.698 327.681 14.3947 328.079 13.996L330.289 16.232C329.631 16.9253 328.903 17.4367 328.105 17.766C327.325 18.0953 326.459 18.26 325.505 18.26C323.685 18.26 322.169 17.6707 320.955 16.492C319.759 15.3133 319.161 13.8313 319.161 12.046C319.161 10.2433 319.759 8.75267 320.955 7.574C322.151 6.39533 323.668 5.806 325.505 5.806C326.337 5.806 327.135 5.97067 327.897 6.3C328.677 6.612 329.388 7.06267 330.029 7.652L327.819 9.888C327.455 9.54133 327.083 9.29 326.701 9.134C326.32 8.96067 325.921 8.874 325.505 8.874ZM335.295 9.03H331.317V6.066H342.705V9.03H338.727V18H335.295V9.03ZM351.191 18H345.028V6.066H351.633C352.95 6.066 353.999 6.34333 354.779 6.898C355.576 7.45267 355.975 8.198 355.975 9.134C355.975 9.74067 355.784 10.278 355.403 10.746C355.021 11.214 354.467 11.578 353.739 11.838C354.623 12.0807 355.299 12.4447 355.767 12.93C356.252 13.4153 356.495 13.996 356.495 14.672C356.495 15.7467 356.035 16.57 355.117 17.142C354.215 17.714 352.907 18 351.191 18ZM352.595 9.576C352.595 9.22933 352.439 8.96933 352.127 8.796C351.815 8.60533 351.355 8.51 350.749 8.51H348.383V10.694H350.749C351.355 10.694 351.815 10.5987 352.127 10.408C352.439 10.2173 352.595 9.94 352.595 9.576ZM353.037 14.36C353.037 13.944 352.855 13.6407 352.491 13.45C352.144 13.242 351.607 13.138 350.879 13.138H348.383V15.556H350.879C351.607 15.556 352.144 15.4607 352.491 15.27C352.855 15.062 353.037 14.7587 353.037 14.36ZM364.683 5.806C366.52 5.806 368.037 6.39533 369.233 7.574C370.429 8.75267 371.027 10.2433 371.027 12.046C371.027 13.8313 370.42 15.3133 369.207 16.492C368.011 17.6707 366.503 18.26 364.683 18.26C362.863 18.26 361.346 17.6707 360.133 16.492C358.937 15.3133 358.339 13.8313 358.339 12.046C358.339 10.2433 358.937 8.75267 360.133 7.574C361.329 6.39533 362.846 5.806 364.683 5.806ZM364.683 8.874C363.834 8.874 363.123 9.17733 362.551 9.784C361.996 10.3733 361.719 11.1273 361.719 12.046C361.719 12.9473 361.996 13.7013 362.551 14.308C363.123 14.8973 363.834 15.192 364.683 15.192C365.532 15.192 366.234 14.8973 366.789 14.308C367.361 13.7013 367.647 12.9473 367.647 12.046C367.647 11.1273 367.361 10.3733 366.789 9.784C366.234 9.17733 365.532 8.874 364.683 8.874Z" fill="#2A2A2A"/>
<circle cx="315" cy="93" r="50" fill="white"/>
<g filter="url(#filter10_d_103_802)">
<circle cx="315" cy="93" r="30" fill="white"/>
<circle cx="315" cy="93" r="29.55" stroke="white" stroke-width="0.9"/>
</g>
<g filter="url(#filter11_d_103_802)">
<circle cx="315" cy="93" r="15" fill="#C6202C"/>
</g>
<path d="M316.385 93C316.385 92.4477 315.937 92 315.385 92L306.385 92C305.832 92 305.385 92.4477 305.385 93C305.385 93.5523 305.832 94 306.385 94L314.385 94L314.385 102C314.385 102.552 314.832 103 315.385 103C315.937 103 316.385 102.552 316.385 102L316.385 93ZM297.707 112.092L316.092 93.7071L314.678 92.2929L296.293 110.678L297.707 112.092Z" fill="white"/>
<g filter="url(#filter12_b_103_802)">
<path fill-rule="evenodd" clip-rule="evenodd" d="M1123 153C1123 144.716 1116.28 138 1108 138H777C768.716 138 762 144.716 762 153V273C762 281.284 768.716 288 777 288H1108C1116.28 288 1123 281.284 1123 273V235.319C1123 229.357 1119.21 224.198 1114.8 220.183C1108.78 214.696 1105 206.79 1105 198C1105 189.21 1108.78 181.304 1114.8 175.817C1119.21 171.802 1123 166.643 1123 160.681V153Z" fill="#D5DAD3" fill-opacity="0.9"/>
</g>
<path d="M864 170.002L864 162.001L856 162.001L856 154.001L848 154.001L848 146L840.001 146L840.001 138L800.002 138L800.002 146L791.997 146L791.997 154.001L784 154.001L784 162.001L776 162.001L776 170.002L784 170.002L784 178.002L791.997 178.002L791.997 186L799.997 186L799.997 178.002L807.997 178.002L807.997 170.002L815.997 170.002L815.997 162.001L823.996 162.001L823.996 170.002L831.996 170.002L831.996 178.002L839.996 178.002L839.996 186L847.996 186L847.996 178.002L855.996 178.002L855.996 170.002L864 170.002ZM816.001 146L816.001 154.001L808.001 154.001L808.001 162.001L800.002 162.001L800.002 170.002L791.997 170.002L791.997 162.001L799.997 162.001L799.997 154.001L807.997 154.001L807.997 146L816.001 146ZM848 162.001L848 170.002L840.001 170.002L840.001 162.001L832.001 162.001L832.001 154.001L824.001 154.001L824.001 146L832.001 146L832.001 154.001L840.001 154.001L840.001 162.001L848 162.001Z" fill="white" fill-opacity="0.4"/>
<path d="M800.208 178V176.304C800.933 176.4 801.461 176.224 801.792 175.776C802.133 175.317 802.304 174.485 802.304 173.28V166.8H809.808V178H807.968V168.56H804.144V173.248C804.144 175.2 803.744 176.533 802.944 177.248C802.229 177.867 801.317 178.117 800.208 178ZM819.066 169.792C820.25 169.792 821.247 170.197 822.058 171.008C822.879 171.829 823.29 172.827 823.29 174C823.29 175.173 822.879 176.171 822.058 176.992C821.247 177.803 820.25 178.208 819.066 178.208C818.031 178.208 817.135 177.893 816.378 177.264C815.621 176.624 815.157 175.808 814.986 174.816H813.658V178H811.93V170H813.658V173.184H814.986C815.167 172.181 815.631 171.371 816.378 170.752C817.135 170.112 818.031 169.792 819.066 169.792ZM816.57 174C816.57 174.725 816.81 175.328 817.29 175.808C817.77 176.288 818.362 176.528 819.066 176.528C819.77 176.528 820.362 176.288 820.842 175.808C821.322 175.328 821.562 174.725 821.562 174C821.562 173.275 821.322 172.672 820.842 172.192C820.362 171.712 819.77 171.472 819.066 171.472C818.362 171.472 817.77 171.712 817.29 172.192C816.81 172.672 816.57 173.275 816.57 174ZM831.579 170V176.368H832.651V180.144H830.955V178H825.467V180.144H823.771V176.368H824.747C825.238 175.685 825.483 174.72 825.483 173.472V170H831.579ZM826.651 176.368H829.883V171.584H827.179V173.472C827.179 174.624 827.003 175.589 826.651 176.368ZM835.751 175.072L839.847 170H841.175V178H839.479V172.912L835.383 178H834.055V170H835.751V175.072ZM855.452 173.568H847.452V172.544H855.452V173.568ZM868.558 176.992C867.737 177.792 866.745 178.192 865.582 178.192C864.398 178.192 863.401 177.792 862.59 176.992C861.78 176.181 861.374 175.184 861.374 174C861.374 172.816 861.78 171.824 862.59 171.024C863.401 170.213 864.398 169.808 865.582 169.808C866.756 169.808 867.748 170.213 868.558 171.024C869.38 171.824 869.79 172.816 869.79 174C869.79 175.173 869.38 176.171 868.558 176.992ZM863.342 176.256C863.95 176.864 864.697 177.168 865.582 177.168C866.468 177.168 867.214 176.864 867.822 176.256C868.43 175.627 868.734 174.875 868.734 174C868.734 173.115 868.43 172.368 867.822 171.76C867.214 171.141 866.468 170.832 865.582 170.832C864.697 170.832 863.95 171.141 863.342 171.76C862.734 172.368 862.43 173.115 862.43 174C862.43 174.875 862.734 175.627 863.342 176.256ZM875.286 178.192C874.08 178.192 873.078 177.792 872.278 176.992C871.478 176.171 871.078 175.173 871.078 174C871.078 172.816 871.478 171.824 872.278 171.024C873.078 170.213 874.08 169.808 875.286 169.808C876.075 169.808 876.784 170 877.414 170.384C878.043 170.757 878.502 171.264 878.79 171.904L877.926 172.4C877.712 171.92 877.366 171.541 876.886 171.264C876.416 170.976 875.883 170.832 875.286 170.832C874.4 170.832 873.654 171.141 873.046 171.76C872.438 172.368 872.134 173.115 872.134 174C872.134 174.875 872.438 175.627 873.046 176.256C873.654 176.864 874.4 177.168 875.286 177.168C875.872 177.168 876.4 177.029 876.87 176.752C877.35 176.475 877.723 176.091 877.99 175.6L878.87 176.112C878.539 176.752 878.054 177.259 877.414 177.632C876.774 178.005 876.064 178.192 875.286 178.192ZM886.05 173.488V170H887.106V178H886.05V174.512H881.442V178H880.386V170H881.442V173.488H886.05ZM896.043 176.992C895.221 177.792 894.229 178.192 893.067 178.192C891.883 178.192 890.885 177.792 890.075 176.992C889.264 176.181 888.859 175.184 888.859 174C888.859 172.816 889.264 171.824 890.075 171.024C890.885 170.213 891.883 169.808 893.067 169.808C894.24 169.808 895.232 170.213 896.043 171.024C896.864 171.824 897.275 172.816 897.275 174C897.275 175.173 896.864 176.171 896.043 176.992ZM890.827 176.256C891.435 176.864 892.181 177.168 893.067 177.168C893.952 177.168 894.699 176.864 895.307 176.256C895.915 175.627 896.219 174.875 896.219 174C896.219 173.115 895.915 172.368 895.307 171.76C894.699 171.141 893.952 170.832 893.067 170.832C892.181 170.832 891.435 171.141 890.827 171.76C890.219 172.368 889.915 173.115 889.915 174C889.915 174.875 890.219 175.627 890.827 176.256ZM904.13 173.888C905.005 174.208 905.442 174.832 905.442 175.76C905.442 176.421 905.218 176.96 904.77 177.376C904.333 177.792 903.719 178 902.93 178H899.042V170H902.61C903.378 170 903.975 170.197 904.402 170.592C904.839 170.987 905.058 171.504 905.058 172.144C905.058 172.944 904.749 173.525 904.13 173.888ZM902.61 171.024H900.098V173.456H902.61C903.538 173.456 904.002 173.04 904.002 172.208C904.002 171.835 903.879 171.547 903.634 171.344C903.399 171.131 903.058 171.024 902.61 171.024ZM900.098 176.976H902.93C903.399 176.976 903.757 176.864 904.002 176.64C904.258 176.416 904.386 176.101 904.386 175.696C904.386 175.312 904.258 175.013 904.002 174.8C903.757 174.587 903.399 174.48 902.93 174.48H900.098V176.976ZM913.922 171.568V170H914.978V178H913.922V176.432C913.186 177.605 912.109 178.192 910.69 178.192C909.549 178.192 908.573 177.787 907.762 176.976C906.962 176.165 906.562 175.173 906.562 174C906.562 172.827 906.962 171.835 907.762 171.024C908.573 170.213 909.549 169.808 910.69 169.808C912.109 169.808 913.186 170.395 913.922 171.568ZM908.53 176.256C909.138 176.864 909.885 177.168 910.77 177.168C911.655 177.168 912.402 176.864 913.01 176.256C913.618 175.627 913.922 174.875 913.922 174C913.922 173.115 913.618 172.368 913.01 171.76C912.402 171.141 911.655 170.832 910.77 170.832C909.885 170.832 909.138 171.141 908.53 171.76C907.922 172.368 907.618 173.115 907.618 174C907.618 174.875 907.922 175.627 908.53 176.256ZM926.878 173.488V170H927.934V178H926.878V174.512H922.27V178H921.214V170H922.27V173.488H926.878ZM937.047 171.568V170H938.103V178H937.047V176.432C936.311 177.605 935.234 178.192 933.815 178.192C932.674 178.192 931.698 177.787 930.887 176.976C930.087 176.165 929.687 175.173 929.687 174C929.687 172.827 930.087 171.835 930.887 171.024C931.698 170.213 932.674 169.808 933.815 169.808C935.234 169.808 936.311 170.395 937.047 171.568ZM931.655 176.256C932.263 176.864 933.01 177.168 933.895 177.168C934.78 177.168 935.527 176.864 936.135 176.256C936.743 175.627 937.047 174.875 937.047 174C937.047 173.115 936.743 172.368 936.135 171.76C935.527 171.141 934.78 170.832 933.895 170.832C933.01 170.832 932.263 171.141 931.655 171.76C931.047 172.368 930.743 173.115 930.743 174C930.743 174.875 931.047 175.627 931.655 176.256ZM950.003 176.976V170H951.059V178H940.339V170H941.395V176.976H945.171V170H946.227V176.976H950.003ZM956.988 169.808C958.183 169.808 959.137 170.229 959.852 171.072C960.588 171.904 960.956 172.891 960.956 174.032C960.956 174.085 960.945 174.251 960.924 174.528H953.9C954.007 175.328 954.348 175.968 954.924 176.448C955.5 176.928 956.22 177.168 957.084 177.168C958.3 177.168 959.159 176.715 959.66 175.808L960.588 176.352C960.236 176.928 959.751 177.381 959.132 177.712C958.524 178.032 957.836 178.192 957.068 178.192C955.809 178.192 954.785 177.797 953.996 177.008C953.207 176.219 952.812 175.216 952.812 174C952.812 172.795 953.201 171.797 953.98 171.008C954.759 170.208 955.761 169.808 956.988 169.808ZM956.988 170.832C956.156 170.832 955.457 171.077 954.892 171.568C954.337 172.059 954.007 172.704 953.9 173.504H959.868C959.751 172.651 959.425 171.995 958.892 171.536C958.337 171.067 957.703 170.832 956.988 170.832ZM962.636 170H967.756V171.024H963.692V178H962.636V170ZM975.433 176.992C974.612 177.792 973.62 178.192 972.457 178.192C971.273 178.192 970.276 177.792 969.465 176.992C968.655 176.181 968.249 175.184 968.249 174C968.249 172.816 968.655 171.824 969.465 171.024C970.276 170.213 971.273 169.808 972.457 169.808C973.631 169.808 974.623 170.213 975.433 171.024C976.255 171.824 976.665 172.816 976.665 174C976.665 175.173 976.255 176.171 975.433 176.992ZM970.217 176.256C970.825 176.864 971.572 177.168 972.457 177.168C973.343 177.168 974.089 176.864 974.697 176.256C975.305 175.627 975.609 174.875 975.609 174C975.609 173.115 975.305 172.368 974.697 171.76C974.089 171.141 973.343 170.832 972.457 170.832C971.572 170.832 970.825 171.141 970.217 171.76C969.609 172.368 969.305 173.115 969.305 174C969.305 174.875 969.609 175.627 970.217 176.256ZM983.265 170H988.993V178H987.937V171.024H984.321V174.592C984.321 175.925 984.065 176.843 983.553 177.344C983.051 177.845 982.358 178.064 981.473 178V177.008C982.091 177.072 982.545 176.923 982.833 176.56C983.121 176.197 983.265 175.541 983.265 174.592V170ZM998.061 169.808C999.235 169.808 1000.23 170.213 1001.04 171.024C1001.86 171.824 1002.27 172.816 1002.27 174C1002.27 175.173 1001.86 176.171 1001.04 176.992C1000.22 177.792 999.224 178.192 998.061 178.192C996.995 178.192 996.067 177.845 995.277 177.152C994.499 176.437 994.056 175.557 993.949 174.512H992.285V178H991.229V170H992.285V173.488H993.949C994.067 172.432 994.509 171.557 995.277 170.864C996.056 170.16 996.984 169.808 998.061 169.808ZM995.821 176.256C996.429 176.864 997.176 177.168 998.061 177.168C998.947 177.168 999.693 176.864 1000.3 176.256C1000.91 175.627 1001.21 174.875 1001.21 174C1001.21 173.115 1000.91 172.368 1000.3 171.76C999.693 171.141 998.947 170.832 998.061 170.832C997.176 170.832 996.429 171.141 995.821 171.76C995.213 172.368 994.909 173.115 994.909 174C994.909 174.875 995.213 175.627 995.821 176.256ZM1007.58 178.192C1006.44 178.192 1005.48 177.813 1004.7 177.056C1003.93 176.288 1003.55 175.296 1003.55 174.08C1003.55 172.715 1003.75 171.669 1004.15 170.944C1004.56 170.208 1005.38 169.541 1006.62 168.944C1007.01 168.763 1007.32 168.624 1007.55 168.528C1007.92 168.379 1008.21 168.251 1008.43 168.144C1009.35 167.717 1009.82 167.189 1009.83 166.56L1010.67 167.04C1010.61 167.307 1010.53 167.547 1010.41 167.76C1010.27 167.995 1010.13 168.181 1009.99 168.32C1009.87 168.459 1009.66 168.608 1009.39 168.768C1009.2 168.875 1008.99 168.992 1008.73 169.12L1007.93 169.456L1007.18 169.776C1006.44 170.096 1005.89 170.432 1005.53 170.784C1005.18 171.125 1004.93 171.573 1004.78 172.128C1005.12 171.669 1005.57 171.323 1006.12 171.088C1006.68 170.843 1007.24 170.72 1007.8 170.72C1008.87 170.72 1009.75 171.072 1010.44 171.776C1011.15 172.469 1011.5 173.36 1011.5 174.448C1011.5 175.525 1011.12 176.421 1010.38 177.136C1009.64 177.84 1008.71 178.192 1007.58 178.192ZM1005.5 176.352C1006.05 176.875 1006.75 177.136 1007.58 177.136C1008.41 177.136 1009.09 176.885 1009.63 176.384C1010.17 175.872 1010.44 175.227 1010.44 174.448C1010.44 173.659 1010.19 173.013 1009.67 172.512C1009.17 172 1008.5 171.744 1007.66 171.744C1006.9 171.744 1006.21 171.984 1005.59 172.464C1004.98 172.923 1004.67 173.552 1004.67 174.352C1004.67 175.163 1004.94 175.829 1005.5 176.352ZM1014.16 176.16L1018.93 170H1019.82V178H1018.77V171.84L1014 178H1013.1V170H1014.16V176.16ZM1028.68 170H1029.9V178H1028.84V171.616L1026.04 176.16H1025.91L1023.11 171.616V178H1022.06V170H1023.27L1025.98 174.384L1028.68 170ZM1038.84 176.992C1038.02 177.792 1037.03 178.192 1035.86 178.192C1034.68 178.192 1033.68 177.792 1032.87 176.992C1032.06 176.181 1031.66 175.184 1031.66 174C1031.66 172.816 1032.06 171.824 1032.87 171.024C1033.68 170.213 1034.68 169.808 1035.86 169.808C1037.04 169.808 1038.03 170.213 1038.84 171.024C1039.66 171.824 1040.07 172.816 1040.07 174C1040.07 175.173 1039.66 176.171 1038.84 176.992ZM1033.62 176.256C1034.23 176.864 1034.98 177.168 1035.86 177.168C1036.75 177.168 1037.5 176.864 1038.1 176.256C1038.71 175.627 1039.02 174.875 1039.02 174C1039.02 173.115 1038.71 172.368 1038.1 171.76C1037.5 171.141 1036.75 170.832 1035.86 170.832C1034.98 170.832 1034.23 171.141 1033.62 171.76C1033.02 172.368 1032.71 173.115 1032.71 174C1032.71 174.875 1033.02 175.627 1033.62 176.256ZM1041.84 170H1046.96V171.024H1042.89V178H1041.84V170ZM1054.64 176.992C1053.82 177.792 1052.82 178.192 1051.66 178.192C1050.48 178.192 1049.48 177.792 1048.67 176.992C1047.86 176.181 1047.45 175.184 1047.45 174C1047.45 172.816 1047.86 171.824 1048.67 171.024C1049.48 170.213 1050.48 169.808 1051.66 169.808C1052.83 169.808 1053.83 170.213 1054.64 171.024C1055.46 171.824 1055.87 172.816 1055.87 174C1055.87 175.173 1055.46 176.171 1054.64 176.992ZM1049.42 176.256C1050.03 176.864 1050.78 177.168 1051.66 177.168C1052.55 177.168 1053.29 176.864 1053.9 176.256C1054.51 175.627 1054.81 174.875 1054.81 174C1054.81 173.115 1054.51 172.368 1053.9 171.76C1053.29 171.141 1052.55 170.832 1051.66 170.832C1050.78 170.832 1050.03 171.141 1049.42 171.76C1048.81 172.368 1048.51 173.115 1048.51 174C1048.51 174.875 1048.81 175.627 1049.42 176.256ZM807.84 189V195.976H808.96V199.144H807.904V197H801.376V199.144H800.32V195.976H801.296C801.84 195.251 802.112 194.243 802.112 192.952V189H807.84ZM802.576 195.976H806.784V190.024H803.168V192.952C803.168 194.189 802.971 195.197 802.576 195.976ZM813.941 188.808C815.136 188.808 816.09 189.229 816.805 190.072C817.541 190.904 817.909 191.891 817.909 193.032C817.909 193.085 817.898 193.251 817.877 193.528H810.853C810.96 194.328 811.301 194.968 811.877 195.448C812.453 195.928 813.173 196.168 814.037 196.168C815.253 196.168 816.112 195.715 816.613 194.808L817.541 195.352C817.189 195.928 816.704 196.381 816.085 196.712C815.477 197.032 814.789 197.192 814.021 197.192C812.762 197.192 811.738 196.797 810.949 196.008C810.16 195.219 809.765 194.216 809.765 193C809.765 191.795 810.154 190.797 810.933 190.008C811.712 189.208 812.714 188.808 813.941 188.808ZM813.941 189.832C813.109 189.832 812.41 190.077 811.845 190.568C811.29 191.059 810.96 191.704 810.853 192.504H816.821C816.704 191.651 816.378 190.995 815.845 190.536C815.29 190.067 814.656 189.832 813.941 189.832ZM820.108 189H825.836V197H824.78V190.024H821.164V193.592C821.164 194.925 820.908 195.843 820.396 196.344C819.895 196.845 819.202 197.064 818.316 197V196.008C818.935 196.072 819.388 195.923 819.676 195.56C819.964 195.197 820.108 194.541 820.108 193.592V189ZM834.953 190.568V189H836.009V197H834.953V195.432C834.217 196.605 833.14 197.192 831.721 197.192C830.58 197.192 829.604 196.787 828.793 195.976C827.993 195.165 827.593 194.173 827.593 193C827.593 191.827 827.993 190.835 828.793 190.024C829.604 189.213 830.58 188.808 831.721 188.808C833.14 188.808 834.217 189.395 834.953 190.568ZM829.561 195.256C830.169 195.864 830.916 196.168 831.801 196.168C832.686 196.168 833.433 195.864 834.041 195.256C834.649 194.627 834.953 193.875 834.953 193C834.953 192.115 834.649 191.368 834.041 190.76C833.433 190.141 832.686 189.832 831.801 189.832C830.916 189.832 830.169 190.141 829.561 190.76C828.953 191.368 828.649 192.115 828.649 193C828.649 193.875 828.953 194.627 829.561 195.256ZM839.845 196.28C839.845 196.525 839.76 196.733 839.589 196.904C839.418 197.075 839.21 197.16 838.965 197.16C838.72 197.16 838.512 197.075 838.341 196.904C838.17 196.733 838.085 196.525 838.085 196.28C838.085 196.035 838.17 195.827 838.341 195.656C838.512 195.485 838.72 195.4 838.965 195.4C839.21 195.4 839.418 195.485 839.589 195.656C839.76 195.827 839.845 196.035 839.845 196.28ZM854.941 185.8H856.333V197H855.213V187.496L851.293 194.056H851.133L847.213 187.496V197H846.093V185.8H847.485L851.213 192.04L854.941 185.8ZM859.785 192.04H861.977C862.713 192.04 863.343 192.275 863.865 192.744C864.388 193.203 864.649 193.795 864.649 194.52C864.649 195.256 864.388 195.853 863.865 196.312C863.364 196.771 862.735 197 861.977 197H858.729V189H859.785V192.04ZM865.769 197V189H866.825V197H865.769ZM859.785 195.976H861.977C862.436 195.976 862.82 195.843 863.129 195.576C863.439 195.299 863.593 194.947 863.593 194.52C863.593 194.093 863.439 193.747 863.129 193.48C862.82 193.203 862.436 193.064 861.977 193.064H859.785V195.976ZM877.201 192.888C878.129 193.24 878.593 193.88 878.593 194.808C878.593 195.48 878.332 196.045 877.809 196.504C877.308 196.963 876.572 197.192 875.601 197.192C873.98 197.192 872.924 196.552 872.433 195.272L873.329 194.744C873.67 195.693 874.428 196.168 875.601 196.168C876.209 196.168 876.684 196.04 877.025 195.784C877.366 195.517 877.537 195.171 877.537 194.744C877.537 194.36 877.398 194.056 877.121 193.832C876.844 193.597 876.47 193.48 876.001 193.48H874.833V192.456H875.681C876.14 192.456 876.497 192.344 876.753 192.12C877.02 191.885 877.153 191.565 877.153 191.16C877.153 190.776 876.993 190.461 876.673 190.216C876.364 189.96 875.953 189.832 875.441 189.832C874.449 189.832 873.782 190.232 873.441 191.032L872.561 190.52C873.094 189.379 874.054 188.808 875.441 188.808C876.294 188.808 876.966 189.032 877.457 189.48C877.958 189.917 878.209 190.456 878.209 191.096C878.209 191.917 877.873 192.515 877.201 192.888ZM887.078 190.568V189H888.134V197H887.078V195.432C886.342 196.605 885.265 197.192 883.846 197.192C882.705 197.192 881.729 196.787 880.918 195.976C880.118 195.165 879.718 194.173 879.718 193C879.718 191.827 880.118 190.835 880.918 190.024C881.729 189.213 882.705 188.808 883.846 188.808C885.265 188.808 886.342 189.395 887.078 190.568ZM881.686 195.256C882.294 195.864 883.041 196.168 883.926 196.168C884.811 196.168 885.558 195.864 886.166 195.256C886.774 194.627 887.078 193.875 887.078 193C887.078 192.115 886.774 191.368 886.166 190.76C885.558 190.141 884.811 189.832 883.926 189.832C883.041 189.832 882.294 190.141 881.686 190.76C881.078 191.368 880.774 192.115 880.774 193C880.774 193.875 881.078 194.627 881.686 195.256ZM893.922 197.192C892.781 197.192 891.821 196.813 891.042 196.056C890.274 195.288 889.89 194.296 889.89 193.08C889.89 191.715 890.093 190.669 890.498 189.944C890.903 189.208 891.725 188.541 892.962 187.944C893.357 187.763 893.666 187.624 893.89 187.528C894.263 187.379 894.557 187.251 894.77 187.144C895.698 186.717 896.167 186.189 896.178 185.56L897.01 186.04C896.957 186.307 896.871 186.547 896.754 186.76C896.615 186.995 896.477 187.181 896.338 187.32C896.21 187.459 896.007 187.608 895.73 187.768C895.549 187.875 895.33 187.992 895.074 188.12L894.274 188.456L893.522 188.776C892.786 189.096 892.237 189.432 891.874 189.784C891.522 190.125 891.271 190.573 891.122 191.128C891.463 190.669 891.911 190.323 892.466 190.088C893.021 189.843 893.581 189.72 894.146 189.72C895.213 189.72 896.093 190.072 896.786 190.776C897.49 191.469 897.842 192.36 897.842 193.448C897.842 194.525 897.469 195.421 896.722 196.136C895.986 196.84 895.053 197.192 893.922 197.192ZM891.842 195.352C892.397 195.875 893.09 196.136 893.922 196.136C894.754 196.136 895.437 195.885 895.97 195.384C896.514 194.872 896.786 194.227 896.786 193.448C896.786 192.659 896.53 192.013 896.018 191.512C895.517 191 894.845 190.744 894.002 190.744C893.245 190.744 892.557 190.984 891.938 191.464C891.319 191.923 891.01 192.552 891.01 193.352C891.01 194.163 891.287 194.829 891.842 195.352ZM906.152 195.992C905.331 196.792 904.339 197.192 903.176 197.192C901.992 197.192 900.995 196.792 900.184 195.992C899.373 195.181 898.968 194.184 898.968 193C898.968 191.816 899.373 190.824 900.184 190.024C900.995 189.213 901.992 188.808 903.176 188.808C904.349 188.808 905.341 189.213 906.152 190.024C906.973 190.824 907.384 191.816 907.384 193C907.384 194.173 906.973 195.171 906.152 195.992ZM900.936 195.256C901.544 195.864 902.291 196.168 903.176 196.168C904.061 196.168 904.808 195.864 905.416 195.256C906.024 194.627 906.328 193.875 906.328 193C906.328 192.115 906.024 191.368 905.416 190.76C904.808 190.141 904.061 189.832 903.176 189.832C902.291 189.832 901.544 190.141 900.936 190.76C900.328 191.368 900.024 192.115 900.024 193C900.024 193.875 900.328 194.627 900.936 195.256ZM907.879 189H914.599V190.024H911.767V197H910.711V190.024H907.879V189ZM916.942 195.16L921.71 189H922.606V197H921.55V190.84L916.782 197H915.886V189H916.942V195.16ZM931.463 189H932.679V197H931.623V190.616L928.823 195.16H928.695L925.895 190.616V197H924.839V189H926.055L928.759 193.384L931.463 189ZM938.645 197.192C937.44 197.192 936.437 196.792 935.637 195.992C934.837 195.171 934.437 194.173 934.437 193C934.437 191.816 934.837 190.824 935.637 190.024C936.437 189.213 937.44 188.808 938.645 188.808C939.434 188.808 940.144 189 940.773 189.384C941.402 189.757 941.861 190.264 942.149 190.904L941.285 191.4C941.072 190.92 940.725 190.541 940.245 190.264C939.776 189.976 939.242 189.832 938.645 189.832C937.76 189.832 937.013 190.141 936.405 190.76C935.797 191.368 935.493 192.115 935.493 193C935.493 193.875 935.797 194.627 936.405 195.256C937.013 195.864 937.76 196.168 938.645 196.168C939.232 196.168 939.76 196.029 940.229 195.752C940.709 195.475 941.082 195.091 941.349 194.6L942.229 195.112C941.898 195.752 941.413 196.259 940.773 196.632C940.133 197.005 939.424 197.192 938.645 197.192ZM946.101 189H949.349V197H948.293V193.928H946.917L944.453 197H943.109L945.637 193.896C944.986 193.8 944.453 193.533 944.037 193.096C943.631 192.648 943.429 192.109 943.429 191.48C943.429 190.765 943.685 190.173 944.197 189.704C944.73 189.235 945.365 189 946.101 189ZM946.101 192.936H948.293V190.024H946.101C945.642 190.024 945.258 190.163 944.949 190.44C944.639 190.707 944.485 191.053 944.485 191.48C944.485 191.907 944.639 192.259 944.949 192.536C945.258 192.803 945.642 192.936 946.101 192.936ZM962.293 195.992C961.471 196.792 960.479 197.192 959.317 197.192C958.133 197.192 957.135 196.792 956.325 195.992C955.514 195.181 955.109 194.184 955.109 193C955.109 191.816 955.514 190.824 956.325 190.024C957.135 189.213 958.133 188.808 959.317 188.808C960.49 188.808 961.482 189.213 962.293 190.024C963.114 190.824 963.525 191.816 963.525 193C963.525 194.173 963.114 195.171 962.293 195.992ZM957.077 195.256C957.685 195.864 958.431 196.168 959.317 196.168C960.202 196.168 960.949 195.864 961.557 195.256C962.165 194.627 962.469 193.875 962.469 193C962.469 192.115 962.165 191.368 961.557 190.76C960.949 190.141 960.202 189.832 959.317 189.832C958.431 189.832 957.685 190.141 957.077 190.76C956.469 191.368 956.165 192.115 956.165 193C956.165 193.875 956.469 194.627 957.077 195.256ZM971.468 192.84L975.756 197H974.348L970.348 193.144V197H969.292V189H970.348V192.536L974.156 189H975.596L971.468 192.84ZM983.105 195.992C982.284 196.792 981.292 197.192 980.129 197.192C978.945 197.192 977.948 196.792 977.137 195.992C976.327 195.181 975.921 194.184 975.921 193C975.921 191.816 976.327 190.824 977.137 190.024C977.948 189.213 978.945 188.808 980.129 188.808C981.303 188.808 982.295 189.213 983.105 190.024C983.927 190.824 984.337 191.816 984.337 193C984.337 194.173 983.927 195.171 983.105 195.992ZM977.889 195.256C978.497 195.864 979.244 196.168 980.129 196.168C981.015 196.168 981.761 195.864 982.369 195.256C982.977 194.627 983.281 193.875 983.281 193C983.281 192.115 982.977 191.368 982.369 190.76C981.761 190.141 981.015 189.832 980.129 189.832C979.244 189.832 978.497 190.141 977.889 190.76C977.281 191.368 976.977 192.115 976.977 193C976.977 193.875 977.281 194.627 977.889 195.256ZM992.728 189H993.944V197H992.888V190.616L990.088 195.16H989.96L987.16 190.616V197H986.104V189H987.32L990.024 193.384L992.728 189ZM1000.95 197.176V200.2H999.895V197.176C998.625 197.059 997.612 196.616 996.855 195.848C996.087 195.059 995.703 194.109 995.703 193C995.703 191.891 996.087 190.941 996.855 190.152C997.612 189.384 998.625 188.941 999.895 188.824V185.8H1000.95V188.824C1002.22 188.941 1003.23 189.384 1003.99 190.152C1004.76 190.941 1005.14 191.891 1005.14 193C1005.14 194.109 1004.76 195.059 1003.99 195.848C1003.23 196.616 1002.22 197.059 1000.95 197.176ZM999.895 196.136V189.864C998.945 189.96 998.183 190.296 997.607 190.872C997.041 191.448 996.759 192.157 996.759 193C996.759 193.843 997.041 194.552 997.607 195.128C998.183 195.704 998.945 196.04 999.895 196.136ZM1000.95 189.864V196.136C1001.9 196.04 1002.66 195.704 1003.22 195.128C1003.8 194.552 1004.09 193.843 1004.09 193C1004.09 192.157 1003.8 191.448 1003.22 190.872C1002.66 190.296 1001.9 189.96 1000.95 189.864ZM1013.61 195.992C1012.78 196.792 1011.79 197.192 1010.63 197.192C1009.45 197.192 1008.45 196.792 1007.64 195.992C1006.83 195.181 1006.42 194.184 1006.42 193C1006.42 191.816 1006.83 190.824 1007.64 190.024C1008.45 189.213 1009.45 188.808 1010.63 188.808C1011.8 188.808 1012.79 189.213 1013.61 190.024C1014.43 190.824 1014.84 191.816 1014.84 193C1014.84 194.173 1014.43 195.171 1013.61 195.992ZM1008.39 195.256C1009 195.864 1009.74 196.168 1010.63 196.168C1011.51 196.168 1012.26 195.864 1012.87 195.256C1013.48 194.627 1013.78 193.875 1013.78 193C1013.78 192.115 1013.48 191.368 1012.87 190.76C1012.26 190.141 1011.51 189.832 1010.63 189.832C1009.74 189.832 1009 190.141 1008.39 190.76C1007.78 191.368 1007.48 192.115 1007.48 193C1007.48 193.875 1007.78 194.627 1008.39 195.256ZM1020.89 188.808C1022.03 188.808 1023 189.213 1023.8 190.024C1024.62 190.835 1025.02 191.827 1025.02 193C1025.02 194.173 1024.62 195.165 1023.8 195.976C1023 196.787 1022.03 197.192 1020.89 197.192C1019.47 197.192 1018.4 196.605 1017.66 195.432V200.2H1016.6V189H1017.66V190.568C1018.4 189.395 1019.47 188.808 1020.89 188.808ZM1018.57 195.256C1019.18 195.864 1019.93 196.168 1020.81 196.168C1021.7 196.168 1022.44 195.864 1023.05 195.256C1023.66 194.627 1023.96 193.875 1023.96 193C1023.96 192.115 1023.66 191.368 1023.05 190.76C1022.44 190.141 1021.7 189.832 1020.81 189.832C1019.93 189.832 1019.18 190.141 1018.57 190.76C1017.96 191.368 1017.66 192.115 1017.66 193C1017.66 193.875 1017.96 194.627 1018.57 195.256ZM1025.5 189H1032.22V190.024H1029.39V197H1028.34V190.024H1025.5V189ZM1036.89 188.808C1038.09 188.808 1039.04 189.229 1039.76 190.072C1040.49 190.904 1040.86 191.891 1040.86 193.032C1040.86 193.085 1040.85 193.251 1040.83 193.528H1033.81C1033.91 194.328 1034.25 194.968 1034.83 195.448C1035.41 195.928 1036.13 196.168 1036.99 196.168C1038.21 196.168 1039.06 195.715 1039.57 194.808L1040.49 195.352C1040.14 195.928 1039.66 196.381 1039.04 196.712C1038.43 197.032 1037.74 197.192 1036.97 197.192C1035.72 197.192 1034.69 196.797 1033.9 196.008C1033.11 195.219 1032.72 194.216 1032.72 193C1032.72 191.795 1033.11 190.797 1033.89 190.008C1034.66 189.208 1035.67 188.808 1036.89 188.808ZM1036.89 189.832C1036.06 189.832 1035.36 190.077 1034.8 190.568C1034.24 191.059 1033.91 191.704 1033.81 192.504H1039.77C1039.66 191.651 1039.33 190.995 1038.8 190.536C1038.24 190.067 1037.61 189.832 1036.89 189.832ZM803.296 211.84L807.584 216H806.176L802.176 212.144V216H801.12V208H802.176V211.536L805.984 208H807.424L803.296 211.84ZM815.109 209.568V208H816.165V216H815.109V214.432C814.373 215.605 813.296 216.192 811.877 216.192C810.736 216.192 809.76 215.787 808.949 214.976C808.149 214.165 807.749 213.173 807.749 212C807.749 210.827 808.149 209.835 808.949 209.024C809.76 208.213 810.736 207.808 811.877 207.808C813.296 207.808 814.373 208.395 815.109 209.568ZM809.717 214.256C810.325 214.864 811.072 215.168 811.957 215.168C812.843 215.168 813.589 214.864 814.197 214.256C814.805 213.627 815.109 212.875 815.109 212C815.109 211.115 814.805 210.368 814.197 209.76C813.589 209.141 812.843 208.832 811.957 208.832C811.072 208.832 810.325 209.141 809.717 209.76C809.109 210.368 808.805 211.115 808.805 212C808.805 212.875 809.109 213.627 809.717 214.256ZM824.161 211.84L827.745 216H826.465L823.201 212.144V216H822.145V212.144L818.881 216H817.601L821.185 211.84L817.761 208H819.041L822.145 211.552V208H823.201V211.552L826.305 208H827.585L824.161 211.84ZM835.903 208V214.976H837.023V218.144H835.967V216H829.439V218.144H828.383V214.976H829.359C829.902 214.251 830.174 213.243 830.174 211.952V208H835.903ZM830.639 214.976H834.847V209.024H831.231V211.952C831.231 213.189 831.033 214.197 830.639 214.976ZM845.012 214.992C844.19 215.792 843.198 216.192 842.036 216.192C840.852 216.192 839.854 215.792 839.044 214.992C838.233 214.181 837.828 213.184 837.828 212C837.828 210.816 838.233 209.824 839.044 209.024C839.854 208.213 840.852 207.808 842.036 207.808C843.209 207.808 844.201 208.213 845.012 209.024C845.833 209.824 846.244 210.816 846.244 212C846.244 213.173 845.833 214.171 845.012 214.992ZM839.796 214.256C840.404 214.864 841.15 215.168 842.036 215.168C842.921 215.168 843.668 214.864 844.276 214.256C844.884 213.627 845.188 212.875 845.188 212C845.188 211.115 844.884 210.368 844.276 209.76C843.668 209.141 842.921 208.832 842.036 208.832C841.15 208.832 840.404 209.141 839.796 209.76C839.188 210.368 838.884 211.115 838.884 212C838.884 212.875 839.188 213.627 839.796 214.256ZM848.011 208H853.131V209.024H849.067V216H848.011V208ZM860.808 214.992C859.987 215.792 858.995 216.192 857.832 216.192C856.648 216.192 855.651 215.792 854.84 214.992C854.03 214.181 853.624 213.184 853.624 212C853.624 210.816 854.03 209.824 854.84 209.024C855.651 208.213 856.648 207.808 857.832 207.808C859.006 207.808 859.998 208.213 860.808 209.024C861.63 209.824 862.04 210.816 862.04 212C862.04 213.173 861.63 214.171 860.808 214.992ZM855.592 214.256C856.2 214.864 856.947 215.168 857.832 215.168C858.718 215.168 859.464 214.864 860.072 214.256C860.68 213.627 860.984 212.875 860.984 212C860.984 211.115 860.68 210.368 860.072 209.76C859.464 209.141 858.718 208.832 857.832 208.832C856.947 208.832 856.2 209.141 855.592 209.76C854.984 210.368 854.68 211.115 854.68 212C854.68 212.875 854.984 213.627 855.592 214.256ZM871.536 216.192C870.33 216.192 869.328 215.792 868.528 214.992C867.728 214.171 867.328 213.173 867.328 212C867.328 210.816 867.728 209.824 868.528 209.024C869.328 208.213 870.33 207.808 871.536 207.808C872.325 207.808 873.034 208 873.664 208.384C874.293 208.757 874.752 209.264 875.04 209.904L874.176 210.4C873.962 209.92 873.616 209.541 873.136 209.264C872.666 208.976 872.133 208.832 871.536 208.832C870.65 208.832 869.904 209.141 869.296 209.76C868.688 210.368 868.384 211.115 868.384 212C868.384 212.875 868.688 213.627 869.296 214.256C869.904 214.864 870.65 215.168 871.536 215.168C872.122 215.168 872.65 215.029 873.12 214.752C873.6 214.475 873.973 214.091 874.24 213.6L875.12 214.112C874.789 214.752 874.304 215.259 873.664 215.632C873.024 216.005 872.314 216.192 871.536 216.192ZM883.262 214.992C882.44 215.792 881.448 216.192 880.286 216.192C879.102 216.192 878.104 215.792 877.294 214.992C876.483 214.181 876.078 213.184 876.078 212C876.078 210.816 876.483 209.824 877.294 209.024C878.104 208.213 879.102 207.808 880.286 207.808C881.459 207.808 882.451 208.213 883.262 209.024C884.083 209.824 884.494 210.816 884.494 212C884.494 213.173 884.083 214.171 883.262 214.992ZM878.046 214.256C878.654 214.864 879.4 215.168 880.286 215.168C881.171 215.168 881.918 214.864 882.526 214.256C883.134 213.627 883.438 212.875 883.438 212C883.438 211.115 883.134 210.368 882.526 209.76C881.918 209.141 881.171 208.832 880.286 208.832C879.4 208.832 878.654 209.141 878.046 209.76C877.438 210.368 877.134 211.115 877.134 212C877.134 212.875 877.438 213.627 878.046 214.256ZM884.988 208H891.708V209.024H888.876V216H887.82V209.024H884.988V208ZM897.283 207.808C898.424 207.808 899.395 208.213 900.195 209.024C901.006 209.835 901.411 210.827 901.411 212C901.411 213.173 901.006 214.165 900.195 214.976C899.395 215.787 898.424 216.192 897.283 216.192C895.864 216.192 894.787 215.605 894.051 214.432V219.2H892.995V208H894.051V209.568C894.787 208.395 895.864 207.808 897.283 207.808ZM894.963 214.256C895.571 214.864 896.318 215.168 897.203 215.168C898.088 215.168 898.835 214.864 899.443 214.256C900.051 213.627 900.355 212.875 900.355 212C900.355 211.115 900.051 210.368 899.443 209.76C898.835 209.141 898.088 208.832 897.203 208.832C896.318 208.832 895.571 209.141 894.963 209.76C894.355 210.368 894.051 211.115 894.051 212C894.051 212.875 894.355 213.627 894.963 214.256ZM906.022 214.704L908.614 208H909.734L906.31 216.736C905.99 217.547 905.542 218.171 904.966 218.608C904.401 219.056 903.772 219.253 903.078 219.2V218.208C904.038 218.325 904.769 217.771 905.27 216.544L905.478 216.048L901.894 208H903.014L906.022 214.704ZM917.246 208V214.976H918.366V218.144H917.31V216H910.782V218.144H909.726V214.976H910.702C911.246 214.251 911.518 213.243 911.518 211.952V208H917.246ZM911.982 214.976H916.19V209.024H912.574V211.952C912.574 213.189 912.377 214.197 911.982 214.976ZM925.628 211.488V208H926.684V216H925.628V212.512H921.02V216H919.964V208H921.02V211.488H925.628ZM929.973 214.16L934.741 208H935.637V216H934.581V209.84L929.813 216H928.917V208H929.973V214.16ZM940.046 211.84L944.334 216H942.926L938.926 212.144V216H937.87V208H938.926V211.536L942.734 208H944.174L940.046 211.84ZM951.859 209.568V208H952.915V216H951.859V214.432C951.123 215.605 950.046 216.192 948.627 216.192C947.486 216.192 946.51 215.787 945.699 214.976C944.899 214.165 944.499 213.173 944.499 212C944.499 210.827 944.899 209.835 945.699 209.024C946.51 208.213 947.486 207.808 948.627 207.808C950.046 207.808 951.123 208.395 951.859 209.568ZM946.467 214.256C947.075 214.864 947.822 215.168 948.707 215.168C949.593 215.168 950.339 214.864 950.947 214.256C951.555 213.627 951.859 212.875 951.859 212C951.859 211.115 951.555 210.368 950.947 209.76C950.339 209.141 949.593 208.832 948.707 208.832C947.822 208.832 947.075 209.141 946.467 209.76C945.859 210.368 945.555 211.115 945.555 212C945.555 212.875 945.859 213.627 946.467 214.256ZM955.631 214.64H956.911L955.951 218.24H954.991L955.631 214.64ZM966.723 216.192C965.518 216.192 964.515 215.792 963.715 214.992C962.915 214.171 962.515 213.173 962.515 212C962.515 210.816 962.915 209.824 963.715 209.024C964.515 208.213 965.518 207.808 966.723 207.808C967.512 207.808 968.222 208 968.851 208.384C969.48 208.757 969.939 209.264 970.227 209.904L969.363 210.4C969.15 209.92 968.803 209.541 968.323 209.264C967.854 208.976 967.32 208.832 966.723 208.832C965.838 208.832 965.091 209.141 964.483 209.76C963.875 210.368 963.571 211.115 963.571 212C963.571 212.875 963.875 213.627 964.483 214.256C965.091 214.864 965.838 215.168 966.723 215.168C967.31 215.168 967.838 215.029 968.307 214.752C968.787 214.475 969.16 214.091 969.427 213.6L970.307 214.112C969.976 214.752 969.491 215.259 968.851 215.632C968.211 216.005 967.502 216.192 966.723 216.192ZM970.707 208H977.427V209.024H974.595V216H973.539V209.024H970.707V208ZM985.281 209.568V208H986.337V216H985.281V214.432C984.545 215.605 983.468 216.192 982.049 216.192C980.908 216.192 979.932 215.787 979.121 214.976C978.321 214.165 977.921 213.173 977.921 212C977.921 210.827 978.321 209.835 979.121 209.024C979.932 208.213 980.908 207.808 982.049 207.808C983.468 207.808 984.545 208.395 985.281 209.568ZM979.889 214.256C980.497 214.864 981.244 215.168 982.129 215.168C983.015 215.168 983.761 214.864 984.369 214.256C984.977 213.627 985.281 212.875 985.281 212C985.281 211.115 984.977 210.368 984.369 209.76C983.761 209.141 983.015 208.832 982.129 208.832C981.244 208.832 980.497 209.141 979.889 209.76C979.281 210.368 978.977 211.115 978.977 212C978.977 212.875 979.281 213.627 979.889 214.256ZM992.861 207.808C994.002 207.808 994.973 208.213 995.773 209.024C996.584 209.835 996.989 210.827 996.989 212C996.989 213.173 996.584 214.165 995.773 214.976C994.973 215.787 994.002 216.192 992.861 216.192C991.442 216.192 990.365 215.605 989.629 214.432V219.2H988.573V208H989.629V209.568C990.365 208.395 991.442 207.808 992.861 207.808ZM990.541 214.256C991.149 214.864 991.896 215.168 992.781 215.168C993.666 215.168 994.413 214.864 995.021 214.256C995.629 213.627 995.933 212.875 995.933 212C995.933 211.115 995.629 210.368 995.021 209.76C994.413 209.141 993.666 208.832 992.781 208.832C991.896 208.832 991.149 209.141 990.541 209.76C989.933 210.368 989.629 211.115 989.629 212C989.629 212.875 989.933 213.627 990.541 214.256ZM1005.62 209.568V208H1006.68V216H1005.62V214.432C1004.89 215.605 1003.81 216.192 1002.39 216.192C1001.25 216.192 1000.28 215.787 999.465 214.976C998.665 214.165 998.265 213.173 998.265 212C998.265 210.827 998.665 209.835 999.465 209.024C1000.28 208.213 1001.25 207.808 1002.39 207.808C1003.81 207.808 1004.89 208.395 1005.62 209.568ZM1000.23 214.256C1000.84 214.864 1001.59 215.168 1002.47 215.168C1003.36 215.168 1004.11 214.864 1004.71 214.256C1005.32 213.627 1005.62 212.875 1005.62 212C1005.62 211.115 1005.32 210.368 1004.71 209.76C1004.11 209.141 1003.36 208.832 1002.47 208.832C1001.59 208.832 1000.84 209.141 1000.23 209.76C999.625 210.368 999.321 211.115 999.321 212C999.321 212.875 999.625 213.627 1000.23 214.256ZM1011.43 208H1014.68V216H1013.62V212.928H1012.24L1009.78 216H1008.44L1010.96 212.896C1010.31 212.8 1009.78 212.533 1009.36 212.096C1008.96 211.648 1008.76 211.109 1008.76 210.48C1008.76 209.765 1009.01 209.173 1009.52 208.704C1010.06 208.235 1010.69 208 1011.43 208ZM1011.43 211.936H1013.62V209.024H1011.43C1010.97 209.024 1010.59 209.163 1010.28 209.44C1009.97 209.707 1009.81 210.053 1009.81 210.48C1009.81 210.907 1009.97 211.259 1010.28 211.536C1010.59 211.803 1010.97 211.936 1011.43 211.936ZM1020.64 216.192C1019.44 216.192 1018.44 215.792 1017.64 214.992C1016.84 214.171 1016.44 213.173 1016.44 212C1016.44 210.816 1016.84 209.824 1017.64 209.024C1018.44 208.213 1019.44 207.808 1020.64 207.808C1021.43 207.808 1022.14 208 1022.77 208.384C1023.4 208.757 1023.86 209.264 1024.15 209.904L1023.28 210.4C1023.07 209.92 1022.72 209.541 1022.24 209.264C1021.78 208.976 1021.24 208.832 1020.64 208.832C1019.76 208.832 1019.01 209.141 1018.4 209.76C1017.8 210.368 1017.49 211.115 1017.49 212C1017.49 212.875 1017.8 213.627 1018.4 214.256C1019.01 214.864 1019.76 215.168 1020.64 215.168C1021.23 215.168 1021.76 215.029 1022.23 214.752C1022.71 214.475 1023.08 214.091 1023.35 213.6L1024.23 214.112C1023.9 214.752 1023.41 215.259 1022.77 215.632C1022.13 216.005 1021.42 216.192 1020.64 216.192ZM1026.8 211.04H1028.99C1029.73 211.04 1030.36 211.275 1030.88 211.744C1031.4 212.203 1031.67 212.795 1031.67 213.52C1031.67 214.256 1031.4 214.853 1030.88 215.312C1030.38 215.771 1029.75 216 1028.99 216H1025.75V208H1026.8V211.04ZM1026.8 214.976H1028.99C1029.45 214.976 1029.84 214.843 1030.15 214.576C1030.45 214.299 1030.61 213.947 1030.61 213.52C1030.61 213.093 1030.45 212.747 1030.15 212.48C1029.84 212.203 1029.45 212.064 1028.99 212.064H1026.8V214.976ZM807.824 233.992C807.003 234.792 806.011 235.192 804.848 235.192C803.664 235.192 802.667 234.792 801.856 233.992C801.045 233.181 800.64 232.184 800.64 231C800.64 229.816 801.045 228.824 801.856 228.024C802.667 227.213 803.664 226.808 804.848 226.808C806.021 226.808 807.013 227.213 807.824 228.024C808.645 228.824 809.056 229.816 809.056 231C809.056 232.173 808.645 233.171 807.824 233.992ZM802.608 233.256C803.216 233.864 803.963 234.168 804.848 234.168C805.733 234.168 806.48 233.864 807.088 233.256C807.696 232.627 808 231.875 808 231C808 230.115 807.696 229.368 807.088 228.76C806.48 228.141 805.733 227.832 804.848 227.832C803.963 227.832 803.216 228.141 802.608 228.76C802 229.368 801.696 230.115 801.696 231C801.696 231.875 802 232.627 802.608 233.256ZM814.375 235.192C813.234 235.192 812.274 234.813 811.495 234.056C810.727 233.288 810.343 232.296 810.343 231.08C810.343 229.715 810.546 228.669 810.951 227.944C811.356 227.208 812.178 226.541 813.415 225.944C813.81 225.763 814.119 225.624 814.343 225.528C814.716 225.379 815.01 225.251 815.223 225.144C816.151 224.717 816.62 224.189 816.631 223.56L817.463 224.04C817.41 224.307 817.324 224.547 817.207 224.76C817.068 224.995 816.93 225.181 816.791 225.32C816.663 225.459 816.46 225.608 816.183 225.768C816.002 225.875 815.783 225.992 815.527 226.12L814.727 226.456L813.975 226.776C813.239 227.096 812.69 227.432 812.327 227.784C811.975 228.125 811.724 228.573 811.575 229.128C811.916 228.669 812.364 228.323 812.919 228.088C813.474 227.843 814.034 227.72 814.599 227.72C815.666 227.72 816.546 228.072 817.239 228.776C817.943 229.469 818.295 230.36 818.295 231.448C818.295 232.525 817.922 233.421 817.175 234.136C816.439 234.84 815.506 235.192 814.375 235.192ZM812.295 233.352C812.85 233.875 813.543 234.136 814.375 234.136C815.207 234.136 815.89 233.885 816.423 233.384C816.967 232.872 817.239 232.227 817.239 231.448C817.239 230.659 816.983 230.013 816.471 229.512C815.97 229 815.298 228.744 814.455 228.744C813.698 228.744 813.01 228.984 812.391 229.464C811.772 229.923 811.463 230.552 811.463 231.352C811.463 232.163 811.74 232.829 812.295 233.352ZM823.597 226.808C824.792 226.808 825.747 227.229 826.461 228.072C827.197 228.904 827.565 229.891 827.565 231.032C827.565 231.085 827.555 231.251 827.533 231.528H820.509C820.616 232.328 820.957 232.968 821.533 233.448C822.109 233.928 822.829 234.168 823.693 234.168C824.909 234.168 825.768 233.715 826.269 232.808L827.197 233.352C826.845 233.928 826.36 234.381 825.741 234.712C825.133 235.032 824.445 235.192 823.677 235.192C822.419 235.192 821.395 234.797 820.605 234.008C819.816 233.219 819.421 232.216 819.421 231C819.421 229.795 819.811 228.797 820.589 228.008C821.368 227.208 822.371 226.808 823.597 226.808ZM823.597 227.832C822.765 227.832 822.067 228.077 821.501 228.568C820.947 229.059 820.616 229.704 820.509 230.504H826.477C826.36 229.651 826.035 228.995 825.501 228.536C824.947 228.067 824.312 227.832 823.597 227.832ZM832.973 235.192C831.768 235.192 830.765 234.792 829.965 233.992C829.165 233.171 828.765 232.173 828.765 231C828.765 229.816 829.165 228.824 829.965 228.024C830.765 227.213 831.768 226.808 832.973 226.808C833.762 226.808 834.472 227 835.101 227.384C835.73 227.757 836.189 228.264 836.477 228.904L835.613 229.4C835.4 228.92 835.053 228.541 834.573 228.264C834.104 227.976 833.57 227.832 832.973 227.832C832.088 227.832 831.341 228.141 830.733 228.76C830.125 229.368 829.821 230.115 829.821 231C829.821 231.875 830.125 232.627 830.733 233.256C831.341 233.864 832.088 234.168 832.973 234.168C833.56 234.168 834.088 234.029 834.557 233.752C835.037 233.475 835.41 233.091 835.677 232.6L836.557 233.112C836.226 233.752 835.741 234.259 835.101 234.632C834.461 235.005 833.752 235.192 832.973 235.192ZM838.073 227H844.793V235H843.737V228.024H839.129V235H838.073V227ZM850.722 226.808C851.917 226.808 852.872 227.229 853.586 228.072C854.322 228.904 854.69 229.891 854.69 231.032C854.69 231.085 854.68 231.251 854.658 231.528H847.634C847.741 232.328 848.082 232.968 848.658 233.448C849.234 233.928 849.954 234.168 850.818 234.168C852.034 234.168 852.893 233.715 853.394 232.808L854.322 233.352C853.97 233.928 853.485 234.381 852.866 234.712C852.258 235.032 851.57 235.192 850.802 235.192C849.544 235.192 848.52 234.797 847.73 234.008C846.941 233.219 846.546 232.216 846.546 231C846.546 229.795 846.936 228.797 847.714 228.008C848.493 227.208 849.496 226.808 850.722 226.808ZM850.722 227.832C849.89 227.832 849.192 228.077 848.626 228.568C848.072 229.059 847.741 229.704 847.634 230.504H853.602C853.485 229.651 853.16 228.995 852.626 228.536C852.072 228.067 851.437 227.832 850.722 227.832ZM861.554 230.984V227H862.61V235H861.554V231.96C860.935 232.28 860.173 232.44 859.266 232.44C858.21 232.44 857.41 232.2 856.866 231.72C856.322 231.229 856.05 230.509 856.05 229.56V227H857.106V229.56C857.106 230.221 857.277 230.701 857.618 231C857.97 231.299 858.509 231.448 859.234 231.448C860.045 231.448 860.818 231.293 861.554 230.984ZM865.91 233.16L870.678 227H871.574V235H870.518V228.84L865.75 235H864.854V227H865.91V233.16ZM872.848 227H879.568V228.024H876.736V235H875.68V228.024H872.848V227ZM881.91 230.04H884.102C884.838 230.04 885.468 230.275 885.99 230.744C886.513 231.203 886.774 231.795 886.774 232.52C886.774 233.256 886.513 233.853 885.99 234.312C885.489 234.771 884.86 235 884.102 235H880.854V227H881.91V230.04ZM881.91 233.976H884.102C884.561 233.976 884.945 233.843 885.254 233.576C885.564 233.299 885.718 232.947 885.718 232.52C885.718 232.093 885.564 231.747 885.254 231.48C884.945 231.203 884.561 231.064 884.102 231.064H881.91V233.976ZM898.994 227H900.21V235H899.154V228.616L896.354 233.16H896.226L893.426 228.616V235H892.37V227H893.586L896.29 231.384L898.994 227ZM909.328 228.568V227H910.384V235H909.328V233.432C908.592 234.605 907.515 235.192 906.096 235.192C904.955 235.192 903.979 234.787 903.168 233.976C902.368 233.165 901.968 232.173 901.968 231C901.968 229.827 902.368 228.835 903.168 228.024C903.979 227.213 904.955 226.808 906.096 226.808C907.515 226.808 908.592 227.395 909.328 228.568ZM903.936 233.256C904.544 233.864 905.291 234.168 906.176 234.168C907.061 234.168 907.808 233.864 908.416 233.256C909.024 232.627 909.328 231.875 909.328 231C909.328 230.115 909.024 229.368 908.416 228.76C907.808 228.141 907.061 227.832 906.176 227.832C905.291 227.832 904.544 228.141 903.936 228.76C903.328 229.368 903.024 230.115 903.024 231C903.024 231.875 903.328 232.627 903.936 233.256ZM914.796 230.84L919.084 235H917.676L913.676 231.144V235H912.62V227H913.676V230.536L917.484 227H918.924L914.796 230.84ZM923.457 235.192C922.252 235.192 921.249 234.792 920.449 233.992C919.649 233.171 919.249 232.173 919.249 231C919.249 229.816 919.649 228.824 920.449 228.024C921.249 227.213 922.252 226.808 923.457 226.808C924.247 226.808 924.956 227 925.585 227.384C926.215 227.757 926.673 228.264 926.961 228.904L926.097 229.4C925.884 228.92 925.537 228.541 925.057 228.264C924.588 227.976 924.055 227.832 923.457 227.832C922.572 227.832 921.825 228.141 921.217 228.76C920.609 229.368 920.305 230.115 920.305 231C920.305 231.875 920.609 232.627 921.217 233.256C921.825 233.864 922.572 234.168 923.457 234.168C924.044 234.168 924.572 234.029 925.041 233.752C925.521 233.475 925.895 233.091 926.161 232.6L927.041 233.112C926.711 233.752 926.225 234.259 925.585 234.632C924.945 235.005 924.236 235.192 923.457 235.192ZM929.614 233.16L934.382 227H935.278V235H934.222V228.84L929.454 235H928.558V227H929.614V233.16ZM944.135 227H945.351V235H944.295V228.616L941.495 233.16H941.367L938.567 228.616V235H937.511V227H938.727L941.431 231.384L944.135 227ZM954.469 228.568V227H955.525V235H954.469V233.432C953.733 234.605 952.655 235.192 951.237 235.192C950.095 235.192 949.119 234.787 948.309 233.976C947.509 233.165 947.109 232.173 947.109 231C947.109 229.827 947.509 228.835 948.309 228.024C949.119 227.213 950.095 226.808 951.237 226.808C952.655 226.808 953.733 227.395 954.469 228.568ZM949.077 233.256C949.685 233.864 950.431 234.168 951.317 234.168C952.202 234.168 952.949 233.864 953.557 233.256C954.165 232.627 954.469 231.875 954.469 231C954.469 230.115 954.165 229.368 953.557 228.76C952.949 228.141 952.202 227.832 951.317 227.832C950.431 227.832 949.685 228.141 949.077 228.76C948.469 229.368 948.165 230.115 948.165 231C948.165 231.875 948.469 232.627 949.077 233.256ZM958.593 227H964.321V235H963.265V228.024H959.649V231.592C959.649 232.925 959.393 233.843 958.881 234.344C958.379 234.845 957.686 235.064 956.801 235V234.008C957.419 234.072 957.873 233.923 958.161 233.56C958.449 233.197 958.593 232.541 958.593 231.592V227ZM967.614 230.04H969.806C970.542 230.04 971.171 230.275 971.694 230.744C972.216 231.203 972.478 231.795 972.478 232.52C972.478 233.256 972.216 233.853 971.694 234.312C971.192 234.771 970.563 235 969.806 235H966.558V227H967.614V230.04ZM967.614 233.976H969.806C970.264 233.976 970.648 233.843 970.958 233.576C971.267 233.299 971.422 232.947 971.422 232.52C971.422 232.093 971.267 231.747 970.958 231.48C970.648 231.203 970.264 231.064 969.806 231.064H967.614V233.976ZM979.737 230.488V227H980.793V235H979.737V231.512H975.129V235H974.073V227H975.129V230.488H979.737ZM989.73 233.992C988.909 234.792 987.917 235.192 986.754 235.192C985.57 235.192 984.573 234.792 983.762 233.992C982.952 233.181 982.546 232.184 982.546 231C982.546 229.816 982.952 228.824 983.762 228.024C984.573 227.213 985.57 226.808 986.754 226.808C987.928 226.808 988.92 227.213 989.73 228.024C990.552 228.824 990.962 229.816 990.962 231C990.962 232.173 990.552 233.171 989.73 233.992ZM984.514 233.256C985.122 233.864 985.869 234.168 986.754 234.168C987.64 234.168 988.386 233.864 988.994 233.256C989.602 232.627 989.906 231.875 989.906 231C989.906 230.115 989.602 229.368 988.994 228.76C988.386 228.141 987.64 227.832 986.754 227.832C985.869 227.832 985.122 228.141 984.514 228.76C983.906 229.368 983.602 230.115 983.602 231C983.602 231.875 983.906 232.627 984.514 233.256ZM998.905 230.84L1003.19 235H1001.79L997.785 231.144V235H996.729V227H997.785V230.536L1001.59 227H1003.03L998.905 230.84ZM1010.54 233.992C1009.72 234.792 1008.73 235.192 1007.57 235.192C1006.38 235.192 1005.39 234.792 1004.57 233.992C1003.76 233.181 1003.36 232.184 1003.36 231C1003.36 229.816 1003.76 228.824 1004.57 228.024C1005.39 227.213 1006.38 226.808 1007.57 226.808C1008.74 226.808 1009.73 227.213 1010.54 228.024C1011.36 228.824 1011.77 229.816 1011.77 231C1011.77 232.173 1011.36 233.171 1010.54 233.992ZM1005.33 233.256C1005.93 233.864 1006.68 234.168 1007.57 234.168C1008.45 234.168 1009.2 233.864 1009.81 233.256C1010.41 232.627 1010.72 231.875 1010.72 231C1010.72 230.115 1010.41 229.368 1009.81 228.76C1009.2 228.141 1008.45 227.832 1007.57 227.832C1006.68 227.832 1005.93 228.141 1005.33 228.76C1004.72 229.368 1004.41 230.115 1004.41 231C1004.41 231.875 1004.72 232.627 1005.33 233.256ZM1020.17 227H1021.38V235H1020.33V228.616L1017.53 233.16H1017.4L1014.6 228.616V235H1013.54V227H1014.76L1017.46 231.384L1020.17 227ZM1028.39 235.176V238.2H1027.33V235.176C1026.06 235.059 1025.05 234.616 1024.29 233.848C1023.52 233.059 1023.14 232.109 1023.14 231C1023.14 229.891 1023.52 228.941 1024.29 228.152C1025.05 227.384 1026.06 226.941 1027.33 226.824V223.8H1028.39V226.824C1029.66 226.941 1030.67 227.384 1031.43 228.152C1032.2 228.941 1032.58 229.891 1032.58 231C1032.58 232.109 1032.2 233.059 1031.43 233.848C1030.67 234.616 1029.66 235.059 1028.39 235.176ZM1027.33 234.136V227.864C1026.38 227.96 1025.62 228.296 1025.04 228.872C1024.48 229.448 1024.2 230.157 1024.2 231C1024.2 231.843 1024.48 232.552 1025.04 233.128C1025.62 233.704 1026.38 234.04 1027.33 234.136ZM1028.39 227.864V234.136C1029.34 234.04 1030.09 233.704 1030.66 233.128C1031.24 232.552 1031.52 231.843 1031.52 231C1031.52 230.157 1031.24 229.448 1030.66 228.872C1030.09 228.296 1029.34 227.96 1028.39 227.864ZM1041.04 233.992C1040.22 234.792 1039.23 235.192 1038.07 235.192C1036.88 235.192 1035.89 234.792 1035.07 233.992C1034.26 233.181 1033.86 232.184 1033.86 231C1033.86 229.816 1034.26 228.824 1035.07 228.024C1035.89 227.213 1036.88 226.808 1038.07 226.808C1039.24 226.808 1040.23 227.213 1041.04 228.024C1041.86 228.824 1042.27 229.816 1042.27 231C1042.27 232.173 1041.86 233.171 1041.04 233.992ZM1035.83 233.256C1036.43 233.864 1037.18 234.168 1038.07 234.168C1038.95 234.168 1039.7 233.864 1040.31 233.256C1040.91 232.627 1041.22 231.875 1041.22 231C1041.22 230.115 1040.91 229.368 1040.31 228.76C1039.7 228.141 1038.95 227.832 1038.07 227.832C1037.18 227.832 1036.43 228.141 1035.83 228.76C1035.22 229.368 1034.91 230.115 1034.91 231C1034.91 231.875 1035.22 232.627 1035.83 233.256ZM1048.33 226.808C1049.47 226.808 1050.44 227.213 1051.24 228.024C1052.05 228.835 1052.46 229.827 1052.46 231C1052.46 232.173 1052.05 233.165 1051.24 233.976C1050.44 234.787 1049.47 235.192 1048.33 235.192C1046.91 235.192 1045.83 234.605 1045.1 233.432V238.2H1044.04V227H1045.1V228.568C1045.83 227.395 1046.91 226.808 1048.33 226.808ZM1046.01 233.256C1046.62 233.864 1047.36 234.168 1048.25 234.168C1049.14 234.168 1049.88 233.864 1050.49 233.256C1051.1 232.627 1051.4 231.875 1051.4 231C1051.4 230.115 1051.1 229.368 1050.49 228.76C1049.88 228.141 1049.14 227.832 1048.25 227.832C1047.36 227.832 1046.62 228.141 1046.01 228.76C1045.4 229.368 1045.1 230.115 1045.1 231C1045.1 231.875 1045.4 232.627 1046.01 233.256ZM1052.94 227H1059.66V228.024H1056.83V235H1055.77V228.024H1052.94V227ZM1066.61 230.488V227H1067.67V235H1066.61V231.512H1062V235H1060.95V227H1062V230.488H1066.61ZM1070.96 230.04H1073.15C1073.89 230.04 1074.51 230.275 1075.04 230.744C1075.56 231.203 1075.82 231.795 1075.82 232.52C1075.82 233.256 1075.56 233.853 1075.04 234.312C1074.54 234.771 1073.91 235 1073.15 235H1069.9V227H1070.96V230.04ZM1076.94 235V227H1078V235H1076.94ZM1070.96 233.976H1073.15C1073.61 233.976 1073.99 233.843 1074.3 233.576C1074.61 233.299 1074.77 232.947 1074.77 232.52C1074.77 232.093 1074.61 231.747 1074.3 231.48C1073.99 231.203 1073.61 231.064 1073.15 231.064H1070.96V233.976ZM1083.94 226.808C1085.14 226.808 1086.09 227.229 1086.81 228.072C1087.54 228.904 1087.91 229.891 1087.91 231.032C1087.91 231.085 1087.9 231.251 1087.88 231.528H1080.85C1080.96 232.328 1081.3 232.968 1081.88 233.448C1082.45 233.928 1083.17 234.168 1084.04 234.168C1085.25 234.168 1086.11 233.715 1086.61 232.808L1087.54 233.352C1087.19 233.928 1086.7 234.381 1086.09 234.712C1085.48 235.032 1084.79 235.192 1084.02 235.192C1082.76 235.192 1081.74 234.797 1080.95 234.008C1080.16 233.219 1079.77 232.216 1079.77 231C1079.77 229.795 1080.15 228.797 1080.93 228.008C1081.71 227.208 1082.71 226.808 1083.94 226.808ZM1083.94 227.832C1083.11 227.832 1082.41 228.077 1081.85 228.568C1081.29 229.059 1080.96 229.704 1080.85 230.504H1086.82C1086.7 229.651 1086.38 228.995 1085.85 228.536C1085.29 228.067 1084.66 227.832 1083.94 227.832ZM804.288 252.704L806.88 246H808L804.576 254.736C804.256 255.547 803.808 256.171 803.232 256.608C802.667 257.056 802.037 257.253 801.344 257.2V256.208C802.304 256.325 803.035 255.771 803.536 254.544L803.744 254.048L800.16 246H801.28L804.288 252.704ZM812.692 254.192C811.486 254.192 810.484 253.792 809.684 252.992C808.884 252.171 808.484 251.173 808.484 250C808.484 248.816 808.884 247.824 809.684 247.024C810.484 246.213 811.486 245.808 812.692 245.808C813.481 245.808 814.19 246 814.82 246.384C815.449 246.757 815.908 247.264 816.196 247.904L815.332 248.4C815.118 247.92 814.772 247.541 814.292 247.264C813.822 246.976 813.289 246.832 812.692 246.832C811.806 246.832 811.06 247.141 810.452 247.76C809.844 248.368 809.54 249.115 809.54 250C809.54 250.875 809.844 251.627 810.452 252.256C811.06 252.864 811.806 253.168 812.692 253.168C813.278 253.168 813.806 253.029 814.276 252.752C814.756 252.475 815.129 252.091 815.396 251.6L816.276 252.112C815.945 252.752 815.46 253.259 814.82 253.632C814.18 254.005 813.47 254.192 812.692 254.192ZM818.468 246H824.196V254H823.14V247.024H819.524V250.592C819.524 251.925 819.268 252.843 818.756 253.344C818.254 253.845 817.561 254.064 816.676 254V253.008C817.294 253.072 817.748 252.923 818.036 252.56C818.324 252.197 818.468 251.541 818.468 250.592V246ZM833.137 252.992C832.315 253.792 831.323 254.192 830.161 254.192C828.977 254.192 827.979 253.792 827.169 252.992C826.358 252.181 825.953 251.184 825.953 250C825.953 248.816 826.358 247.824 827.169 247.024C827.979 246.213 828.977 245.808 830.161 245.808C831.334 245.808 832.326 246.213 833.137 247.024C833.958 247.824 834.369 248.816 834.369 250C834.369 251.173 833.958 252.171 833.137 252.992ZM827.921 252.256C828.529 252.864 829.275 253.168 830.161 253.168C831.046 253.168 831.793 252.864 832.401 252.256C833.009 251.627 833.312 250.875 833.312 250C833.312 249.115 833.009 248.368 832.401 247.76C831.793 247.141 831.046 246.832 830.161 246.832C829.275 246.832 828.529 247.141 827.921 247.76C827.313 248.368 827.009 249.115 827.009 250C827.009 250.875 827.313 251.627 827.921 252.256ZM841.224 249.888C842.098 250.208 842.536 250.832 842.536 251.76C842.536 252.421 842.312 252.96 841.864 253.376C841.426 253.792 840.813 254 840.024 254H836.136V246H839.704C840.472 246 841.069 246.197 841.496 246.592C841.933 246.987 842.152 247.504 842.152 248.144C842.152 248.944 841.842 249.525 841.224 249.888ZM839.704 247.024H837.192V249.456H839.704C840.632 249.456 841.096 249.04 841.096 248.208C841.096 247.835 840.973 247.547 840.728 247.344C840.493 247.131 840.152 247.024 839.704 247.024ZM837.192 252.976H840.024C840.493 252.976 840.85 252.864 841.096 252.64C841.352 252.416 841.48 252.101 841.48 251.696C841.48 251.312 841.352 251.013 841.096 250.8C840.85 250.587 840.493 250.48 840.024 250.48H837.192V252.976ZM845.192 252.16L849.96 246H850.856V254H849.8V247.84L845.032 254H844.136V246H845.192V252.16ZM855.601 246H858.849V254H857.793V250.928H856.417L853.953 254H852.609L855.137 250.896C854.486 250.8 853.953 250.533 853.537 250.096C853.131 249.648 852.929 249.109 852.929 248.48C852.929 247.765 853.185 247.173 853.697 246.704C854.23 246.235 854.865 246 855.601 246ZM855.601 249.936H857.793V247.024H855.601C855.142 247.024 854.758 247.163 854.449 247.44C854.139 247.707 853.985 248.053 853.985 248.48C853.985 248.907 854.139 249.259 854.449 249.536C854.758 249.803 855.142 249.936 855.601 249.936ZM864.129 246H870.849V247.024H868.017V254H866.961V247.024H864.129V246ZM876.424 245.808C877.565 245.808 878.536 246.213 879.336 247.024C880.146 247.835 880.552 248.827 880.552 250C880.552 251.173 880.146 252.165 879.336 252.976C878.536 253.787 877.565 254.192 876.424 254.192C875.005 254.192 873.928 253.605 873.192 252.432V257.2H872.136V246H873.192V247.568C873.928 246.395 875.005 245.808 876.424 245.808ZM874.104 252.256C874.712 252.864 875.458 253.168 876.344 253.168C877.229 253.168 877.976 252.864 878.584 252.256C879.192 251.627 879.496 250.875 879.496 250C879.496 249.115 879.192 248.368 878.584 247.76C877.976 247.141 877.229 246.832 876.344 246.832C875.458 246.832 874.712 247.141 874.104 247.76C873.496 248.368 873.192 249.115 873.192 250C873.192 250.875 873.496 251.627 874.104 252.256ZM885.163 252.704L887.755 246H888.875L885.451 254.736C885.131 255.547 884.683 256.171 884.107 256.608C883.542 257.056 882.912 257.253 882.219 257.2V256.208C883.179 256.325 883.91 255.771 884.411 254.544L884.619 254.048L881.035 246H882.155L885.163 252.704ZM896.387 246V252.976H897.507V256.144H896.451V254H889.923V256.144H888.867V252.976H889.843C890.387 252.251 890.659 251.243 890.659 249.952V246H896.387ZM891.123 252.976H895.331V247.024H891.715V249.952C891.715 251.189 891.518 252.197 891.123 252.976ZM905.672 247.568V246H906.728V254H905.672V252.432C904.936 253.605 903.859 254.192 902.44 254.192C901.299 254.192 900.323 253.787 899.512 252.976C898.712 252.165 898.312 251.173 898.312 250C898.312 248.827 898.712 247.835 899.512 247.024C900.323 246.213 901.299 245.808 902.44 245.808C903.859 245.808 904.936 246.395 905.672 247.568ZM900.28 252.256C900.888 252.864 901.635 253.168 902.52 253.168C903.405 253.168 904.152 252.864 904.76 252.256C905.368 251.627 905.672 250.875 905.672 250C905.672 249.115 905.368 248.368 904.76 247.76C904.152 247.141 903.405 246.832 902.52 246.832C901.635 246.832 900.888 247.141 900.28 247.76C899.672 248.368 899.368 249.115 899.368 250C899.368 250.875 899.672 251.627 900.28 252.256ZM910.564 253.28C910.564 253.525 910.478 253.733 910.308 253.904C910.137 254.075 909.929 254.16 909.684 254.16C909.438 254.16 909.23 254.075 909.06 253.904C908.889 253.733 908.804 253.525 908.804 253.28C908.804 253.035 908.889 252.827 909.06 252.656C909.23 252.485 909.438 252.4 909.684 252.4C909.929 252.4 910.137 252.485 910.308 252.656C910.478 252.827 910.564 253.035 910.564 253.28Z" fill="#2A2A2A"/>
<defs>
<filter id="filter0_d_103_802" x="843.6" y="911.6" width="90" height="90" filterUnits="userSpaceOnUse" color-interpolation-filters="sRGB">
<feFlood flood-opacity="0" result="BackgroundImageFix"/>
<feColorMatrix in="SourceAlpha" type="matrix" values="0 0 0 0 0 0 0 0 0 0 0 0 0 0 0 0 0 0 127 0" result="hardAlpha"/>
<feOffset dx="3.6" dy="3.6"/>
<feGaussianBlur stdDeviation="7.5"/>
<feColorMatrix type="matrix" values="0 0 0 0 0.164706 0 0 0 0 0.164706 0 0 0 0 0.164706 0 0 0 0.15 0"/>
<feBlend mode="multiply" in2="BackgroundImageFix" result="effect1_dropShadow_103_802"/>
<feBlend mode="normal" in="SourceGraphic" in2="effect1_dropShadow_103_802" result="shape"/>
</filter>
<filter id="filter1_d_103_802" x="858" y="932" width="54" height="54" filterUnits="userSpaceOnUse" color-interpolation-filters="sRGB">
<feFlood flood-opacity="0" result="BackgroundImageFix"/>
<feColorMatrix in="SourceAlpha" type="matrix" values="0 0 0 0 0 0 0 0 0 0 0 0 0 0 0 0 0 0 127 0" result="hardAlpha"/>
<feOffset dy="6"/>
<feGaussianBlur stdDeviation="6"/>
<feComposite in2="hardAlpha" operator="out"/>
<feColorMatrix type="matrix" values="0 0 0 0 0.776471 0 0 0 0 0.12549 0 0 0 0 0.172549 0 0 0 0.3 0"/>
<feBlend mode="normal" in2="BackgroundImageFix" result="effect1_dropShadow_103_802"/>
<feBlend mode="normal" in="SourceGraphic" in2="effect1_dropShadow_103_802" result="shape"/>
</filter>
<filter id="filter2_d_103_802" x="1093.6" y="730.6" width="90" height="90" filterUnits="userSpaceOnUse" color-interpolation-filters="sRGB">
<feFlood flood-opacity="0" result="BackgroundImageFix"/>
<feColorMatrix in="SourceAlpha" type="matrix" values="0 0 0 0 0 0 0 0 0 0 0 0 0 0 0 0 0 0 127 0" result="hardAlpha"/>
<feOffset dx="3.6" dy="3.6"/>
<feGaussianBlur stdDeviation="7.5"/>
<feColorMatrix type="matrix" values="0 0 0 0 0.164706 0 0 0 0 0.164706 0 0 0 0 0.164706 0 0 0 0.15 0"/>
<feBlend mode="multiply" in2="BackgroundImageFix" result="effect1_dropShadow_103_802"/>
<feBlend mode="normal" in="SourceGraphic" in2="effect1_dropShadow_103_802" result="shape"/>
</filter>
<filter id="filter3_d_103_802" x="1108" y="751" width="54" height="54" filterUnits="userSpaceOnUse" color-interpolation-filters="sRGB">
<feFlood flood-opacity="0" result="BackgroundImageFix"/>
<feColorMatrix in="SourceAlpha" type="matrix" values="0 0 0 0 0 0 0 0 0 0 0 0 0 0 0 0 0 0 127 0" result="hardAlpha"/>
<feOffset dy="6"/>
<feGaussianBlur stdDeviation="6"/>
<feComposite in2="hardAlpha" operator="out"/>
<feColorMatrix type="matrix" values="0 0 0 0 0.776471 0 0 0 0 0.12549 0 0 0 0 0.172549 0 0 0 0.3 0"/>
<feBlend mode="normal" in2="BackgroundImageFix" result="effect1_dropShadow_103_802"/>
<feBlend mode="normal" in="SourceGraphic" in2="effect1_dropShadow_103_802" result="shape"/>
</filter>
<filter id="filter4_d_103_802" x="1388.6" y="432.6" width="90" height="90" filterUnits="userSpaceOnUse" color-interpolation-filters="sRGB">
<feFlood flood-opacity="0" result="BackgroundImageFix"/>
<feColorMatrix in="SourceAlpha" type="matrix" values="0 0 0 0 0 0 0 0 0 0 0 0 0 0 0 0 0 0 127 0" result="hardAlpha"/>
<feOffset dx="3.6" dy="3.6"/>
<feGaussianBlur stdDeviation="7.5"/>
<feColorMatrix type="matrix" values="0 0 0 0 0.164706 0 0 0 0 0.164706 0 0 0 0 0.164706 0 0 0 0.15 0"/>
<feBlend mode="multiply" in2="BackgroundImageFix" result="effect1_dropShadow_103_802"/>
<feBlend mode="normal" in="SourceGraphic" in2="effect1_dropShadow_103_802" result="shape"/>
</filter>
<filter id="filter5_d_103_802" x="1403" y="453" width="54" height="54" filterUnits="userSpaceOnUse" color-interpolation-filters="sRGB">
<feFlood flood-opacity="0" result="BackgroundImageFix"/>
<feColorMatrix in="SourceAlpha" type="matrix" values="0 0 0 0 0 0 0 0 0 0 0 0 0 0 0 0 0 0 127 0" result="hardAlpha"/>
<feOffset dy="6"/>
<feGaussianBlur stdDeviation="6"/>
<feComposite in2="hardAlpha" operator="out"/>
<feColorMatrix type="matrix" values="0 0 0 0 0.776471 0 0 0 0 0.12549 0 0 0 0 0.172549 0 0 0 0.3 0"/>
<feBlend mode="normal" in2="BackgroundImageFix" result="effect1_dropShadow_103_802"/>
<feBlend mode="normal" in="SourceGraphic" in2="effect1_dropShadow_103_802" result="shape"/>
</filter>
<filter id="filter6_d_103_802" x="1069" y="132" width="140" height="140" filterUnits="userSpaceOnUse" color-interpolation-filters="sRGB">
<feFlood flood-opacity="0" result="BackgroundImageFix"/>
<feColorMatrix in="SourceAlpha" type="matrix" values="0 0 0 0 0 0 0 0 0 0 0 0 0 0 0 0 0 0 127 0" result="hardAlpha"/>
<feOffset dx="4" dy="4"/>
<feGaussianBlur stdDeviation="10"/>
<feColorMatrix type="matrix" values="0 0 0 0 0.164706 0 0 0 0 0.164706 0 0 0 0 0.164706 0 0 0 0.1 0"/>
<feBlend mode="multiply" in2="BackgroundImageFix" result="effect1_dropShadow_103_802"/>
<feBlend mode="normal" in="SourceGraphic" in2="effect1_dropShadow_103_802" result="shape"/>
</filter>
<filter id="filter7_d_103_802" x="1108" y="177" width="54" height="54" filterUnits="userSpaceOnUse" color-interpolation-filters="sRGB">
<feFlood flood-opacity="0" result="BackgroundImageFix"/>
<feColorMatrix in="SourceAlpha" type="matrix" values="0 0 0 0 0 0 0 0 0 0 0 0 0 0 0 0 0 0 127 0" result="hardAlpha"/>
<feOffset dy="6"/>
<feGaussianBlur stdDeviation="6"/>
<feComposite in2="hardAlpha" operator="out"/>
<feColorMatrix type="matrix" values="0 0 0 0 0.776471 0 0 0 0 0.12549 0 0 0 0 0.172549 0 0 0 0.3 0"/>
<feBlend mode="normal" in2="BackgroundImageFix" result="effect1_dropShadow_103_802"/>
<feBlend mode="normal" in="SourceGraphic" in2="effect1_dropShadow_103_802" result="shape"/>
</filter>
<filter id="filter8_d_103_802" x="698.6" y="268.6" width="90" height="90" filterUnits="userSpaceOnUse" color-interpolation-filters="sRGB">
<feFlood flood-opacity="0" result="BackgroundImageFix"/>
<feColorMatrix in="SourceAlpha" type="matrix" values="0 0 0 0 0 0 0 0 0 0 0 0 0 0 0 0 0 0 127 0" result="hardAlpha"/>
<feOffset dx="3.6" dy="3.6"/>
<feGaussianBlur stdDeviation="7.5"/>
<feColorMatrix type="matrix" values="0 0 0 0 0.164706 0 0 0 0 0.164706 0 0 0 0 0.164706 0 0 0 0.15 0"/>
<feBlend mode="multiply" in2="BackgroundImageFix" result="effect1_dropShadow_103_802"/>
<feBlend mode="normal" in="SourceGraphic" in2="effect1_dropShadow_103_802" result="shape"/>
</filter>
<filter id="filter9_d_103_802" x="713" y="289" width="54" height="54" filterUnits="userSpaceOnUse" color-interpolation-filters="sRGB">
<feFlood flood-opacity="0" result="BackgroundImageFix"/>
<feColorMatrix in="SourceAlpha" type="matrix" values="0 0 0 0 0 0 0 0 0 0 0 0 0 0 0 0 0 0 127 0" result="hardAlpha"/>
<feOffset dy="6"/>
<feGaussianBlur stdDeviation="6"/>
<feComposite in2="hardAlpha" operator="out"/>
<feColorMatrix type="matrix" values="0 0 0 0 0.776471 0 0 0 0 0.12549 0 0 0 0 0.172549 0 0 0 0.3 0"/>
<feBlend mode="normal" in2="BackgroundImageFix" result="effect1_dropShadow_103_802"/>
<feBlend mode="normal" in="SourceGraphic" in2="effect1_dropShadow_103_802" result="shape"/>
</filter>
<filter id="filter10_d_103_802" x="273.6" y="51.6" width="90" height="90" filterUnits="userSpaceOnUse" color-interpolation-filters="sRGB">
<feFlood flood-opacity="0" result="BackgroundImageFix"/>
<feColorMatrix in="SourceAlpha" type="matrix" values="0 0 0 0 0 0 0 0 0 0 0 0 0 0 0 0 0 0 127 0" result="hardAlpha"/>
<feOffset dx="3.6" dy="3.6"/>
<feGaussianBlur stdDeviation="7.5"/>
<feColorMatrix type="matrix" values="0 0 0 0 0.164706 0 0 0 0 0.164706 0 0 0 0 0.164706 0 0 0 0.15 0"/>
<feBlend mode="multiply" in2="BackgroundImageFix" result="effect1_dropShadow_103_802"/>
<feBlend mode="normal" in="SourceGraphic" in2="effect1_dropShadow_103_802" result="shape"/>
</filter>
<filter id="filter11_d_103_802" x="288" y="72" width="54" height="54" filterUnits="userSpaceOnUse" color-interpolation-filters="sRGB">
<feFlood flood-opacity="0" result="BackgroundImageFix"/>
<feColorMatrix in="SourceAlpha" type="matrix" values="0 0 0 0 0 0 0 0 0 0 0 0 0 0 0 0 0 0 127 0" result="hardAlpha"/>
<feOffset dy="6"/>
<feGaussianBlur stdDeviation="6"/>
<feComposite in2="hardAlpha" operator="out"/>
<feColorMatrix type="matrix" values="0 0 0 0 0.776471 0 0 0 0 0.12549 0 0 0 0 0.172549 0 0 0 0.3 0"/>
<feBlend mode="normal" in2="BackgroundImageFix" result="effect1_dropShadow_103_802"/>
<feBlend mode="normal" in="SourceGraphic" in2="effect1_dropShadow_103_802" result="shape"/>
</filter>
<filter id="filter12_b_103_802" x="755" y="131" width="375" height="164" filterUnits="userSpaceOnUse" color-interpolation-filters="sRGB">
<feFlood flood-opacity="0" result="BackgroundImageFix"/>
<feGaussianBlur in="BackgroundImageFix" stdDeviation="3.5"/>
<feComposite in2="SourceAlpha" operator="in" result="effect1_backgroundBlur_103_802"/>
<feBlend mode="normal" in="SourceGraphic" in2="effect1_backgroundBlur_103_802" result="shape"/>
</filter>
</defs>
</svg>
