<svg width="1431" height="862" fill="none" xmlns="http://www.w3.org/2000/svg"><path d="M-11.5.5a1 1 0 1 0 0 2v-2ZM520 110.07l-.875.484.875-.484Zm184.046 109.57h71.505v-2h-71.505v2Zm208.821-40.893 55.36-36.18-1.094-1.674-55.36 36.18 1.094 1.674ZM1104.45 102H1180v-2h-75.55v2ZM1429 351v81h2v-81h-2Zm-249 330h-115v2h115v-2ZM335.954.5H-11.5v2h347.454v-2ZM1065 681c-99.964 0-181 81.036-181 181h2c0-98.859 80.141-179 179-179v-2Zm364-249c0 137.519-111.48 249-249 249v2c138.62 0 251-112.377 251-251h-2Zm-249-330c137.52 0 249 111.481 249 249h2c0-138.623-112.38-251-251-251v2Zm-211.773 40.567A248.992 248.992 0 0 1 1104.45 102v-2c-48.77 0-96.49 14.21-137.317 40.893l1.094 1.674ZM775.551 219.64c48.773 0 96.489-14.21 137.316-40.893l-1.094-1.674a249.001 249.001 0 0 1-136.222 40.567v2ZM519.125 110.554C556.32 177.859 627.147 219.64 704.046 219.64v-2c-76.171 0-146.327-41.386-183.171-108.054l-1.75.968Zm1.75-.968C483.68 42.281 412.853.5 335.954.5v2c76.171 0 146.327 41.386 183.171 108.054l1.75-.968Z" fill="#C6202C"/></svg>