<svg width="84" height="84" fill="none" xmlns="http://www.w3.org/2000/svg"><circle cx="42" cy="42" r="41" fill="#5E8D66" stroke="#fff" stroke-width="2"/><path d="M28.024 31.51a3.65 3.65 0 0 1 1.105-2.35l2.584-2.572c.404-.387.848-.588 1.279-.588.424 0 .855.2 1.25.602.466.428.904.878 1.376 1.355.237.242.48.484.723.733l2.07 2.06c.431.429.654.864.654 1.293 0 .428-.223.864-.654 1.293-.215.214-.43.435-.646.65-.646.65-1.25 1.265-1.917 1.853l-.035.034c-.577.574-.486 1.12-.348 1.535l.021.056c.535 1.279 1.279 2.495 2.44 3.947 2.084 2.559 4.28 4.543 6.697 6.07.299.194.619.347.917.499.278.138.535.27.764.415.028.013.05.027.077.041.23.118.452.173.674.173.556 0 .917-.353 1.035-.47l2.599-2.586c.403-.401.84-.615 1.271-.615.528 0 .96.325 1.23.615l4.19 4.162c.834.83.827 1.729-.021 2.607-.292.31-.598.608-.924.92-.486.47-.994.953-1.452 1.5-.8.857-1.751 1.258-2.981 1.258-.118 0-.243-.007-.361-.014-2.28-.145-4.398-1.03-5.99-1.784-4.321-2.08-8.115-5.033-11.263-8.78-2.591-3.105-4.335-5.995-5.488-9.092-.716-1.902-.987-3.43-.876-4.82Z" fill="#fff"/></svg>