<svg width="41" height="24" viewBox="0 0 41 24" fill="none" xmlns="http://www.w3.org/2000/svg">
<path d="M40 10.846V13.3275C40 13.3275 37.5575 15.3153 32.0159 14.715C30.3409 14.9406 28.9349 15.0636 27.8162 15.1282C27.7121 15.9428 27.6142 16.8992 27.5774 17.8235C27.4855 20.1316 28.536 23 28.536 23H25.2793L23.2833 15.7556L23.2829 15.7478C21.5588 16.4061 18.5297 17.3702 15.9164 17.2098C12.0032 16.9563 9.45563 14.6216 9.16673 14.4215C9.16673 14.4215 8.77278 17.0097 9.56069 19.0509C10.3486 21.0788 10.7163 21.7593 10.7163 21.7593H7.38082L5.57088 18.5329C5.32277 18.7235 5.06784 18.8979 4.807 19.0509C4.2686 20.5452 4.32113 22.2262 4.36052 23H1.07759L1.36649 17.0631L2.57461 15.5288C2.57461 15.5288 0.315952 12.7805 1.20891 8.45785C1.36413 7.712 1.61885 7.01448 1.95124 6.36883C3.69983 2.97232 7.59788 1.01121 10.4668 1C12.5284 1 14.4063 1.32019 15.9821 1.65373C17.3609 1.94724 18.5165 2.26744 19.3438 2.40085C20.1317 2.52092 21.4055 2.56095 22.7187 2.57429C24.3864 2.60097 26.0935 2.58763 26.9471 2.66768C28.6262 2.82761 31.2096 3.75975 33.2178 4.90549C34.2947 4.29573 35.7202 3.73795 37.2949 3.77501C37.8296 4.31832 37.1309 6.18858 36.1408 7.32568C37.3612 8.80605 38.1754 10.3925 40 10.846Z" fill="white"/>
<path d="M36.1393 7.32383L36.1408 7.32568M9.16673 14.4215C9.45563 14.6216 12.0032 16.9563 15.9164 17.2098C18.5297 17.3702 21.5588 16.4061 23.2829 15.7478M9.16673 14.4215C9.16673 14.4215 8.77278 17.0097 9.56069 19.0509C10.3486 21.0788 10.7163 21.7593 10.7163 21.7593H7.38082L5.57088 18.5329M9.16673 14.4215L11.0183 11.5797M9.16673 14.4215C8.3648 15.5805 7.09655 17.3613 5.57088 18.5329M4.36052 23C4.32113 22.2262 4.2686 20.5452 4.807 19.0509C5.06784 18.8979 5.32277 18.7235 5.57088 18.5329M4.36052 23C3.08674 23 1.07759 23 1.07759 23M4.36052 23H1.07759M1.07759 23L1.36649 17.0631L2.57461 15.5288C2.57461 15.5288 0.315952 12.7805 1.20891 8.45785C1.36413 7.712 1.61885 7.01448 1.95124 6.36883M33.224 4.90904C33.222 4.90785 33.2199 4.90667 33.2178 4.90549M23.0732 11.7799L23.2829 15.7478M28.1421 13.0073C28.1421 13.0073 27.9722 13.9088 27.8162 15.1282M31.6745 9.81868C32.1998 9.81868 32.8563 9.89873 33.5523 9.41844C34.1958 8.97817 34.222 8.81807 35.509 7.91086C35.7263 7.75761 35.9396 7.55679 36.1408 7.32568M31.1886 6.38993C31.1886 6.38993 31.9687 5.61275 33.2178 4.90549M1.5766 2.88114C1.5766 2.88114 0.935738 5.08689 1.95124 6.36883M1.95742 6.37659C1.95535 6.37401 1.95329 6.37142 1.95124 6.36883M36.1408 7.32568C37.3612 8.80605 38.1754 10.3925 40 10.846V13.3275C40 13.3275 37.5575 15.3153 32.0159 14.715C30.3409 14.9406 28.9349 15.0636 27.8162 15.1282M36.1408 7.32568C37.1309 6.18858 37.8296 4.31832 37.2949 3.77501C35.7202 3.73795 34.2947 4.29573 33.2178 4.90549M33.2178 4.90549C31.2096 3.75975 28.6262 2.82761 26.9471 2.66768C26.0935 2.58763 24.3864 2.60097 22.7187 2.57429C21.4055 2.56095 20.1317 2.52092 19.3438 2.40085C18.5165 2.26744 17.3609 1.94724 15.9821 1.65373C14.4063 1.32019 12.5284 1 10.4668 1C7.59788 1.01121 3.69983 2.97232 1.95124 6.36883M23.2829 15.7478L23.2833 15.7556L25.2793 23H28.536C28.536 23 27.4855 20.1316 27.5774 17.8235C27.6142 16.8992 27.7121 15.9428 27.8162 15.1282" stroke="#72D0CA" stroke-width="1.5" stroke-linecap="round" stroke-linejoin="round"/>
</svg>
