<svg width="20" height="19" viewBox="0 0 20 19" fill="none" xmlns="http://www.w3.org/2000/svg">
<path d="M6 17.9999C3.23858 17.9998 1 15.7612 1 12.9998V6.00051C1 3.23889 3.23888 1.00025 6.0005 1.0004C8.66678 1.00055 11.3331 1.00058 13.9994 1.00045C16.761 1.00032 19 3.23898 19 6.00066V13.0006C19 15.7617 16.7619 18.0001 14.0008 18.0002C11.3339 18.0003 8.66693 18.0001 6 17.9999Z" stroke="#72D0CA" stroke-width="1.5" stroke-miterlimit="10"/>
<path d="M12.1382 7.13383L7.95124 7.13381C7.09 7.13381 6.401 6.45227 6.401 5.60035V1L13.6023 1.00002V5.60038C13.6023 6.4523 12.9133 7.13383 12.1382 7.13383Z" stroke="#72D0CA" stroke-width="1.5" stroke-miterlimit="10"/>
<path d="M6.40088 12.6316L13.6022 12.6316" stroke="#72D0CA" stroke-width="1.5" stroke-miterlimit="10" stroke-linecap="round" stroke-linejoin="round"/>
</svg>
