<svg width="20" height="20" viewBox="0 0 20 20" fill="none" xmlns="http://www.w3.org/2000/svg">
<path d="M7.64698 13.0519L10.155 15.8569H8.73598L6.48098 13.3159V15.8569H5.29298V10.3569H6.48098V12.7879L8.61498 10.3569H10.067L7.64698 13.0519ZM10.9541 10.3569H14.6391V11.5009H12.1421V15.8569H10.9541V10.3569Z" fill="#72D0CA"/>
<path d="M15.6003 19H4.39968C2.27297 19 0.642497 17.2 1.06784 15.2L2.62742 7.46667C2.84009 6.06667 4.18701 5 5.74659 5H14.2534C15.813 5 17.089 6 17.3726 7.46667L18.9322 15.2C19.3575 17.2 17.727 19 15.6003 19ZM10 1C8.79487 1 7.87329 1.93333 7.87329 3C7.87329 4.06667 8.86576 5 10 5C11.1342 5 12.1267 4.06667 12.1267 3C12.1267 1.93333 11.2051 1 10 1Z" stroke="#72D0CA" stroke-width="1.5" stroke-miterlimit="10" stroke-linecap="round" stroke-linejoin="round"/>
</svg>
