<svg width="40" height="31" viewBox="0 0 40 31" fill="none" xmlns="http://www.w3.org/2000/svg">
<path fill-rule="evenodd" clip-rule="evenodd" d="M8.13123 4.82447L8.12593 4.83557C9.62938 5.03727 11.5882 5.24382 13.4504 5.27285C15.1277 5.29217 16.9608 5.10081 18.3977 4.89992L8.13123 4.82447Z" fill="white"/>
<path d="M22.5121 30H20.0384L19.1925 23.3533V19.7531C17.1793 20.5466 13.9999 20.9375 10.951 20.8187C10.0987 20.7855 9.25666 20.7125 8.45309 20.5973L8.29785 21.5334C7.34497 21.8961 6.68012 22.3955 6.21755 22.897C5.31749 23.8728 5.18328 24.8568 5.18328 24.8568V30H1.91489V25.6612L1.00487 20.5707L1.78672 16.4561C1.78672 16.4561 0.927967 10.6403 1.00487 9.005C1.10741 6.8422 2.69674 5.6553 3.95283 5.03547C4.79876 4.61346 5.76005 4.48158 6.6957 4.62665C7.09493 4.68985 7.58046 4.76239 8.12593 4.83557C9.62938 5.03727 11.5882 5.24382 13.4504 5.27285C15.1277 5.29217 16.9608 5.10081 18.3977 4.89992C19.9035 4.68939 20.9741 4.4684 20.9741 4.4684L26.5495 5.08822C26.5495 5.08822 27.6105 4.53582 28.7367 3.96955L28.7285 3.95407C28.0235 2.59573 29.0745 1 29.0745 1L31.2142 2.76121C32.8207 2.38247 34.4105 3.44501 35.1883 4.4684C36.1368 5.70805 37.6236 7.19827 38.9438 8.50387C39.2642 10.693 38.1106 11.8536 38.1106 11.8536L35.2268 11.2997L34.7269 11.3524C34.2527 11.4052 33.7784 11.3656 33.317 11.2337L31.9199 10.8249C30.6895 13.146 29.7282 15.4802 28.831 18.1046C28.7279 18.404 28.5937 18.6856 28.4329 18.9464C27.9293 19.7629 27.1651 20.3741 26.2796 20.6805C25.8658 20.8237 25.4256 20.9004 24.973 20.9004H23.4989L23.2589 23.1132L23.2577 23.1246L22.5121 30Z" fill="white"/>
<path d="M28.4465 18.9354L27.5877 22.9445V30H24.9858L23.2577 23.1246L23.2589 23.1132L23.4989 20.9004H24.973C25.4256 20.9004 25.8658 20.8237 26.2796 20.6805C27.1651 20.3741 27.9293 19.7629 28.4329 18.9464L28.4465 18.9354Z" fill="white"/>
<path d="M10.951 30H8.45166L6.21755 22.897C6.68012 22.3955 7.34497 21.8961 8.29785 21.5334L8.45309 20.5973C9.25666 20.7125 10.0987 20.7855 10.951 20.8187V30Z" fill="white"/>
<path d="M25.0884 18.9354L23.5375 20.5443L23.4989 20.9004M19.1925 23.3533L20.0384 30H22.5121L23.2577 23.1246M19.1925 23.3533V17.287M19.1925 23.3533V19.7531C17.1793 20.5466 13.9999 20.9375 10.951 20.8187M9.31041 15.4275L8.45309 20.5973M28.7413 3.96726L28.7367 3.96955M23.4862 20.9004H23.4989M31.1894 2.76717C31.1976 2.76514 31.2059 2.76315 31.2142 2.76121M23.2555 23.116L23.2577 23.1246M30.8561 5.39154C29.8489 5.221 29.2602 4.94605 28.7367 3.96955M28.7285 3.95407C28.0235 2.59573 29.0745 1 29.0745 1L31.2142 2.76121M28.7285 3.95407C28.7312 3.95925 28.734 3.96441 28.7367 3.96955M28.7285 3.95407L28.7367 3.96955M32.4711 3.79582L31.2142 2.76121M24.2809 4.94316C24.2809 4.94316 25.1653 6.47294 24.9987 7.9236C25.7164 8.67531 26.165 9.36107 25.6652 10.4161C25.0884 11.6294 23.9477 11.3524 23.4991 11.1282C22.8197 11.6162 22.0251 12.2228 19.5385 12.2756C18.9361 13.502 16.5009 15.5066 13.8349 14.3065C11.1689 13.1064 10.7331 10.6139 10.8613 9.65121C9.23351 9.57208 8.23377 9.18963 7.8108 7.56753C7.47064 6.28004 8.06319 4.96885 8.12593 4.83557M8.13123 4.82447C8.13123 4.82447 8.12939 4.82823 8.12593 4.83557M8.13123 4.82447L8.12593 4.83557M8.13123 4.82447L18.3977 4.89992M8.45309 20.5973L8.29785 21.5334C7.34497 21.8961 6.68012 22.3955 6.21755 22.897M8.45309 20.5973C9.25666 20.7125 10.0987 20.7855 10.951 20.8187M23.2577 23.1246L24.9858 30H27.5877V22.9445L28.4465 18.9354L28.4329 18.9464M23.2577 23.1246L23.2589 23.1132L23.4989 20.9004M23.4989 20.9004H24.973C25.4256 20.9004 25.8658 20.8237 26.2796 20.6805C27.1651 20.3741 27.9293 19.7629 28.4329 18.9464M31.2142 2.76121C32.8207 2.38247 34.4105 3.44501 35.1883 4.4684C36.1368 5.70805 37.6236 7.19827 38.9438 8.50387C39.2642 10.693 38.1106 11.8536 38.1106 11.8536L35.2268 11.2997L34.7269 11.3524C34.2527 11.4052 33.7784 11.3656 33.317 11.2337L31.9199 10.8249C30.6895 13.146 29.7282 15.4802 28.831 18.1046C28.7279 18.404 28.5937 18.6856 28.4329 18.9464M28.7367 3.96955C27.6105 4.53582 26.5495 5.08822 26.5495 5.08822L20.9741 4.4684C20.9741 4.4684 19.9035 4.68939 18.3977 4.89992M8.12593 4.83557C9.62938 5.03727 11.5882 5.24382 13.4504 5.27285C15.1277 5.29217 16.9608 5.10081 18.3977 4.89992M8.12593 4.83557C7.58046 4.76239 7.09493 4.68985 6.6957 4.62665C5.76005 4.48158 4.79876 4.61346 3.95283 5.03547C2.69674 5.6553 1.10741 6.8422 1.00487 9.005C0.927968 10.6403 1.78672 16.4561 1.78672 16.4561L1.00487 20.5707L1.91489 25.6612V30H5.18328V24.8568C5.18328 24.8568 5.31749 23.8728 6.21755 22.897M6.21755 22.897L8.45166 30H10.951V20.8187" stroke="#72D0CA" stroke-width="1.5" stroke-linecap="round" stroke-linejoin="round"/>
</svg>
