<svg width="22" height="16" viewBox="0 0 22 16" fill="none" xmlns="http://www.w3.org/2000/svg">
<path d="M6.45471 15H11.9623C15.7752 15 18.3635 11.9315 18.2705 8C18.2705 4.16438 15.7752 1 11.9623 1H6.45471" stroke="#72D0CA" stroke-width="1.5" stroke-miterlimit="10"/>
<path d="M6.45455 15C3.45059 15 1 12.0676 1 8.47297V7.52703C1 3.93243 3.45059 1 6.45455 1C9.4585 1 11.9091 3.93243 11.9091 7.52703V8.47297C11.9091 12.1622 9.4585 15 6.45455 15Z" stroke="#72D0CA" stroke-width="1.5" stroke-miterlimit="10"/>
<path d="M19.2727 9.62646L18.2727 9.10413V6.86575L19.2727 6.34349C20.0909 6.04503 21 6.49271 21 7.23885V8.73109C21 9.47723 20 9.99953 19.2727 9.62646Z" stroke="#72D0CA" stroke-width="1.5" stroke-miterlimit="10"/>
<path d="M7.36384 12.375C8.36799 12.375 9.18202 11.5915 9.18202 10.625C9.18202 9.6585 8.36799 8.875 7.36384 8.875C6.35968 8.875 5.54565 9.6585 5.54565 10.625C5.54565 11.5915 6.35968 12.375 7.36384 12.375Z" fill="#72D0CA"/>
</svg>
