<svg width="24" height="26" viewBox="0 0 24 26" fill="none" xmlns="http://www.w3.org/2000/svg">
<path d="M5.46846 8.91091C6.96559 11.8187 8.77733 13.2512 10.3721 14.0423C11.4461 14.5768 12.6178 14.8869 13.6809 14.8869C15.0479 14.8869 16.3823 14.5234 17.1091 13.3795C17.5431 12.6953 17.6624 11.8294 17.4455 10.9635C17.0349 9.27264 14.4487 8.93057 14.2857 8.91176C9.52507 10.3432 7.45339 9.86217 5.46846 8.91091Z" fill="white"/>
<path d="M10.3721 14.0423C8.77733 13.2512 6.96559 11.8187 5.46846 8.91091C4.68736 8.53675 3.93879 8.05568 2.96241 7.64944C2.70204 7.54254 2.44167 7.43563 2.1813 7.3608C1.7799 7.24321 1.41104 7.3608 1.19407 7.62806C1.02049 7.85256 0.955394 8.1412 1.03134 8.46192C1.11813 8.85746 1.3568 9.29577 1.51953 9.61648C1.7148 9.99065 1.7799 10.3541 1.7148 10.7497C1.58462 11.5942 1.74735 12.2036 2.22469 12.6739C2.41997 12.8664 2.50676 13.0909 2.51761 13.3688C2.53931 14.0744 2.82137 14.6303 3.36381 15.0151C3.8737 15.3786 4.17746 15.849 4.30765 16.5118C4.63311 18.1581 6.28212 19.4837 8.07216 19.5693C8.32272 19.9092 9.11113 21.0865 9.38095 21.2226C10.1604 21.6158 10.5894 21.7501 10.6108 21.7501C10.9796 21.7715 11.4027 21.8998 11.7065 21.9532C11.7104 21.9494 12.1423 21.6354 12.7295 21.2226C13.7777 20.4859 15.3206 19.4344 15.8073 19.2699C16.979 18.8851 17.912 18.3719 18.6497 17.7198C20.0383 16.4904 20.7543 14.8548 20.8628 12.7167C20.9496 11.0062 20.6675 9.24232 19.9841 7.16837C19.8647 6.82628 19.8213 6.71938 19.4091 5.55412C20.3312 5.47929 21.1557 5.44722 21.5137 4.78441C21.5267 4.76302 21.6162 4.49862 21.7209 4.17813C21.8779 3.69762 22.0692 3.09103 22.0887 2.98842C22.1972 2.47528 22.0345 2.02628 21.6331 1.76971C21.3293 1.56659 21.0689 1.38486 20.7869 1.20312C20.5699 1.06414 20.3529 1 20.1468 1C19.9732 1 19.7888 1.04276 19.6152 1.13898C19.2463 1.34209 19.0728 1.63074 19.0728 2.05835C19.0728 2.13318 19.0728 2.14388 19.1053 2.73185L19.1 2.73336C18.1892 2.98976 16.9658 3.3342 15.7964 5.21203C15.0735 6.38139 14.9321 7.72994 14.2885 8.91091L14.2857 8.91176C14.4487 8.93057 17.0349 9.27264 17.4455 10.9635C17.6624 11.8294 17.5431 12.6953 17.1091 13.3795C16.3823 14.5234 15.0479 14.8869 13.6809 14.8869C12.6178 14.8869 11.4461 14.5768 10.3721 14.0423Z" fill="white"/>
<path d="M15.33 24.7434L13.2253 24.551C13.0734 24.5403 12.9324 24.551 12.7914 24.6045L11.5654 25M11.7499 21.9532L12.097 22.6695C12.3357 23.1612 12.9975 24.5296 12.9975 24.5296M5.46846 8.91091C6.96559 11.8187 8.77733 13.2512 10.3721 14.0423C11.4461 14.5768 12.6178 14.8869 13.6809 14.8869C15.0479 14.8869 16.3823 14.5234 17.1091 13.3795C17.5431 12.6953 17.6624 11.8294 17.4455 10.9635C17.0349 9.27265 14.4487 8.93057 14.2857 8.91176M5.46846 8.91091C4.68736 8.53675 3.93879 8.05568 2.96241 7.64944C2.70204 7.54254 2.44167 7.43563 2.1813 7.3608C1.7799 7.24321 1.41104 7.3608 1.19407 7.62806C1.02049 7.85256 0.955394 8.1412 1.03134 8.46192C1.11813 8.85746 1.3568 9.29577 1.51953 9.61648C1.7148 9.99065 1.7799 10.3541 1.7148 10.7497C1.58462 11.5942 1.74735 12.2036 2.22469 12.6739C2.41997 12.8664 2.50676 13.0909 2.51761 13.3688C2.53931 14.0744 2.82137 14.6303 3.36381 15.0151C3.8737 15.3786 4.17746 15.849 4.30765 16.5118C4.63311 18.1581 6.28212 19.4837 8.07216 19.5693M5.46846 8.91091C7.45339 9.86217 9.52507 10.3432 14.2857 8.91176M8.07216 19.5693C7.67075 19.0775 7.6816 17.9122 7.6816 17.9122M8.07216 19.5693C8.32272 19.9092 9.11113 21.0865 9.38095 21.2226M23 3.91849L21.8609 3.83296M9.016 23.4285L7.59481 23.8454M9.38095 21.2226C10.1604 21.6158 10.5894 21.7501 10.6108 21.7501C10.9796 21.7715 11.4027 21.8998 11.7065 21.9532C11.7104 21.9494 12.1423 21.6354 12.7295 21.2226M9.38095 21.2226C9.38095 21.2226 9.05647 22.7012 9.016 23.1399C9.00515 23.2788 9.016 23.4285 9.04854 23.5675L9.33061 24.6258C9.35231 24.7114 9.42825 24.7862 9.52589 24.7969L10.5891 24.9252M19.1162 2.73185C20.601 2.41904 21.8828 3.13488 21.7209 4.17813M21.6765 4.36748C21.6965 4.30331 21.7113 4.24014 21.7209 4.17813M1.56292 9.60579C1.87754 10.1296 2.66949 10.6641 3.77606 10.7497M2.27894 12.6633C2.95156 13.2298 4.07983 13.155 4.64396 13.0481M3.41805 15.0045C4.55717 15.5924 5.53356 15.3359 6.22787 15.229M12.6178 21.3225C12.6557 21.2898 12.693 21.2565 12.7295 21.2226M14.4729 17.9122C14.4729 17.9122 14.1023 19.951 12.7295 21.2226M14.2857 8.91176L14.2885 8.91091C14.9321 7.72994 15.0735 6.38139 15.7964 5.21203C16.9658 3.3342 18.1892 2.98976 19.1 2.73336L19.1053 2.73185C19.0728 2.14387 19.0728 2.13318 19.0728 2.05835C19.0728 1.63074 19.2463 1.34209 19.6152 1.13898C19.7888 1.04276 19.9732 1 20.1468 1C20.3529 1 20.5699 1.06414 20.7869 1.20312C21.0689 1.38486 21.3293 1.56659 21.6331 1.76971C22.0345 2.02628 22.1972 2.47528 22.0887 2.98842C22.0692 3.09103 21.8779 3.69762 21.7209 4.17813M12.7295 21.2226C13.7777 20.4859 15.3206 19.4344 15.8073 19.2699C16.979 18.8851 17.912 18.3719 18.6497 17.7198C20.0383 16.4904 20.7543 14.8548 20.8628 12.7167C20.9496 11.0062 20.6675 9.24232 19.9841 7.16837C19.8647 6.82628 19.8213 6.71938 19.4091 5.55412C20.3312 5.47929 21.1557 5.44722 21.5137 4.78441C21.5267 4.76302 21.6162 4.49862 21.7209 4.17813" stroke="#72D0CA" stroke-width="1.5" stroke-linecap="round" stroke-linejoin="round"/>
</svg>
