<svg width="516" height="258" viewBox="0 0 516 258" fill="none" xmlns="http://www.w3.org/2000/svg">
<path opacity="0.5" d="M22.3949 235.605L22.3949 213.079L44.7898 213.079L44.7898 190.684L67.1848 190.684L67.1848 168.289L89.7107 168.289L89.7107 190.684L112.106 190.684L112.106 213.079L134.501 213.079L134.501 235.605L157.026 235.605L157.026 258L134.501 258L112.106 258L89.7107 258L89.7107 235.605L67.1848 235.605L67.1848 258L44.7898 258L22.3949 258L-1.56855e-05 258L-1.17699e-05 235.605L22.3949 235.605Z" fill="white"/>
<path opacity="0.5" d="M381.368 235.605L381.368 213.079L403.763 213.079L403.763 190.684L426.158 190.684L426.158 168.289L448.684 168.289L448.684 190.684L471.079 190.684L471.079 213.079L493.474 213.079L493.474 235.605L516 235.605L516 258L493.474 258L471.079 258L448.684 258L448.684 235.605L426.158 235.605L426.158 258L403.763 258L381.368 258L358.843 258L358.843 235.605L381.368 235.605Z" fill="white"/>
<path opacity="0.5" d="M134.5 168.289L134.5 190.684L156.895 190.684L156.895 213.079L179.29 213.079L179.29 235.474L201.685 235.474L201.685 257.869L224.08 257.869L246.475 257.869L268.87 257.869L291.527 257.869L313.922 257.869L313.922 235.474L336.317 235.474L336.317 213.079L358.712 213.079L358.712 190.684L381.107 190.684L381.107 168.289L358.712 168.289L358.712 145.894L336.317 145.894L336.317 123.5L313.922 123.5L313.922 145.894L291.527 145.894L291.527 168.289L269.132 168.289L269.132 190.684L246.737 190.684L246.737 168.289L224.342 168.289L224.342 145.894L201.947 145.894L201.947 123.5L179.552 123.5L179.552 145.894L157.157 145.894L157.157 168.289L134.5 168.289ZM269.132 235.605L269.132 213.21L291.527 213.21L291.527 190.815L313.922 190.815L313.922 168.42L336.317 168.42L336.317 190.815L313.922 190.815L313.922 213.21L291.527 213.21L291.527 235.605L269.132 235.605ZM179.421 190.684L179.421 168.289L201.816 168.289L201.816 190.684L224.211 190.684L224.211 213.079L246.606 213.079L246.606 235.474L224.211 235.474L224.211 213.079L201.816 213.079L201.816 190.684L179.421 190.684Z" fill="white"/>
<path opacity="0.5" d="M269.132 145.894L246.737 145.894L246.737 123.5L269.132 123.5L269.132 145.894ZM246.737 100.974L224.342 100.974L224.342 123.369L246.737 123.369L246.737 100.974ZM269.132 123.369L291.527 123.369L291.527 100.974L269.132 100.974L269.132 123.369Z" fill="white"/>
<path opacity="0.5" d="M314.053 67.3157L314.053 89.7107L336.448 89.7107L336.448 112.106L358.843 112.106L358.843 134.501L381.238 134.501L381.238 156.895L403.633 156.895L403.633 134.501L426.028 134.501L426.028 112.106L448.684 112.106L448.684 89.7107L471.079 89.7107L471.079 67.3158L448.684 67.3158L448.684 44.9208L426.289 44.9208L426.29 22.3949L403.895 22.3949L403.895 1.57084e-05L381.5 1.17928e-05L381.5 22.3949L359.105 22.3949L359.105 44.7899L336.71 44.7899L336.71 67.3157L314.053 67.3157ZM358.843 89.7107L358.843 67.3158L381.238 67.3158L381.238 44.9208L403.633 44.9208L403.633 67.3158L426.028 67.3158L426.028 89.7107L403.633 89.7107L403.633 112.106L381.238 112.106L381.238 89.7107L358.843 89.7107ZM403.764 89.7107L381.369 89.7107L381.369 67.3158L403.764 67.3158L403.764 89.7107Z" fill="white"/>
</svg>
