<svg width="143" height="126" viewBox="0 0 143 126" fill="none" xmlns="http://www.w3.org/2000/svg">
<path d="M141.746 54.0133L118.639 120.668C117.573 123.689 114.729 125.822 111.529 125.822L30.8331 126C27.6337 126 24.7898 124.045 23.5456 120.845L0.438706 54.3687C-0.272274 52.4135 -0.0945282 50.2806 0.794197 48.5032C1.32743 47.4367 2.21616 46.3702 3.28263 45.6592L65.6711 2.1117L66.9154 1.22298C69.4038 -0.376727 72.4254 -0.376728 74.7361 1.04523L76.5136 2.28945L138.902 45.3037C141.746 47.2589 142.99 50.8138 141.746 54.0133Z" fill="#C6202C"/>
<path d="M134.992 55.4351L114.196 115.691C113.307 118.535 110.641 120.312 107.619 120.312L34.7435 120.49C31.8996 120.49 29.2334 118.712 28.1669 115.868L7.19301 55.6129C6.48203 53.8354 6.65978 51.8802 7.5485 50.2805C8.08174 49.2141 8.79272 48.3253 9.68144 47.7921L66.2044 8.51045L67.4486 7.62172C69.5815 6.19976 72.4254 6.19976 74.5584 7.44398L76.1581 8.51045L132.503 47.4366C134.992 49.2141 136.058 52.4135 134.992 55.4351Z" stroke="white" stroke-miterlimit="10"/>
<path d="M117.985 59.9912C117.985 57.8643 116.113 56.437 114.769 55.1113C114.769 55.8433 115.016 56.5753 115.016 57.3073C115.016 58.0393 115.016 58.7712 114.769 59.5032C114.521 60.4792 113.531 60.7232 112.542 60.7232C112.047 60.7232 111.799 60.4792 111.799 59.9912C111.552 59.2592 111.057 58.7713 110.562 58.0393C109.82 57.0633 108.583 56.5753 107.345 56.5753C107.098 56.5753 106.603 56.5753 106.356 56.5753C106.356 56.3313 106.356 56.0873 106.356 55.8433C106.356 54.3793 106.108 53.1594 105.118 51.9394C104.376 51.2074 103.634 50.7194 102.644 50.4754C101.902 50.2314 101.654 49.9874 101.16 49.2554C100.17 47.3035 98.9326 45.5955 96.7057 44.6195C95.2211 43.8876 93.9839 43.6436 92.2518 44.1315C91.5095 44.3755 91.0146 44.6195 90.5198 45.1075L90.2723 44.8635C89.0352 42.9116 87.3031 41.9356 85.0762 41.6916C84.5813 41.6916 83.839 41.4476 83.0967 41.4476H82.8493C82.1069 41.4476 81.6121 41.4476 80.8698 41.4476C80.3749 41.4476 79.6326 41.6916 79.1377 41.6916C77.1582 42.1796 75.4262 42.9116 74.189 44.3755C72.4569 46.0835 70.4775 47.0595 68.2505 47.3035C66.5185 47.5475 64.7864 47.7915 63.0544 48.0355C60.58 48.2795 58.1057 48.5235 55.8787 48.7675C53.8992 49.0114 51.9197 49.0114 49.9403 49.2554C47.4659 49.4994 44.9915 49.9874 42.5172 50.7194C42.0223 50.9634 41.7749 50.7194 41.28 50.4754C40.5377 49.7434 39.5479 49.2554 38.3108 49.2554C36.3313 49.0114 34.3518 49.4994 32.6197 50.7194C30.1454 52.4274 29.1556 55.1113 29.8979 58.0393C30.3928 59.5032 30.8877 61.2112 31.3826 62.6752C31.63 63.8951 32.1249 65.1151 32.3723 66.0911C32.8672 67.7991 32.1249 68.775 30.8877 69.751C30.1454 70.239 29.6505 70.483 29.1556 70.971C28.1659 71.703 27.9185 72.923 28.1659 74.1429C28.6608 73.4109 29.1556 72.435 30.6402 72.679C29.4031 73.6549 28.1659 74.6309 27.9185 76.0949C27.9185 76.3389 27.9185 76.5829 27.9185 77.0709C28.1659 77.8029 28.1659 78.2909 28.6608 78.7788C28.6608 79.0228 28.9082 79.0228 29.1556 79.2668C29.1556 79.0228 29.1556 78.7788 29.1556 78.7788C29.1556 78.0469 29.6505 77.3149 30.3928 76.8269C30.6403 76.5829 30.8877 76.5829 31.1351 76.3389C33.1146 75.6069 34.3518 74.1429 35.0941 72.191C35.8364 69.995 35.8364 68.0431 34.8467 65.8471C34.1044 64.1391 33.362 62.6752 32.8672 60.9672C32.1249 59.0152 31.8774 57.0633 32.3723 55.1113C32.8672 52.9154 34.3518 51.6954 36.5787 51.4514C37.5685 51.4514 38.5582 51.6954 39.3005 52.4274C39.3005 52.4274 39.3005 52.4274 39.548 52.6714C39.3005 52.9154 39.0531 53.1594 38.8056 53.4034C37.5685 54.3793 37.321 55.8433 37.5685 57.3073C37.8159 59.5032 38.0633 61.9432 38.5582 64.1391C38.8056 65.6031 39.0531 67.0671 39.3005 68.5311C39.3005 69.019 39.3005 69.507 39.3005 69.751C41.0326 66.3351 43.0121 63.1632 48.9505 61.6992C44.2492 64.3831 42.5172 68.5311 39.0531 71.947C38.8056 73.167 38.3108 74.3869 37.5685 75.6069C36.8262 76.8269 36.0838 77.8029 35.3415 78.7788C34.8467 79.5108 34.8467 80.2428 35.0941 80.9748C35.8364 82.9268 36.0838 84.8787 35.8364 87.0747C35.589 88.5386 35.0941 90.2466 34.8467 91.7106C34.8467 92.1986 34.8467 92.6866 34.8467 93.1745C34.8467 93.6625 35.0941 93.6625 35.3415 93.6625C35.589 93.6625 35.8364 93.6625 36.0838 93.6625C36.0838 94.3945 36.3313 94.8825 36.3313 95.6145C36.5787 96.3465 36.8262 96.5905 37.5685 96.5905C38.3108 96.5905 38.8056 96.5905 39.548 96.5905H39.7954C40.7851 96.5905 41.5274 96.5905 42.5172 96.5905C42.7646 96.5905 42.7646 96.5905 43.0121 96.3465C43.0121 95.6145 42.7646 94.8825 42.2697 94.3945C41.7749 93.9065 41.28 93.4185 40.5377 92.9306C39.7954 92.1986 39.3005 91.4666 39.3005 90.4906C39.3005 88.7826 39.7954 87.0747 40.2903 85.3667C40.7851 83.9027 41.7749 82.9268 43.2595 82.4388C44.0018 82.1948 44.7441 81.9508 45.4864 81.7068H45.7339C46.4762 82.4388 46.971 82.9268 47.7133 83.6587C48.2082 83.9027 48.4556 84.3907 48.9505 84.3907C49.9403 84.8787 50.6826 85.1227 51.4249 85.8547C52.6621 87.0747 52.9095 88.5386 52.6621 90.2466C52.6621 90.4906 52.6621 90.9786 52.4146 91.2226C52.4146 91.9546 52.6621 92.1986 53.1569 92.1986C53.4044 92.1986 53.6518 92.1986 53.8992 92.1986C54.3941 92.1986 54.6415 92.4426 54.6415 92.9306C54.6415 93.1746 54.6415 93.6625 54.889 93.9065C55.1364 95.1265 55.6313 95.6145 56.621 95.6145C58.1056 95.6145 59.5903 95.6145 60.8274 95.6145H61.0749C61.8172 95.3705 62.0646 95.1265 61.5698 94.3945C61.0749 93.4185 60.0851 92.6866 59.3428 91.9546C58.848 91.4666 58.3531 91.2226 57.8582 90.7346C57.6108 90.2466 57.1159 90.0026 57.1159 89.5146C56.3736 87.5627 55.8787 85.6107 55.3839 83.6587C54.889 81.4628 55.1364 79.2668 56.1262 77.3149C56.3736 76.8269 56.621 76.3389 56.8685 75.6069C57.1159 75.1189 57.3633 74.8749 57.6108 74.3869C58.6005 74.8749 59.3428 75.3629 60.3326 75.8509C61.3223 76.5829 62.3121 77.0709 63.3018 77.8029C64.0441 78.2908 64.7864 78.5348 65.5287 78.5348C65.7762 78.5348 65.7762 78.5348 66.0236 78.5348C66.0236 77.8029 66.0236 77.3149 66.0236 76.5829C66.0236 76.3389 66.0236 76.0949 66.0236 75.8509C66.0236 75.1189 66.5185 74.8749 67.2608 74.8749C68.498 75.1189 69.7351 75.3629 70.7249 75.8509C72.2095 76.3389 73.4467 76.5829 74.9313 77.0709L75.1787 77.3149C75.1787 78.2908 75.1787 79.5108 74.9313 80.4868C74.6839 81.4628 74.9313 82.1948 75.921 82.9268C76.4159 83.1708 76.9108 83.4148 77.1582 83.6587C78.148 84.1467 78.6428 85.1227 78.6428 86.0987C78.8903 87.3187 78.6428 88.5386 78.148 89.7586C77.9005 90.0026 77.9005 90.4906 77.9005 90.7346C77.9005 91.2226 78.148 91.2226 78.3954 91.4666C78.6428 91.4666 78.6428 91.4666 78.8903 91.4666C79.3851 91.4666 79.3852 91.4666 79.3852 91.9546C79.3852 92.4426 79.3852 92.9306 79.3852 93.4185C79.3852 94.3945 79.6326 94.6385 80.3749 94.6385C81.8595 94.8825 83.3441 94.8825 84.5813 94.3945C85.0762 94.1505 85.3236 94.1505 85.0762 93.4185C84.8287 92.1986 84.0864 91.2226 83.3441 90.4906C82.3544 89.7586 82.1069 88.7826 82.1069 87.5627C82.1069 85.6107 82.1069 83.9027 82.3544 81.9508C82.3544 81.9508 82.3544 81.9508 82.3544 81.7068C82.8493 81.9508 83.0967 81.9508 83.3441 82.1948C85.571 83.1707 86.8082 85.1227 86.8082 87.5627C86.8082 88.0507 86.8082 88.5387 86.5608 89.0266C86.5608 90.0026 86.8082 90.2466 87.5505 90.2466C88.7877 90.4906 88.7877 90.4906 89.0352 91.7106C89.0352 91.9546 89.0352 92.1986 89.0352 92.4426C89.2826 93.4185 89.7775 93.9065 90.7672 93.9065C92.2518 93.9065 93.7364 93.9065 94.9736 93.9065C95.4685 93.9065 95.7159 93.6625 96.2108 93.4185C95.7159 92.4426 95.2211 91.7106 94.4787 90.9786C93.9839 90.7346 93.7364 90.2466 93.2416 90.0026C92.0044 89.2706 91.2621 88.0507 90.7672 86.8307C90.2723 85.6107 90.0249 84.3907 89.53 83.1708C89.2826 82.6828 89.2826 82.1948 89.53 81.7068V81.4628C89.7775 81.2188 89.7775 81.2188 90.0249 80.9748L90.2723 81.2188C90.2723 81.4628 90.5198 81.7068 90.5198 81.9508C90.5198 82.9268 91.0146 83.9027 92.2518 84.1467C92.4993 82.9268 92.9941 81.9508 93.7364 80.9748C94.2313 81.4628 94.2313 82.1948 93.9839 82.9268C93.9839 84.1467 94.2313 85.3667 94.9736 86.3427C94.9736 86.3427 94.9736 86.3427 95.2211 86.5867C95.7159 84.8787 96.4582 83.4147 96.9531 81.9508C97.2005 81.4628 96.9531 80.9748 96.9531 80.4868C96.9531 80.7308 97.2005 80.9748 97.2005 81.2188C97.2005 81.7068 97.448 81.9508 97.448 82.4388C97.6954 82.6828 97.9428 83.1707 98.1903 83.4147C98.1903 83.4147 98.1903 83.4147 98.4377 83.4147C98.9326 82.4388 99.18 81.7068 99.6749 80.7308C100.17 79.7548 100.17 78.7788 100.17 77.8029L100.417 78.0469C100.912 78.2909 101.16 78.5349 101.654 78.7788C102.149 79.0228 102.644 79.0228 102.892 78.5348C103.139 78.2908 103.386 78.2909 103.634 78.2909C104.129 78.2909 104.871 78.2909 105.366 78.0469C106.108 77.8029 106.356 77.0709 106.356 76.3389C106.108 75.3629 106.356 74.6309 107.098 73.8989C107.345 73.6549 107.593 73.411 107.84 73.167C108.583 72.435 109.077 71.459 109.077 70.239C109.077 69.751 109.325 69.263 109.82 69.019C111.304 68.0431 111.799 67.3111 111.304 65.6031C114.589 66.0658 117.985 63.1823 117.985 59.9912ZM42.0223 55.3553C45.239 53.1594 47.9608 50.2314 52.6621 51.9394C48.7031 51.9394 45.7339 54.6233 42.0223 55.3553ZM41.0326 75.6069C42.7646 72.191 43.7544 68.2871 49.6928 66.8231C45.4864 69.263 44.4967 72.923 41.0326 75.6069ZM42.2697 78.0469C43.5069 75.6069 44.2492 72.923 48.4556 71.947C45.4864 73.411 44.7441 76.0949 42.2697 78.0469ZM43.7544 79.9988C44.9915 77.5589 45.7338 74.8749 49.9403 73.8989C46.971 75.6069 46.2287 78.0469 43.7544 79.9988ZM49.4454 54.8673C51.6723 53.1594 53.8992 50.9634 57.3633 52.1834C54.3941 52.1834 52.1672 54.3793 49.4454 54.8673ZM54.1467 54.8673C55.6313 53.6474 57.1159 52.4274 59.3428 53.1594C57.3633 53.1594 55.8787 54.6233 54.1467 54.8673ZM85.0762 44.1315C83.3441 45.1075 82.6018 46.8155 81.1172 48.0355C82.1069 46.3275 82.8493 44.3755 85.0762 44.1315ZM70.7249 53.6474C72.4569 50.2314 73.9416 46.5715 78.6428 45.8395C75.1787 47.7915 73.6941 51.4514 70.7249 53.6474ZM76.9108 49.9874C78.148 47.5475 79.1377 44.6195 82.8493 44.1315C80.3749 45.5955 79.1377 48.5235 76.9108 49.9874ZM79.88 79.5108C80.8698 76.8269 81.6121 73.8989 84.8287 73.167C82.6018 74.6309 82.1069 77.5589 79.88 79.5108ZM82.6018 82.4388C82.8493 79.7548 82.8493 76.5829 86.0659 74.8749C83.839 77.0709 84.0864 79.9988 82.6018 82.4388ZM98.1903 80.9748C98.1903 78.7788 96.9531 79.2668 97.448 77.3149C96.7057 77.8029 96.9531 78.7788 95.9634 79.0228C96.2108 78.0469 96.2108 77.3149 96.4582 76.3389C96.2108 76.5829 95.9634 76.5829 95.4685 76.8269C94.9736 76.8269 95.2211 76.5829 95.2211 76.3389C95.2211 74.1429 96.7057 72.191 97.6954 70.483C97.448 71.703 97.448 72.679 97.2005 73.8989C97.448 73.167 97.9428 72.435 98.6852 71.947C99.18 73.167 98.1903 73.655 97.9428 74.3869C97.9428 74.6309 97.6954 75.1189 98.1903 75.3629C99.18 75.8509 98.9326 73.8989 99.9223 74.6309C99.9223 75.6069 97.9428 76.5563 100.417 76.3389C98.9326 77.3149 99.9223 79.7548 98.1903 80.9748ZM94.7262 74.1429C95.2211 70.727 94.9736 67.0671 98.9326 64.8711C96.4582 67.5551 96.7057 71.215 94.7262 74.1429ZM102.644 61.4552C102.644 61.6992 102.397 61.9432 102.397 62.4312C101.902 64.3831 101.654 64.6271 99.6749 64.1391C97.2005 63.6512 95.4685 62.1872 94.4787 59.9912C93.489 57.5513 94.4787 53.6474 96.9531 51.9394C95.9634 55.8433 98.1903 59.5032 101.654 59.7472C103.139 59.7472 102.892 60.4792 102.644 61.4552Z" fill="#F9D751"/>
</svg>
