<svg width="52" height="47" viewBox="0 0 52 47" fill="none" xmlns="http://www.w3.org/2000/svg">
<path d="M51.824 20.1478L43.3758 45.0109C42.9859 46.1381 41.9461 46.9337 40.7764 46.9337L11.2729 47C10.1032 47 9.06343 46.2707 8.60853 45.0772L0.160396 20.2804C-0.0995464 19.5511 -0.0345606 18.7555 0.290367 18.0924C0.485324 17.6946 0.810252 17.2968 1.20017 17.0316L24.0101 0.787699L24.465 0.45619C25.3748 -0.140525 26.4796 -0.140525 27.3244 0.389888L27.9742 0.854L50.7842 16.899C51.824 17.6283 52.2789 18.9544 51.824 20.1478Z" fill="#C6202C"/>
<path d="M49.3545 20.6782L41.7512 43.1545C41.4262 44.2153 40.4514 44.8783 39.3467 44.8783L12.7026 44.9446C11.6628 44.9446 10.688 44.2816 10.2981 43.2208L2.62982 20.7445C2.36987 20.0815 2.43486 19.3522 2.75979 18.7554C2.95475 18.3576 3.21469 18.0261 3.53962 17.8272L24.205 3.17454L24.6599 2.84304C25.4398 2.31262 26.4795 2.31262 27.2594 2.77673L27.8442 3.17454L48.4447 17.6946C49.3545 18.3576 49.7444 19.5511 49.3545 20.6782Z" stroke="white" stroke-miterlimit="10"/>
<path d="M43.1367 22.378C43.1367 21.5846 42.4521 21.0522 41.9606 20.5577C41.9606 20.8308 42.0511 21.1038 42.0511 21.3768C42.0511 21.6499 42.0511 21.9229 41.9606 22.196C41.8702 22.56 41.5083 22.651 41.1465 22.651C40.9655 22.651 40.8751 22.56 40.8751 22.378C40.7846 22.105 40.6037 21.9229 40.4227 21.6499C40.1513 21.2858 39.699 21.1038 39.2467 21.1038C39.1562 21.1038 38.9753 21.1038 38.8848 21.1038C38.8848 21.0128 38.8848 20.9218 38.8848 20.8308C38.8848 20.2847 38.7943 19.8296 38.4325 19.3745C38.1611 19.1015 37.8897 18.9195 37.5278 18.8285C37.2564 18.7374 37.166 18.6464 36.985 18.3734C36.6232 17.6453 36.1709 17.0082 35.3567 16.6441C34.8139 16.3711 34.3615 16.2801 33.7283 16.4621C33.4569 16.5531 33.276 16.6441 33.095 16.8261L33.0046 16.7351C32.5522 16.007 31.919 15.643 31.1048 15.552C30.9239 15.552 30.6525 15.4609 30.3811 15.4609H30.2906C30.0192 15.4609 29.8383 15.4609 29.5669 15.4609C29.3859 15.4609 29.1145 15.552 28.9336 15.552C28.2099 15.734 27.5766 16.007 27.1243 16.5531C26.4911 17.1902 25.7673 17.5543 24.9531 17.6453C24.3199 17.7363 23.6866 17.8273 23.0534 17.9183C22.1487 18.0093 21.2441 18.1003 20.4299 18.1914C19.7061 18.2824 18.9824 18.2824 18.2587 18.3734C17.354 18.4644 16.4494 18.6464 15.5447 18.9195C15.3638 19.0105 15.2733 18.9195 15.0924 18.8285C14.821 18.5554 14.4591 18.3734 14.0068 18.3734C13.2831 18.2824 12.5594 18.4644 11.9261 18.9195C11.0215 19.5566 10.6596 20.5577 10.931 21.6499C11.1119 22.196 11.2929 22.8331 11.4738 23.3792C11.5643 23.8342 11.7452 24.2893 11.8357 24.6534C12.0166 25.2905 11.7452 25.6545 11.2929 26.0186C11.0215 26.2006 10.8405 26.2916 10.6596 26.4736C10.2977 26.7467 10.2073 27.2017 10.2977 27.6568C10.4787 27.3838 10.6596 27.0197 11.2024 27.1107C10.7501 27.4748 10.2977 27.8388 10.2073 28.3849C10.2073 28.4759 10.2073 28.567 10.2073 28.749C10.2977 29.022 10.2977 29.2041 10.4787 29.3861C10.4787 29.4771 10.5691 29.4771 10.6596 29.5681C10.6596 29.4771 10.6596 29.3861 10.6596 29.3861C10.6596 29.113 10.8405 28.84 11.1119 28.658C11.2024 28.567 11.2929 28.567 11.3833 28.4759C12.107 28.2029 12.5594 27.6568 12.8308 26.9287C13.1022 26.1096 13.1022 25.3815 12.7403 24.5623C12.4689 23.9252 12.1975 23.3792 12.0166 22.7421C11.7452 22.0139 11.6547 21.2858 11.8357 20.5577C12.0166 19.7386 12.5594 19.2835 13.3736 19.1925C13.7354 19.1925 14.0973 19.2835 14.3687 19.5566C14.3687 19.5566 14.3687 19.5566 14.4592 19.6476C14.3687 19.7386 14.2782 19.8296 14.1878 19.9206C13.7354 20.2847 13.645 20.8308 13.7354 21.3768C13.8259 22.196 13.9164 23.1061 14.0973 23.9252C14.1878 24.4713 14.2782 25.0174 14.3687 25.5635C14.3687 25.7455 14.3687 25.9276 14.3687 26.0186C15.0019 24.7444 15.7257 23.5612 17.8968 23.0151C16.178 24.0163 15.5447 25.5635 14.2782 26.8377C14.1878 27.2928 14.0068 27.7478 13.7354 28.2029C13.464 28.658 13.1926 29.022 12.9212 29.3861C12.7403 29.6591 12.7403 29.9322 12.8308 30.2052C13.1022 30.9333 13.1926 31.6614 13.1022 32.4806C13.0117 33.0266 12.8308 33.6637 12.7403 34.2098C12.7403 34.3919 12.7403 34.5739 12.7403 34.7559C12.7403 34.9379 12.8308 34.9379 12.9212 34.9379C13.0117 34.9379 13.1022 34.9379 13.1926 34.9379C13.1926 35.211 13.2831 35.393 13.2831 35.666C13.3736 35.9391 13.464 36.0301 13.7354 36.0301C14.0068 36.0301 14.1878 36.0301 14.4592 36.0301H14.5496C14.9115 36.0301 15.1829 36.0301 15.5447 36.0301C15.6352 36.0301 15.6352 36.0301 15.7257 35.9391C15.7257 35.6661 15.6352 35.393 15.4543 35.211C15.2733 35.0289 15.0924 34.8469 14.821 34.6649C14.5496 34.3919 14.3687 34.1188 14.3687 33.7548C14.3687 33.1177 14.5496 32.4806 14.7305 31.8435C14.9115 31.2974 15.2733 30.9333 15.8161 30.7513C16.0875 30.6603 16.3589 30.5693 16.6303 30.4783H16.7208C16.9922 30.7513 17.1731 30.9333 17.4445 31.2064C17.6254 31.2974 17.7159 31.4794 17.8968 31.4794C18.2587 31.6614 18.5301 31.7524 18.8015 32.0255C19.2538 32.4806 19.3443 33.0266 19.2538 33.6637C19.2538 33.7548 19.2538 33.9368 19.1634 34.0278C19.1634 34.3008 19.2538 34.3919 19.4347 34.3919C19.5252 34.3919 19.6157 34.3919 19.7061 34.3919C19.8871 34.3919 19.9775 34.4829 19.9775 34.6649C19.9775 34.7559 19.9775 34.9379 20.068 35.029C20.1585 35.484 20.3394 35.666 20.7013 35.666C21.2441 35.666 21.7868 35.666 22.2392 35.666H22.3296C22.601 35.575 22.6915 35.484 22.5106 35.211C22.3296 34.8469 21.9678 34.5739 21.6964 34.3008C21.5155 34.1188 21.3345 34.0278 21.1536 33.8458C21.0631 33.6637 20.8822 33.5727 20.8822 33.3907C20.6108 32.6626 20.4299 31.9345 20.2489 31.2064C20.068 30.3872 20.1585 29.5681 20.5203 28.84C20.6108 28.658 20.7013 28.4759 20.7917 28.2029C20.8822 28.0209 20.9727 27.9299 21.0631 27.7478C21.425 27.9299 21.6964 28.1119 22.0582 28.2939C22.4201 28.567 22.782 28.749 23.1438 29.022C23.4152 29.2041 23.6866 29.2951 23.958 29.2951C24.0485 29.2951 24.0485 29.2951 24.1389 29.2951C24.1389 29.022 24.1389 28.84 24.1389 28.567C24.1389 28.4759 24.1389 28.3849 24.1389 28.2939C24.1389 28.0209 24.3199 27.9299 24.5913 27.9299C25.0436 28.0209 25.4959 28.1119 25.8578 28.2939C26.4006 28.4759 26.8529 28.567 27.3957 28.749L27.4862 28.84C27.4862 29.2041 27.4862 29.6591 27.3957 30.0232C27.3052 30.3872 27.3957 30.6603 27.7576 30.9333C27.9385 31.0243 28.1194 31.1154 28.2099 31.2064C28.5718 31.3884 28.7527 31.7524 28.7527 32.1165C28.8432 32.5716 28.7527 33.0266 28.5718 33.4817C28.4813 33.5727 28.4813 33.7548 28.4813 33.8458C28.4813 34.0278 28.5718 34.0278 28.6622 34.1188C28.7527 34.1188 28.7527 34.1188 28.8432 34.1188C29.0241 34.1188 29.0241 34.1188 29.0241 34.3008C29.0241 34.4829 29.0241 34.6649 29.0241 34.8469C29.0241 35.211 29.1145 35.302 29.3859 35.302C29.9287 35.393 30.4715 35.393 30.9239 35.211C31.1048 35.12 31.1953 35.12 31.1048 34.8469C31.0143 34.3919 30.7429 34.0278 30.4715 33.7548C30.1097 33.4817 30.0192 33.1177 30.0192 32.6626C30.0192 31.9345 30.0192 31.2974 30.1097 30.5693C30.1097 30.5693 30.1097 30.5693 30.1097 30.4783C30.2906 30.5693 30.3811 30.5693 30.4715 30.6603C31.2857 31.0243 31.738 31.7524 31.738 32.6626C31.738 32.8446 31.738 33.0266 31.6476 33.2087C31.6476 33.5727 31.738 33.6637 32.0094 33.6637C32.4618 33.7548 32.4618 33.7548 32.5522 34.2098C32.5522 34.3008 32.5522 34.3919 32.5522 34.4829C32.6427 34.8469 32.8236 35.029 33.1855 35.029C33.7283 35.029 34.2711 35.029 34.7234 35.029C34.9043 35.029 34.9948 34.9379 35.1757 34.8469C34.9948 34.4829 34.8139 34.2098 34.5425 33.9368C34.3615 33.8458 34.2711 33.6637 34.0901 33.5727C33.6378 33.2997 33.3664 32.8446 33.1855 32.3895C33.0046 31.9345 32.9141 31.4794 32.7332 31.0243C32.6427 30.8423 32.6427 30.6603 32.7332 30.4783V30.3872C32.8236 30.2962 32.8236 30.2962 32.9141 30.2052L33.0046 30.2962C33.0046 30.3872 33.095 30.4783 33.095 30.5693C33.095 30.9333 33.276 31.2974 33.7283 31.3884C33.8188 30.9333 33.9997 30.5693 34.2711 30.2052C34.452 30.3872 34.452 30.6603 34.3615 30.9333C34.3615 31.3884 34.452 31.8435 34.7234 32.2075C34.7234 32.2075 34.7234 32.2075 34.8139 32.2985C34.9948 31.6614 35.2662 31.1153 35.4471 30.5693C35.5376 30.3872 35.4471 30.2052 35.4471 30.0232C35.4471 30.1142 35.5376 30.2052 35.5376 30.2962C35.5376 30.4783 35.6281 30.5693 35.6281 30.7513C35.7185 30.8423 35.809 31.0243 35.8995 31.1153C35.8995 31.1153 35.8995 31.1153 35.9899 31.1153C36.1709 30.7513 36.2613 30.4783 36.4422 30.1142C36.6232 29.7501 36.6232 29.3861 36.6232 29.022L36.7136 29.113C36.8946 29.2041 36.985 29.2951 37.166 29.3861C37.3469 29.4771 37.5278 29.4771 37.6183 29.2951C37.7088 29.2041 37.7992 29.2041 37.8897 29.2041C38.0706 29.2041 38.342 29.2041 38.523 29.113C38.7943 29.022 38.8848 28.749 38.8848 28.4759C38.7943 28.1119 38.8848 27.8388 39.1562 27.5658C39.2467 27.4748 39.3371 27.3838 39.4276 27.2928C39.699 27.0197 39.8799 26.6557 39.8799 26.2006C39.8799 26.0186 39.9704 25.8365 40.1513 25.7455C40.6941 25.3815 40.8751 25.1084 40.6941 24.4713C41.895 24.6439 43.1367 23.5683 43.1367 22.378ZM15.3638 20.6487C16.5399 19.8296 17.535 18.7374 19.2538 19.3745C17.8064 19.3745 16.7208 20.3757 15.3638 20.6487ZM15.0019 28.2029C15.6352 26.9287 15.9971 25.4725 18.1682 24.9264C16.6303 25.8365 16.2685 27.2017 15.0019 28.2029ZM15.4543 29.113C15.9066 28.2029 16.178 27.2017 17.7159 26.8377C16.6303 27.3838 16.3589 28.3849 15.4543 29.113ZM15.9971 29.8412C16.4494 28.931 16.7208 27.9299 18.2587 27.5658C17.1731 28.2029 16.9017 29.113 15.9971 29.8412ZM18.0778 20.4667C18.892 19.8296 19.7061 19.0105 20.9727 19.4656C19.8871 19.4656 19.0729 20.2847 18.0778 20.4667ZM19.7966 20.4667C20.3394 20.0116 20.8822 19.5566 21.6964 19.8296C20.9727 19.8296 20.4299 20.3757 19.7966 20.4667ZM31.1048 16.4621C30.4715 16.8261 30.2001 17.4632 29.6573 17.9183C30.0192 17.2812 30.2906 16.5531 31.1048 16.4621ZM25.8578 20.0116C26.4911 18.7374 27.0338 17.3722 28.7527 17.0992C27.4862 17.8273 26.9434 19.1925 25.8578 20.0116ZM28.1194 18.6464C28.5718 17.7363 28.9336 16.6441 30.2906 16.4621C29.3859 17.0082 28.9336 18.1003 28.1194 18.6464ZM29.205 29.6591C29.5669 28.658 29.8383 27.5658 31.0143 27.2928C30.2001 27.8388 30.0192 28.931 29.205 29.6591ZM30.2001 30.7513C30.2906 29.7501 30.2906 28.567 31.4667 27.9299C30.6525 28.749 30.7429 29.8412 30.2001 30.7513ZM35.8995 30.2052C35.8995 29.3861 35.4471 29.5681 35.6281 28.84C35.3567 29.022 35.4471 29.3861 35.0853 29.4771C35.1757 29.113 35.1757 28.84 35.2662 28.4759C35.1757 28.567 35.0853 28.567 34.9043 28.658C34.7234 28.658 34.8139 28.567 34.8139 28.4759C34.8139 27.6568 35.3567 26.9287 35.7185 26.2916C35.6281 26.7467 35.6281 27.1107 35.5376 27.5658C35.6281 27.2928 35.809 27.0197 36.0804 26.8377C36.2613 27.2928 35.8995 27.4748 35.809 27.7478C35.809 27.8388 35.7185 28.0209 35.8995 28.1119C36.2613 28.2939 36.1709 27.5658 36.5327 27.8388C36.5327 28.2029 35.809 28.557 36.7136 28.4759C36.1709 28.84 36.5327 29.7501 35.8995 30.2052ZM34.6329 27.6568C34.8139 26.3826 34.7234 25.0174 36.1709 24.1983C35.2662 25.1994 35.3567 26.5646 34.6329 27.6568ZM37.5278 22.9241C37.5278 23.0151 37.4374 23.1061 37.4374 23.2881C37.2564 24.0163 37.166 24.1073 36.4422 23.9252C35.5376 23.7432 34.9043 23.1971 34.5425 22.378C34.1806 21.4679 34.5425 20.0116 35.4471 19.3745C35.0853 20.8308 35.8995 22.196 37.166 22.287C37.7088 22.287 37.6183 22.56 37.5278 22.9241Z" fill="#F9D751"/>
</svg>
