<svg width="463" height="101" viewBox="0 0 463 101" fill="none" xmlns="http://www.w3.org/2000/svg">
<path d="M78.3435 0C89.2087 4.97259 100.044 9.97523 110.939 14.8727C113.037 15.8191 114.356 17.1412 115.21 19.3045C117.383 24.8179 119.601 30.3313 122.149 35.6795C124.142 39.8859 124.787 44.0773 124.547 48.7494C124.217 55.1191 123.078 60.8579 118.552 65.6953C116.319 68.0839 114.596 70.9683 112.768 73.7025C111.644 75.3851 110.4 75.6855 108.556 74.9795C104.405 73.402 100.119 72.1251 96.0126 70.4125C90.4526 68.0689 84.7427 66.9722 78.7182 67.0624C74.3421 67.1225 69.966 66.9722 65.6049 66.7018C63.8965 66.5967 63.1471 67.2126 62.4428 68.6548C57.6771 78.3296 52.8214 87.9743 47.9958 97.619C46.4521 100.699 45.5679 100.924 42.7205 98.911C29.1577 89.3864 15.5948 79.8319 2.00206 70.3374C0.578339 69.3458 -0.185982 68.3393 0.0388157 66.4915C1.35763 56.2008 2.54157 45.88 3.89036 35.5893C4.04022 34.4927 4.68464 33.2307 5.5089 32.4796C15.1602 23.7212 24.8565 15.0229 34.6128 6.38475C35.467 5.6336 36.7558 5.13784 37.9098 4.98761C50.3486 3.42523 62.8025 1.95298 75.2563 0.435666C75.6309 0.390598 75.9756 0.150229 76.3203 0C77.0247 0 77.6841 0 78.3435 0ZM109.965 19.8002C101.797 21.3175 94.1842 22.7447 86.5711 24.1418C85.0425 24.4273 84.0534 25.0582 85.2972 26.5455C89.9281 32.134 94.6488 37.6625 99.4295 43.1158C99.6993 43.4163 101.438 43.1008 101.588 42.7252C104.405 35.2738 107.088 27.7624 109.965 19.8002ZM107.327 18.6134C107.357 18.4331 107.402 18.2378 107.432 18.0576C97.9908 13.761 88.5643 9.47947 78.7331 5.00264C79.8871 10.3057 80.7713 15.2483 82.1651 20.0256C82.4948 21.1523 84.6828 22.6396 85.8068 22.4743C93.0003 21.4227 100.149 19.9505 107.327 18.6134ZM40.9221 92.376C41.012 92.2859 41.1169 92.1807 41.2068 92.0906C40.8172 91.5047 40.4575 90.9038 40.0379 90.3329C35.9765 84.7293 31.9452 79.1258 27.8388 73.5523C26.4901 71.7195 25.6208 69.2707 22.6685 69.3158C22.2938 69.3158 21.9341 68.6999 21.4995 68.4745C20.7802 68.0839 20.0159 67.5281 19.2516 67.498C16.8687 67.4079 14.4709 67.513 12.088 67.5882C10.2896 67.6483 8.49123 67.7835 6.0784 67.9187C18.0976 76.3465 29.5024 84.3688 40.9221 92.376ZM35.3021 29.8055C35.3321 30.0158 35.3471 30.2111 35.3771 30.4214C43.7246 32.1941 52.0571 33.9969 60.4196 35.7095C62.3079 36.1001 62.2479 34.8382 61.7983 33.5762C60.4346 29.7003 59.0708 25.8244 57.6171 21.9936C57.0027 20.3711 55.459 19.5899 53.9754 20.311C47.681 23.3607 41.5066 26.6206 35.3021 29.8055ZM111.269 21.1072C108.886 27.7023 106.638 33.7866 104.495 39.9009C103.955 41.4483 103.776 43.1308 103.446 44.7383C105.035 44.6481 106.653 44.7233 108.212 44.4529C112.153 43.7919 116.065 42.9806 120.186 42.1844C117.204 35.1386 114.356 28.4084 111.269 21.1072ZM10.4994 33.7115C16.584 32.5998 21.9791 31.8486 27.2244 30.4966C29.0827 30.0158 31.4356 28.3633 32.0351 26.6957C33.8335 21.6781 34.8975 16.39 36.4261 10.486C27.5841 18.4181 19.3265 25.8094 10.4994 33.7115ZM83.4539 27.0413C83.2441 27.0863 83.0343 27.1464 82.8095 27.1915C82.5097 33.1406 82.0901 39.0897 82.0452 45.0388C82.0452 45.865 83.8585 47.4725 84.7877 47.4274C88.9689 47.2621 93.1352 46.6612 97.2865 46.1504C98.7851 45.9702 98.8001 45.1289 97.9309 44.1073C93.1202 38.4287 88.2795 32.735 83.4539 27.0413ZM59.8351 16.8107C59.8951 17.051 59.94 17.3064 60 17.5468C61.2438 17.8923 62.4727 18.2378 63.7166 18.5533C68.4224 19.7702 73.1132 21.0021 77.8339 22.1889C79.1228 22.5194 80.7114 22.5494 80.3817 20.7166C79.4525 15.5938 78.2386 10.5161 77.0546 5.09277C71.06 9.17901 65.4401 12.9948 59.8351 16.8107ZM34.7177 31.9538C34.7926 32.5547 34.7476 32.8401 34.8525 33.0054C37.67 37.0616 40.3826 41.2079 43.4548 45.0538C44.1742 45.9551 46.542 46.6011 47.4862 46.1054C52.117 43.7017 56.5231 40.8624 61.0191 38.1733C60.9891 37.963 60.9591 37.7526 60.9291 37.5573C52.2519 35.7095 43.5747 33.8467 34.7177 31.9538ZM43.3499 51.2432C37.9398 55.8402 32.5896 60.3171 27.3143 64.884C25.9805 66.0408 26.9846 66.7018 28.1835 67.0624C31.016 67.9036 33.8784 68.6848 36.6959 69.6012C42.151 71.404 43.3199 71.4491 43.3349 65.0793C43.3649 60.5875 43.3499 56.1106 43.3499 51.2432ZM62.4727 61.8644C67.763 57.8383 72.5587 54.2328 77.2944 50.5371C78.5683 49.5456 78.4784 48.1785 77.1745 47.2621C73.8026 44.8885 70.3706 42.605 66.9237 40.3516C65.7248 39.5704 64.6458 39.7206 64.4809 41.4182C63.8065 48.0584 63.1621 54.6835 62.4727 61.8644ZM108.451 70.3674C106.039 63.3367 103.836 56.9069 101.603 50.477C101.168 49.2452 100.389 49.1701 99.6393 50.2217C96.4622 54.6684 93.315 59.1303 90.018 63.7723C96.1924 65.9807 102.052 68.0839 108.451 70.3674ZM53.9604 18.358C54.0653 18.0425 54.1702 17.7421 54.2901 17.4266C49.0148 15.038 43.7396 12.6343 38.2395 10.1405C36.6509 16.2849 35.1223 22.1288 33.6087 27.9727C33.7885 28.138 33.9683 28.3032 34.1482 28.4835C40.7423 25.1033 47.3513 21.7382 53.9604 18.358ZM60.8392 61.4137C61.5436 54.368 62.218 47.848 62.8624 41.3431C62.9823 40.0962 62.6376 39.2399 61.2139 40.0662C57.0326 42.5149 52.8514 44.9636 48.7301 47.5326C47.3963 48.3738 47.2164 49.6658 48.5053 50.7925C52.4767 54.2478 56.4631 57.658 60.8392 61.4137ZM21.4246 47.6678C22.3088 47.9832 22.6685 48.2236 23.0432 48.2236C29.0528 48.1785 35.0623 48.1034 41.072 48.0133C42.6006 47.9832 42.7505 47.202 41.9712 46.0753C39.2436 42.1694 36.5011 38.2634 33.7435 34.3725C32.8443 33.1105 31.5105 32.9904 30.6713 34.1621C27.5691 38.4887 24.6317 42.9355 21.4246 47.6678ZM79.4675 24.9982C79.0179 24.4874 78.928 24.3071 78.8081 24.262C72.6936 22.6396 66.594 21.0021 60.4645 19.4547C58.9659 19.0791 58.7561 20.1307 59.1457 21.2424C60.5545 25.2686 61.9932 29.2947 63.4918 33.2908C64.0613 34.8232 65.4251 35.2288 66.654 34.3574C70.9251 31.3529 75.1064 28.183 79.4675 24.9982ZM40.6823 8.9086C40.6673 9.07385 40.6523 9.23911 40.6374 9.40436C44.5189 11.162 48.5053 12.7244 52.2369 14.7375C54.7397 16.0896 57.1076 14.0765 59.4604 15.0229C64.1962 11.808 68.9169 8.59312 73.6527 5.37821C73.5928 5.22798 73.5178 5.09277 73.4579 4.94255C62.5177 6.26456 51.6075 7.58658 40.6823 8.9086ZM42.2709 49.9362C35.6468 49.9362 29.5623 49.8761 23.4927 49.9813C21.7993 50.0113 20.8102 51.1381 21.2598 52.9558C22.0391 56.1407 22.8633 59.3256 23.7175 62.4954C24.1671 64.1629 25.1862 64.3432 26.4751 63.3517C27.3893 62.6456 28.2435 61.8795 29.1127 61.1283C33.4138 57.4777 37.7 53.8121 42.2709 49.9362ZM25.9955 68.114C32.17 76.632 37.9398 84.5641 43.7096 92.4962C43.8894 86.9828 43.7995 81.6947 43.0652 76.4968C42.8404 74.9344 41.1319 72.9213 39.6183 72.3204C35.437 70.6528 31.016 69.6163 25.9955 68.114ZM7.95172 37.0165C6.82773 46.4359 5.77867 55.2093 4.7446 63.9827C4.93942 64.0728 5.13425 64.1479 5.32907 64.2381C9.00078 59.9565 12.8223 55.7801 16.2243 51.2883C16.9736 50.2968 16.7638 47.7579 15.9845 46.6312C13.7215 43.4163 10.964 40.5619 7.95172 37.0165ZM80.5165 26.8159C80.4416 26.8009 80.2168 26.7108 80.1269 26.7859C75.9157 29.8055 71.6595 32.78 67.5682 35.9649C67.1336 36.3104 67.2385 38.3686 67.748 38.7441C71.12 41.253 74.6568 43.5365 78.1487 45.865C79.5724 46.8115 80.2917 46.3608 80.3217 44.6782C80.3517 43.4463 80.4866 42.2144 80.5016 40.9826C80.5315 36.2954 80.5165 31.6233 80.5165 26.8159ZM46.4371 51.2582C46.1824 51.3784 45.9126 51.4986 45.6579 51.6188C45.3581 57.4026 45.0134 63.1714 44.8486 68.9553C44.8336 69.2858 46.4521 70.1421 46.9017 69.9167C51.2928 67.7835 55.6089 65.485 60.2098 63.0813C55.459 59.0101 50.9481 55.1342 46.4371 51.2582ZM9.03074 35.6945C12.058 39.2699 14.6807 42.5449 17.5581 45.5646C18.0826 46.1054 20.2856 46.1054 20.6603 45.5796C23.8225 41.298 26.7298 36.8362 29.7272 32.4345C29.6222 32.2542 29.5173 32.074 29.3974 31.8937C22.7584 33.1256 16.1194 34.3725 9.03074 35.6945ZM103.446 48.8245C103.281 48.9597 103.116 49.0949 102.951 49.2151C105.274 55.9905 107.612 62.7808 110.1 70.0069C113.277 65.5751 116.184 61.5339 119.212 57.3125C113.787 54.398 108.616 51.6038 103.446 48.8245ZM65.1853 61.9095C65.2602 62.1649 65.3352 62.4203 65.3951 62.6606C72.3189 62.6606 79.2577 62.6606 86.4812 62.6606C84.9076 59.2504 83.4689 55.7801 81.6405 52.5202C81.2808 51.8892 79.0179 51.5136 78.3285 52.0094C73.8475 55.1642 69.5464 58.5744 65.1853 61.9095ZM58.9659 66.161C58.831 66.0558 58.6811 65.9507 58.5463 65.8455C55.1143 67.6182 51.4876 69.1205 48.3255 71.2988C46.7369 72.3955 45.1183 74.679 45.0584 76.4818C44.8636 81.4393 45.478 86.4419 45.7777 91.4145C45.9426 91.4596 46.0925 91.5047 46.2573 91.5497C50.4835 83.0918 54.7247 74.6339 58.9659 66.161ZM6.16832 65.8305C11.1888 65.8305 15.7447 65.9356 20.2856 65.7103C20.945 65.6803 22.1739 63.8775 22.0241 63.0963C21.4096 59.7162 20.3756 56.4111 19.4913 53.076C19.1616 51.8592 18.4723 51.5287 17.603 52.5352C13.8564 56.8468 10.1397 61.2034 6.16832 65.8305ZM98.8451 48.4039C98.7102 48.1936 98.5753 47.9832 98.4554 47.7879C93.9145 48.2537 89.3586 48.6292 84.8626 49.3203C84.2632 49.4104 83.2741 51.3784 83.5438 52.0545C84.9825 55.675 86.7509 59.1603 88.5343 62.9761C92.0712 57.9585 95.4581 53.1812 98.8451 48.4039ZM120.486 43.867C114.896 44.9186 109.635 45.8951 103.671 47.0218C109.306 50.0714 114.266 52.7455 119.586 55.6299C119.886 51.5887 120.171 47.8931 120.486 43.867Z" fill="#79378A"/>
<path d="M174.521 7.49516C174.521 6.25282 174.521 4.57201 174.521 2.7085C177.755 2.7085 180.861 2.7085 184.314 2.7085C184.314 5.15664 184.314 7.58651 184.314 9.92504C196.262 12.9578 200.921 17.4887 200.501 25.4909C200.117 32.7988 194.399 37.7681 184.423 39.2297C184.423 41.075 184.423 42.9933 184.423 45.0212C181.975 45.0212 179.874 45.0212 177.499 45.0212C177.499 43.0481 177.499 41.1846 177.499 39.2663C175.836 38.9739 174.393 38.8278 173.005 38.4806C165.624 36.6719 161.02 30.9718 161.239 24.011C161.458 17.507 166.829 11.8982 174.046 10.6376C174.302 10.601 174.576 10.601 174.813 10.5097C175.69 10.1625 176.549 9.79715 177.426 9.43175C176.622 8.88366 175.818 8.35384 174.521 7.49516ZM184.515 32.9632C190.251 32.5613 193.978 28.6698 193.449 23.7918C192.973 19.4618 188.735 16.0454 184.515 16.63C184.515 22.0744 184.515 27.5188 184.515 32.9632ZM177.353 16.5569C172.53 16.155 168.309 19.9368 168.236 24.5774C168.163 29.2727 172.329 33.0728 177.353 32.7805C177.353 27.3726 177.353 21.9648 177.353 16.5569Z" fill="#79378A"/>
<path d="M250.486 55.8003C251.363 56.5311 252.788 57.7186 254.304 58.961C252.605 62.3043 249.847 64.0034 246.558 64.99C244.585 65.5929 242.557 65.9948 240.62 66.6708C237.606 67.7304 235.651 69.7949 234.738 73.5768C238.41 71.22 241.991 70.7084 245.663 71.3844C251.765 72.5171 255.638 77.4134 255.693 83.8809C255.748 90.0378 251.71 95.0255 245.59 96.3957C236.674 98.3871 228.836 93.0888 227.959 83.8992C227.558 79.7337 228.069 75.3489 228.946 71.22C230.134 65.6112 234.062 62.1947 239.524 60.3494C243.123 59.1619 246.558 57.4628 250.486 55.8003ZM241.516 76.9201C237.77 76.9567 234.427 79.4779 234.482 82.2549C234.591 87.407 237.661 91.0426 241.936 91.0426C245.992 91.0426 248.86 88.156 248.897 84.0636C248.951 79.8616 245.864 76.8836 241.516 76.9201Z" fill="#79378A"/>
<path d="M272.74 45.3498C272.74 47.1586 272.74 48.8394 272.74 50.6481C270.475 50.6481 268.447 50.6481 266.218 50.6481C266.218 47.0124 266.218 43.395 266.218 39.54C269.543 40.2343 270.164 37.841 270.657 35.4659C271.315 32.2504 271.845 29.0167 272.484 25.5272C270.657 25.3627 269.506 25.2714 268.173 25.1435C268.173 23.3348 268.173 21.5809 268.173 19.6443C276.083 19.6443 284.013 19.6443 292.179 19.6443C292.179 26.1666 292.179 32.6341 292.179 39.3026C293.805 39.3756 295.23 39.4305 296.801 39.5035C296.801 43.2306 296.801 46.848 296.801 50.6298C294.646 50.6298 292.563 50.6298 290.261 50.6298C290.261 48.8942 290.261 47.2133 290.261 45.3316C284.414 45.3498 278.806 45.3498 272.74 45.3498ZM285.31 25.4723C283.099 25.4723 281.035 25.4723 279.153 25.4723C278.459 30.2042 277.801 34.6986 277.143 39.2478C279.646 39.2478 282.423 39.2478 285.31 39.2478C285.31 34.6255 285.31 30.1494 285.31 25.4723Z" fill="#79378A"/>
<path d="M177.115 82.9124C174.631 86.7856 172.237 90.3299 170.045 94.0021C169.022 95.7377 167.871 96.633 165.77 96.3772C164.272 96.1945 162.719 96.3407 160.709 96.3407C161.586 94.8791 162.225 93.7281 162.938 92.6136C165.66 88.3568 168.327 84.0817 171.141 79.8979C172.146 78.418 172.329 77.3036 171.178 75.8237C169.771 73.9967 168.638 71.9688 167.377 70.0322C165.094 66.4879 165.094 66.4879 161.147 65.8484C161.147 64.0946 161.147 62.3406 161.147 60.3858C163.523 60.3858 165.77 60.2579 167.962 60.4588C168.693 60.5319 169.552 61.3175 170.027 62.0118C172.383 65.4648 174.612 68.9908 177.097 72.7909C179.399 69.2649 181.628 66.0494 183.619 62.6878C184.661 60.9339 185.83 60.0935 187.913 60.331C189.429 60.5137 190.964 60.3675 193.083 60.3675C192.17 61.7926 191.494 62.8339 190.836 63.857C188.132 68.0225 185.391 72.1515 182.797 76.3718C182.377 77.0478 182.249 78.345 182.633 79.0027C184.679 82.4557 186.743 85.9269 189.173 89.1241C189.977 90.1837 191.822 90.4761 193.503 91.2617C193.503 92.5223 193.503 94.2579 193.503 96.3224C191.183 96.3224 188.954 96.4503 186.762 96.2493C186.031 96.1762 185.19 95.3541 184.734 94.6598C182.194 90.8597 179.728 86.9683 177.115 82.9124Z" fill="#79378A"/>
<path d="M215.719 73.2665C215.81 72.3531 215.865 71.6771 215.938 70.8367C218.075 70.8367 220.176 70.8367 222.533 70.8367C222.533 77.2859 222.533 83.7534 222.533 90.2939C223.684 90.4584 224.598 90.5863 225.566 90.7324C225.566 92.5777 225.566 94.3316 225.566 96.2316C222.369 96.2316 219.318 96.2316 216.047 96.2316C215.901 95.4826 215.755 94.7152 215.609 93.9114C207.15 98.0403 201.285 97.474 197.321 92.2488C193.484 87.1881 193.722 78.6744 197.832 74.0887C202.217 69.2107 208.246 68.8818 215.719 73.2665ZM201.413 83.4793C201.413 87.7362 204.446 90.9517 208.52 91.0248C212.649 91.0978 215.846 87.7727 215.828 83.4245C215.81 79.1859 212.759 75.9339 208.721 75.8791C204.592 75.8426 201.413 79.1311 201.413 83.4793Z" fill="#79378A"/>
<path d="M308.145 70.7998C310.611 70.7998 312.639 70.7998 314.868 70.7998C314.868 77.3221 314.868 83.7165 314.868 90.2571C315.91 90.4215 316.805 90.5494 317.846 90.7139C317.846 92.486 317.846 94.2399 317.846 96.1582C314.722 96.1582 311.598 96.1582 308.2 96.1582C308.2 93.0706 308.2 90.0379 308.2 86.7858C304.308 86.7858 300.691 86.7858 296.818 86.7858C296.818 89.8734 296.818 92.9062 296.818 96.14C294.479 96.14 292.378 96.14 290.003 96.14C290.003 89.709 290.003 83.2415 290.003 76.6461C288.852 76.4817 287.957 76.3355 286.952 76.1894C286.952 74.3989 286.952 72.645 286.952 70.7998C290.241 70.7998 293.365 70.7998 296.745 70.7998C296.745 74.1614 296.745 77.3769 296.745 80.7568C300.563 80.7568 304.126 80.7568 308.127 80.7568C308.145 77.4317 308.145 74.0701 308.145 70.7998Z" fill="#79378A"/>
<path d="M260.737 39.3212C261.961 39.3943 262.802 39.4491 263.752 39.5039C263.752 41.3674 263.752 43.1213 263.752 45.0031C260.518 45.0031 257.394 45.0031 254.032 45.0031C254.032 41.8424 254.032 38.7914 254.032 35.5759C250.232 35.5759 246.669 35.5759 242.76 35.5759C242.76 38.6452 242.76 41.7328 242.76 44.9848C240.311 44.9848 238.21 44.9848 235.781 44.9848C235.781 38.4808 235.781 32.0133 235.781 25.5458C234.648 25.3631 233.826 25.2352 232.857 25.0708C232.857 23.2438 232.857 21.4899 232.857 19.6082C236.128 19.6082 239.252 19.6082 242.613 19.6082C242.613 22.9515 242.613 26.167 242.613 29.5469C246.487 29.5469 250.104 29.5469 253.996 29.5469C253.996 26.2035 253.996 23.0063 253.996 19.6264C256.334 19.6264 258.435 19.6264 260.755 19.6264C260.737 26.1853 260.737 32.6345 260.737 39.3212Z" fill="#79378A"/>
<path d="M285.674 85.196C278.95 85.196 272.337 85.196 265.577 85.196C265.924 88.0278 267.55 89.7817 269.889 90.549C273.652 91.7731 276.995 90.8414 279.608 87.4797C281.307 88.5942 282.933 89.6538 284.559 90.7135C281.636 96.5598 272.538 98.2406 266.6 95.6646C260.133 92.851 256.935 85.9633 259.091 79.3497C261.247 72.7543 268.555 68.808 275.607 70.4158C282.422 71.9687 286.678 78.0708 285.674 85.196ZM278.475 80.8843C277.58 77.3217 275.059 75.5678 271.642 75.915C268.664 76.2255 266.344 78.3083 266.216 80.8843C270.236 80.8843 274.255 80.8843 278.475 80.8843Z" fill="#79378A"/>
<path d="M217.035 45.6603C209.124 45.6786 203.04 39.9236 203.04 32.36C203.04 24.8511 209.142 18.9682 216.962 18.9317C224.799 18.9134 230.938 24.778 230.956 32.3052C230.993 39.9054 225.019 45.6238 217.035 45.6603ZM224.178 32.3782C224.196 27.9569 221.091 24.7232 216.907 24.778C212.869 24.8328 209.782 28.0848 209.745 32.2869C209.709 36.562 212.979 39.9419 217.089 39.9054C221.109 39.8871 224.16 36.6351 224.178 32.3782Z" fill="#79378A"/>
<path d="M391.438 70.1418C399.313 70.1966 405.305 76.0612 405.25 83.6614C405.195 91.1154 398.892 96.98 391.055 96.8521C383.199 96.7243 377.133 90.7683 377.243 83.2777C377.334 75.7506 383.454 70.0869 391.438 70.1418ZM391.31 75.8785C387.163 75.8419 384.002 79.1487 384.021 83.4969C384.039 87.7355 387.108 90.9693 391.164 91.0058C395.184 91.0423 398.363 87.8269 398.454 83.6248C398.545 79.3132 395.421 75.915 391.31 75.8785Z" fill="#79378A"/>
<path d="M448.914 70.1421C456.806 70.1239 462.945 75.8971 463 83.4243C463.055 90.8966 456.898 96.7977 449.024 96.8525C441.204 96.9073 435.011 91.0245 434.992 83.5156C434.956 75.9337 440.948 70.1787 448.914 70.1421ZM441.77 83.5156C441.789 87.7907 444.821 90.9879 448.896 91.0245C453.025 91.061 456.24 87.6811 456.204 83.3877C456.167 79.1857 453.025 75.8971 449.024 75.8788C444.84 75.8606 441.752 79.1126 441.77 83.5156Z" fill="#79378A"/>
<path d="M352.012 76.5181C350.824 76.4268 350.057 76.372 349.07 76.3172C349.07 74.5816 349.07 72.8277 349.07 70.8728C352.103 70.8728 355.209 70.8728 358.589 70.8728C358.589 73.7777 358.589 76.646 358.589 79.4413C362.773 80.5375 363.467 80.2817 365.495 77.048C365.952 76.3172 366.408 75.6047 366.865 74.8739C369.898 70.0507 370.336 69.8679 376.676 71.0007C374.502 74.4719 372.437 77.8884 370.227 81.2135C369.405 82.4375 369.368 83.3693 370.19 84.6482C372.602 88.3569 374.867 92.1388 377.462 96.3591C375.032 96.3591 373.095 96.4687 371.177 96.3043C370.482 96.2312 369.679 95.5918 369.258 94.9889C367.87 92.9427 366.408 90.8964 365.385 88.6493C364.015 85.6713 361.914 85.0136 358.753 85.8723C358.753 89.1791 358.753 92.559 358.753 96.1581C356.433 96.1581 354.369 96.1581 352.012 96.1581C352.012 89.6176 352.012 83.1683 352.012 76.5181Z" fill="#79378A"/>
<path d="M346.457 88.832C343.023 95.7746 335.24 98.6064 328.133 95.7563C321.519 93.1254 318.121 86.0185 320.277 79.3683C322.396 72.8095 329.74 68.8267 336.811 70.3796C343.443 71.8412 347.078 76.3903 346.22 82.2915C344.137 82.2915 342.054 82.2915 339.953 82.2915C339.241 77.8154 337.633 76.0615 334.143 75.8605C330.709 75.6595 327.731 77.7788 326.799 81.0857C325.776 84.7031 327.237 88.5214 330.27 90.184C333.175 91.7552 336.902 91.1157 339.095 88.4118C340.026 87.2791 340.794 87.0051 342.109 87.5349C343.461 88.1012 344.904 88.3936 346.457 88.832Z" fill="#79378A"/>
<path d="M432.27 82.8576C430.242 82.8576 428.397 82.8576 426.277 82.8576C426.277 80.7383 426.277 78.7286 426.277 76.5545C423.318 76.5545 420.632 76.5545 417.672 76.5545C417.672 83.0768 417.672 89.526 417.672 96.1579C415.316 96.1579 413.233 96.1579 410.913 96.1579C410.913 89.6356 410.913 83.1864 410.913 76.5545C409.634 76.4449 408.574 76.3535 407.368 76.2439C407.368 74.4352 407.368 72.6813 407.368 70.7812C415.663 70.7812 423.866 70.7812 432.288 70.7812C432.27 74.7092 432.27 78.6738 432.27 82.8576Z" fill="#79378A"/>
</svg>
