<svg width="256" height="516" viewBox="0 0 256 516" fill="none" xmlns="http://www.w3.org/2000/svg">
<path opacity="0.5" d="M20.3952 22.3949L42.9211 22.3949L42.9211 44.7898L65.316 44.7898L65.316 67.1848L87.7109 67.1848L87.7109 89.7107L65.316 89.7107L65.316 112.106L42.9211 112.106L42.9211 134.501L20.3952 134.501L20.3952 157.026L-1.99973 157.026L-1.99973 134.501L-1.99973 112.106L-1.99973 89.7107L20.3952 89.7107L20.3952 67.1848L-1.99973 67.1848L-1.99973 44.7898L-1.99973 22.3949L-1.99973 -3.92138e-06L20.3952 -2.94246e-06L20.3952 22.3949Z" fill="white"/>
<path opacity="0.5" d="M20.3952 381.368L42.9211 381.368L42.9211 403.763L65.316 403.763L65.316 426.158L87.7109 426.158L87.7109 448.684L65.316 448.684L65.316 471.079L42.9211 471.079L42.9211 493.474L20.3952 493.474L20.3952 516L-1.99973 516L-1.99973 493.474L-1.99973 471.079L-1.99973 448.684L20.3952 448.684L20.3952 426.158L-1.99973 426.158L-1.99973 403.763L-1.99973 381.368L-1.99973 358.843L20.3952 358.843L20.3952 381.368Z" fill="white"/>
<path opacity="0.5" d="M87.7101 134.5L65.3152 134.5L65.3152 156.895L42.9203 156.895L42.9203 179.29L20.5254 179.29L20.5254 201.685L-1.86956 201.685L-1.86956 224.08L-1.86956 246.475L-1.86956 268.87L-1.86956 291.527L-1.86956 313.922L20.5254 313.922L20.5254 336.317L42.9203 336.317L42.9203 358.712L65.3152 358.712L65.3152 381.107L87.7101 381.107L87.7101 358.712L110.105 358.712L110.105 336.317L132.5 336.317L132.5 313.922L110.105 313.922L110.105 291.527L87.7101 291.527L87.7101 269.132L65.3152 269.132L65.3152 246.737L87.7101 246.737L87.7101 224.342L110.105 224.342L110.105 201.947L132.5 201.947L132.5 179.552L110.105 179.552L110.105 157.157L87.7101 157.157L87.7101 134.5ZM20.3944 269.132L42.7893 269.132L42.7893 291.527L65.1843 291.527L65.1842 313.922L87.5792 313.922L87.5792 336.317L65.1842 336.317L65.1842 313.922L42.7893 313.922L42.7893 291.527L20.3944 291.527L20.3944 269.132ZM65.3152 179.421L87.7101 179.421L87.7101 201.816L65.3152 201.816L65.3152 224.211L42.9203 224.211L42.9203 246.606L20.5254 246.606L20.5254 224.211L42.9203 224.211L42.9203 201.816L65.3152 201.816L65.3152 179.421Z" fill="white"/>
<path opacity="0.5" d="M110.106 269.132L110.106 246.737L132.5 246.737L132.5 269.132L110.106 269.132ZM155.026 246.737L155.026 224.342L132.631 224.342L132.631 246.737L155.026 246.737ZM132.631 269.132L132.631 291.527L155.026 291.527L155.026 269.132L132.631 269.132Z" fill="white"/>
<path opacity="0.5" d="M188.684 314.053L166.289 314.053L166.289 336.448L143.894 336.448L143.894 358.843L121.499 358.843L121.499 381.238L99.1046 381.238L99.1045 403.633L121.499 403.633L121.499 426.028L143.894 426.028L143.894 448.684L166.289 448.684L166.289 471.079L188.684 471.079L188.684 448.684L211.079 448.684L211.079 426.29L233.605 426.29L233.605 403.895L256 403.895L256 381.5L233.605 381.5L233.605 359.105L211.21 359.105L211.21 336.71L188.684 336.71L188.684 314.053ZM166.289 358.843L188.684 358.843L188.684 381.238L211.079 381.238L211.079 403.633L188.684 403.633L188.684 426.028L166.289 426.028L166.289 403.633L143.894 403.633L143.894 381.238L166.289 381.238L166.289 358.843ZM166.289 403.764L166.289 381.369L188.684 381.369L188.684 403.764L166.289 403.764Z" fill="white"/>
</svg>
