<svg width="45" height="45" fill="none" xmlns="http://www.w3.org/2000/svg"><circle cx="22.5" cy="22.5" r="22.5" fill="#fff"/><path d="M17.54 10h10.92c4.16 0 7.54 3.38 7.54 7.54v10.92A7.54 7.54 0 0 1 28.46 36H17.54C13.38 36 10 32.62 10 28.46V17.54A7.54 7.54 0 0 1 17.54 10Zm-.26 2.6a4.68 4.68 0 0 0-4.68 4.68v11.44a4.677 4.677 0 0 0 4.68 4.68h11.44a4.68 4.68 0 0 0 4.68-4.68V17.28a4.677 4.677 0 0 0-4.68-4.68H17.28Zm12.545 1.95a1.625 1.625 0 1 1 0 3.25 1.625 1.625 0 0 1 0-3.25ZM23 16.5a6.5 6.5 0 1 1 0 13 6.5 6.5 0 0 1 0-13Zm0 2.6a3.9 3.9 0 1 0 0 7.8 3.9 3.9 0 0 0 0-7.8Z" fill="#5E8D66"/></svg>