<svg width="45" height="45" fill="none" xmlns="http://www.w3.org/2000/svg"><circle cx="22.5" cy="22.5" r="22.5" fill="#fff"/><path d="M22.609 9a6.672 6.672 0 1 0 0 13.344 6.672 6.672 0 0 0 0-13.344Zm0 9.43a2.758 2.758 0 1 1 0-5.516 2.758 2.758 0 0 1 0 5.516Zm2.355 9.224c2.671-.544 4.272-1.81 4.357-1.877a1.814 1.814 0 0 0-2.27-2.831c-.017.013-1.724 1.323-4.533 1.325-2.809-.002-4.552-1.312-4.569-1.325a1.814 1.814 0 0 0-2.27 2.83c.086.07 1.753 1.367 4.499 1.899l-3.827 4a1.814 1.814 0 1 0 2.612 2.518l3.555-3.787 3.915 3.812a1.814 1.814 0 1 0 2.563-2.568l-4.032-3.996Z" fill="#5E8D66"/><path d="M22.518 24.27c-.005 0 .004 0 0 .001-.004 0 .005 0 0 0Z" fill="#5E8D66"/></svg>