<svg width="310" height="575" fill="none" xmlns="http://www.w3.org/2000/svg"><path d="M275 69.918 240 70V34.96h35V0h35v35.04l-35-.08v34.958Z" fill="#C6202C"/><path d="M15.518 331.716h15.716v15.624h15.624v15.624h15.624v15.716H46.858v15.625H31.234v15.624H15.518v15.716H-.107V378.68h15.625v-15.716H-.107V316h15.625v15.716Zm.731-131.376H.624v-15.624H16.25v15.624ZM.624 169H-15v15.624H.624V169Zm15.625 15.624h15.624V169H16.25v15.624Zm-16.66 71.34v15.625h15.624v15.624h15.625v15.625h15.624v15.624h15.624v-15.624h15.625v-15.625h15.807v-15.624h15.624v-15.625H93.518V240.34H77.894v-15.716H62.269V209H46.645v15.624H31.02v15.625H15.396v15.715H-.41Zm31.249 15.625v-15.625h15.624V240.34h15.624v15.624h15.625v15.625H62.087v15.624H46.462v-15.624H30.838Zm31.34 0H46.554v-15.625h15.624v15.625ZM16.249 543H.624v15.624H16.25V543ZM.624 574.34H-15v-15.624H.624v15.624Zm15.625-15.624h15.624v15.624H16.25v-15.624Zm66.893-195.092v15.625h15.625v-15.625H83.142Zm31.34 15.625v15.624H98.858v-15.624h15.624Zm-15.624-15.625V348h15.624v15.624H98.858Z" fill="#fff"/><path d="M130.142 379.249v-15.625h-15.624v15.625h15.624Zm-31.34-15.625V348h15.624v15.624H98.802Zm15.624 15.625v15.624H98.802v-15.624h15.624ZM-.411 486.036v-15.625h15.624v-15.624h15.625v-15.625h15.624v-15.624h15.624v15.624h15.625v15.625h15.807v15.624h15.624v15.625H93.518v15.624H77.894v15.716H62.269V533H46.645v-15.624H31.02v-15.625H15.396v-15.715H-.41Zm31.249-15.625v15.625h15.624v15.624h15.624v-15.624h15.625v-15.625H62.087v-15.624H46.462v15.624H30.838Zm31.34 0H46.554v15.625h15.624v-15.625Z" fill="#fff"/></svg>