<svg width="20" height="100" fill="none" xmlns="http://www.w3.org/2000/svg"><g filter="url(#a)" clip-path="url(#b)"><path fill-rule="evenodd" clip-rule="evenodd" d="M0 15C0 6.716 6.716 0 15 0h331c8.284 0 15 6.716 15 15v120c0 8.284-6.716 15-15 15H15c-8.284 0-15-6.716-15-15V97.32c0-5.963 3.79-11.122 8.197-15.137C14.22 76.696 18 68.79 18 60s-3.78-16.696-9.803-22.183C3.79 33.802 0 28.643 0 22.68V15Z" fill="#D5DAD3" fill-opacity=".9"/></g><defs><clipPath id="b"><path fill="#fff" transform="matrix(-1 0 0 1 20 0)" d="M0 0h20v100H0z"/></clipPath><filter id="a" x="-7" y="-7" width="375" height="164" filterUnits="userSpaceOnUse" color-interpolation-filters="sRGB"><feFlood flood-opacity="0" result="BackgroundImageFix"/><feGaussianBlur in="BackgroundImageFix" stdDeviation="3.5"/><feComposite in2="SourceAlpha" operator="in" result="effect1_backgroundBlur_1366_3146"/><feBlend in="SourceGraphic" in2="effect1_backgroundBlur_1366_3146" result="shape"/></filter></defs></svg>