<svg width="335" height="456" fill="none" xmlns="http://www.w3.org/2000/svg"><path d="M0 .353a.647.647 0 0 0 0 1.294V.353ZM238 358.73v-.647.647Zm46 0v.647-.647ZM104.46 20.764l15.196 19.604 1.023-.793-15.196-19.604-1.023.793Zm55.225 39.222h29.949v-1.295h-29.949v1.295Zm59.044-9.191 21.975-15.423-.743-1.06-21.976 15.423.744 1.06Zm50.327-24.38H284v-1.294h-14.944v1.295Zm64.297 49.353v232.963h1.294V75.768h-1.294ZM284 358.084h-46v1.294h46v-1.294Zm-96.647 50.647V456h1.294v-47.269h-1.294ZM65.453.353H0v1.294h65.454V.353ZM238 358.084c-27.972 0-50.647 22.675-50.647 50.647h1.294c0-27.257 22.096-49.353 49.353-49.353v-1.294Zm95.353-49.353c0 27.257-22.096 49.353-49.353 49.353v1.294c27.972 0 50.647-22.675 50.647-50.647h-1.294ZM284 26.416c27.257 0 49.353 22.095 49.353 49.352h1.294c0-27.972-22.675-50.647-50.647-50.647v1.295Zm-43.296 8.956a49.357 49.357 0 0 1 28.352-8.956V25.12a50.645 50.645 0 0 0-29.095 9.191l.743 1.06Zm-51.07 24.614a50.647 50.647 0 0 0 29.095-9.191l-.744-1.06a49.351 49.351 0 0 1-28.351 8.956v1.295Zm-69.978-19.618a50.647 50.647 0 0 0 40.029 19.618v-1.295a49.353 49.353 0 0 1-39.006-19.116l-1.023.793ZM105.483 19.97A50.648 50.648 0 0 0 65.453.353v1.294a49.354 49.354 0 0 1 39.007 19.117l1.023-.793Z" fill="#C6202C"/></svg>