<svg width="1505" height="1010" fill="none" xmlns="http://www.w3.org/2000/svg"><path d="M-11.5 73.5a1 1 0 1 0 0 2v-2ZM520 183.07l-.875.484.875-.484Zm184.046 109.57h71.505v-2h-71.505v2Zm208.821-40.893 55.36-36.18-1.094-1.674-55.36 36.18 1.094 1.674ZM1104.45 175H1180v-2h-75.55v2ZM1429 424v81h2v-81h-2Zm-249 330h-115v2h115v-2ZM335.954 73.5H-11.5v2h347.454v-2ZM1065 754c-99.964 0-181 81.036-181 181h2c0-98.859 80.141-179 179-179v-2Zm364-249c0 137.519-111.48 249-249 249v2c138.62 0 251-112.377 251-251h-2Zm-249-330c137.52 0 249 111.481 249 249h2c0-138.623-112.38-251-251-251v2Zm-211.773 40.567A248.992 248.992 0 0 1 1104.45 175v-2c-48.77 0-96.49 14.21-137.317 40.893l1.094 1.674ZM775.551 292.64c48.773 0 96.489-14.21 137.316-40.893l-1.094-1.674a249.001 249.001 0 0 1-136.222 40.567v2ZM519.125 183.554C556.32 250.859 627.147 292.64 704.046 292.64v-2c-76.171 0-146.327-41.386-183.171-108.054l-1.75.968Zm1.75-.968C483.68 115.281 412.853 73.5 335.954 73.5v2c76.171 0 146.327 41.386 183.171 108.054l1.75-.968Z" fill="#C6202C"/><circle cx="885" cy="935" r="50" fill="#fff"/><g filter="url(#a)"><circle cx="885" cy="935" r="30" fill="#fff"/><circle cx="885" cy="935" r="29.55" stroke="#fff" stroke-width=".9"/></g><g filter="url(#b)"><circle cx="885" cy="935" r="15" fill="#C6202C"/></g><path d="M886.385 935a1 1 0 0 0-1-1h-9a1 1 0 1 0 0 2h8v8a1 1 0 1 0 2 0v-9Zm-18.678 19.092 18.385-18.385-1.414-1.414-18.385 18.385 1.414 1.414Z" fill="#fff"/><circle cx="1135" cy="754" r="50" fill="#fff"/><g filter="url(#c)"><circle cx="1135" cy="754" r="30" fill="#fff"/><circle cx="1135" cy="754" r="29.55" stroke="#fff" stroke-width=".9"/></g><g filter="url(#d)"><circle cx="1135" cy="754" r="15" fill="#C6202C"/></g><path d="M1136.38 754c0-.552-.44-1-1-1h-9c-.55 0-1 .448-1 1s.45 1 1 1h8v8c0 .552.45 1 1 1 .56 0 1-.448 1-1v-9Zm-18.67 19.092 18.38-18.385-1.41-1.414-18.39 18.385 1.42 1.414Z" fill="#fff"/><circle cx="1430" cy="456" r="50" fill="#fff"/><g filter="url(#e)"><circle cx="1430" cy="456" r="30" fill="#fff"/><circle cx="1430" cy="456" r="29.55" stroke="#fff" stroke-width=".9"/></g><g filter="url(#f)"><circle cx="1430" cy="456" r="15" fill="#C6202C"/></g><path d="M1431.38 456c0-.552-.44-1-1-1h-9c-.55 0-1 .448-1 1s.45 1 1 1h8v8c0 .552.45 1 1 1 .56 0 1-.448 1-1v-9Zm-18.67 19.092 18.38-18.385-1.41-1.414-18.39 18.385 1.42 1.414Z" fill="#fff"/><g filter="url(#g)"><circle cx="1135" cy="180" r="50" fill="#fff"/></g><g filter="url(#h)"><circle cx="1135" cy="180" r="15" fill="#C6202C"/></g><path d="m1129 186 12-12m-12 0 12 12" stroke="#fff" stroke-width="1.5" stroke-linejoin="round"/><circle cx="740" cy="292" r="50" fill="#fff"/><g filter="url(#i)"><circle cx="740" cy="292" r="30" fill="#fff"/><circle cx="740" cy="292" r="29.55" stroke="#fff" stroke-width=".9"/></g><g filter="url(#j)"><circle cx="740" cy="292" r="15" fill="#C6202C"/></g><path d="M741.385 292a1 1 0 0 0-1-1h-9a1 1 0 1 0 0 2h8v8a1 1 0 1 0 2 0v-9Zm-18.678 19.092 18.385-18.385-1.414-1.414-18.385 18.385 1.414 1.414Z" fill="#fff"/><circle cx="315" cy="75" r="50" fill="#fff"/><g filter="url(#k)"><circle cx="315" cy="75" r="30" fill="#fff"/><circle cx="315" cy="75" r="29.55" stroke="#fff" stroke-width=".9"/></g><g filter="url(#l)"><circle cx="315" cy="75" r="15" fill="#C6202C"/></g><path d="M316.385 75a1 1 0 0 0-1-1h-9a1 1 0 1 0 0 2h8v8a1 1 0 1 0 2 0v-9Zm-18.678 19.092 18.385-18.385-1.414-1.414-18.385 18.385 1.414 1.414Z" fill="#fff"/><defs><filter id="a" x="843.6" y="893.6" width="90" height="90" filterUnits="userSpaceOnUse" color-interpolation-filters="sRGB"><feFlood flood-opacity="0" result="BackgroundImageFix"/><feColorMatrix in="SourceAlpha" values="0 0 0 0 0 0 0 0 0 0 0 0 0 0 0 0 0 0 127 0" result="hardAlpha"/><feOffset dx="3.6" dy="3.6"/><feGaussianBlur stdDeviation="7.5"/><feColorMatrix values="0 0 0 0 0.164706 0 0 0 0 0.164706 0 0 0 0 0.164706 0 0 0 0.15 0"/><feBlend mode="multiply" in2="BackgroundImageFix" result="effect1_dropShadow_103_802"/><feBlend in="SourceGraphic" in2="effect1_dropShadow_103_802" result="shape"/></filter><filter id="b" x="858" y="914" width="54" height="54" filterUnits="userSpaceOnUse" color-interpolation-filters="sRGB"><feFlood flood-opacity="0" result="BackgroundImageFix"/><feColorMatrix in="SourceAlpha" values="0 0 0 0 0 0 0 0 0 0 0 0 0 0 0 0 0 0 127 0" result="hardAlpha"/><feOffset dy="6"/><feGaussianBlur stdDeviation="6"/><feComposite in2="hardAlpha" operator="out"/><feColorMatrix values="0 0 0 0 0.776471 0 0 0 0 0.12549 0 0 0 0 0.172549 0 0 0 0.3 0"/><feBlend in2="BackgroundImageFix" result="effect1_dropShadow_103_802"/><feBlend in="SourceGraphic" in2="effect1_dropShadow_103_802" result="shape"/></filter><filter id="c" x="1093.6" y="712.6" width="90" height="90" filterUnits="userSpaceOnUse" color-interpolation-filters="sRGB"><feFlood flood-opacity="0" result="BackgroundImageFix"/><feColorMatrix in="SourceAlpha" values="0 0 0 0 0 0 0 0 0 0 0 0 0 0 0 0 0 0 127 0" result="hardAlpha"/><feOffset dx="3.6" dy="3.6"/><feGaussianBlur stdDeviation="7.5"/><feColorMatrix values="0 0 0 0 0.164706 0 0 0 0 0.164706 0 0 0 0 0.164706 0 0 0 0.15 0"/><feBlend mode="multiply" in2="BackgroundImageFix" result="effect1_dropShadow_103_802"/><feBlend in="SourceGraphic" in2="effect1_dropShadow_103_802" result="shape"/></filter><filter id="d" x="1108" y="733" width="54" height="54" filterUnits="userSpaceOnUse" color-interpolation-filters="sRGB"><feFlood flood-opacity="0" result="BackgroundImageFix"/><feColorMatrix in="SourceAlpha" values="0 0 0 0 0 0 0 0 0 0 0 0 0 0 0 0 0 0 127 0" result="hardAlpha"/><feOffset dy="6"/><feGaussianBlur stdDeviation="6"/><feComposite in2="hardAlpha" operator="out"/><feColorMatrix values="0 0 0 0 0.776471 0 0 0 0 0.12549 0 0 0 0 0.172549 0 0 0 0.3 0"/><feBlend in2="BackgroundImageFix" result="effect1_dropShadow_103_802"/><feBlend in="SourceGraphic" in2="effect1_dropShadow_103_802" result="shape"/></filter><filter id="e" x="1388.6" y="414.6" width="90" height="90" filterUnits="userSpaceOnUse" color-interpolation-filters="sRGB"><feFlood flood-opacity="0" result="BackgroundImageFix"/><feColorMatrix in="SourceAlpha" values="0 0 0 0 0 0 0 0 0 0 0 0 0 0 0 0 0 0 127 0" result="hardAlpha"/><feOffset dx="3.6" dy="3.6"/><feGaussianBlur stdDeviation="7.5"/><feColorMatrix values="0 0 0 0 0.164706 0 0 0 0 0.164706 0 0 0 0 0.164706 0 0 0 0.15 0"/><feBlend mode="multiply" in2="BackgroundImageFix" result="effect1_dropShadow_103_802"/><feBlend in="SourceGraphic" in2="effect1_dropShadow_103_802" result="shape"/></filter><filter id="f" x="1403" y="435" width="54" height="54" filterUnits="userSpaceOnUse" color-interpolation-filters="sRGB"><feFlood flood-opacity="0" result="BackgroundImageFix"/><feColorMatrix in="SourceAlpha" values="0 0 0 0 0 0 0 0 0 0 0 0 0 0 0 0 0 0 127 0" result="hardAlpha"/><feOffset dy="6"/><feGaussianBlur stdDeviation="6"/><feComposite in2="hardAlpha" operator="out"/><feColorMatrix values="0 0 0 0 0.776471 0 0 0 0 0.12549 0 0 0 0 0.172549 0 0 0 0.3 0"/><feBlend in2="BackgroundImageFix" result="effect1_dropShadow_103_802"/><feBlend in="SourceGraphic" in2="effect1_dropShadow_103_802" result="shape"/></filter><filter id="g" x="1069" y="114" width="140" height="140" filterUnits="userSpaceOnUse" color-interpolation-filters="sRGB"><feFlood flood-opacity="0" result="BackgroundImageFix"/><feColorMatrix in="SourceAlpha" values="0 0 0 0 0 0 0 0 0 0 0 0 0 0 0 0 0 0 127 0" result="hardAlpha"/><feOffset dx="4" dy="4"/><feGaussianBlur stdDeviation="10"/><feColorMatrix values="0 0 0 0 0.164706 0 0 0 0 0.164706 0 0 0 0 0.164706 0 0 0 0.1 0"/><feBlend mode="multiply" in2="BackgroundImageFix" result="effect1_dropShadow_103_802"/><feBlend in="SourceGraphic" in2="effect1_dropShadow_103_802" result="shape"/></filter><filter id="h" x="1108" y="159" width="54" height="54" filterUnits="userSpaceOnUse" color-interpolation-filters="sRGB"><feFlood flood-opacity="0" result="BackgroundImageFix"/><feColorMatrix in="SourceAlpha" values="0 0 0 0 0 0 0 0 0 0 0 0 0 0 0 0 0 0 127 0" result="hardAlpha"/><feOffset dy="6"/><feGaussianBlur stdDeviation="6"/><feComposite in2="hardAlpha" operator="out"/><feColorMatrix values="0 0 0 0 0.776471 0 0 0 0 0.12549 0 0 0 0 0.172549 0 0 0 0.3 0"/><feBlend in2="BackgroundImageFix" result="effect1_dropShadow_103_802"/><feBlend in="SourceGraphic" in2="effect1_dropShadow_103_802" result="shape"/></filter><filter id="i" x="698.6" y="250.6" width="90" height="90" filterUnits="userSpaceOnUse" color-interpolation-filters="sRGB"><feFlood flood-opacity="0" result="BackgroundImageFix"/><feColorMatrix in="SourceAlpha" values="0 0 0 0 0 0 0 0 0 0 0 0 0 0 0 0 0 0 127 0" result="hardAlpha"/><feOffset dx="3.6" dy="3.6"/><feGaussianBlur stdDeviation="7.5"/><feColorMatrix values="0 0 0 0 0.164706 0 0 0 0 0.164706 0 0 0 0 0.164706 0 0 0 0.15 0"/><feBlend mode="multiply" in2="BackgroundImageFix" result="effect1_dropShadow_103_802"/><feBlend in="SourceGraphic" in2="effect1_dropShadow_103_802" result="shape"/></filter><filter id="j" x="713" y="271" width="54" height="54" filterUnits="userSpaceOnUse" color-interpolation-filters="sRGB"><feFlood flood-opacity="0" result="BackgroundImageFix"/><feColorMatrix in="SourceAlpha" values="0 0 0 0 0 0 0 0 0 0 0 0 0 0 0 0 0 0 127 0" result="hardAlpha"/><feOffset dy="6"/><feGaussianBlur stdDeviation="6"/><feComposite in2="hardAlpha" operator="out"/><feColorMatrix values="0 0 0 0 0.776471 0 0 0 0 0.12549 0 0 0 0 0.172549 0 0 0 0.3 0"/><feBlend in2="BackgroundImageFix" result="effect1_dropShadow_103_802"/><feBlend in="SourceGraphic" in2="effect1_dropShadow_103_802" result="shape"/></filter><filter id="k" x="273.6" y="33.6" width="90" height="90" filterUnits="userSpaceOnUse" color-interpolation-filters="sRGB"><feFlood flood-opacity="0" result="BackgroundImageFix"/><feColorMatrix in="SourceAlpha" values="0 0 0 0 0 0 0 0 0 0 0 0 0 0 0 0 0 0 127 0" result="hardAlpha"/><feOffset dx="3.6" dy="3.6"/><feGaussianBlur stdDeviation="7.5"/><feColorMatrix values="0 0 0 0 0.164706 0 0 0 0 0.164706 0 0 0 0 0.164706 0 0 0 0.15 0"/><feBlend mode="multiply" in2="BackgroundImageFix" result="effect1_dropShadow_103_802"/><feBlend in="SourceGraphic" in2="effect1_dropShadow_103_802" result="shape"/></filter><filter id="l" x="288" y="54" width="54" height="54" filterUnits="userSpaceOnUse" color-interpolation-filters="sRGB"><feFlood flood-opacity="0" result="BackgroundImageFix"/><feColorMatrix in="SourceAlpha" values="0 0 0 0 0 0 0 0 0 0 0 0 0 0 0 0 0 0 127 0" result="hardAlpha"/><feOffset dy="6"/><feGaussianBlur stdDeviation="6"/><feComposite in2="hardAlpha" operator="out"/><feColorMatrix values="0 0 0 0 0.776471 0 0 0 0 0.12549 0 0 0 0 0.172549 0 0 0 0.3 0"/><feBlend in2="BackgroundImageFix" result="effect1_dropShadow_103_802"/><feBlend in="SourceGraphic" in2="effect1_dropShadow_103_802" result="shape"/></filter></defs></svg>