<svg width="361" height="120" fill="none" xmlns="http://www.w3.org/2000/svg"><g filter="url(#a)" clip-path="url(#b)"><path fill-rule="evenodd" clip-rule="evenodd" d="M361 15c0-8.284-6.716-15-15-15H15C6.716 0 0 6.716 0 15v120c0 8.284 6.716 15 15 15h331c8.284 0 15-6.716 15-15V97.32c0-5.963-3.79-11.122-8.197-15.137C346.78 76.696 343 68.79 343 60s3.78-16.696 9.803-22.183C357.21 33.802 361 28.643 361 22.68V15Z" fill="#D5DAD3" fill-opacity=".9"/></g><defs><clipPath id="b"><path fill="#fff" d="M0 0h361v120H0z"/></clipPath><filter id="a" x="-7" y="-7" width="375" height="164" filterUnits="userSpaceOnUse" color-interpolation-filters="sRGB"><feFlood flood-opacity="0" result="BackgroundImageFix"/><feGaussianBlur in="BackgroundImageFix" stdDeviation="3.5"/><feComposite in2="SourceAlpha" operator="in" result="effect1_backgroundBlur_1103_3147"/><feBlend in="SourceGraphic" in2="effect1_backgroundBlur_1103_3147" result="shape"/></filter></defs></svg>