<svg width="1667" height="1047" fill="none" xmlns="http://www.w3.org/2000/svg"><path d="M-11.5 91.5a1 1 0 1 0 0 2v-2ZM520 201.07l-.875.484.875-.484Zm184.046 109.57h71.505v-2h-71.505v2Zm208.821-40.893 55.36-36.18-1.094-1.674-55.36 36.18 1.094 1.674ZM1104.45 193H1180v-2h-75.55v2ZM1429 442v81h2v-81h-2Zm-249 330h-115v2h115v-2ZM335.954 91.5H-11.5v2h347.454v-2ZM1065 772c-99.964 0-181 81.036-181 181h2c0-98.859 80.141-179 179-179v-2Zm364-249c0 137.519-111.48 249-249 249v2c138.62 0 251-112.377 251-251h-2Zm-249-330c137.52 0 249 111.481 249 249h2c0-138.623-112.38-251-251-251v2Zm-211.773 40.567A248.992 248.992 0 0 1 1104.45 193v-2c-48.77 0-96.49 14.21-137.317 40.893l1.094 1.674ZM775.551 310.64c48.773 0 96.489-14.21 137.316-40.893l-1.094-1.674a249.001 249.001 0 0 1-136.222 40.567v2ZM519.125 201.554C556.32 268.859 627.147 310.64 704.046 310.64v-2c-76.171 0-146.327-41.386-183.171-108.054l-1.75.968Zm1.75-.968C483.68 133.281 412.853 91.5 335.954 91.5v2c76.171 0 146.327 41.386 183.171 108.054l1.75-.968Z" fill="#C6202C"/><path d="M264.058 10.486h-.338V18h-3.562V.19h3.562v7.124h.286c.919 0 1.612-.139 2.08-.416.468-.295.971-.884 1.508-1.768L270.61.19h3.822l-3.016 4.914a32.55 32.55 0 0 1-1.222 1.872c-.364.52-.719.98-1.066 1.378L275.03 18h-4.082l-4.732-7.748a6.498 6.498 0 0 1-1.04.182c-.347.035-.719.052-1.118.052ZM288.582 18h-3.042l-.39-1.612a4.535 4.535 0 0 1-1.586 1.404 4.415 4.415 0 0 1-2.002.468c-1.595 0-2.929-.59-4.004-1.768-1.057-1.196-1.586-2.678-1.586-4.446 0-1.785.529-3.267 1.586-4.446 1.075-1.196 2.409-1.794 4.004-1.794.728 0 1.395.165 2.002.494a4.296 4.296 0 0 1 1.586 1.378l.39-1.612h3.042V18Zm-9.23-5.954c0 .901.277 1.655.832 2.262.572.59 1.283.884 2.132.884.849 0 1.551-.295 2.106-.884.572-.607.858-1.36.858-2.262 0-.919-.286-1.673-.858-2.262-.555-.607-1.257-.91-2.106-.91s-1.56.303-2.132.91c-.555.59-.832 1.343-.832 2.262Zm19.915-5.98h3.458V18h-3.458v-5.044c-.52.485-1.066.84-1.638 1.066a4.864 4.864 0 0 1-1.846.338c-1.352 0-2.444-.442-3.276-1.326-.815-.884-1.222-2.054-1.222-3.51V6.066h3.458V9.03c0 .676.182 1.213.546 1.612.381.381.893.572 1.534.572a3.11 3.11 0 0 0 1.3-.26c.399-.19.78-.485 1.144-.884V6.066Zm15.546 8.112 1.69 2.184a6.369 6.369 0 0 1-2.184 1.43 7.349 7.349 0 0 1-2.652.468c-1.82 0-3.336-.59-4.55-1.768-1.196-1.179-1.794-2.66-1.794-4.446 0-1.768.581-3.25 1.742-4.446 1.162-1.196 2.609-1.794 4.342-1.794 1.734 0 3.181.598 4.342 1.794 1.162 1.196 1.742 2.678 1.742 4.446a7.888 7.888 0 0 1-.078 1.144h-8.866c.208.71.59 1.274 1.144 1.69.555.416 1.214.624 1.976.624.607 0 1.153-.104 1.638-.312.503-.208 1.006-.546 1.508-1.014Zm-3.406-5.616c-.658 0-1.239.2-1.742.598-.502.381-.858.91-1.066 1.586h5.616c-.208-.676-.563-1.205-1.066-1.586-.485-.399-1.066-.598-1.742-.598Zm14.098.312c-.849 0-1.56.303-2.132.91-.554.59-.832 1.343-.832 2.262 0 .901.278 1.655.832 2.262.572.59 1.283.884 2.132.884.468 0 .91-.095 1.326-.286.434-.208.85-.511 1.248-.91l2.21 2.236c-.658.693-1.386 1.205-2.184 1.534-.78.33-1.646.494-2.6.494-1.82 0-3.336-.59-4.55-1.768-1.196-1.179-1.794-2.66-1.794-4.446 0-1.803.598-3.293 1.794-4.472 1.196-1.179 2.713-1.768 4.55-1.768.832 0 1.63.165 2.392.494a6.94 6.94 0 0 1 2.132 1.352l-2.21 2.236c-.364-.347-.736-.598-1.118-.754a2.857 2.857 0 0 0-1.196-.26Zm9.79.156h-3.978V6.066h11.388V9.03h-3.978V18h-3.432V9.03ZM351.191 18h-6.163V6.066h6.605c1.317 0 2.366.277 3.146.832.797.555 1.196 1.3 1.196 2.236a2.48 2.48 0 0 1-.572 1.612c-.382.468-.936.832-1.664 1.092.884.243 1.56.607 2.028 1.092.485.485.728 1.066.728 1.742 0 1.075-.46 1.898-1.378 2.47-.902.572-2.21.858-3.926.858Zm1.404-8.424c0-.347-.156-.607-.468-.78-.312-.19-.772-.286-1.378-.286h-2.366v2.184h2.366c.606 0 1.066-.095 1.378-.286a.918.918 0 0 0 .468-.832Zm.442 4.784c0-.416-.182-.72-.546-.91-.347-.208-.884-.312-1.612-.312h-2.496v2.418h2.496c.728 0 1.265-.095 1.612-.286.364-.208.546-.511.546-.91Zm11.646-8.554c1.837 0 3.354.59 4.55 1.768 1.196 1.179 1.794 2.67 1.794 4.472 0 1.785-.607 3.267-1.82 4.446-1.196 1.179-2.704 1.768-4.524 1.768-1.82 0-3.337-.59-4.55-1.768-1.196-1.179-1.794-2.66-1.794-4.446 0-1.803.598-3.293 1.794-4.472 1.196-1.179 2.713-1.768 4.55-1.768Zm0 3.068c-.849 0-1.56.303-2.132.91-.555.59-.832 1.343-.832 2.262 0 .901.277 1.655.832 2.262.572.59 1.283.884 2.132.884.849 0 1.551-.295 2.106-.884.572-.607.858-1.36.858-2.262 0-.919-.286-1.673-.858-2.262-.555-.607-1.257-.91-2.106-.91Z" fill="#2A2A2A"/><circle cx="315" cy="93" r="50" fill="#fff"/><g filter="url(#a)"><circle cx="315" cy="93" r="15" fill="#C6202C"/></g><path d="m309 99 12-12m-12 0 12 12" stroke="#fff" stroke-width="1.5" stroke-linejoin="round"/><g filter="url(#b)"><path fill-rule="evenodd" clip-rule="evenodd" d="M303 48c0-8.284-6.716-15-15-15H-43c-8.284 0-15 6.716-15 15v120c0 8.284 6.716 15 15 15h331c8.284 0 15-6.716 15-15v-37.681c0-5.962-3.79-11.121-8.197-15.136C288.78 109.696 285 101.79 285 93s3.78-16.696 9.803-22.183C299.21 66.802 303 61.643 303 55.68V48Z" fill="#D5DAD3" fill-opacity=".9"/></g><path d="M44 65.002v-8h-8V49h-8v-8h-8v-8h-39.998v8h-8.005v8H-36v8.001h-8v8h8v8h7.997V81h8v-7.998h8v-8h8v-8h8v8h8v8h7.999V81h8v-7.998h8v-8H44ZM-3.999 41v8h-8v8.001h-8v8h-8.004v-8h8v-8h8v-8H-4Zm32 16.001v8h-8v-8h-8v-8H4v-8h8v8h8v8h8Z" fill="#fff" fill-opacity=".4"/><circle cx="740" cy="310" r="50" fill="#fff"/><g filter="url(#c)"><circle cx="740" cy="310" r="15" fill="#C6202C"/></g><path d="m734 316 12-12m-12 0 12 12" stroke="#fff" stroke-width="1.5" stroke-linejoin="round"/><path d="M685.746 220.362h-5.226v-3.172h14.014v3.172h-5.226V235h-3.562v-14.638Zm22.469 8.684c0 1.768-.538 3.25-1.612 4.446-1.058 1.179-2.384 1.768-3.978 1.768a4.31 4.31 0 0 1-2.002-.468c-.607-.312-1.127-.771-1.56-1.378v6.786h-3.458v-17.134h3.042l.39 1.612c.433-.607.953-1.066 1.56-1.378a4.283 4.283 0 0 1 2.028-.494c1.594 0 2.92.598 3.978 1.794 1.074 1.179 1.612 2.661 1.612 4.446Zm-6.344-3.172c-.85 0-1.56.303-2.132.91-.555.589-.832 1.343-.832 2.262 0 .901.277 1.655.832 2.262.572.589 1.282.884 2.132.884.849 0 1.551-.295 2.106-.884.572-.607.858-1.361.858-2.262 0-.919-.286-1.673-.858-2.262-.555-.607-1.257-.91-2.106-.91ZM722.592 235h-3.042l-.39-1.612a4.538 4.538 0 0 1-1.586 1.404 4.418 4.418 0 0 1-2.002.468c-1.595 0-2.93-.589-4.004-1.768-1.058-1.196-1.586-2.678-1.586-4.446 0-1.785.528-3.267 1.586-4.446 1.074-1.196 2.409-1.794 4.004-1.794.728 0 1.395.165 2.002.494a4.3 4.3 0 0 1 1.586 1.378l.39-1.612h3.042V235Zm-9.23-5.954c0 .901.277 1.655.832 2.262.572.589 1.282.884 2.132.884.849 0 1.551-.295 2.106-.884.572-.607.858-1.361.858-2.262 0-.919-.286-1.673-.858-2.262-.555-.607-1.257-.91-2.106-.91-.85 0-1.56.303-2.132.91-.555.589-.832 1.343-.832 2.262Zm25.765 9.672h-3.068V235h-8.346v3.718h-3.068v-6.422h1.456l3.874-9.23h3.718l3.952 9.23h1.482v6.422Zm-7.332-12.792-2.522 6.37h5.07l-2.548-6.37ZM752.543 235h-3.172v-7.228L744.379 235h-3.198v-11.934h3.198v7.202l4.992-7.202h3.172V235Zm17.013 3.718h-3.224V235h-10.348v-11.934h3.432v8.97h4.524v-8.97h3.432v8.97h2.184v6.682Zm13.43-3.718h-3.172v-7.228L774.822 235h-3.198v-11.934h3.198v7.202l4.992-7.202h3.172V235Zm14.803 0h-3.172v-7.228L789.625 235h-3.198v-11.934h3.198v7.202l4.992-7.202h3.172V235Z" fill="#2A2A2A"/><g filter="url(#d)"><path fill-rule="evenodd" clip-rule="evenodd" d="M728 265c0-8.284-6.716-15-15-15H382c-8.284 0-15 6.716-15 15v120c0 8.284 6.716 15 15 15h331c8.284 0 15-6.716 15-15v-37.681c0-5.962-3.79-11.121-8.197-15.136C713.78 326.696 710 318.79 710 310s3.78-16.696 9.803-22.183c4.407-4.015 8.197-9.174 8.197-15.136V265Z" fill="#D5DAD3" fill-opacity=".9"/></g><path d="M467 282.002v-8.001h-8v-8h-8V258h-7.999v-8h-39.999v8h-8.005v8.001H387v8h-8v8.001h8v8h7.997V298h8v-7.998h8v-8h8v-8.001h7.999v8.001h8v8h8V298h8v-7.998h8v-8H467ZM419.001 258v8.001h-8v8h-7.999v8.001h-8.005v-8.001h8v-8h8V258h8.004ZM451 274.001v8.001h-7.999v-8.001h-8v-8h-8V258h8v8.001h8v8H451Z" fill="#fff" fill-opacity=".4"/><g filter="url(#e)"><circle cx="1135" cy="198" r="50" fill="#fff"/></g><g filter="url(#f)"><circle cx="1135" cy="198" r="30" fill="#fff"/><circle cx="1135" cy="198" r="29.55" stroke="#fff" stroke-width=".9"/></g><g filter="url(#g)"><circle cx="1135" cy="198" r="15" fill="#C6202C"/></g><path d="M1136.38 198c0-.552-.44-1-1-1h-9c-.55 0-1 .448-1 1s.45 1 1 1h8v8c0 .552.45 1 1 1 .56 0 1-.448 1-1v-9Zm-18.67 19.092 18.38-18.385-1.41-1.414-18.39 18.385 1.42 1.414Z" fill="#fff"/><path d="M1118.13 111h-3.71l-4.79-13.442-4.81 13.442h-3.51l6.66-17.81h3.51l6.65 17.81Zm13.5-12.194c1.83 0 3.35.59 4.55 1.768 1.19 1.179 1.79 2.669 1.79 4.472 0 1.785-.61 3.267-1.82 4.446-1.2 1.179-2.7 1.768-4.52 1.768-1.58 0-2.94-.451-4.09-1.352-1.12-.901-1.83-2.08-2.13-3.536h-1.79V111h-3.46V99.066h3.46v4.342h1.87c.35-1.387 1.07-2.496 2.18-3.328 1.13-.85 2.45-1.274 3.96-1.274Zm0 3.068c-.85 0-1.56.303-2.14.91-.55.589-.83 1.343-.83 2.262 0 .901.28 1.655.83 2.262.58.589 1.29.884 2.14.884.84 0 1.55-.295 2.1-.884.57-.607.86-1.361.86-2.262 0-.919-.29-1.673-.86-2.262-.55-.607-1.26-.91-2.1-.91Zm22.07 12.844h-3.07V111h-8.34v3.718h-3.07v-6.422h1.46l3.87-9.23h3.72l3.95 9.23h1.48v6.422Zm-7.33-12.792-2.52 6.37h5.07l-2.55-6.37Zm20.75 9.074h-3.17v-7.228l-4.99 7.228h-3.2V99.066h3.2v7.202l4.99-7.202h3.17V111Z" fill="#2A2A2A"/><g filter="url(#h)"><path fill-rule="evenodd" clip-rule="evenodd" d="M1123 153c0-8.284-6.72-15-15-15H777c-8.284 0-15 6.716-15 15v120c0 8.284 6.716 15 15 15h331c8.28 0 15-6.716 15-15v-37.681c0-5.962-3.79-11.121-8.2-15.136-6.02-5.487-9.8-13.393-9.8-22.183s3.78-16.696 9.8-22.183c4.41-4.015 8.2-9.174 8.2-15.136V153Z" fill="#D5DAD3" fill-opacity=".9"/></g><path d="M855 170.002v-8.001h-8v-8h-8V146h-7.999v-8h-39.999v8h-8.005v8.001H775v8h-8v8.001h8v8h7.997V186h8v-7.998h8v-8h8v-8.001h7.999v8.001h8v8h8V186h8v-7.998h8v-8H855ZM807.001 146v8.001h-8v8h-7.999v8.001h-8.005v-8.001h8v-8h8V146h8.004ZM839 162.001v8.001h-7.999v-8.001h-8v-8h-8V146h8v8.001h8v8H839Z" fill="#fff" fill-opacity=".4"/><circle cx="1430" cy="474" r="50" fill="#fff"/><g filter="url(#i)"><circle cx="1430" cy="474" r="15" fill="#C6202C"/></g><path d="m1424 480 12-12m-12 0 12 12" stroke="#fff" stroke-width="1.5" stroke-linejoin="round"/><path d="M1517.56 450.19h3.56V468h-3.56v-7.176c-.64.277-1.33.494-2.06.65-.71.156-1.39.234-2.05.234-1.98 0-3.55-.572-4.73-1.716-1.16-1.161-1.74-2.704-1.74-4.628v-5.174h3.56v4.836c0 1.144.31 2.028.93 2.652.63.607 1.5.91 2.63.91.64 0 1.25-.069 1.82-.208a6.472 6.472 0 0 0 1.64-.676v-7.514Zm16.1 13.988 1.69 2.184a6.466 6.466 0 0 1-2.19 1.43c-.81.312-1.7.468-2.65.468-1.82 0-3.34-.589-4.55-1.768-1.2-1.179-1.79-2.661-1.79-4.446 0-1.768.58-3.25 1.74-4.446 1.16-1.196 2.61-1.794 4.34-1.794s3.18.598 4.34 1.794c1.16 1.196 1.74 2.678 1.74 4.446 0 .243-.01.468-.02.676-.02.208-.04.364-.05.468h-8.87c.21.711.59 1.274 1.14 1.69.56.416 1.22.624 1.98.624.61 0 1.15-.104 1.64-.312.5-.208 1-.546 1.51-1.014Zm-3.41-5.616c-.66 0-1.24.199-1.74.598-.51.381-.86.91-1.07 1.586h5.62c-.21-.676-.57-1.205-1.07-1.586-.48-.399-1.06-.598-1.74-.598Zm14.1.312c-.85 0-1.56.303-2.13.91-.56.589-.84 1.343-.84 2.262 0 .901.28 1.655.84 2.262.57.589 1.28.884 2.13.884.47 0 .91-.095 1.32-.286.44-.208.85-.511 1.25-.91l2.21 2.236c-.66.693-1.39 1.205-2.18 1.534-.78.329-1.65.494-2.6.494-1.82 0-3.34-.589-4.55-1.768-1.2-1.179-1.8-2.661-1.8-4.446 0-1.803.6-3.293 1.8-4.472 1.19-1.179 2.71-1.768 4.55-1.768.83 0 1.63.165 2.39.494.78.312 1.49.763 2.13 1.352l-2.21 2.236a3.606 3.606 0 0 0-1.12-.754c-.38-.173-.78-.26-1.19-.26Zm9.79.156h-3.98v-2.964h11.39v2.964h-3.98V468h-3.43v-8.97Zm21.27 8.97h-3.4v-4.628h-4.71V468h-3.43v-11.934h3.43v4.342h4.71v-4.342h3.4V468Zm8.95-12.194c1.84 0 3.36.589 4.55 1.768 1.2 1.179 1.8 2.669 1.8 4.472 0 1.785-.61 3.267-1.82 4.446-1.2 1.179-2.71 1.768-4.53 1.768-1.82 0-3.33-.589-4.55-1.768-1.19-1.179-1.79-2.661-1.79-4.446 0-1.803.6-3.293 1.79-4.472 1.2-1.179 2.72-1.768 4.55-1.768Zm0 3.068c-.85 0-1.56.303-2.13.91-.55.589-.83 1.343-.83 2.262 0 .901.28 1.655.83 2.262.57.589 1.28.884 2.13.884.85 0 1.55-.295 2.11-.884.57-.607.86-1.361.86-2.262 0-.919-.29-1.673-.86-2.262-.56-.607-1.26-.91-2.11-.91Zm14.45 0c-.85 0-1.56.303-2.13.91-.56.589-.83 1.343-.83 2.262 0 .901.27 1.655.83 2.262.57.589 1.28.884 2.13.884.47 0 .91-.095 1.33-.286.43-.208.85-.511 1.24-.91l2.21 2.236c-.65.693-1.38 1.205-2.18 1.534-.78.329-1.65.494-2.6.494-1.82 0-3.34-.589-4.55-1.768-1.2-1.179-1.79-2.661-1.79-4.446 0-1.803.59-3.293 1.79-4.472 1.2-1.179 2.71-1.768 4.55-1.768.83 0 1.63.165 2.39.494.78.312 1.49.763 2.13 1.352l-2.21 2.236c-.36-.347-.73-.598-1.11-.754-.39-.173-.78-.26-1.2-.26Zm9.79.156h-3.98v-2.964h11.39v2.964h-3.98V468h-3.43v-8.97Zm20.76 5.044c0 1.213-.45 2.175-1.35 2.886-.89.693-2.06 1.04-3.51 1.04h-6.17v-11.934h3.44v4.082h2.62c1.51 0 2.71.355 3.62 1.066.9.693 1.35 1.647 1.35 2.86Zm-3.38 0c0-.485-.19-.849-.57-1.092-.39-.26-.93-.39-1.64-.39h-2v2.964h2c.71 0 1.25-.121 1.64-.364.38-.26.57-.633.57-1.118ZM1518.08 497h-3.17v-7.228l-5 7.228h-3.19v-11.934h3.19v7.202l5-7.202h3.17V497Zm14.41-12.194c1.84 0 3.35.589 4.55 1.768 1.2 1.179 1.79 2.669 1.79 4.472 0 1.785-.6 3.267-1.82 4.446-1.19 1.179-2.7 1.768-4.52 1.768-1.82 0-3.34-.589-4.55-1.768-1.2-1.179-1.79-2.661-1.79-4.446 0-1.803.59-3.293 1.79-4.472 1.2-1.179 2.71-1.768 4.55-1.768Zm0 3.068c-.85 0-1.56.303-2.13.91-.56.589-.83 1.343-.83 2.262 0 .901.27 1.655.83 2.262.57.589 1.28.884 2.13.884.85 0 1.55-.295 2.11-.884.57-.607.85-1.361.85-2.262 0-.919-.28-1.673-.85-2.262-.56-.607-1.26-.91-2.11-.91Zm11.79.156h-3.97v-2.964h11.38v2.964h-3.97V497h-3.44v-8.97Zm13.64 4.29h-.44V497h-3.46v-11.934h3.46v4.29h.46c.65 0 1.19-.147 1.64-.442.45-.312.91-.841 1.38-1.586l1.43-2.262h3.67l-1.43 2.262c-.42.711-.83 1.335-1.23 1.872-.38.537-.75.997-1.11 1.378l4.26 6.422h-4.06l-2.99-4.81c-.27.052-.54.087-.8.104s-.52.026-.78.026Zm23.23-1.274c0 1.768-.54 3.25-1.61 4.446-1.06 1.179-2.38 1.768-3.98 1.768-.73 0-1.39-.156-2-.468a4.306 4.306 0 0 1-1.56-1.378v6.786h-3.46v-17.134h3.04l.39 1.612c.44-.607.96-1.066 1.56-1.378.63-.329 1.3-.494 2.03-.494 1.6 0 2.92.598 3.98 1.794 1.07 1.179 1.61 2.661 1.61 4.446Zm-6.34-3.172c-.85 0-1.56.303-2.13.91-.56.589-.84 1.343-.84 2.262 0 .901.28 1.655.84 2.262.57.589 1.28.884 2.13.884.85 0 1.55-.295 2.1-.884.58-.607.86-1.361.86-2.262 0-.919-.28-1.673-.86-2.262-.55-.607-1.25-.91-2.1-.91Zm19.97 5.2c0 1.213-.46 2.175-1.36 2.886-.88.693-2.05 1.04-3.51 1.04h-6.16v-11.934h3.43v4.082h2.63c1.51 0 2.71.355 3.61 1.066.9.693 1.36 1.647 1.36 2.86Zm-3.38 0c0-.485-.2-.849-.58-1.092-.38-.26-.92-.39-1.63-.39h-2.01v2.964h2.01c.71 0 1.25-.121 1.63-.364.38-.26.58-.633.58-1.118Zm4.99-8.008h3.46V497h-3.46v-11.934Zm9.8 2.964h-3.98v-2.964h11.39v2.964h-3.98V497h-3.43v-8.97Zm15.24-3.224c1.84 0 3.36.589 4.55 1.768 1.2 1.179 1.8 2.669 1.8 4.472 0 1.785-.61 3.267-1.82 4.446-1.2 1.179-2.71 1.768-4.53 1.768-1.82 0-3.33-.589-4.55-1.768-1.19-1.179-1.79-2.661-1.79-4.446 0-1.803.6-3.293 1.79-4.472 1.2-1.179 2.72-1.768 4.55-1.768Zm0 3.068c-.85 0-1.56.303-2.13.91-.55.589-.83 1.343-.83 2.262 0 .901.28 1.655.83 2.262.57.589 1.28.884 2.13.884.85 0 1.55-.295 2.11-.884.57-.607.86-1.361.86-2.262 0-.919-.29-1.673-.86-2.262-.56-.607-1.26-.91-2.11-.91Zm14.45 0c-.85 0-1.56.303-2.13.91-.56.589-.83 1.343-.83 2.262 0 .901.27 1.655.83 2.262.57.589 1.28.884 2.13.884.47 0 .91-.095 1.33-.286.43-.208.85-.511 1.24-.91l2.21 2.236c-.65.693-1.38 1.205-2.18 1.534-.78.329-1.65.494-2.6.494-1.82 0-3.34-.589-4.55-1.768-1.2-1.179-1.79-2.661-1.79-4.446 0-1.803.59-3.293 1.79-4.472 1.2-1.179 2.71-1.768 4.55-1.768.83 0 1.63.165 2.39.494.78.312 1.49.763 2.13 1.352l-2.21 2.236c-.36-.347-.73-.598-1.11-.754-.38-.173-.78-.26-1.2-.26Zm9.79.156h-3.98v-2.964h11.39v2.964h-3.98V497h-3.43v-8.97Zm20.76 5.044c0 1.213-.45 2.175-1.35 2.886-.89.693-2.06 1.04-3.51 1.04h-6.17v-11.934h3.44v4.082h2.62c1.51 0 2.71.355 3.62 1.066.9.693 1.35 1.647 1.35 2.86Zm-3.38 0c0-.485-.19-.849-.57-1.092-.39-.26-.93-.39-1.64-.39h-2v2.964h2c.71 0 1.25-.121 1.64-.364.38-.26.57-.633.57-1.118Z" fill="#2A2A2A"/><g filter="url(#j)"><path fill-rule="evenodd" clip-rule="evenodd" d="M1418 429c0-8.284-6.72-15-15-15h-331c-8.28 0-15 6.716-15 15v120c0 8.284 6.72 15 15 15h331c8.28 0 15-6.716 15-15v-37.681c0-5.962-3.79-11.121-8.2-15.136-6.02-5.487-9.8-13.393-9.8-22.183s3.78-16.696 9.8-22.183c4.41-4.015 8.2-9.174 8.2-15.136V429Z" fill="#D5DAD3" fill-opacity=".9"/></g><path d="M1159 446.002v-8.001h-8v-8h-8V422h-8v-8h-40v8h-8v8.001h-8v8h-8v8.001h8v8h8V462h8v-7.998h8v-8h8v-8.001h8v8.001h8v8h8V462h8v-7.998h8v-8h8ZM1111 422v8.001h-8v8h-8v8.001h-8v-8.001h8v-8h8V422h8Zm32 16.001v8.001h-8v-8.001h-8v-8h-8V422h8v8.001h8v8h8Z" fill="#fff" fill-opacity=".4"/><path d="M1079.88 697h-3.45l-4.11-11.882L1070.6 697h-3.46l2.84-17.81h3.48l4.76 13.962 4.73-13.962h3.46l2.86 17.81h-3.56l-1.82-11.596-4.01 11.596Zm24.04 0h-3.04l-.39-1.612c-.44.607-.96 1.075-1.59 1.404-.62.312-1.29.468-2 .468-1.59 0-2.93-.589-4-1.768-1.06-1.196-1.59-2.678-1.59-4.446 0-1.785.53-3.267 1.59-4.446 1.07-1.196 2.41-1.794 4-1.794.73 0 1.4.165 2 .494.63.312 1.15.771 1.59 1.378l.39-1.612h3.04V697Zm-9.23-5.954c0 .901.28 1.655.83 2.262.57.589 1.28.884 2.13.884.85 0 1.56-.295 2.11-.884.57-.607.86-1.361.86-2.262 0-.919-.29-1.673-.86-2.262-.55-.607-1.26-.91-2.11-.91-.85 0-1.56.303-2.13.91-.55.589-.83 1.343-.83 2.262Zm25.27 0c0 1.768-.54 3.25-1.61 4.446-1.06 1.179-2.38 1.768-3.98 1.768-.73 0-1.39-.156-2-.468a4.306 4.306 0 0 1-1.56-1.378v6.786h-3.46v-17.134h3.04l.39 1.612c.44-.607.96-1.066 1.56-1.378.63-.329 1.3-.494 2.03-.494 1.6 0 2.92.598 3.98 1.794 1.07 1.179 1.61 2.661 1.61 4.446Zm-6.34-3.172c-.85 0-1.56.303-2.14.91-.55.589-.83 1.343-.83 2.262 0 .901.28 1.655.83 2.262.58.589 1.29.884 2.14.884.85 0 1.55-.295 2.1-.884.57-.607.86-1.361.86-2.262 0-.919-.29-1.673-.86-2.262-.55-.607-1.25-.91-2.1-.91Zm12.84 4.446h-.44V697h-3.46v-11.934h3.46v4.29h.47c.64 0 1.18-.147 1.63-.442.45-.312.91-.841 1.38-1.586l1.43-2.262h3.67l-1.43 2.262c-.42.711-.83 1.335-1.22 1.872-.39.537-.76.997-1.12 1.378l4.26 6.422h-4.05l-2.99-4.81c-.28.052-.55.087-.81.104s-.52.026-.78.026Zm19.03.858 1.69 2.184a6.37 6.37 0 0 1-2.19 1.43c-.81.312-1.7.468-2.65.468-1.82 0-3.34-.589-4.55-1.768-1.19-1.179-1.79-2.661-1.79-4.446 0-1.768.58-3.25 1.74-4.446 1.16-1.196 2.61-1.794 4.34-1.794s3.18.598 4.34 1.794c1.16 1.196 1.75 2.678 1.75 4.446 0 .243-.01.468-.03.676-.02.208-.04.364-.05.468h-8.87c.21.711.59 1.274 1.15 1.69.55.416 1.21.624 1.97.624.61 0 1.15-.104 1.64-.312.5-.208 1-.546 1.51-1.014Zm-3.41-5.616c-.66 0-1.24.199-1.74.598-.5.381-.86.91-1.07 1.586h5.62c-.21-.676-.56-1.205-1.07-1.586-.48-.399-1.06-.598-1.74-.598Zm11.45.468h-3.98v-2.964h11.39v2.964h-3.98V697h-3.43v-8.97Zm21.09 8.97h-3.17v-7.228l-4.99 7.228h-3.2v-11.934h3.2v7.202l4.99-7.202h3.17V697Zm14.99 0h-3.41v-4.628h-4.7V697h-3.44v-11.934h3.44v4.342h4.7v-4.342h3.41V697Zm6.89 0h-3.46v-11.934h8.95v2.964h-5.49V697Z" fill="#2A2A2A"/><circle cx="1135" cy="772" r="50" fill="#fff"/><g filter="url(#k)"><circle cx="1135" cy="772" r="15" fill="#C6202C"/></g><path d="m1129 778 12-12m-12 0 12 12" stroke="#fff" stroke-width="1.5" stroke-linejoin="round"/><g filter="url(#l)"><path fill-rule="evenodd" clip-rule="evenodd" d="M1123 727c0-8.284-6.72-15-15-15H777c-8.284 0-15 6.716-15 15v120c0 8.284 6.716 15 15 15h331c8.28 0 15-6.716 15-15v-37.681c0-5.962-3.79-11.121-8.2-15.136-6.02-5.487-9.8-13.393-9.8-22.183s3.78-16.696 9.8-22.183c4.41-4.015 8.2-9.174 8.2-15.136V727Z" fill="#D5DAD3" fill-opacity=".9"/></g><path d="M864 744.002v-8.001h-8v-8h-8V720h-7.999v-8h-39.999v8h-8.005v8.001H784v8h-8v8.001h8v8h7.997V760h8v-7.998h8v-8h8v-8.001h7.999v8.001h8v8h8V760h8v-7.998h8v-8H864ZM816.001 720v8.001h-8v8h-7.999v8.001h-8.005v-8.001h8v-8h8V720h8.004ZM848 736.001v8.001h-7.999v-8.001h-8v-8h-8V720h8v8.001h8v8H848Z" fill="#fff" fill-opacity=".4"/><path d="M833.642 1046h-3.484v-17.81h5.538c2.115 0 3.779.52 4.992 1.56 1.213 1.02 1.82 2.44 1.82 4.24 0 1.78-.615 3.2-1.846 4.24s-2.886 1.56-4.966 1.56h-2.054v6.21Zm5.278-12.01c0-.83-.286-1.48-.858-1.93-.555-.46-1.335-.7-2.34-.7h-2.08v5.28h2.08c1.023 0 1.811-.23 2.366-.68.555-.46.832-1.12.832-1.97Zm17.935 12.01h-3.042l-.39-1.61c-.433.6-.962 1.07-1.586 1.4-.624.31-1.291.47-2.002.47-1.594 0-2.929-.59-4.004-1.77-1.057-1.19-1.586-2.68-1.586-4.44 0-1.79.529-3.27 1.586-4.45 1.075-1.2 2.41-1.79 4.004-1.79.728 0 1.396.16 2.002.49.624.31 1.153.77 1.586 1.38l.39-1.61h3.042V1046Zm-9.23-5.95c0 .9.278 1.65.832 2.26.572.59 1.283.88 2.132.88.85 0 1.552-.29 2.106-.88.572-.61.858-1.36.858-2.26 0-.92-.286-1.68-.858-2.27-.554-.6-1.256-.91-2.106-.91-.849 0-1.56.31-2.132.91-.554.59-.832 1.35-.832 2.27Zm19.603 2.34c0-.4-.199-.7-.598-.89-.398-.21-.979-.31-1.742-.31h-2.21v-2.44h2.132c.694 0 1.222-.1 1.586-.29.382-.21.572-.49.572-.86 0-.36-.182-.65-.546-.86-.346-.22-.823-.33-1.43-.33-.624 0-1.23.11-1.82.33-.589.23-1.161.56-1.716.99l-1.534-2.03a9.811 9.811 0 0 1 2.522-1.43c.85-.31 1.742-.46 2.678-.46 1.543 0 2.791.3 3.744.91.971.59 1.456 1.37 1.456 2.34 0 .57-.19 1.1-.572 1.58-.364.49-.892.89-1.586 1.2.85.24 1.5.6 1.95 1.09.451.49.676 1.07.676 1.74 0 1.08-.528 1.94-1.586 2.6-1.04.66-2.426.99-4.16.99-1.178 0-2.244-.16-3.198-.49a7.894 7.894 0 0 1-2.548-1.56l1.638-2.06c.59.49 1.222.86 1.898 1.12a6.1 6.1 0 0 0 2.158.39c.711 0 1.257-.11 1.638-.34.399-.22.598-.54.598-.93Zm12.398 3.61h-6.162v-11.93h6.604c1.317 0 2.366.27 3.146.83.797.55 1.196 1.3 1.196 2.23a2.5 2.5 0 0 1-.572 1.62c-.381.46-.936.83-1.664 1.09.884.24 1.56.6 2.028 1.09.485.49.728 1.07.728 1.74 0 1.08-.459 1.9-1.378 2.47-.901.57-2.21.86-3.926.86Zm1.404-8.42c0-.35-.156-.61-.468-.78-.312-.19-.771-.29-1.378-.29h-2.366v2.18h2.366c.607 0 1.066-.09 1.378-.28a.918.918 0 0 0 .468-.83Zm.442 4.78c0-.42-.182-.72-.546-.91-.347-.21-.884-.31-1.612-.31h-2.496v2.42h2.496c.728 0 1.265-.1 1.612-.29.364-.21.546-.51.546-.91Zm17.497 3.64h-3.172v-7.23l-4.992 7.23h-3.198v-11.93h3.198v7.2l4.992-7.2h3.172V1046Zm6.3-8.97h-3.978v-2.96h11.388v2.96h-3.978v8.97h-3.432v-8.97Zm21.096 8.97h-3.172v-7.23l-4.992 7.23h-3.198v-11.93h3.198v7.2l4.992-7.2h3.172V1046Zm12.099-3.82 1.69 2.18a6.293 6.293 0 0 1-2.184 1.43 7.4 7.4 0 0 1-2.652.47c-1.82 0-3.337-.59-4.55-1.77-1.196-1.18-1.794-2.66-1.794-4.44 0-1.77.581-3.25 1.742-4.45 1.161-1.2 2.609-1.79 4.342-1.79 1.733 0 3.181.59 4.342 1.79 1.161 1.2 1.742 2.68 1.742 4.45a8.251 8.251 0 0 1-.078 1.14h-8.866c.208.71.589 1.27 1.144 1.69.555.42 1.213.62 1.976.62.607 0 1.153-.1 1.638-.31.503-.21 1.005-.54 1.508-1.01Zm-3.406-5.62c-.659 0-1.239.2-1.742.6-.503.38-.858.91-1.066 1.59h5.616c-.208-.68-.563-1.21-1.066-1.59-.485-.4-1.066-.6-1.742-.6Z" fill="#2A2A2A"/><circle cx="885" cy="953" r="50" fill="#fff"/><g filter="url(#m)"><circle cx="885" cy="953" r="15" fill="#C6202C"/></g><path d="m879 959 12-12m-12 0 12 12" stroke="#fff" stroke-width="1.5" stroke-linejoin="round"/><g filter="url(#n)"><path fill-rule="evenodd" clip-rule="evenodd" d="M873 908c0-8.284-6.716-15-15-15H527c-8.284 0-15 6.716-15 15v120c0 8.28 6.716 15 15 15h331c8.284 0 15-6.72 15-15v-37.681c0-5.962-3.79-11.121-8.197-15.136C858.78 969.696 855 961.79 855 953s3.78-16.696 9.803-22.183c4.407-4.015 8.197-9.174 8.197-15.136V908Z" fill="#D5DAD3" fill-opacity=".9"/></g><path d="M614 925.002v-8.001h-8v-8h-8V901h-7.999v-8h-39.999v8h-8.005v8.001H534v8h-8v8.001h8v8h7.997V941h8v-7.998h8v-8h8v-8.001h7.999v8.001h8v8h8V941h8v-7.998h8v-8H614ZM566.001 901v8.001h-8v8h-7.999v8.001h-8.005v-8.001h8v-8h8V901h8.004ZM598 917.001v8.001h-7.999v-8.001h-8v-8h-8V901h8v8.001h8v8H598Z" fill="#fff" fill-opacity=".4"/><defs><filter id="a" x="288" y="72" width="54" height="54" filterUnits="userSpaceOnUse" color-interpolation-filters="sRGB"><feFlood flood-opacity="0" result="BackgroundImageFix"/><feColorMatrix in="SourceAlpha" values="0 0 0 0 0 0 0 0 0 0 0 0 0 0 0 0 0 0 127 0" result="hardAlpha"/><feOffset dy="6"/><feGaussianBlur stdDeviation="6"/><feComposite in2="hardAlpha" operator="out"/><feColorMatrix values="0 0 0 0 0.776471 0 0 0 0 0.12549 0 0 0 0 0.172549 0 0 0 0.3 0"/><feBlend in2="BackgroundImageFix" result="effect1_dropShadow_103_802"/><feBlend in="SourceGraphic" in2="effect1_dropShadow_103_802" result="shape"/></filter><filter id="b" x="-65" y="26" width="375" height="164" filterUnits="userSpaceOnUse" color-interpolation-filters="sRGB"><feFlood flood-opacity="0" result="BackgroundImageFix"/><feGaussianBlur in="BackgroundImageFix" stdDeviation="3.5"/><feComposite in2="SourceAlpha" operator="in" result="effect1_backgroundBlur_103_802"/><feBlend in="SourceGraphic" in2="effect1_backgroundBlur_103_802" result="shape"/></filter><filter id="c" x="713" y="289" width="54" height="54" filterUnits="userSpaceOnUse" color-interpolation-filters="sRGB"><feFlood flood-opacity="0" result="BackgroundImageFix"/><feColorMatrix in="SourceAlpha" values="0 0 0 0 0 0 0 0 0 0 0 0 0 0 0 0 0 0 127 0" result="hardAlpha"/><feOffset dy="6"/><feGaussianBlur stdDeviation="6"/><feComposite in2="hardAlpha" operator="out"/><feColorMatrix values="0 0 0 0 0.776471 0 0 0 0 0.12549 0 0 0 0 0.172549 0 0 0 0.3 0"/><feBlend in2="BackgroundImageFix" result="effect1_dropShadow_103_802"/><feBlend in="SourceGraphic" in2="effect1_dropShadow_103_802" result="shape"/></filter><filter id="d" x="360" y="243" width="375" height="164" filterUnits="userSpaceOnUse" color-interpolation-filters="sRGB"><feFlood flood-opacity="0" result="BackgroundImageFix"/><feGaussianBlur in="BackgroundImageFix" stdDeviation="3.5"/><feComposite in2="SourceAlpha" operator="in" result="effect1_backgroundBlur_103_802"/><feBlend in="SourceGraphic" in2="effect1_backgroundBlur_103_802" result="shape"/></filter><filter id="e" x="1069" y="132" width="140" height="140" filterUnits="userSpaceOnUse" color-interpolation-filters="sRGB"><feFlood flood-opacity="0" result="BackgroundImageFix"/><feColorMatrix in="SourceAlpha" values="0 0 0 0 0 0 0 0 0 0 0 0 0 0 0 0 0 0 127 0" result="hardAlpha"/><feOffset dx="4" dy="4"/><feGaussianBlur stdDeviation="10"/><feColorMatrix values="0 0 0 0 0.164706 0 0 0 0 0.164706 0 0 0 0 0.164706 0 0 0 0.1 0"/><feBlend mode="multiply" in2="BackgroundImageFix" result="effect1_dropShadow_103_802"/><feBlend in="SourceGraphic" in2="effect1_dropShadow_103_802" result="shape"/></filter><filter id="f" x="1093.6" y="156.6" width="90" height="90" filterUnits="userSpaceOnUse" color-interpolation-filters="sRGB"><feFlood flood-opacity="0" result="BackgroundImageFix"/><feColorMatrix in="SourceAlpha" values="0 0 0 0 0 0 0 0 0 0 0 0 0 0 0 0 0 0 127 0" result="hardAlpha"/><feOffset dx="3.6" dy="3.6"/><feGaussianBlur stdDeviation="7.5"/><feColorMatrix values="0 0 0 0 0.164706 0 0 0 0 0.164706 0 0 0 0 0.164706 0 0 0 0.15 0"/><feBlend mode="multiply" in2="BackgroundImageFix" result="effect1_dropShadow_103_802"/><feBlend in="SourceGraphic" in2="effect1_dropShadow_103_802" result="shape"/></filter><filter id="g" x="1108" y="177" width="54" height="54" filterUnits="userSpaceOnUse" color-interpolation-filters="sRGB"><feFlood flood-opacity="0" result="BackgroundImageFix"/><feColorMatrix in="SourceAlpha" values="0 0 0 0 0 0 0 0 0 0 0 0 0 0 0 0 0 0 127 0" result="hardAlpha"/><feOffset dy="6"/><feGaussianBlur stdDeviation="6"/><feComposite in2="hardAlpha" operator="out"/><feColorMatrix values="0 0 0 0 0.776471 0 0 0 0 0.12549 0 0 0 0 0.172549 0 0 0 0.3 0"/><feBlend in2="BackgroundImageFix" result="effect1_dropShadow_103_802"/><feBlend in="SourceGraphic" in2="effect1_dropShadow_103_802" result="shape"/></filter><filter id="h" x="755" y="131" width="375" height="164" filterUnits="userSpaceOnUse" color-interpolation-filters="sRGB"><feFlood flood-opacity="0" result="BackgroundImageFix"/><feGaussianBlur in="BackgroundImageFix" stdDeviation="3.5"/><feComposite in2="SourceAlpha" operator="in" result="effect1_backgroundBlur_103_802"/><feBlend in="SourceGraphic" in2="effect1_backgroundBlur_103_802" result="shape"/></filter><filter id="i" x="1403" y="453" width="54" height="54" filterUnits="userSpaceOnUse" color-interpolation-filters="sRGB"><feFlood flood-opacity="0" result="BackgroundImageFix"/><feColorMatrix in="SourceAlpha" values="0 0 0 0 0 0 0 0 0 0 0 0 0 0 0 0 0 0 127 0" result="hardAlpha"/><feOffset dy="6"/><feGaussianBlur stdDeviation="6"/><feComposite in2="hardAlpha" operator="out"/><feColorMatrix values="0 0 0 0 0.776471 0 0 0 0 0.12549 0 0 0 0 0.172549 0 0 0 0.3 0"/><feBlend in2="BackgroundImageFix" result="effect1_dropShadow_103_802"/><feBlend in="SourceGraphic" in2="effect1_dropShadow_103_802" result="shape"/></filter><filter id="j" x="1050" y="407" width="375" height="164" filterUnits="userSpaceOnUse" color-interpolation-filters="sRGB"><feFlood flood-opacity="0" result="BackgroundImageFix"/><feGaussianBlur in="BackgroundImageFix" stdDeviation="3.5"/><feComposite in2="SourceAlpha" operator="in" result="effect1_backgroundBlur_103_802"/><feBlend in="SourceGraphic" in2="effect1_backgroundBlur_103_802" result="shape"/></filter><filter id="k" x="1108" y="751" width="54" height="54" filterUnits="userSpaceOnUse" color-interpolation-filters="sRGB"><feFlood flood-opacity="0" result="BackgroundImageFix"/><feColorMatrix in="SourceAlpha" values="0 0 0 0 0 0 0 0 0 0 0 0 0 0 0 0 0 0 127 0" result="hardAlpha"/><feOffset dy="6"/><feGaussianBlur stdDeviation="6"/><feComposite in2="hardAlpha" operator="out"/><feColorMatrix values="0 0 0 0 0.776471 0 0 0 0 0.12549 0 0 0 0 0.172549 0 0 0 0.3 0"/><feBlend in2="BackgroundImageFix" result="effect1_dropShadow_103_802"/><feBlend in="SourceGraphic" in2="effect1_dropShadow_103_802" result="shape"/></filter><filter id="l" x="755" y="705" width="375" height="164" filterUnits="userSpaceOnUse" color-interpolation-filters="sRGB"><feFlood flood-opacity="0" result="BackgroundImageFix"/><feGaussianBlur in="BackgroundImageFix" stdDeviation="3.5"/><feComposite in2="SourceAlpha" operator="in" result="effect1_backgroundBlur_103_802"/><feBlend in="SourceGraphic" in2="effect1_backgroundBlur_103_802" result="shape"/></filter><filter id="m" x="858" y="932" width="54" height="54" filterUnits="userSpaceOnUse" color-interpolation-filters="sRGB"><feFlood flood-opacity="0" result="BackgroundImageFix"/><feColorMatrix in="SourceAlpha" values="0 0 0 0 0 0 0 0 0 0 0 0 0 0 0 0 0 0 127 0" result="hardAlpha"/><feOffset dy="6"/><feGaussianBlur stdDeviation="6"/><feComposite in2="hardAlpha" operator="out"/><feColorMatrix values="0 0 0 0 0.776471 0 0 0 0 0.12549 0 0 0 0 0.172549 0 0 0 0.3 0"/><feBlend in2="BackgroundImageFix" result="effect1_dropShadow_103_802"/><feBlend in="SourceGraphic" in2="effect1_dropShadow_103_802" result="shape"/></filter><filter id="n" x="505" y="886" width="375" height="164" filterUnits="userSpaceOnUse" color-interpolation-filters="sRGB"><feFlood flood-opacity="0" result="BackgroundImageFix"/><feGaussianBlur in="BackgroundImageFix" stdDeviation="3.5"/><feComposite in2="SourceAlpha" operator="in" result="effect1_backgroundBlur_103_802"/><feBlend in="SourceGraphic" in2="effect1_backgroundBlur_103_802" result="shape"/></filter></defs></svg>