<svg width="1667" height="1047" fill="none" xmlns="http://www.w3.org/2000/svg"><path d="M-11.5 91.5a1 1 0 1 0 0 2v-2ZM520 201.07l-.875.484.875-.484Zm184.046 109.57h71.505v-2h-71.505v2Zm208.821-40.893 55.36-36.18-1.094-1.674-55.36 36.18 1.094 1.674ZM1104.45 193H1180v-2h-75.55v2ZM1429 442v81h2v-81h-2Zm-249 330h-115v2h115v-2ZM335.954 91.5H-11.5v2h347.454v-2ZM1065 772c-99.964 0-181 81.036-181 181h2c0-98.859 80.141-179 179-179v-2Zm364-249c0 137.519-111.48 249-249 249v2c138.62 0 251-112.377 251-251h-2Zm-249-330c137.52 0 249 111.481 249 249h2c0-138.623-112.38-251-251-251v2Zm-211.773 40.567A248.992 248.992 0 0 1 1104.45 193v-2c-48.77 0-96.49 14.21-137.317 40.893l1.094 1.674ZM775.551 310.64c48.773 0 96.489-14.21 137.316-40.893l-1.094-1.674a249.001 249.001 0 0 1-136.222 40.567v2ZM519.125 201.554C556.32 268.859 627.147 310.64 704.046 310.64v-2c-76.171 0-146.327-41.386-183.171-108.054l-1.75.968Zm1.75-.968C483.68 133.281 412.853 91.5 335.954 91.5v2c76.171 0 146.327 41.386 183.171 108.054l1.75-.968Z" fill="#C6202C"/><path d="M833.642 1046h-3.484v-17.81h5.538c2.115 0 3.779.52 4.992 1.56 1.213 1.02 1.82 2.44 1.82 4.24 0 1.78-.615 3.2-1.846 4.24s-2.886 1.56-4.966 1.56h-2.054v6.21Zm5.278-12.01c0-.83-.286-1.48-.858-1.93-.555-.46-1.335-.7-2.34-.7h-2.08v5.28h2.08c1.023 0 1.811-.23 2.366-.68.555-.46.832-1.12.832-1.97Zm17.935 12.01h-3.042l-.39-1.61c-.433.6-.962 1.07-1.586 1.4-.624.31-1.291.47-2.002.47-1.594 0-2.929-.59-4.004-1.77-1.057-1.19-1.586-2.68-1.586-4.44 0-1.79.529-3.27 1.586-4.45 1.075-1.2 2.41-1.79 4.004-1.79.728 0 1.396.16 2.002.49.624.31 1.153.77 1.586 1.38l.39-1.61h3.042V1046Zm-9.23-5.95c0 .9.278 1.65.832 2.26.572.59 1.283.88 2.132.88.85 0 1.552-.29 2.106-.88.572-.61.858-1.36.858-2.26 0-.92-.286-1.68-.858-2.27-.554-.6-1.256-.91-2.106-.91-.849 0-1.56.31-2.132.91-.554.59-.832 1.35-.832 2.27Zm19.603 2.34c0-.4-.199-.7-.598-.89-.398-.21-.979-.31-1.742-.31h-2.21v-2.44h2.132c.694 0 1.222-.1 1.586-.29.382-.21.572-.49.572-.86 0-.36-.182-.65-.546-.86-.346-.22-.823-.33-1.43-.33-.624 0-1.23.11-1.82.33-.589.23-1.161.56-1.716.99l-1.534-2.03a9.811 9.811 0 0 1 2.522-1.43c.85-.31 1.742-.46 2.678-.46 1.543 0 2.791.3 3.744.91.971.59 1.456 1.37 1.456 2.34 0 .57-.19 1.1-.572 1.58-.364.49-.892.89-1.586 1.2.85.24 1.5.6 1.95 1.09.451.49.676 1.07.676 1.74 0 1.08-.528 1.94-1.586 2.6-1.04.66-2.426.99-4.16.99-1.178 0-2.244-.16-3.198-.49a7.894 7.894 0 0 1-2.548-1.56l1.638-2.06c.59.49 1.222.86 1.898 1.12a6.1 6.1 0 0 0 2.158.39c.711 0 1.257-.11 1.638-.34.399-.22.598-.54.598-.93Zm12.398 3.61h-6.162v-11.93h6.604c1.317 0 2.366.27 3.146.83.797.55 1.196 1.3 1.196 2.23a2.5 2.5 0 0 1-.572 1.62c-.381.46-.936.83-1.664 1.09.884.24 1.56.6 2.028 1.09.485.49.728 1.07.728 1.74 0 1.08-.459 1.9-1.378 2.47-.901.57-2.21.86-3.926.86Zm1.404-8.42c0-.35-.156-.61-.468-.78-.312-.19-.771-.29-1.378-.29h-2.366v2.18h2.366c.607 0 1.066-.09 1.378-.28a.918.918 0 0 0 .468-.83Zm.442 4.78c0-.42-.182-.72-.546-.91-.347-.21-.884-.31-1.612-.31h-2.496v2.42h2.496c.728 0 1.265-.1 1.612-.29.364-.21.546-.51.546-.91Zm17.497 3.64h-3.172v-7.23l-4.992 7.23h-3.198v-11.93h3.198v7.2l4.992-7.2h3.172V1046Zm6.3-8.97h-3.978v-2.96h11.388v2.96h-3.978v8.97h-3.432v-8.97Zm21.096 8.97h-3.172v-7.23l-4.992 7.23h-3.198v-11.93h3.198v7.2l4.992-7.2h3.172V1046Zm12.099-3.82 1.69 2.18a6.293 6.293 0 0 1-2.184 1.43 7.4 7.4 0 0 1-2.652.47c-1.82 0-3.337-.59-4.55-1.77-1.196-1.18-1.794-2.66-1.794-4.44 0-1.77.581-3.25 1.742-4.45 1.161-1.2 2.609-1.79 4.342-1.79 1.733 0 3.181.59 4.342 1.79 1.161 1.2 1.742 2.68 1.742 4.45a8.251 8.251 0 0 1-.078 1.14h-8.866c.208.71.589 1.27 1.144 1.69.555.42 1.213.62 1.976.62.607 0 1.153-.1 1.638-.31.503-.21 1.005-.54 1.508-1.01Zm-3.406-5.62c-.659 0-1.239.2-1.742.6-.503.38-.858.91-1.066 1.59h5.616c-.208-.68-.563-1.21-1.066-1.59-.485-.4-1.066-.6-1.742-.6Z" fill="#2A2A2A"/><circle cx="885" cy="953" r="50" fill="#fff"/><g filter="url(#a)"><circle cx="885" cy="953" r="30" fill="#fff"/><circle cx="885" cy="953" r="29.55" stroke="#fff" stroke-width=".9"/></g><g filter="url(#b)"><circle cx="885" cy="953" r="15" fill="#C6202C"/></g><path d="M886.385 953a1 1 0 0 0-1-1h-9a1 1 0 1 0 0 2h8v8a1 1 0 1 0 2 0v-9Zm-18.678 19.092 18.385-18.385-1.414-1.414-18.385 18.385 1.414 1.414Z" fill="#fff"/><path d="M1079.88 697h-3.45l-4.11-11.882L1070.6 697h-3.46l2.84-17.81h3.48l4.76 13.962 4.73-13.962h3.46l2.86 17.81h-3.56l-1.82-11.596-4.01 11.596Zm24.04 0h-3.04l-.39-1.612c-.44.607-.96 1.075-1.59 1.404-.62.312-1.29.468-2 .468-1.59 0-2.93-.589-4-1.768-1.06-1.196-1.59-2.678-1.59-4.446 0-1.785.53-3.267 1.59-4.446 1.07-1.196 2.41-1.794 4-1.794.73 0 1.4.165 2 .494.63.312 1.15.771 1.59 1.378l.39-1.612h3.04V697Zm-9.23-5.954c0 .901.28 1.655.83 2.262.57.589 1.28.884 2.13.884.85 0 1.56-.295 2.11-.884.57-.607.86-1.361.86-2.262 0-.919-.29-1.673-.86-2.262-.55-.607-1.26-.91-2.11-.91-.85 0-1.56.303-2.13.91-.55.589-.83 1.343-.83 2.262Zm25.27 0c0 1.768-.54 3.25-1.61 4.446-1.06 1.179-2.38 1.768-3.98 1.768-.73 0-1.39-.156-2-.468a4.306 4.306 0 0 1-1.56-1.378v6.786h-3.46v-17.134h3.04l.39 1.612c.44-.607.96-1.066 1.56-1.378.63-.329 1.3-.494 2.03-.494 1.6 0 2.92.598 3.98 1.794 1.07 1.179 1.61 2.661 1.61 4.446Zm-6.34-3.172c-.85 0-1.56.303-2.14.91-.55.589-.83 1.343-.83 2.262 0 .901.28 1.655.83 2.262.58.589 1.29.884 2.14.884.85 0 1.55-.295 2.1-.884.57-.607.86-1.361.86-2.262 0-.919-.29-1.673-.86-2.262-.55-.607-1.25-.91-2.1-.91Zm12.84 4.446h-.44V697h-3.46v-11.934h3.46v4.29h.47c.64 0 1.18-.147 1.63-.442.45-.312.91-.841 1.38-1.586l1.43-2.262h3.67l-1.43 2.262c-.42.711-.83 1.335-1.22 1.872-.39.537-.76.997-1.12 1.378l4.26 6.422h-4.05l-2.99-4.81c-.28.052-.55.087-.81.104s-.52.026-.78.026Zm19.03.858 1.69 2.184a6.37 6.37 0 0 1-2.19 1.43c-.81.312-1.7.468-2.65.468-1.82 0-3.34-.589-4.55-1.768-1.19-1.179-1.79-2.661-1.79-4.446 0-1.768.58-3.25 1.74-4.446 1.16-1.196 2.61-1.794 4.34-1.794s3.18.598 4.34 1.794c1.16 1.196 1.75 2.678 1.75 4.446 0 .243-.01.468-.03.676-.02.208-.04.364-.05.468h-8.87c.21.711.59 1.274 1.15 1.69.55.416 1.21.624 1.97.624.61 0 1.15-.104 1.64-.312.5-.208 1-.546 1.51-1.014Zm-3.41-5.616c-.66 0-1.24.199-1.74.598-.5.381-.86.91-1.07 1.586h5.62c-.21-.676-.56-1.205-1.07-1.586-.48-.399-1.06-.598-1.74-.598Zm11.45.468h-3.98v-2.964h11.39v2.964h-3.98V697h-3.43v-8.97Zm21.09 8.97h-3.17v-7.228l-4.99 7.228h-3.2v-11.934h3.2v7.202l4.99-7.202h3.17V697Zm14.99 0h-3.41v-4.628h-4.7V697h-3.44v-11.934h3.44v4.342h4.7v-4.342h3.41V697Zm6.89 0h-3.46v-11.934h8.95v2.964h-5.49V697Z" fill="#2A2A2A"/><circle cx="1135" cy="772" r="50" fill="#fff"/><g filter="url(#c)"><circle cx="1135" cy="772" r="30" fill="#fff"/><circle cx="1135" cy="772" r="29.55" stroke="#fff" stroke-width=".9"/></g><g filter="url(#d)"><circle cx="1135" cy="772" r="15" fill="#C6202C"/></g><path d="M1136.38 772c0-.552-.44-1-1-1h-9c-.55 0-1 .448-1 1s.45 1 1 1h8v8c0 .552.45 1 1 1 .56 0 1-.448 1-1v-9Zm-18.67 19.092 18.38-18.385-1.41-1.414-18.39 18.385 1.42 1.414Z" fill="#fff"/><path d="M1517.56 450.19h3.56V468h-3.56v-7.176c-.64.277-1.33.494-2.06.65-.71.156-1.39.234-2.05.234-1.98 0-3.55-.572-4.73-1.716-1.16-1.161-1.74-2.704-1.74-4.628v-5.174h3.56v4.836c0 1.144.31 2.028.93 2.652.63.607 1.5.91 2.63.91.64 0 1.25-.069 1.82-.208a6.472 6.472 0 0 0 1.64-.676v-7.514Zm16.1 13.988 1.69 2.184a6.466 6.466 0 0 1-2.19 1.43c-.81.312-1.7.468-2.65.468-1.82 0-3.34-.589-4.55-1.768-1.2-1.179-1.79-2.661-1.79-4.446 0-1.768.58-3.25 1.74-4.446 1.16-1.196 2.61-1.794 4.34-1.794s3.18.598 4.34 1.794c1.16 1.196 1.74 2.678 1.74 4.446 0 .243-.01.468-.02.676-.02.208-.04.364-.05.468h-8.87c.21.711.59 1.274 1.14 1.69.56.416 1.22.624 1.98.624.61 0 1.15-.104 1.64-.312.5-.208 1-.546 1.51-1.014Zm-3.41-5.616c-.66 0-1.24.199-1.74.598-.51.381-.86.91-1.07 1.586h5.62c-.21-.676-.57-1.205-1.07-1.586-.48-.399-1.06-.598-1.74-.598Zm14.1.312c-.85 0-1.56.303-2.13.91-.56.589-.84 1.343-.84 2.262 0 .901.28 1.655.84 2.262.57.589 1.28.884 2.13.884.47 0 .91-.095 1.32-.286.44-.208.85-.511 1.25-.91l2.21 2.236c-.66.693-1.39 1.205-2.18 1.534-.78.329-1.65.494-2.6.494-1.82 0-3.34-.589-4.55-1.768-1.2-1.179-1.8-2.661-1.8-4.446 0-1.803.6-3.293 1.8-4.472 1.19-1.179 2.71-1.768 4.55-1.768.83 0 1.63.165 2.39.494.78.312 1.49.763 2.13 1.352l-2.21 2.236a3.606 3.606 0 0 0-1.12-.754c-.38-.173-.78-.26-1.19-.26Zm9.79.156h-3.98v-2.964h11.39v2.964h-3.98V468h-3.43v-8.97Zm21.27 8.97h-3.4v-4.628h-4.71V468h-3.43v-11.934h3.43v4.342h4.71v-4.342h3.4V468Zm8.95-12.194c1.84 0 3.36.589 4.55 1.768 1.2 1.179 1.8 2.669 1.8 4.472 0 1.785-.61 3.267-1.82 4.446-1.2 1.179-2.71 1.768-4.53 1.768-1.82 0-3.33-.589-4.55-1.768-1.19-1.179-1.79-2.661-1.79-4.446 0-1.803.6-3.293 1.79-4.472 1.2-1.179 2.72-1.768 4.55-1.768Zm0 3.068c-.85 0-1.56.303-2.13.91-.55.589-.83 1.343-.83 2.262 0 .901.28 1.655.83 2.262.57.589 1.28.884 2.13.884.85 0 1.55-.295 2.11-.884.57-.607.86-1.361.86-2.262 0-.919-.29-1.673-.86-2.262-.56-.607-1.26-.91-2.11-.91Zm14.45 0c-.85 0-1.56.303-2.13.91-.56.589-.83 1.343-.83 2.262 0 .901.27 1.655.83 2.262.57.589 1.28.884 2.13.884.47 0 .91-.095 1.33-.286.43-.208.85-.511 1.24-.91l2.21 2.236c-.65.693-1.38 1.205-2.18 1.534-.78.329-1.65.494-2.6.494-1.82 0-3.34-.589-4.55-1.768-1.2-1.179-1.79-2.661-1.79-4.446 0-1.803.59-3.293 1.79-4.472 1.2-1.179 2.71-1.768 4.55-1.768.83 0 1.63.165 2.39.494.78.312 1.49.763 2.13 1.352l-2.21 2.236c-.36-.347-.73-.598-1.11-.754-.39-.173-.78-.26-1.2-.26Zm9.79.156h-3.98v-2.964h11.39v2.964h-3.98V468h-3.43v-8.97Zm20.76 5.044c0 1.213-.45 2.175-1.35 2.886-.89.693-2.06 1.04-3.51 1.04h-6.17v-11.934h3.44v4.082h2.62c1.51 0 2.71.355 3.62 1.066.9.693 1.35 1.647 1.35 2.86Zm-3.38 0c0-.485-.19-.849-.57-1.092-.39-.26-.93-.39-1.64-.39h-2v2.964h2c.71 0 1.25-.121 1.64-.364.38-.26.57-.633.57-1.118ZM1518.08 497h-3.17v-7.228l-5 7.228h-3.19v-11.934h3.19v7.202l5-7.202h3.17V497Zm14.41-12.194c1.84 0 3.35.589 4.55 1.768 1.2 1.179 1.79 2.669 1.79 4.472 0 1.785-.6 3.267-1.82 4.446-1.19 1.179-2.7 1.768-4.52 1.768-1.82 0-3.34-.589-4.55-1.768-1.2-1.179-1.79-2.661-1.79-4.446 0-1.803.59-3.293 1.79-4.472 1.2-1.179 2.71-1.768 4.55-1.768Zm0 3.068c-.85 0-1.56.303-2.13.91-.56.589-.83 1.343-.83 2.262 0 .901.27 1.655.83 2.262.57.589 1.28.884 2.13.884.85 0 1.55-.295 2.11-.884.57-.607.85-1.361.85-2.262 0-.919-.28-1.673-.85-2.262-.56-.607-1.26-.91-2.11-.91Zm11.79.156h-3.97v-2.964h11.38v2.964h-3.97V497h-3.44v-8.97Zm13.64 4.29h-.44V497h-3.46v-11.934h3.46v4.29h.46c.65 0 1.19-.147 1.64-.442.45-.312.91-.841 1.38-1.586l1.43-2.262h3.67l-1.43 2.262c-.42.711-.83 1.335-1.23 1.872-.38.537-.75.997-1.11 1.378l4.26 6.422h-4.06l-2.99-4.81c-.27.052-.54.087-.8.104s-.52.026-.78.026Zm23.23-1.274c0 1.768-.54 3.25-1.61 4.446-1.06 1.179-2.38 1.768-3.98 1.768-.73 0-1.39-.156-2-.468a4.306 4.306 0 0 1-1.56-1.378v6.786h-3.46v-17.134h3.04l.39 1.612c.44-.607.96-1.066 1.56-1.378.63-.329 1.3-.494 2.03-.494 1.6 0 2.92.598 3.98 1.794 1.07 1.179 1.61 2.661 1.61 4.446Zm-6.34-3.172c-.85 0-1.56.303-2.13.91-.56.589-.84 1.343-.84 2.262 0 .901.28 1.655.84 2.262.57.589 1.28.884 2.13.884.85 0 1.55-.295 2.1-.884.58-.607.86-1.361.86-2.262 0-.919-.28-1.673-.86-2.262-.55-.607-1.25-.91-2.1-.91Zm19.97 5.2c0 1.213-.46 2.175-1.36 2.886-.88.693-2.05 1.04-3.51 1.04h-6.16v-11.934h3.43v4.082h2.63c1.51 0 2.71.355 3.61 1.066.9.693 1.36 1.647 1.36 2.86Zm-3.38 0c0-.485-.2-.849-.58-1.092-.38-.26-.92-.39-1.63-.39h-2.01v2.964h2.01c.71 0 1.25-.121 1.63-.364.38-.26.58-.633.58-1.118Zm4.99-8.008h3.46V497h-3.46v-11.934Zm9.8 2.964h-3.98v-2.964h11.39v2.964h-3.98V497h-3.43v-8.97Zm15.24-3.224c1.84 0 3.36.589 4.55 1.768 1.2 1.179 1.8 2.669 1.8 4.472 0 1.785-.61 3.267-1.82 4.446-1.2 1.179-2.71 1.768-4.53 1.768-1.82 0-3.33-.589-4.55-1.768-1.19-1.179-1.79-2.661-1.79-4.446 0-1.803.6-3.293 1.79-4.472 1.2-1.179 2.72-1.768 4.55-1.768Zm0 3.068c-.85 0-1.56.303-2.13.91-.55.589-.83 1.343-.83 2.262 0 .901.28 1.655.83 2.262.57.589 1.28.884 2.13.884.85 0 1.55-.295 2.11-.884.57-.607.86-1.361.86-2.262 0-.919-.29-1.673-.86-2.262-.56-.607-1.26-.91-2.11-.91Zm14.45 0c-.85 0-1.56.303-2.13.91-.56.589-.83 1.343-.83 2.262 0 .901.27 1.655.83 2.262.57.589 1.28.884 2.13.884.47 0 .91-.095 1.33-.286.43-.208.85-.511 1.24-.91l2.21 2.236c-.65.693-1.38 1.205-2.18 1.534-.78.329-1.65.494-2.6.494-1.82 0-3.34-.589-4.55-1.768-1.2-1.179-1.79-2.661-1.79-4.446 0-1.803.59-3.293 1.79-4.472 1.2-1.179 2.71-1.768 4.55-1.768.83 0 1.63.165 2.39.494.78.312 1.49.763 2.13 1.352l-2.21 2.236c-.36-.347-.73-.598-1.11-.754-.38-.173-.78-.26-1.2-.26Zm9.79.156h-3.98v-2.964h11.39v2.964h-3.98V497h-3.43v-8.97Zm20.76 5.044c0 1.213-.45 2.175-1.35 2.886-.89.693-2.06 1.04-3.51 1.04h-6.17v-11.934h3.44v4.082h2.62c1.51 0 2.71.355 3.62 1.066.9.693 1.35 1.647 1.35 2.86Zm-3.38 0c0-.485-.19-.849-.57-1.092-.39-.26-.93-.39-1.64-.39h-2v2.964h2c.71 0 1.25-.121 1.64-.364.38-.26.57-.633.57-1.118Z" fill="#2A2A2A"/><circle cx="1430" cy="474" r="50" fill="#fff"/><g filter="url(#e)"><circle cx="1430" cy="474" r="30" fill="#fff"/><circle cx="1430" cy="474" r="29.55" stroke="#fff" stroke-width=".9"/></g><g filter="url(#f)"><circle cx="1430" cy="474" r="15" fill="#C6202C"/></g><path d="M1431.38 474c0-.552-.44-1-1-1h-9c-.55 0-1 .448-1 1s.45 1 1 1h8v8c0 .552.45 1 1 1 .56 0 1-.448 1-1v-9Zm-18.67 19.092 18.38-18.385-1.41-1.414-18.39 18.385 1.42 1.414Z" fill="#fff"/><path d="M1118.13 111h-3.71l-4.79-13.442-4.81 13.442h-3.51l6.66-17.81h3.51l6.65 17.81Zm13.5-12.194c1.83 0 3.35.59 4.55 1.768 1.19 1.179 1.79 2.669 1.79 4.472 0 1.785-.61 3.267-1.82 4.446-1.2 1.179-2.7 1.768-4.52 1.768-1.58 0-2.94-.451-4.09-1.352-1.12-.901-1.83-2.08-2.13-3.536h-1.79V111h-3.46V99.066h3.46v4.342h1.87c.35-1.387 1.07-2.496 2.18-3.328 1.13-.85 2.45-1.274 3.96-1.274Zm0 3.068c-.85 0-1.56.303-2.14.91-.55.589-.83 1.343-.83 2.262 0 .901.28 1.655.83 2.262.58.589 1.29.884 2.14.884.84 0 1.55-.295 2.1-.884.57-.607.86-1.361.86-2.262 0-.919-.29-1.673-.86-2.262-.55-.607-1.26-.91-2.1-.91Zm22.07 12.844h-3.07V111h-8.34v3.718h-3.07v-6.422h1.46l3.87-9.23h3.72l3.95 9.23h1.48v6.422Zm-7.33-12.792-2.52 6.37h5.07l-2.55-6.37Zm20.75 9.074h-3.17v-7.228l-4.99 7.228h-3.2V99.066h3.2v7.202l4.99-7.202h3.17V111Z" fill="#2A2A2A"/><g filter="url(#g)"><circle cx="1135" cy="198" r="50" fill="#fff"/></g><g filter="url(#h)"><circle cx="1135" cy="198" r="15" fill="#C6202C"/></g><path d="m1129 204 12-12m-12 0 12 12" stroke="#fff" stroke-width="1.5" stroke-linejoin="round"/><circle cx="740" cy="310" r="50" fill="#fff"/><g filter="url(#i)"><circle cx="740" cy="310" r="30" fill="#fff"/><circle cx="740" cy="310" r="29.55" stroke="#fff" stroke-width=".9"/></g><g filter="url(#j)"><circle cx="740" cy="310" r="15" fill="#C6202C"/></g><path d="M741.385 310a1 1 0 0 0-1-1h-9a1 1 0 1 0 0 2h8v8a1 1 0 1 0 2 0v-9Zm-18.678 19.092 18.385-18.385-1.414-1.414-18.385 18.385 1.414 1.414Z" fill="#fff"/><path d="M685.746 220.362h-5.226v-3.172h14.014v3.172h-5.226V235h-3.562v-14.638Zm22.469 8.684c0 1.768-.538 3.25-1.612 4.446-1.058 1.179-2.384 1.768-3.978 1.768a4.31 4.31 0 0 1-2.002-.468c-.607-.312-1.127-.771-1.56-1.378v6.786h-3.458v-17.134h3.042l.39 1.612c.433-.607.953-1.066 1.56-1.378a4.283 4.283 0 0 1 2.028-.494c1.594 0 2.92.598 3.978 1.794 1.074 1.179 1.612 2.661 1.612 4.446Zm-6.344-3.172c-.85 0-1.56.303-2.132.91-.555.589-.832 1.343-.832 2.262 0 .901.277 1.655.832 2.262.572.589 1.282.884 2.132.884.849 0 1.551-.295 2.106-.884.572-.607.858-1.361.858-2.262 0-.919-.286-1.673-.858-2.262-.555-.607-1.257-.91-2.106-.91ZM722.592 235h-3.042l-.39-1.612a4.538 4.538 0 0 1-1.586 1.404 4.418 4.418 0 0 1-2.002.468c-1.595 0-2.93-.589-4.004-1.768-1.058-1.196-1.586-2.678-1.586-4.446 0-1.785.528-3.267 1.586-4.446 1.074-1.196 2.409-1.794 4.004-1.794.728 0 1.395.165 2.002.494a4.3 4.3 0 0 1 1.586 1.378l.39-1.612h3.042V235Zm-9.23-5.954c0 .901.277 1.655.832 2.262.572.589 1.282.884 2.132.884.849 0 1.551-.295 2.106-.884.572-.607.858-1.361.858-2.262 0-.919-.286-1.673-.858-2.262-.555-.607-1.257-.91-2.106-.91-.85 0-1.56.303-2.132.91-.555.589-.832 1.343-.832 2.262Zm25.765 9.672h-3.068V235h-8.346v3.718h-3.068v-6.422h1.456l3.874-9.23h3.718l3.952 9.23h1.482v6.422Zm-7.332-12.792-2.522 6.37h5.07l-2.548-6.37ZM752.543 235h-3.172v-7.228L744.379 235h-3.198v-11.934h3.198v7.202l4.992-7.202h3.172V235Zm17.013 3.718h-3.224V235h-10.348v-11.934h3.432v8.97h4.524v-8.97h3.432v8.97h2.184v6.682Zm13.43-3.718h-3.172v-7.228L774.822 235h-3.198v-11.934h3.198v7.202l4.992-7.202h3.172V235Zm14.803 0h-3.172v-7.228L789.625 235h-3.198v-11.934h3.198v7.202l4.992-7.202h3.172V235ZM264.058 10.486h-.338V18h-3.562V.19h3.562v7.124h.286c.919 0 1.612-.139 2.08-.416.468-.295.971-.884 1.508-1.768L270.61.19h3.822l-3.016 4.914a32.55 32.55 0 0 1-1.222 1.872c-.364.52-.719.98-1.066 1.378L275.03 18h-4.082l-4.732-7.748a6.498 6.498 0 0 1-1.04.182c-.347.035-.719.052-1.118.052ZM288.582 18h-3.042l-.39-1.612a4.535 4.535 0 0 1-1.586 1.404 4.415 4.415 0 0 1-2.002.468c-1.595 0-2.929-.59-4.004-1.768-1.057-1.196-1.586-2.678-1.586-4.446 0-1.785.529-3.267 1.586-4.446 1.075-1.196 2.409-1.794 4.004-1.794.728 0 1.395.165 2.002.494a4.296 4.296 0 0 1 1.586 1.378l.39-1.612h3.042V18Zm-9.23-5.954c0 .901.277 1.655.832 2.262.572.59 1.283.884 2.132.884.849 0 1.551-.295 2.106-.884.572-.607.858-1.36.858-2.262 0-.919-.286-1.673-.858-2.262-.555-.607-1.257-.91-2.106-.91s-1.56.303-2.132.91c-.555.59-.832 1.343-.832 2.262Zm19.915-5.98h3.458V18h-3.458v-5.044c-.52.485-1.066.84-1.638 1.066a4.864 4.864 0 0 1-1.846.338c-1.352 0-2.444-.442-3.276-1.326-.815-.884-1.222-2.054-1.222-3.51V6.066h3.458V9.03c0 .676.182 1.213.546 1.612.381.381.893.572 1.534.572a3.11 3.11 0 0 0 1.3-.26c.399-.19.78-.485 1.144-.884V6.066Zm15.546 8.112 1.69 2.184a6.369 6.369 0 0 1-2.184 1.43 7.349 7.349 0 0 1-2.652.468c-1.82 0-3.336-.59-4.55-1.768-1.196-1.179-1.794-2.66-1.794-4.446 0-1.768.581-3.25 1.742-4.446 1.162-1.196 2.609-1.794 4.342-1.794 1.734 0 3.181.598 4.342 1.794 1.162 1.196 1.742 2.678 1.742 4.446a7.888 7.888 0 0 1-.078 1.144h-8.866c.208.71.59 1.274 1.144 1.69.555.416 1.214.624 1.976.624.607 0 1.153-.104 1.638-.312.503-.208 1.006-.546 1.508-1.014Zm-3.406-5.616c-.658 0-1.239.2-1.742.598-.502.381-.858.91-1.066 1.586h5.616c-.208-.676-.563-1.205-1.066-1.586-.485-.399-1.066-.598-1.742-.598Zm14.098.312c-.849 0-1.56.303-2.132.91-.554.59-.832 1.343-.832 2.262 0 .901.278 1.655.832 2.262.572.59 1.283.884 2.132.884.468 0 .91-.095 1.326-.286.434-.208.85-.511 1.248-.91l2.21 2.236c-.658.693-1.386 1.205-2.184 1.534-.78.33-1.646.494-2.6.494-1.82 0-3.336-.59-4.55-1.768-1.196-1.179-1.794-2.66-1.794-4.446 0-1.803.598-3.293 1.794-4.472 1.196-1.179 2.713-1.768 4.55-1.768.832 0 1.63.165 2.392.494a6.94 6.94 0 0 1 2.132 1.352l-2.21 2.236c-.364-.347-.736-.598-1.118-.754a2.857 2.857 0 0 0-1.196-.26Zm9.79.156h-3.978V6.066h11.388V9.03h-3.978V18h-3.432V9.03ZM351.191 18h-6.163V6.066h6.605c1.317 0 2.366.277 3.146.832.797.555 1.196 1.3 1.196 2.236a2.48 2.48 0 0 1-.572 1.612c-.382.468-.936.832-1.664 1.092.884.243 1.56.607 2.028 1.092.485.485.728 1.066.728 1.742 0 1.075-.46 1.898-1.378 2.47-.902.572-2.21.858-3.926.858Zm1.404-8.424c0-.347-.156-.607-.468-.78-.312-.19-.772-.286-1.378-.286h-2.366v2.184h2.366c.606 0 1.066-.095 1.378-.286a.918.918 0 0 0 .468-.832Zm.442 4.784c0-.416-.182-.72-.546-.91-.347-.208-.884-.312-1.612-.312h-2.496v2.418h2.496c.728 0 1.265-.095 1.612-.286.364-.208.546-.511.546-.91Zm11.646-8.554c1.837 0 3.354.59 4.55 1.768 1.196 1.179 1.794 2.67 1.794 4.472 0 1.785-.607 3.267-1.82 4.446-1.196 1.179-2.704 1.768-4.524 1.768-1.82 0-3.337-.59-4.55-1.768-1.196-1.179-1.794-2.66-1.794-4.446 0-1.803.598-3.293 1.794-4.472 1.196-1.179 2.713-1.768 4.55-1.768Zm0 3.068c-.849 0-1.56.303-2.132.91-.555.59-.832 1.343-.832 2.262 0 .901.277 1.655.832 2.262.572.59 1.283.884 2.132.884.849 0 1.551-.295 2.106-.884.572-.607.858-1.36.858-2.262 0-.919-.286-1.673-.858-2.262-.555-.607-1.257-.91-2.106-.91Z" fill="#2A2A2A"/><circle cx="315" cy="93" r="50" fill="#fff"/><g filter="url(#k)"><circle cx="315" cy="93" r="30" fill="#fff"/><circle cx="315" cy="93" r="29.55" stroke="#fff" stroke-width=".9"/></g><g filter="url(#l)"><circle cx="315" cy="93" r="15" fill="#C6202C"/></g><path d="M316.385 93a1 1 0 0 0-1-1h-9a1 1 0 1 0 0 2h8v8a1 1 0 1 0 2 0v-9Zm-18.678 19.092 18.385-18.385-1.414-1.414-18.385 18.385 1.414 1.414Z" fill="#fff"/><g filter="url(#m)"><path fill-rule="evenodd" clip-rule="evenodd" d="M1123 153c0-8.284-6.72-15-15-15H777c-8.284 0-15 6.716-15 15v120c0 8.284 6.716 15 15 15h331c8.28 0 15-6.716 15-15v-37.681c0-5.962-3.79-11.121-8.2-15.136-6.02-5.487-9.8-13.393-9.8-22.183s3.78-16.696 9.8-22.183c4.41-4.015 8.2-9.174 8.2-15.136V153Z" fill="#D5DAD3" fill-opacity=".9"/></g><path d="M864 170.002v-8.001h-8v-8h-8V146h-7.999v-8h-39.999v8h-8.005v8.001H784v8h-8v8.001h8v8h7.997V186h8v-7.998h8v-8h8v-8.001h7.999v8.001h8v8h8V186h8v-7.998h8v-8H864ZM816.001 146v8.001h-8v8h-7.999v8.001h-8.005v-8.001h8v-8h8V146h8.004ZM848 162.001v8.001h-7.999v-8.001h-8v-8h-8V146h8v8.001h8v8H848Z" fill="#fff" fill-opacity=".4"/><path d="M800.208 178v-1.696c.725.096 1.253-.08 1.584-.528.341-.459.512-1.291.512-2.496v-6.48h7.504V178h-1.84v-9.44h-3.824v4.688c0 1.952-.4 3.285-1.2 4-.715.619-1.627.869-2.736.752Zm18.858-8.208c1.184 0 2.181.405 2.992 1.216.821.821 1.232 1.819 1.232 2.992s-.411 2.171-1.232 2.992c-.811.811-1.808 1.216-2.992 1.216-1.035 0-1.931-.315-2.688-.944a3.996 3.996 0 0 1-1.392-2.448h-1.328V178h-1.728v-8h1.728v3.184h1.328c.181-1.003.645-1.813 1.392-2.432.757-.64 1.653-.96 2.688-.96ZM816.57 174c0 .725.24 1.328.72 1.808s1.072.72 1.776.72 1.296-.24 1.776-.72.72-1.083.72-1.808c0-.725-.24-1.328-.72-1.808s-1.072-.72-1.776-.72-1.296.24-1.776.72-.72 1.083-.72 1.808Zm15.009-4v6.368h1.072v3.776h-1.696V178h-5.488v2.144h-1.696v-3.776h.976c.491-.683.736-1.648.736-2.896V170h6.096Zm-4.928 6.368h3.232v-4.784h-2.704v1.888c0 1.152-.176 2.117-.528 2.896Zm9.1-1.296 4.096-5.072h1.328v8h-1.696v-5.088L835.383 178h-1.328v-8h1.696v5.072Zm19.701-1.504h-8v-1.024h8v1.024Zm13.106 3.424c-.821.8-1.813 1.2-2.976 1.2-1.184 0-2.181-.4-2.992-1.2-.81-.811-1.216-1.808-1.216-2.992s.406-2.176 1.216-2.976c.811-.811 1.808-1.216 2.992-1.216 1.174 0 2.166.405 2.976 1.216.822.8 1.232 1.792 1.232 2.976 0 1.173-.41 2.171-1.232 2.992Zm-5.216-.736c.608.608 1.355.912 2.24.912.886 0 1.632-.304 2.24-.912a3.132 3.132 0 0 0 .912-2.256c0-.885-.304-1.632-.912-2.24-.608-.619-1.354-.928-2.24-.928-.885 0-1.632.309-2.24.928-.608.608-.912 1.355-.912 2.24 0 .875.304 1.627.912 2.256Zm11.944 1.936c-1.206 0-2.208-.4-3.008-1.2-.8-.821-1.2-1.819-1.2-2.992 0-1.184.4-2.176 1.2-2.976.8-.811 1.802-1.216 3.008-1.216.789 0 1.498.192 2.128.576.629.373 1.088.88 1.376 1.52l-.864.496a2.435 2.435 0 0 0-1.04-1.136 3 3 0 0 0-1.6-.432c-.886 0-1.632.309-2.24.928-.608.608-.912 1.355-.912 2.24 0 .875.304 1.627.912 2.256.608.608 1.354.912 2.24.912.586 0 1.114-.139 1.584-.416.48-.277.853-.661 1.12-1.152l.88.512a3.697 3.697 0 0 1-1.456 1.52 4.15 4.15 0 0 1-2.128.56Zm10.764-4.704V170h1.056v8h-1.056v-3.488h-4.608V178h-1.056v-8h1.056v3.488h4.608Zm9.993 3.504c-.822.8-1.814 1.2-2.976 1.2-1.184 0-2.182-.4-2.992-1.2-.811-.811-1.216-1.808-1.216-2.992s.405-2.176 1.216-2.976c.81-.811 1.808-1.216 2.992-1.216 1.173 0 2.165.405 2.976 1.216.821.8 1.232 1.792 1.232 2.976 0 1.173-.411 2.171-1.232 2.992Zm-5.216-.736c.608.608 1.354.912 2.24.912.885 0 1.632-.304 2.24-.912a3.132 3.132 0 0 0 .912-2.256c0-.885-.304-1.632-.912-2.24-.608-.619-1.355-.928-2.24-.928-.886 0-1.632.309-2.24.928-.608.608-.912 1.355-.912 2.24 0 .875.304 1.627.912 2.256Zm13.303-2.368c.875.32 1.312.944 1.312 1.872 0 .661-.224 1.2-.672 1.616-.437.416-1.051.624-1.84.624h-3.888v-8h3.568c.768 0 1.365.197 1.792.592.437.395.656.912.656 1.552 0 .8-.309 1.381-.928 1.744Zm-1.52-2.864h-2.512v2.432h2.512c.928 0 1.392-.416 1.392-1.248 0-.373-.123-.661-.368-.864-.235-.213-.576-.32-1.024-.32Zm-2.512 5.952h2.832c.469 0 .827-.112 1.072-.336.256-.224.384-.539.384-.944 0-.384-.128-.683-.384-.896-.245-.213-.603-.32-1.072-.32h-2.832v2.496Zm13.824-5.408V170h1.056v8h-1.056v-1.568c-.736 1.173-1.813 1.76-3.232 1.76-1.141 0-2.117-.405-2.928-1.216-.8-.811-1.2-1.803-1.2-2.976s.4-2.165 1.2-2.976c.811-.811 1.787-1.216 2.928-1.216 1.419 0 2.496.587 3.232 1.76Zm-5.392 4.688c.608.608 1.355.912 2.24.912.885 0 1.632-.304 2.24-.912a3.132 3.132 0 0 0 .912-2.256c0-.885-.304-1.632-.912-2.24-.608-.619-1.355-.928-2.24-.928-.885 0-1.632.309-2.24.928-.608.608-.912 1.355-.912 2.24 0 .875.304 1.627.912 2.256Zm18.348-2.768V170h1.056v8h-1.056v-3.488h-4.608V178h-1.056v-8h1.056v3.488h4.608Zm10.169-1.92V170h1.056v8h-1.056v-1.568c-.736 1.173-1.813 1.76-3.232 1.76-1.141 0-2.117-.405-2.928-1.216-.8-.811-1.2-1.803-1.2-2.976s.4-2.165 1.2-2.976c.811-.811 1.787-1.216 2.928-1.216 1.419 0 2.496.587 3.232 1.76Zm-5.392 4.688c.608.608 1.355.912 2.24.912.885 0 1.632-.304 2.24-.912a3.132 3.132 0 0 0 .912-2.256c0-.885-.304-1.632-.912-2.24-.608-.619-1.355-.928-2.24-.928-.885 0-1.632.309-2.24.928-.608.608-.912 1.355-.912 2.24 0 .875.304 1.627.912 2.256Zm18.348.72V170h1.056v8h-10.72v-8h1.056v6.976h3.776V170h1.056v6.976h3.776Zm6.985-7.168c1.195 0 2.149.421 2.864 1.264.736.832 1.104 1.819 1.104 2.96 0 .053-.011.219-.032.496H953.9c.107.8.448 1.44 1.024 1.92.576.48 1.296.72 2.16.72 1.216 0 2.075-.453 2.576-1.36l.928.544a3.73 3.73 0 0 1-1.456 1.36c-.608.32-1.296.48-2.064.48-1.259 0-2.283-.395-3.072-1.184-.789-.789-1.184-1.792-1.184-3.008 0-1.205.389-2.203 1.168-2.992.779-.8 1.781-1.2 3.008-1.2Zm0 1.024c-.832 0-1.531.245-2.096.736-.555.491-.885 1.136-.992 1.936h5.968c-.117-.853-.443-1.509-.976-1.968a2.866 2.866 0 0 0-1.904-.704Zm5.648-.832h5.12v1.024h-4.064V178h-1.056v-8Zm12.797 6.992c-.821.8-1.813 1.2-2.976 1.2-1.184 0-2.181-.4-2.992-1.2-.81-.811-1.216-1.808-1.216-2.992s.406-2.176 1.216-2.976c.811-.811 1.808-1.216 2.992-1.216 1.174 0 2.166.405 2.976 1.216.822.8 1.232 1.792 1.232 2.976 0 1.173-.41 2.171-1.232 2.992Zm-5.216-.736c.608.608 1.355.912 2.24.912.886 0 1.632-.304 2.24-.912a3.132 3.132 0 0 0 .912-2.256c0-.885-.304-1.632-.912-2.24-.608-.619-1.354-.928-2.24-.928-.885 0-1.632.309-2.24.928-.608.608-.912 1.355-.912 2.24 0 .875.304 1.627.912 2.256ZM983.265 170h5.728v8h-1.056v-6.976h-3.616v3.568c0 1.333-.256 2.251-.768 2.752-.502.501-1.195.72-2.08.656v-.992c.618.064 1.072-.085 1.36-.448.288-.363.432-1.019.432-1.968V170Zm14.796-.192c1.174 0 2.169.405 2.979 1.216.82.8 1.23 1.792 1.23 2.976 0 1.173-.41 2.171-1.23 2.992-.82.8-1.816 1.2-2.979 1.2-1.066 0-1.994-.347-2.784-1.04a4.033 4.033 0 0 1-1.328-2.64h-1.664V178h-1.056v-8h1.056v3.488h1.664c.118-1.056.56-1.931 1.328-2.624.779-.704 1.707-1.056 2.784-1.056Zm-2.24 6.448c.608.608 1.355.912 2.24.912.886 0 1.632-.304 2.239-.912.61-.629.91-1.381.91-2.256 0-.885-.3-1.632-.91-2.24-.607-.619-1.353-.928-2.239-.928-.885 0-1.632.309-2.24.928-.608.608-.912 1.355-.912 2.24 0 .875.304 1.627.912 2.256Zm11.759 1.936c-1.14 0-2.1-.379-2.88-1.136-.77-.768-1.15-1.76-1.15-2.976 0-1.365.2-2.411.6-3.136.41-.736 1.23-1.403 2.47-2 .39-.181.7-.32.93-.416.37-.149.66-.277.88-.384.92-.427 1.39-.955 1.4-1.584l.84.48c-.06.267-.14.507-.26.72-.14.235-.28.421-.42.56-.12.139-.33.288-.6.448-.19.107-.4.224-.66.352l-.8.336-.75.32c-.74.32-1.29.656-1.65 1.008-.35.341-.6.789-.75 1.344.34-.459.79-.805 1.34-1.04a4.162 4.162 0 0 1 1.68-.368c1.07 0 1.95.352 2.64 1.056.71.693 1.06 1.584 1.06 2.672 0 1.077-.38 1.973-1.12 2.688-.74.704-1.67 1.056-2.8 1.056Zm-2.08-1.84c.55.523 1.25.784 2.08.784.83 0 1.51-.251 2.05-.752.54-.512.81-1.157.81-1.936 0-.789-.25-1.435-.77-1.936-.5-.512-1.17-.768-2.01-.768a3.3 3.3 0 0 0-2.07.72c-.61.459-.92 1.088-.92 1.888 0 .811.27 1.477.83 2Zm8.66-.192 4.77-6.16h.89v8h-1.05v-6.16L1014 178h-.9v-8h1.06v6.16Zm14.52-6.16h1.22v8h-1.06v-6.384l-2.8 4.544h-.13l-2.8-4.544V178h-1.05v-8h1.21l2.71 4.384 2.7-4.384Zm10.16 6.992c-.82.8-1.81 1.2-2.98 1.2-1.18 0-2.18-.4-2.99-1.2-.81-.811-1.21-1.808-1.21-2.992s.4-2.176 1.21-2.976c.81-.811 1.81-1.216 2.99-1.216 1.18 0 2.17.405 2.98 1.216.82.8 1.23 1.792 1.23 2.976 0 1.173-.41 2.171-1.23 2.992Zm-5.22-.736c.61.608 1.36.912 2.24.912.89 0 1.64-.304 2.24-.912.61-.629.92-1.381.92-2.256 0-.885-.31-1.632-.92-2.24-.6-.619-1.35-.928-2.24-.928-.88 0-1.63.309-2.24.928-.6.608-.91 1.355-.91 2.24 0 .875.31 1.627.91 2.256Zm8.22-6.256h5.12v1.024h-4.07V178h-1.05v-8Zm12.8 6.992c-.82.8-1.82 1.2-2.98 1.2-1.18 0-2.18-.4-2.99-1.2-.81-.811-1.22-1.808-1.22-2.992s.41-2.176 1.22-2.976c.81-.811 1.81-1.216 2.99-1.216 1.17 0 2.17.405 2.98 1.216.82.8 1.23 1.792 1.23 2.976 0 1.173-.41 2.171-1.23 2.992Zm-5.22-.736c.61.608 1.36.912 2.24.912.89 0 1.63-.304 2.24-.912.61-.629.91-1.381.91-2.256 0-.885-.3-1.632-.91-2.24-.61-.619-1.35-.928-2.24-.928-.88 0-1.63.309-2.24.928-.61.608-.91 1.355-.91 2.24 0 .875.3 1.627.91 2.256ZM807.84 189v6.976h1.12v3.168h-1.056V197h-6.528v2.144h-1.056v-3.168h.976c.544-.725.816-1.733.816-3.024V189h5.728Zm-5.264 6.976h4.208v-5.952h-3.616v2.928c0 1.237-.197 2.245-.592 3.024Zm11.365-7.168c1.195 0 2.149.421 2.864 1.264.736.832 1.104 1.819 1.104 2.96 0 .053-.011.219-.032.496h-7.024c.107.8.448 1.44 1.024 1.92.576.48 1.296.72 2.16.72 1.216 0 2.075-.453 2.576-1.36l.928.544a3.73 3.73 0 0 1-1.456 1.36c-.608.32-1.296.48-2.064.48-1.259 0-2.283-.395-3.072-1.184-.789-.789-1.184-1.792-1.184-3.008 0-1.205.389-2.203 1.168-2.992.779-.8 1.781-1.2 3.008-1.2Zm0 1.024c-.832 0-1.531.245-2.096.736-.555.491-.885 1.136-.992 1.936h5.968c-.117-.853-.443-1.509-.976-1.968a2.866 2.866 0 0 0-1.904-.704Zm6.167-.832h5.728v8h-1.056v-6.976h-3.616v3.568c0 1.333-.256 2.251-.768 2.752-.501.501-1.194.72-2.08.656v-.992c.619.064 1.072-.085 1.36-.448.288-.363.432-1.019.432-1.968V189Zm14.845 1.568V189h1.056v8h-1.056v-1.568c-.736 1.173-1.813 1.76-3.232 1.76-1.141 0-2.117-.405-2.928-1.216-.8-.811-1.2-1.803-1.2-2.976s.4-2.165 1.2-2.976c.811-.811 1.787-1.216 2.928-1.216 1.419 0 2.496.587 3.232 1.76Zm-5.392 4.688c.608.608 1.355.912 2.24.912.885 0 1.632-.304 2.24-.912a3.132 3.132 0 0 0 .912-2.256c0-.885-.304-1.632-.912-2.24-.608-.619-1.355-.928-2.24-.928-.885 0-1.632.309-2.24.928-.608.608-.912 1.355-.912 2.24 0 .875.304 1.627.912 2.256Zm10.284 1.024a.849.849 0 0 1-.256.624.849.849 0 0 1-.624.256.849.849 0 0 1-.624-.256.849.849 0 0 1-.256-.624c0-.245.085-.453.256-.624a.849.849 0 0 1 .624-.256c.245 0 .453.085.624.256a.849.849 0 0 1 .256.624Zm15.096-10.48h1.392V197h-1.12v-9.504l-3.92 6.56h-.16l-3.92-6.56V197h-1.12v-11.2h1.392l3.728 6.24 3.728-6.24Zm4.844 6.24h2.192c.736 0 1.366.235 1.888.704.523.459.784 1.051.784 1.776 0 .736-.261 1.333-.784 1.792-.501.459-1.13.688-1.888.688h-3.248v-8h1.056v3.04Zm5.984 4.96v-8h1.056v8h-1.056Zm-5.984-1.024h2.192c.459 0 .843-.133 1.152-.4.31-.277.464-.629.464-1.056 0-.427-.154-.773-.464-1.04-.309-.277-.693-.416-1.152-.416h-2.192v2.912Zm17.416-3.088c.928.352 1.392.992 1.392 1.92 0 .672-.261 1.237-.784 1.696-.501.459-1.237.688-2.208.688-1.621 0-2.677-.64-3.168-1.92l.896-.528c.341.949 1.099 1.424 2.272 1.424.608 0 1.083-.128 1.424-.384a1.26 1.26 0 0 0 .512-1.04c0-.384-.139-.688-.416-.912-.277-.235-.651-.352-1.12-.352h-1.168v-1.024h.848c.459 0 .816-.112 1.072-.336.267-.235.4-.555.4-.96 0-.384-.16-.699-.48-.944-.309-.256-.72-.384-1.232-.384-.992 0-1.659.4-2 1.2l-.88-.512c.533-1.141 1.493-1.712 2.88-1.712.853 0 1.525.224 2.016.672.501.437.752.976.752 1.616 0 .821-.336 1.419-1.008 1.792Zm9.877-2.32V189h1.056v8h-1.056v-1.568c-.736 1.173-1.813 1.76-3.232 1.76-1.141 0-2.117-.405-2.928-1.216-.8-.811-1.2-1.803-1.2-2.976s.4-2.165 1.2-2.976c.811-.811 1.787-1.216 2.928-1.216 1.419 0 2.496.587 3.232 1.76Zm-5.392 4.688c.608.608 1.355.912 2.24.912.885 0 1.632-.304 2.24-.912a3.132 3.132 0 0 0 .912-2.256c0-.885-.304-1.632-.912-2.24-.608-.619-1.355-.928-2.24-.928-.885 0-1.632.309-2.24.928-.608.608-.912 1.355-.912 2.24 0 .875.304 1.627.912 2.256Zm12.236 1.936c-1.141 0-2.101-.379-2.88-1.136-.768-.768-1.152-1.76-1.152-2.976 0-1.365.203-2.411.608-3.136.405-.736 1.227-1.403 2.464-2 .395-.181.704-.32.928-.416.373-.149.667-.277.88-.384.928-.427 1.397-.955 1.408-1.584l.832.48a2.496 2.496 0 0 1-.256.72 2.825 2.825 0 0 1-.416.56c-.128.139-.331.288-.608.448-.181.107-.4.224-.656.352l-.8.336-.752.32c-.736.32-1.285.656-1.648 1.008-.352.341-.603.789-.752 1.344a3.181 3.181 0 0 1 1.344-1.04 4.127 4.127 0 0 1 1.68-.368c1.067 0 1.947.352 2.64 1.056.704.693 1.056 1.584 1.056 2.672 0 1.077-.373 1.973-1.12 2.688-.736.704-1.669 1.056-2.8 1.056Zm-2.08-1.84c.555.523 1.248.784 2.08.784.832 0 1.515-.251 2.048-.752.544-.512.816-1.157.816-1.936 0-.789-.256-1.435-.768-1.936-.501-.512-1.173-.768-2.016-.768-.757 0-1.445.24-2.064.72-.619.459-.928 1.088-.928 1.888 0 .811.277 1.477.832 2Zm14.31.64c-.821.8-1.813 1.2-2.976 1.2-1.184 0-2.181-.4-2.992-1.2-.811-.811-1.216-1.808-1.216-2.992s.405-2.176 1.216-2.976c.811-.811 1.808-1.216 2.992-1.216 1.173 0 2.165.405 2.976 1.216.821.8 1.232 1.792 1.232 2.976 0 1.173-.411 2.171-1.232 2.992Zm-5.216-.736c.608.608 1.355.912 2.24.912.885 0 1.632-.304 2.24-.912a3.132 3.132 0 0 0 .912-2.256c0-.885-.304-1.632-.912-2.24-.608-.619-1.355-.928-2.24-.928-.885 0-1.632.309-2.24.928-.608.608-.912 1.355-.912 2.24 0 .875.304 1.627.912 2.256Zm6.943-6.256h6.72v1.024h-2.832V197h-1.056v-6.976h-2.832V189Zm9.063 6.16 4.768-6.16h.896v8h-1.056v-6.16l-4.768 6.16h-.896v-8h1.056v6.16Zm14.521-6.16h1.216v8h-1.056v-6.384l-2.8 4.544h-.128l-2.8-4.544V197h-1.056v-8h1.216l2.704 4.384 2.704-4.384Zm7.182 8.192c-1.205 0-2.208-.4-3.008-1.2-.8-.821-1.2-1.819-1.2-2.992 0-1.184.4-2.176 1.2-2.976.8-.811 1.803-1.216 3.008-1.216.789 0 1.499.192 2.128.576.629.373 1.088.88 1.376 1.52l-.864.496a2.43 2.43 0 0 0-1.04-1.136 2.997 2.997 0 0 0-1.6-.432c-.885 0-1.632.309-2.24.928-.608.608-.912 1.355-.912 2.24 0 .875.304 1.627.912 2.256.608.608 1.355.912 2.24.912.587 0 1.115-.139 1.584-.416.48-.277.853-.661 1.12-1.152l.88.512a3.697 3.697 0 0 1-1.456 1.52c-.64.373-1.349.56-2.128.56Zm7.456-8.192h3.248v8h-1.056v-3.072h-1.376L944.453 197h-1.344l2.528-3.104c-.651-.096-1.184-.363-1.6-.8-.406-.448-.608-.987-.608-1.616 0-.715.256-1.307.768-1.776.533-.469 1.168-.704 1.904-.704Zm0 3.936h2.192v-2.912h-2.192c-.459 0-.843.139-1.152.416-.31.267-.464.613-.464 1.04 0 .427.154.779.464 1.056.309.267.693.4 1.152.4Zm16.192 3.056c-.822.8-1.814 1.2-2.976 1.2-1.184 0-2.182-.4-2.992-1.2-.811-.811-1.216-1.808-1.216-2.992s.405-2.176 1.216-2.976c.81-.811 1.808-1.216 2.992-1.216 1.173 0 2.165.405 2.976 1.216.821.8 1.232 1.792 1.232 2.976 0 1.173-.411 2.171-1.232 2.992Zm-5.216-.736c.608.608 1.354.912 2.24.912.885 0 1.632-.304 2.24-.912a3.132 3.132 0 0 0 .912-2.256c0-.885-.304-1.632-.912-2.24-.608-.619-1.355-.928-2.24-.928-.886 0-1.632.309-2.24.928-.608.608-.912 1.355-.912 2.24 0 .875.304 1.627.912 2.256Zm14.391-2.416 4.288 4.16h-1.408l-4-3.856V197h-1.056v-8h1.056v3.536l3.808-3.536h1.44l-4.128 3.84Zm11.637 3.152c-.821.8-1.813 1.2-2.976 1.2-1.184 0-2.181-.4-2.992-1.2-.81-.811-1.216-1.808-1.216-2.992s.406-2.176 1.216-2.976c.811-.811 1.808-1.216 2.992-1.216 1.174 0 2.166.405 2.976 1.216.822.8 1.232 1.792 1.232 2.976 0 1.173-.41 2.171-1.232 2.992Zm-5.216-.736c.608.608 1.355.912 2.24.912.886 0 1.632-.304 2.24-.912a3.132 3.132 0 0 0 .912-2.256c0-.885-.304-1.632-.912-2.24-.608-.619-1.354-.928-2.24-.928-.885 0-1.632.309-2.24.928-.608.608-.912 1.355-.912 2.24 0 .875.304 1.627.912 2.256ZM992.728 189h1.216v8h-1.056v-6.384l-2.8 4.544h-.128l-2.8-4.544V197h-1.056v-8h1.216l2.704 4.384 2.704-4.384Zm8.222 8.176v3.024h-1.055v-3.024c-1.27-.117-2.283-.56-3.04-1.328-.768-.789-1.152-1.739-1.152-2.848 0-1.109.384-2.059 1.152-2.848.757-.768 1.77-1.211 3.04-1.328V185.8h1.055v3.024c1.27.117 2.28.56 3.04 1.328.77.789 1.15 1.739 1.15 2.848 0 1.109-.38 2.059-1.15 2.848-.76.768-1.77 1.211-3.04 1.328Zm-1.055-1.04v-6.272c-.95.096-1.712.432-2.288 1.008-.566.576-.848 1.285-.848 2.128 0 .843.282 1.552.848 2.128.576.576 1.338.912 2.288 1.008Zm1.055-6.272v6.272c.95-.096 1.71-.432 2.27-1.008.58-.576.87-1.285.87-2.128 0-.843-.29-1.552-.87-2.128-.56-.576-1.32-.912-2.27-1.008Zm12.66 6.128c-.83.8-1.82 1.2-2.98 1.2-1.18 0-2.18-.4-2.99-1.2-.81-.811-1.22-1.808-1.22-2.992s.41-2.176 1.22-2.976c.81-.811 1.81-1.216 2.99-1.216 1.17 0 2.16.405 2.98 1.216.82.8 1.23 1.792 1.23 2.976 0 1.173-.41 2.171-1.23 2.992Zm-5.22-.736c.61.608 1.35.912 2.24.912.88 0 1.63-.304 2.24-.912.61-.629.91-1.381.91-2.256 0-.885-.3-1.632-.91-2.24-.61-.619-1.36-.928-2.24-.928-.89 0-1.63.309-2.24.928-.61.608-.91 1.355-.91 2.24 0 .875.3 1.627.91 2.256Zm12.5-6.448c1.14 0 2.11.405 2.91 1.216.82.811 1.22 1.803 1.22 2.976s-.4 2.165-1.22 2.976c-.8.811-1.77 1.216-2.91 1.216-1.42 0-2.49-.587-3.23-1.76v4.768h-1.06V189h1.06v1.568c.74-1.173 1.81-1.76 3.23-1.76Zm-2.32 6.448c.61.608 1.36.912 2.24.912.89 0 1.63-.304 2.24-.912.61-.629.91-1.381.91-2.256 0-.885-.3-1.632-.91-2.24-.61-.619-1.35-.928-2.24-.928-.88 0-1.63.309-2.24.928-.61.608-.91 1.355-.91 2.24 0 .875.3 1.627.91 2.256Zm6.93-6.256h6.72v1.024h-2.83V197h-1.05v-6.976h-2.84V189Zm11.39-.192c1.2 0 2.15.421 2.87 1.264.73.832 1.1 1.819 1.1 2.96 0 .053-.01.219-.03.496h-7.02c.1.8.44 1.44 1.02 1.92.58.48 1.3.72 2.16.72 1.22 0 2.07-.453 2.58-1.36l.92.544a3.693 3.693 0 0 1-1.45 1.36c-.61.32-1.3.48-2.07.48-1.25 0-2.28-.395-3.07-1.184-.79-.789-1.18-1.792-1.18-3.008 0-1.205.39-2.203 1.17-2.992.77-.8 1.78-1.2 3-1.2Zm0 1.024c-.83 0-1.53.245-2.09.736-.56.491-.89 1.136-.99 1.936h5.96c-.11-.853-.44-1.509-.97-1.968a2.881 2.881 0 0 0-1.91-.704ZM803.296 211.84l4.288 4.16h-1.408l-4-3.856V216h-1.056v-8h1.056v3.536l3.808-3.536h1.44l-4.128 3.84Zm11.813-2.272V208h1.056v8h-1.056v-1.568c-.736 1.173-1.813 1.76-3.232 1.76-1.141 0-2.117-.405-2.928-1.216-.8-.811-1.2-1.803-1.2-2.976s.4-2.165 1.2-2.976c.811-.811 1.787-1.216 2.928-1.216 1.419 0 2.496.587 3.232 1.76Zm-5.392 4.688c.608.608 1.355.912 2.24.912.886 0 1.632-.304 2.24-.912a3.132 3.132 0 0 0 .912-2.256c0-.885-.304-1.632-.912-2.24-.608-.619-1.354-.928-2.24-.928-.885 0-1.632.309-2.24.928-.608.608-.912 1.355-.912 2.24 0 .875.304 1.627.912 2.256Zm14.444-2.416 3.584 4.16h-1.28l-3.264-3.856V216h-1.056v-3.856L818.881 216h-1.28l3.584-4.16-3.424-3.84h1.28l3.104 3.552V208h1.056v3.552l3.104-3.552h1.28l-3.424 3.84Zm11.742-3.84v6.976h1.12v3.168h-1.056V216h-6.528v2.144h-1.056v-3.168h.976c.543-.725.815-1.733.815-3.024V208h5.729Zm-5.264 6.976h4.208v-5.952h-3.616v2.928c0 1.237-.198 2.245-.592 3.024Zm14.373.016c-.822.8-1.814 1.2-2.976 1.2-1.184 0-2.182-.4-2.992-1.2-.811-.811-1.216-1.808-1.216-2.992s.405-2.176 1.216-2.976c.81-.811 1.808-1.216 2.992-1.216 1.173 0 2.165.405 2.976 1.216.821.8 1.232 1.792 1.232 2.976 0 1.173-.411 2.171-1.232 2.992Zm-5.216-.736c.608.608 1.354.912 2.24.912.885 0 1.632-.304 2.24-.912a3.132 3.132 0 0 0 .912-2.256c0-.885-.304-1.632-.912-2.24-.608-.619-1.355-.928-2.24-.928-.886 0-1.632.309-2.24.928-.608.608-.912 1.355-.912 2.24 0 .875.304 1.627.912 2.256Zm8.215-6.256h5.12v1.024h-4.064V216h-1.056v-8Zm12.797 6.992c-.821.8-1.813 1.2-2.976 1.2-1.184 0-2.181-.4-2.992-1.2-.81-.811-1.216-1.808-1.216-2.992s.406-2.176 1.216-2.976c.811-.811 1.808-1.216 2.992-1.216 1.174 0 2.166.405 2.976 1.216.822.8 1.232 1.792 1.232 2.976 0 1.173-.41 2.171-1.232 2.992Zm-5.216-.736c.608.608 1.355.912 2.24.912.886 0 1.632-.304 2.24-.912a3.132 3.132 0 0 0 .912-2.256c0-.885-.304-1.632-.912-2.24-.608-.619-1.354-.928-2.24-.928-.885 0-1.632.309-2.24.928-.608.608-.912 1.355-.912 2.24 0 .875.304 1.627.912 2.256Zm15.944 1.936c-1.206 0-2.208-.4-3.008-1.2-.8-.821-1.2-1.819-1.2-2.992 0-1.184.4-2.176 1.2-2.976.8-.811 1.802-1.216 3.008-1.216.789 0 1.498.192 2.128.576.629.373 1.088.88 1.376 1.52l-.864.496a2.435 2.435 0 0 0-1.04-1.136 3 3 0 0 0-1.6-.432c-.886 0-1.632.309-2.24.928-.608.608-.912 1.355-.912 2.24 0 .875.304 1.627.912 2.256.608.608 1.354.912 2.24.912.586 0 1.114-.139 1.584-.416.48-.277.853-.661 1.12-1.152l.88.512a3.697 3.697 0 0 1-1.456 1.52 4.15 4.15 0 0 1-2.128.56Zm11.726-1.2c-.822.8-1.814 1.2-2.976 1.2-1.184 0-2.182-.4-2.992-1.2-.811-.811-1.216-1.808-1.216-2.992s.405-2.176 1.216-2.976c.81-.811 1.808-1.216 2.992-1.216 1.173 0 2.165.405 2.976 1.216.821.8 1.232 1.792 1.232 2.976 0 1.173-.411 2.171-1.232 2.992Zm-5.216-.736c.608.608 1.354.912 2.24.912.885 0 1.632-.304 2.24-.912a3.132 3.132 0 0 0 .912-2.256c0-.885-.304-1.632-.912-2.24-.608-.619-1.355-.928-2.24-.928-.886 0-1.632.309-2.24.928-.608.608-.912 1.355-.912 2.24 0 .875.304 1.627.912 2.256Zm6.942-6.256h6.72v1.024h-2.832V216h-1.056v-6.976h-2.832V208Zm12.295-.192c1.141 0 2.112.405 2.912 1.216.811.811 1.216 1.803 1.216 2.976s-.405 2.165-1.216 2.976c-.8.811-1.771 1.216-2.912 1.216-1.419 0-2.496-.587-3.232-1.76v4.768h-1.056V208h1.056v1.568c.736-1.173 1.813-1.76 3.232-1.76Zm-2.32 6.448c.608.608 1.355.912 2.24.912.885 0 1.632-.304 2.24-.912a3.132 3.132 0 0 0 .912-2.256c0-.885-.304-1.632-.912-2.24-.608-.619-1.355-.928-2.24-.928-.885 0-1.632.309-2.24.928-.608.608-.912 1.355-.912 2.24 0 .875.304 1.627.912 2.256Zm11.059.448 2.592-6.704h1.12l-3.424 8.736c-.32.811-.768 1.435-1.344 1.872-.565.448-1.194.645-1.888.592v-.992c.96.117 1.691-.437 2.192-1.664l.208-.496-3.584-8.048h1.12l3.008 6.704ZM917.246 208v6.976h1.12v3.168h-1.056V216h-6.528v2.144h-1.056v-3.168h.976c.544-.725.816-1.733.816-3.024V208h5.728Zm-5.264 6.976h4.208v-5.952h-3.616v2.928c0 1.237-.197 2.245-.592 3.024Zm13.646-3.488V208h1.056v8h-1.056v-3.488h-4.608V216h-1.056v-8h1.056v3.488h4.608Zm4.345 2.672 4.768-6.16h.896v8h-1.056v-6.16l-4.768 6.16h-.896v-8h1.056v6.16Zm10.073-2.32 4.288 4.16h-1.408l-4-3.856V216h-1.056v-8h1.056v3.536l3.808-3.536h1.44l-4.128 3.84Zm11.813-2.272V208h1.056v8h-1.056v-1.568c-.736 1.173-1.813 1.76-3.232 1.76-1.141 0-2.117-.405-2.928-1.216-.8-.811-1.2-1.803-1.2-2.976s.4-2.165 1.2-2.976c.811-.811 1.787-1.216 2.928-1.216 1.419 0 2.496.587 3.232 1.76Zm-5.392 4.688c.608.608 1.355.912 2.24.912.886 0 1.632-.304 2.24-.912a3.132 3.132 0 0 0 .912-2.256c0-.885-.304-1.632-.912-2.24-.608-.619-1.354-.928-2.24-.928-.885 0-1.632.309-2.24.928-.608.608-.912 1.355-.912 2.24 0 .875.304 1.627.912 2.256Zm9.164.384h1.28l-.96 3.6h-.96l.64-3.6Zm11.092 1.552c-1.205 0-2.208-.4-3.008-1.2-.8-.821-1.2-1.819-1.2-2.992 0-1.184.4-2.176 1.2-2.976.8-.811 1.803-1.216 3.008-1.216.789 0 1.499.192 2.128.576.629.373 1.088.88 1.376 1.52l-.864.496a2.43 2.43 0 0 0-1.04-1.136 2.997 2.997 0 0 0-1.6-.432c-.885 0-1.632.309-2.24.928-.608.608-.912 1.355-.912 2.24 0 .875.304 1.627.912 2.256.608.608 1.355.912 2.24.912.587 0 1.115-.139 1.584-.416.48-.277.853-.661 1.12-1.152l.88.512a3.697 3.697 0 0 1-1.456 1.52c-.64.373-1.349.56-2.128.56Zm3.984-8.192h6.72v1.024h-2.832V216h-1.056v-6.976h-2.832V208Zm14.574 1.568V208h1.056v8h-1.056v-1.568c-.736 1.173-1.813 1.76-3.232 1.76-1.141 0-2.117-.405-2.928-1.216-.8-.811-1.2-1.803-1.2-2.976s.4-2.165 1.2-2.976c.811-.811 1.787-1.216 2.928-1.216 1.419 0 2.496.587 3.232 1.76Zm-5.392 4.688c.608.608 1.355.912 2.24.912.886 0 1.632-.304 2.24-.912a3.132 3.132 0 0 0 .912-2.256c0-.885-.304-1.632-.912-2.24-.608-.619-1.354-.928-2.24-.928-.885 0-1.632.309-2.24.928-.608.608-.912 1.355-.912 2.24 0 .875.304 1.627.912 2.256Zm12.972-6.448c1.141 0 2.112.405 2.912 1.216.811.811 1.216 1.803 1.216 2.976s-.405 2.165-1.216 2.976c-.8.811-1.771 1.216-2.912 1.216-1.419 0-2.496-.587-3.232-1.76v4.768h-1.056V208h1.056v1.568c.736-1.173 1.813-1.76 3.232-1.76Zm-2.32 6.448c.608.608 1.355.912 2.24.912.885 0 1.632-.304 2.24-.912a3.132 3.132 0 0 0 .912-2.256c0-.885-.304-1.632-.912-2.24-.608-.619-1.355-.928-2.24-.928-.885 0-1.632.309-2.24.928-.608.608-.912 1.355-.912 2.24 0 .875.304 1.627.912 2.256Zm15.079-4.688V208h1.06v8h-1.06v-1.568c-.73 1.173-1.81 1.76-3.23 1.76-1.14 0-2.11-.405-2.925-1.216-.8-.811-1.2-1.803-1.2-2.976s.4-2.165 1.2-2.976c.815-.811 1.785-1.216 2.925-1.216 1.42 0 2.5.587 3.23 1.76Zm-5.39 4.688c.61.608 1.36.912 2.24.912.89 0 1.64-.304 2.24-.912.61-.629.91-1.381.91-2.256 0-.885-.3-1.632-.91-2.24-.6-.619-1.35-.928-2.24-.928-.88 0-1.63.309-2.24.928-.605.608-.909 1.355-.909 2.24 0 .875.304 1.627.909 2.256Zm11.2-6.256h3.25v8h-1.06v-3.072h-1.38l-2.46 3.072h-1.34l2.52-3.104c-.65-.096-1.18-.363-1.6-.8-.4-.448-.6-.987-.6-1.616 0-.715.25-1.307.76-1.776a2.808 2.808 0 0 1 1.91-.704Zm0 3.936h2.19v-2.912h-2.19c-.46 0-.84.139-1.15.416-.31.267-.47.613-.47 1.04 0 .427.16.779.47 1.056.31.267.69.4 1.15.4Zm9.21 4.256c-1.2 0-2.2-.4-3-1.2-.8-.821-1.2-1.819-1.2-2.992 0-1.184.4-2.176 1.2-2.976.8-.811 1.8-1.216 3-1.216.79 0 1.5.192 2.13.576.63.373 1.09.88 1.38 1.52l-.87.496c-.21-.48-.56-.859-1.04-1.136-.46-.288-1-.432-1.6-.432-.88 0-1.63.309-2.24.928-.6.608-.91 1.355-.91 2.24 0 .875.31 1.627.91 2.256.61.608 1.36.912 2.24.912.59 0 1.12-.139 1.59-.416.48-.277.85-.661 1.12-1.152l.88.512a3.7 3.7 0 0 1-1.46 1.52c-.64.373-1.35.56-2.13.56Zm6.16-5.152h2.19c.74 0 1.37.235 1.89.704.52.459.79 1.051.79 1.776 0 .736-.27 1.333-.79 1.792-.5.459-1.13.688-1.89.688h-3.24v-8h1.05v3.04Zm0 3.936h2.19c.46 0 .85-.133 1.16-.4.3-.277.46-.629.46-1.056 0-.427-.16-.773-.46-1.04-.31-.277-.7-.416-1.16-.416h-2.19v2.912Zm-218.976 19.016c-.821.8-1.813 1.2-2.976 1.2-1.184 0-2.181-.4-2.992-1.2-.811-.811-1.216-1.808-1.216-2.992s.405-2.176 1.216-2.976c.811-.811 1.808-1.216 2.992-1.216 1.173 0 2.165.405 2.976 1.216.821.8 1.232 1.792 1.232 2.976 0 1.173-.411 2.171-1.232 2.992Zm-5.216-.736c.608.608 1.355.912 2.24.912.885 0 1.632-.304 2.24-.912A3.132 3.132 0 0 0 808 231c0-.885-.304-1.632-.912-2.24-.608-.619-1.355-.928-2.24-.928-.885 0-1.632.309-2.24.928-.608.608-.912 1.355-.912 2.24 0 .875.304 1.627.912 2.256Zm11.767 1.936c-1.141 0-2.101-.379-2.88-1.136-.768-.768-1.152-1.76-1.152-2.976 0-1.365.203-2.411.608-3.136.405-.736 1.227-1.403 2.464-2 .395-.181.704-.32.928-.416.373-.149.667-.277.88-.384.928-.427 1.397-.955 1.408-1.584l.832.48a2.496 2.496 0 0 1-.256.72 2.825 2.825 0 0 1-.416.56c-.128.139-.331.288-.608.448-.181.107-.4.224-.656.352l-.8.336-.752.32c-.736.32-1.285.656-1.648 1.008-.352.341-.603.789-.752 1.344a3.181 3.181 0 0 1 1.344-1.04 4.127 4.127 0 0 1 1.68-.368c1.067 0 1.947.352 2.64 1.056.704.693 1.056 1.584 1.056 2.672 0 1.077-.373 1.973-1.12 2.688-.736.704-1.669 1.056-2.8 1.056Zm-2.08-1.84c.555.523 1.248.784 2.08.784.832 0 1.515-.251 2.048-.752.544-.512.816-1.157.816-1.936 0-.789-.256-1.435-.768-1.936-.501-.512-1.173-.768-2.016-.768-.757 0-1.445.24-2.064.72-.619.459-.928 1.088-.928 1.888 0 .811.277 1.477.832 2Zm11.302-6.544c1.195 0 2.15.421 2.864 1.264.736.832 1.104 1.819 1.104 2.96 0 .053-.01.219-.032.496h-7.024c.107.8.448 1.44 1.024 1.92.576.48 1.296.72 2.16.72 1.216 0 2.075-.453 2.576-1.36l.928.544a3.73 3.73 0 0 1-1.456 1.36c-.608.32-1.296.48-2.064.48-1.258 0-2.282-.395-3.072-1.184-.789-.789-1.184-1.792-1.184-3.008 0-1.205.39-2.203 1.168-2.992.779-.8 1.782-1.2 3.008-1.2Zm0 1.024c-.832 0-1.53.245-2.096.736-.554.491-.885 1.136-.992 1.936h5.968c-.117-.853-.442-1.509-.976-1.968a2.864 2.864 0 0 0-1.904-.704Zm9.376 7.36c-1.205 0-2.208-.4-3.008-1.2-.8-.821-1.2-1.819-1.2-2.992 0-1.184.4-2.176 1.2-2.976.8-.811 1.803-1.216 3.008-1.216.789 0 1.499.192 2.128.576.629.373 1.088.88 1.376 1.52l-.864.496a2.43 2.43 0 0 0-1.04-1.136 2.997 2.997 0 0 0-1.6-.432c-.885 0-1.632.309-2.24.928-.608.608-.912 1.355-.912 2.24 0 .875.304 1.627.912 2.256.608.608 1.355.912 2.24.912.587 0 1.115-.139 1.584-.416.48-.277.853-.661 1.12-1.152l.88.512a3.697 3.697 0 0 1-1.456 1.52c-.64.373-1.349.56-2.128.56Zm5.1-8.192h6.72v8h-1.056v-6.976h-4.608V235h-1.056v-8Zm12.649-.192c1.195 0 2.15.421 2.864 1.264.736.832 1.104 1.819 1.104 2.96 0 .053-.01.219-.032.496h-7.024c.107.8.448 1.44 1.024 1.92.576.48 1.296.72 2.16.72 1.216 0 2.075-.453 2.576-1.36l.928.544a3.73 3.73 0 0 1-1.456 1.36c-.608.32-1.296.48-2.064.48-1.258 0-2.282-.395-3.072-1.184-.789-.789-1.184-1.792-1.184-3.008 0-1.205.39-2.203 1.168-2.992.779-.8 1.782-1.2 3.008-1.2Zm0 1.024c-.832 0-1.53.245-2.096.736-.554.491-.885 1.136-.992 1.936h5.968c-.117-.853-.442-1.509-.976-1.968a2.864 2.864 0 0 0-1.904-.704Zm10.832 3.152V227h1.056v8h-1.056v-3.04c-.619.32-1.381.48-2.288.48-1.056 0-1.856-.24-2.4-.72-.544-.491-.816-1.211-.816-2.16V227h1.056v2.56c0 .661.171 1.141.512 1.44.352.299.891.448 1.616.448.811 0 1.584-.155 2.32-.464Zm4.356 2.176 4.768-6.16h.896v8h-1.056v-6.16L865.75 235h-.896v-8h1.056v6.16Zm6.938-6.16h6.72v1.024h-2.832V235h-1.056v-6.976h-2.832V227Zm9.062 3.04h2.192c.736 0 1.366.235 1.888.704.523.459.784 1.051.784 1.776 0 .736-.261 1.333-.784 1.792-.501.459-1.13.688-1.888.688h-3.248v-8h1.056v3.04Zm0 3.936h2.192c.459 0 .843-.133 1.152-.4.31-.277.464-.629.464-1.056 0-.427-.154-.773-.464-1.04-.309-.277-.693-.416-1.152-.416h-2.192v2.912ZM898.994 227h1.216v8h-1.056v-6.384l-2.8 4.544h-.128l-2.8-4.544V235h-1.056v-8h1.216l2.704 4.384 2.704-4.384Zm10.334 1.568V227h1.056v8h-1.056v-1.568c-.736 1.173-1.813 1.76-3.232 1.76-1.141 0-2.117-.405-2.928-1.216-.8-.811-1.2-1.803-1.2-2.976s.4-2.165 1.2-2.976c.811-.811 1.787-1.216 2.928-1.216 1.419 0 2.496.587 3.232 1.76Zm-5.392 4.688c.608.608 1.355.912 2.24.912.885 0 1.632-.304 2.24-.912a3.132 3.132 0 0 0 .912-2.256c0-.885-.304-1.632-.912-2.24-.608-.619-1.355-.928-2.24-.928-.885 0-1.632.309-2.24.928-.608.608-.912 1.355-.912 2.24 0 .875.304 1.627.912 2.256Zm10.86-2.416 4.288 4.16h-1.408l-4-3.856V235h-1.056v-8h1.056v3.536l3.808-3.536h1.44l-4.128 3.84Zm8.661 4.352c-1.205 0-2.208-.4-3.008-1.2-.8-.821-1.2-1.819-1.2-2.992 0-1.184.4-2.176 1.2-2.976.8-.811 1.803-1.216 3.008-1.216.79 0 1.499.192 2.128.576.63.373 1.088.88 1.376 1.52l-.864.496a2.43 2.43 0 0 0-1.04-1.136 2.995 2.995 0 0 0-1.6-.432c-.885 0-1.632.309-2.24.928-.608.608-.912 1.355-.912 2.24 0 .875.304 1.627.912 2.256.608.608 1.355.912 2.24.912.587 0 1.115-.139 1.584-.416a2.9 2.9 0 0 0 1.12-1.152l.88.512a3.691 3.691 0 0 1-1.456 1.52c-.64.373-1.349.56-2.128.56Zm6.157-2.032 4.768-6.16h.896v8h-1.056v-6.16l-4.768 6.16h-.896v-8h1.056v6.16Zm14.521-6.16h1.216v8h-1.056v-6.384l-2.8 4.544h-.128l-2.8-4.544V235h-1.056v-8h1.216l2.704 4.384 2.704-4.384Zm10.334 1.568V227h1.056v8h-1.056v-1.568c-.736 1.173-1.814 1.76-3.232 1.76-1.142 0-2.118-.405-2.928-1.216-.8-.811-1.2-1.803-1.2-2.976s.4-2.165 1.2-2.976c.81-.811 1.786-1.216 2.928-1.216 1.418 0 2.496.587 3.232 1.76Zm-5.392 4.688c.608.608 1.354.912 2.24.912.885 0 1.632-.304 2.24-.912a3.132 3.132 0 0 0 .912-2.256c0-.885-.304-1.632-.912-2.24-.608-.619-1.355-.928-2.24-.928-.886 0-1.632.309-2.24.928-.608.608-.912 1.355-.912 2.24 0 .875.304 1.627.912 2.256Zm9.516-6.256h5.728v8h-1.056v-6.976h-3.616v3.568c0 1.333-.256 2.251-.768 2.752-.502.501-1.195.72-2.08.656v-.992c.618.064 1.072-.085 1.36-.448.288-.363.432-1.019.432-1.968V227Zm9.021 3.04h2.192c.736 0 1.365.235 1.888.704.522.459.784 1.051.784 1.776 0 .736-.262 1.333-.784 1.792-.502.459-1.131.688-1.888.688h-3.248v-8h1.056v3.04Zm0 3.936h2.192c.458 0 .842-.133 1.152-.4.309-.277.464-.629.464-1.056a1.31 1.31 0 0 0-.464-1.04c-.31-.277-.694-.416-1.152-.416h-2.192v2.912Zm12.123-3.488V227h1.056v8h-1.056v-3.488h-4.608V235h-1.056v-8h1.056v3.488h4.608Zm9.993 3.504c-.821.8-1.813 1.2-2.976 1.2-1.184 0-2.181-.4-2.992-1.2-.81-.811-1.216-1.808-1.216-2.992s.406-2.176 1.216-2.976c.811-.811 1.808-1.216 2.992-1.216 1.174 0 2.166.405 2.976 1.216.822.8 1.232 1.792 1.232 2.976 0 1.173-.41 2.171-1.232 2.992Zm-5.216-.736c.608.608 1.355.912 2.24.912.886 0 1.632-.304 2.24-.912a3.132 3.132 0 0 0 .912-2.256c0-.885-.304-1.632-.912-2.24-.608-.619-1.354-.928-2.24-.928-.885 0-1.632.309-2.24.928-.608.608-.912 1.355-.912 2.24 0 .875.304 1.627.912 2.256Zm14.391-2.416 4.285 4.16h-1.4l-4.005-3.856V235h-1.056v-8h1.056v3.536l3.805-3.536h1.44l-4.125 3.84Zm11.635 3.152c-.82.8-1.81 1.2-2.97 1.2-1.19 0-2.18-.4-3-1.2-.81-.811-1.21-1.808-1.21-2.992s.4-2.176 1.21-2.976c.82-.811 1.81-1.216 3-1.216 1.17 0 2.16.405 2.97 1.216.82.8 1.23 1.792 1.23 2.976 0 1.173-.41 2.171-1.23 2.992Zm-5.21-.736c.6.608 1.35.912 2.24.912.88 0 1.63-.304 2.24-.912.6-.629.91-1.381.91-2.256 0-.885-.31-1.632-.91-2.24-.61-.619-1.36-.928-2.24-.928-.89 0-1.64.309-2.24.928-.61.608-.92 1.355-.92 2.24 0 .875.31 1.627.92 2.256Zm14.84-6.256h1.21v8h-1.05v-6.384l-2.8 4.544h-.13l-2.8-4.544V235h-1.06v-8h1.22l2.7 4.384 2.71-4.384Zm8.22 8.176v3.024h-1.06v-3.024c-1.27-.117-2.28-.56-3.04-1.328-.77-.789-1.15-1.739-1.15-2.848 0-1.109.38-2.059 1.15-2.848.76-.768 1.77-1.211 3.04-1.328V223.8h1.06v3.024c1.27.117 2.28.56 3.04 1.328.77.789 1.15 1.739 1.15 2.848 0 1.109-.38 2.059-1.15 2.848-.76.768-1.77 1.211-3.04 1.328Zm-1.06-1.04v-6.272c-.95.096-1.71.432-2.29 1.008-.56.576-.84 1.285-.84 2.128 0 .843.28 1.552.84 2.128.58.576 1.34.912 2.29 1.008Zm1.06-6.272v6.272c.95-.096 1.7-.432 2.27-1.008.58-.576.86-1.285.86-2.128 0-.843-.28-1.552-.86-2.128-.57-.576-1.32-.912-2.27-1.008Zm12.65 6.128c-.82.8-1.81 1.2-2.97 1.2-1.19 0-2.18-.4-3-1.2-.81-.811-1.21-1.808-1.21-2.992s.4-2.176 1.21-2.976c.82-.811 1.81-1.216 3-1.216 1.17 0 2.16.405 2.97 1.216.82.8 1.23 1.792 1.23 2.976 0 1.173-.41 2.171-1.23 2.992Zm-5.21-.736c.6.608 1.35.912 2.24.912.88 0 1.63-.304 2.24-.912.6-.629.91-1.381.91-2.256 0-.885-.31-1.632-.91-2.24-.61-.619-1.36-.928-2.24-.928-.89 0-1.64.309-2.24.928-.61.608-.92 1.355-.92 2.24 0 .875.31 1.627.92 2.256Zm12.5-6.448c1.14 0 2.11.405 2.91 1.216.81.811 1.22 1.803 1.22 2.976s-.41 2.165-1.22 2.976c-.8.811-1.77 1.216-2.91 1.216-1.42 0-2.5-.587-3.23-1.76v4.768h-1.06V227h1.06v1.568c.73-1.173 1.81-1.76 3.23-1.76Zm-2.32 6.448c.61.608 1.35.912 2.24.912.89 0 1.63-.304 2.24-.912.61-.629.91-1.381.91-2.256 0-.885-.3-1.632-.91-2.24-.61-.619-1.35-.928-2.24-.928-.89 0-1.63.309-2.24.928-.61.608-.91 1.355-.91 2.24 0 .875.3 1.627.91 2.256Zm6.93-6.256h6.72v1.024h-2.83V235h-1.06v-6.976h-2.83V227Zm13.67 3.488V227h1.06v8h-1.06v-3.488H1062V235h-1.05v-8h1.05v3.488h4.61Zm4.35-.448h2.19c.74 0 1.36.235 1.89.704.52.459.78 1.051.78 1.776 0 .736-.26 1.333-.78 1.792-.5.459-1.13.688-1.89.688h-3.25v-8h1.06v3.04Zm5.98 4.96v-8h1.06v8h-1.06Zm-5.98-1.024h2.19c.46 0 .84-.133 1.15-.4.31-.277.47-.629.47-1.056 0-.427-.16-.773-.47-1.04-.31-.277-.69-.416-1.15-.416h-2.19v2.912Zm12.98-7.168c1.2 0 2.15.421 2.87 1.264.73.832 1.1 1.819 1.1 2.96 0 .053-.01.219-.03.496h-7.03c.11.8.45 1.44 1.03 1.92.57.48 1.29.72 2.16.72 1.21 0 2.07-.453 2.57-1.36l.93.544a3.761 3.761 0 0 1-1.45 1.36c-.61.32-1.3.48-2.07.48-1.26 0-2.28-.395-3.07-1.184-.79-.789-1.18-1.792-1.18-3.008 0-1.205.38-2.203 1.16-2.992.78-.8 1.78-1.2 3.01-1.2Zm0 1.024c-.83 0-1.53.245-2.09.736-.56.491-.89 1.136-1 1.936h5.97c-.12-.853-.44-1.509-.97-1.968a2.881 2.881 0 0 0-1.91-.704Zm-279.652 24.872L806.88 246H808l-3.424 8.736c-.32.811-.768 1.435-1.344 1.872-.565.448-1.195.645-1.888.592v-.992c.96.117 1.691-.437 2.192-1.664l.208-.496L800.16 246h1.12l3.008 6.704Zm8.404 1.488c-1.206 0-2.208-.4-3.008-1.2-.8-.821-1.2-1.819-1.2-2.992 0-1.184.4-2.176 1.2-2.976.8-.811 1.802-1.216 3.008-1.216.789 0 1.498.192 2.128.576.629.373 1.088.88 1.376 1.52l-.864.496a2.435 2.435 0 0 0-1.04-1.136 3 3 0 0 0-1.6-.432c-.886 0-1.632.309-2.24.928-.608.608-.912 1.355-.912 2.24 0 .875.304 1.627.912 2.256.608.608 1.354.912 2.24.912.586 0 1.114-.139 1.584-.416.48-.277.853-.661 1.12-1.152l.88.512a3.697 3.697 0 0 1-1.456 1.52 4.15 4.15 0 0 1-2.128.56Zm5.776-8.192h5.728v8h-1.056v-6.976h-3.616v3.568c0 1.333-.256 2.251-.768 2.752-.502.501-1.195.72-2.08.656v-.992c.618.064 1.072-.085 1.36-.448.288-.363.432-1.019.432-1.968V246Zm14.669 6.992c-.822.8-1.814 1.2-2.976 1.2-1.184 0-2.182-.4-2.992-1.2-.811-.811-1.216-1.808-1.216-2.992s.405-2.176 1.216-2.976c.81-.811 1.808-1.216 2.992-1.216 1.173 0 2.165.405 2.976 1.216.821.8 1.232 1.792 1.232 2.976 0 1.173-.411 2.171-1.232 2.992Zm-5.216-.736c.608.608 1.354.912 2.24.912.885 0 1.632-.304 2.24-.912a3.131 3.131 0 0 0 .911-2.256c0-.885-.303-1.632-.911-2.24-.608-.619-1.355-.928-2.24-.928-.886 0-1.632.309-2.24.928-.608.608-.912 1.355-.912 2.24 0 .875.304 1.627.912 2.256Zm13.303-2.368c.874.32 1.312.944 1.312 1.872 0 .661-.224 1.2-.672 1.616-.438.416-1.051.624-1.84.624h-3.888v-8h3.568c.768 0 1.365.197 1.792.592.437.395.656.912.656 1.552 0 .8-.31 1.381-.928 1.744Zm-1.52-2.864h-2.512v2.432h2.512c.928 0 1.392-.416 1.392-1.248 0-.373-.123-.661-.368-.864-.235-.213-.576-.32-1.024-.32Zm-2.512 5.952h2.832c.469 0 .826-.112 1.072-.336.256-.224.384-.539.384-.944 0-.384-.128-.683-.384-.896-.246-.213-.603-.32-1.072-.32h-2.832v2.496Zm8-.816 4.768-6.16h.896v8H849.8v-6.16l-4.768 6.16h-.896v-8h1.056v6.16Zm10.409-6.16h3.248v8h-1.056v-3.072h-1.376L853.953 254h-1.344l2.528-3.104c-.651-.096-1.184-.363-1.6-.8-.406-.448-.608-.987-.608-1.616 0-.715.256-1.307.768-1.776.533-.469 1.168-.704 1.904-.704Zm0 3.936h2.192v-2.912h-2.192c-.459 0-.843.139-1.152.416-.31.267-.464.613-.464 1.04 0 .427.154.779.464 1.056.309.267.693.4 1.152.4Zm8.528-3.936h6.72v1.024h-2.832V254h-1.056v-6.976h-2.832V246Zm12.295-.192c1.141 0 2.112.405 2.912 1.216.81.811 1.216 1.803 1.216 2.976s-.406 2.165-1.216 2.976c-.8.811-1.771 1.216-2.912 1.216-1.419 0-2.496-.587-3.232-1.76v4.768h-1.056V246h1.056v1.568c.736-1.173 1.813-1.76 3.232-1.76Zm-2.32 6.448c.608.608 1.354.912 2.24.912.885 0 1.632-.304 2.24-.912a3.132 3.132 0 0 0 .912-2.256c0-.885-.304-1.632-.912-2.24-.608-.619-1.355-.928-2.24-.928-.886 0-1.632.309-2.24.928-.608.608-.912 1.355-.912 2.24 0 .875.304 1.627.912 2.256Zm11.059.448 2.592-6.704h1.12l-3.424 8.736c-.32.811-.768 1.435-1.344 1.872-.565.448-1.195.645-1.888.592v-.992c.96.117 1.691-.437 2.192-1.664l.208-.496-3.584-8.048h1.12l3.008 6.704ZM896.387 246v6.976h1.12v3.168h-1.056V254h-6.528v2.144h-1.056v-3.168h.976c.544-.725.816-1.733.816-3.024V246h5.728Zm-5.264 6.976h4.208v-5.952h-3.616v2.928c0 1.237-.197 2.245-.592 3.024Zm14.549-5.408V246h1.056v8h-1.056v-1.568c-.736 1.173-1.813 1.76-3.232 1.76-1.141 0-2.117-.405-2.928-1.216-.8-.811-1.2-1.803-1.2-2.976s.4-2.165 1.2-2.976c.811-.811 1.787-1.216 2.928-1.216 1.419 0 2.496.587 3.232 1.76Zm-5.392 4.688c.608.608 1.355.912 2.24.912.885 0 1.632-.304 2.24-.912a3.132 3.132 0 0 0 .912-2.256c0-.885-.304-1.632-.912-2.24-.608-.619-1.355-.928-2.24-.928-.885 0-1.632.309-2.24.928-.608.608-.912 1.355-.912 2.24 0 .875.304 1.627.912 2.256Zm10.284 1.024a.853.853 0 0 1-.256.624.849.849 0 0 1-.624.256.846.846 0 0 1-.624-.256.849.849 0 0 1-.256-.624c0-.245.085-.453.256-.624a.846.846 0 0 1 .624-.256c.245 0 .453.085.624.256.17.171.256.379.256.624Z" fill="#2A2A2A"/><defs><filter id="a" x="843.6" y="911.6" width="90" height="90" filterUnits="userSpaceOnUse" color-interpolation-filters="sRGB"><feFlood flood-opacity="0" result="BackgroundImageFix"/><feColorMatrix in="SourceAlpha" values="0 0 0 0 0 0 0 0 0 0 0 0 0 0 0 0 0 0 127 0" result="hardAlpha"/><feOffset dx="3.6" dy="3.6"/><feGaussianBlur stdDeviation="7.5"/><feColorMatrix values="0 0 0 0 0.164706 0 0 0 0 0.164706 0 0 0 0 0.164706 0 0 0 0.15 0"/><feBlend mode="multiply" in2="BackgroundImageFix" result="effect1_dropShadow_103_802"/><feBlend in="SourceGraphic" in2="effect1_dropShadow_103_802" result="shape"/></filter><filter id="b" x="858" y="932" width="54" height="54" filterUnits="userSpaceOnUse" color-interpolation-filters="sRGB"><feFlood flood-opacity="0" result="BackgroundImageFix"/><feColorMatrix in="SourceAlpha" values="0 0 0 0 0 0 0 0 0 0 0 0 0 0 0 0 0 0 127 0" result="hardAlpha"/><feOffset dy="6"/><feGaussianBlur stdDeviation="6"/><feComposite in2="hardAlpha" operator="out"/><feColorMatrix values="0 0 0 0 0.776471 0 0 0 0 0.12549 0 0 0 0 0.172549 0 0 0 0.3 0"/><feBlend in2="BackgroundImageFix" result="effect1_dropShadow_103_802"/><feBlend in="SourceGraphic" in2="effect1_dropShadow_103_802" result="shape"/></filter><filter id="c" x="1093.6" y="730.6" width="90" height="90" filterUnits="userSpaceOnUse" color-interpolation-filters="sRGB"><feFlood flood-opacity="0" result="BackgroundImageFix"/><feColorMatrix in="SourceAlpha" values="0 0 0 0 0 0 0 0 0 0 0 0 0 0 0 0 0 0 127 0" result="hardAlpha"/><feOffset dx="3.6" dy="3.6"/><feGaussianBlur stdDeviation="7.5"/><feColorMatrix values="0 0 0 0 0.164706 0 0 0 0 0.164706 0 0 0 0 0.164706 0 0 0 0.15 0"/><feBlend mode="multiply" in2="BackgroundImageFix" result="effect1_dropShadow_103_802"/><feBlend in="SourceGraphic" in2="effect1_dropShadow_103_802" result="shape"/></filter><filter id="d" x="1108" y="751" width="54" height="54" filterUnits="userSpaceOnUse" color-interpolation-filters="sRGB"><feFlood flood-opacity="0" result="BackgroundImageFix"/><feColorMatrix in="SourceAlpha" values="0 0 0 0 0 0 0 0 0 0 0 0 0 0 0 0 0 0 127 0" result="hardAlpha"/><feOffset dy="6"/><feGaussianBlur stdDeviation="6"/><feComposite in2="hardAlpha" operator="out"/><feColorMatrix values="0 0 0 0 0.776471 0 0 0 0 0.12549 0 0 0 0 0.172549 0 0 0 0.3 0"/><feBlend in2="BackgroundImageFix" result="effect1_dropShadow_103_802"/><feBlend in="SourceGraphic" in2="effect1_dropShadow_103_802" result="shape"/></filter><filter id="e" x="1388.6" y="432.6" width="90" height="90" filterUnits="userSpaceOnUse" color-interpolation-filters="sRGB"><feFlood flood-opacity="0" result="BackgroundImageFix"/><feColorMatrix in="SourceAlpha" values="0 0 0 0 0 0 0 0 0 0 0 0 0 0 0 0 0 0 127 0" result="hardAlpha"/><feOffset dx="3.6" dy="3.6"/><feGaussianBlur stdDeviation="7.5"/><feColorMatrix values="0 0 0 0 0.164706 0 0 0 0 0.164706 0 0 0 0 0.164706 0 0 0 0.15 0"/><feBlend mode="multiply" in2="BackgroundImageFix" result="effect1_dropShadow_103_802"/><feBlend in="SourceGraphic" in2="effect1_dropShadow_103_802" result="shape"/></filter><filter id="f" x="1403" y="453" width="54" height="54" filterUnits="userSpaceOnUse" color-interpolation-filters="sRGB"><feFlood flood-opacity="0" result="BackgroundImageFix"/><feColorMatrix in="SourceAlpha" values="0 0 0 0 0 0 0 0 0 0 0 0 0 0 0 0 0 0 127 0" result="hardAlpha"/><feOffset dy="6"/><feGaussianBlur stdDeviation="6"/><feComposite in2="hardAlpha" operator="out"/><feColorMatrix values="0 0 0 0 0.776471 0 0 0 0 0.12549 0 0 0 0 0.172549 0 0 0 0.3 0"/><feBlend in2="BackgroundImageFix" result="effect1_dropShadow_103_802"/><feBlend in="SourceGraphic" in2="effect1_dropShadow_103_802" result="shape"/></filter><filter id="g" x="1069" y="132" width="140" height="140" filterUnits="userSpaceOnUse" color-interpolation-filters="sRGB"><feFlood flood-opacity="0" result="BackgroundImageFix"/><feColorMatrix in="SourceAlpha" values="0 0 0 0 0 0 0 0 0 0 0 0 0 0 0 0 0 0 127 0" result="hardAlpha"/><feOffset dx="4" dy="4"/><feGaussianBlur stdDeviation="10"/><feColorMatrix values="0 0 0 0 0.164706 0 0 0 0 0.164706 0 0 0 0 0.164706 0 0 0 0.1 0"/><feBlend mode="multiply" in2="BackgroundImageFix" result="effect1_dropShadow_103_802"/><feBlend in="SourceGraphic" in2="effect1_dropShadow_103_802" result="shape"/></filter><filter id="h" x="1108" y="177" width="54" height="54" filterUnits="userSpaceOnUse" color-interpolation-filters="sRGB"><feFlood flood-opacity="0" result="BackgroundImageFix"/><feColorMatrix in="SourceAlpha" values="0 0 0 0 0 0 0 0 0 0 0 0 0 0 0 0 0 0 127 0" result="hardAlpha"/><feOffset dy="6"/><feGaussianBlur stdDeviation="6"/><feComposite in2="hardAlpha" operator="out"/><feColorMatrix values="0 0 0 0 0.776471 0 0 0 0 0.12549 0 0 0 0 0.172549 0 0 0 0.3 0"/><feBlend in2="BackgroundImageFix" result="effect1_dropShadow_103_802"/><feBlend in="SourceGraphic" in2="effect1_dropShadow_103_802" result="shape"/></filter><filter id="i" x="698.6" y="268.6" width="90" height="90" filterUnits="userSpaceOnUse" color-interpolation-filters="sRGB"><feFlood flood-opacity="0" result="BackgroundImageFix"/><feColorMatrix in="SourceAlpha" values="0 0 0 0 0 0 0 0 0 0 0 0 0 0 0 0 0 0 127 0" result="hardAlpha"/><feOffset dx="3.6" dy="3.6"/><feGaussianBlur stdDeviation="7.5"/><feColorMatrix values="0 0 0 0 0.164706 0 0 0 0 0.164706 0 0 0 0 0.164706 0 0 0 0.15 0"/><feBlend mode="multiply" in2="BackgroundImageFix" result="effect1_dropShadow_103_802"/><feBlend in="SourceGraphic" in2="effect1_dropShadow_103_802" result="shape"/></filter><filter id="j" x="713" y="289" width="54" height="54" filterUnits="userSpaceOnUse" color-interpolation-filters="sRGB"><feFlood flood-opacity="0" result="BackgroundImageFix"/><feColorMatrix in="SourceAlpha" values="0 0 0 0 0 0 0 0 0 0 0 0 0 0 0 0 0 0 127 0" result="hardAlpha"/><feOffset dy="6"/><feGaussianBlur stdDeviation="6"/><feComposite in2="hardAlpha" operator="out"/><feColorMatrix values="0 0 0 0 0.776471 0 0 0 0 0.12549 0 0 0 0 0.172549 0 0 0 0.3 0"/><feBlend in2="BackgroundImageFix" result="effect1_dropShadow_103_802"/><feBlend in="SourceGraphic" in2="effect1_dropShadow_103_802" result="shape"/></filter><filter id="k" x="273.6" y="51.6" width="90" height="90" filterUnits="userSpaceOnUse" color-interpolation-filters="sRGB"><feFlood flood-opacity="0" result="BackgroundImageFix"/><feColorMatrix in="SourceAlpha" values="0 0 0 0 0 0 0 0 0 0 0 0 0 0 0 0 0 0 127 0" result="hardAlpha"/><feOffset dx="3.6" dy="3.6"/><feGaussianBlur stdDeviation="7.5"/><feColorMatrix values="0 0 0 0 0.164706 0 0 0 0 0.164706 0 0 0 0 0.164706 0 0 0 0.15 0"/><feBlend mode="multiply" in2="BackgroundImageFix" result="effect1_dropShadow_103_802"/><feBlend in="SourceGraphic" in2="effect1_dropShadow_103_802" result="shape"/></filter><filter id="l" x="288" y="72" width="54" height="54" filterUnits="userSpaceOnUse" color-interpolation-filters="sRGB"><feFlood flood-opacity="0" result="BackgroundImageFix"/><feColorMatrix in="SourceAlpha" values="0 0 0 0 0 0 0 0 0 0 0 0 0 0 0 0 0 0 127 0" result="hardAlpha"/><feOffset dy="6"/><feGaussianBlur stdDeviation="6"/><feComposite in2="hardAlpha" operator="out"/><feColorMatrix values="0 0 0 0 0.776471 0 0 0 0 0.12549 0 0 0 0 0.172549 0 0 0 0.3 0"/><feBlend in2="BackgroundImageFix" result="effect1_dropShadow_103_802"/><feBlend in="SourceGraphic" in2="effect1_dropShadow_103_802" result="shape"/></filter><filter id="m" x="755" y="131" width="375" height="164" filterUnits="userSpaceOnUse" color-interpolation-filters="sRGB"><feFlood flood-opacity="0" result="BackgroundImageFix"/><feGaussianBlur in="BackgroundImageFix" stdDeviation="3.5"/><feComposite in2="SourceAlpha" operator="in" result="effect1_backgroundBlur_103_802"/><feBlend in="SourceGraphic" in2="effect1_backgroundBlur_103_802" result="shape"/></filter></defs></svg>