<svg width="20" height="20" fill="none" xmlns="http://www.w3.org/2000/svg"><path d="m7.647 13.052 2.508 2.805H8.736l-2.255-2.541v2.54H5.293v-5.5h1.188v2.432l2.134-2.431h1.452l-2.42 2.695Zm3.307-2.695h3.685V11.5h-2.497v4.356h-1.188v-5.5Z" fill="#72D0CA"/><path d="M15.6 19H4.4c-2.127 0-3.758-1.8-3.332-3.8l1.56-7.733C2.84 6.067 4.186 5 5.746 5h8.506c1.56 0 2.836 1 3.12 2.467l1.56 7.733c.425 2-1.206 3.8-3.333 3.8ZM10 1c-1.205 0-2.127.933-2.127 2S8.866 5 10 5s2.127-.933 2.127-2S11.205 1 10 1Z" stroke="#72D0CA" stroke-width="1.5" stroke-miterlimit="10" stroke-linecap="round" stroke-linejoin="round"/></svg>