<svg width="60" height="56" fill="none" xmlns="http://www.w3.org/2000/svg"><path d="M57.677 33.081 31.195 53.587a1.905 1.905 0 0 1-2.37 0L2.344 33.08c-.662-.496-.304-1.543.523-1.543h8.57V3.13c0-.634.524-1.13 1.13-1.13h34.804c.633 0 1.13.524 1.13 1.13v28.408h8.625c.826-.028 1.184 1.02.55 1.543Z" stroke="#5E8D66" stroke-width="2.5" stroke-miterlimit="10" stroke-linecap="round" stroke-linejoin="round"/><path d="M22.74 20.97a4 4 0 1 0-.001-8 4 4 0 0 0 0 8Zm14.825 14.8a4 4 0 1 0 0-8 4 4 0 0 0 0 8Zm-.143-22.69L22.598 35.348" stroke="#72D0CA" stroke-width="2.5" stroke-miterlimit="10" stroke-linecap="round" stroke-linejoin="round"/></svg>