<svg width="51" height="54" fill="none" xmlns="http://www.w3.org/2000/svg"><path d="M25.846 26.615c6.797 0 12.308-5.51 12.308-12.307C38.154 7.51 32.644 2 25.846 2S13.538 7.51 13.538 14.308c0 6.797 5.51 12.307 12.308 12.307Zm16.046 7.161 5.916 6.838a7.009 7.009 0 0 1 1.717 4.453l.032 2.099c.032 2.671-2.1 4.834-4.739 4.834H6.748c-2.736 0-4.899-2.322-4.74-5.025l.127-1.972c.096-1.59.732-3.085 1.813-4.294l6.298-6.933" stroke="#5E8D66" stroke-width="2.5" stroke-miterlimit="10" stroke-linecap="round" stroke-linejoin="round"/><path d="M25.767 32a2.667 2.667 0 0 1 2.672 2.672v5.756h-5.376v-5.756c0-1.463 1.209-2.672 2.704-2.672Z" fill="#72D0CA"/><path d="M25.767 38.674a3.944 3.944 0 1 0 0 7.887 3.944 3.944 0 0 0 0-7.887Z" fill="#72D0CA"/></svg>