<svg width="40" height="31" fill="none" xmlns="http://www.w3.org/2000/svg"><path fill-rule="evenodd" clip-rule="evenodd" d="m8.131 4.824-.005.012c1.503.201 3.462.408 5.324.437 1.678.02 3.51-.172 4.948-.373L8.13 4.824Z" fill="#fff"/><path d="M22.512 30h-2.474l-.846-6.647v-3.6c-2.013.794-5.192 1.184-8.241 1.066a24.392 24.392 0 0 1-2.498-.222l-.155.936c-.953.363-1.618.862-2.08 1.364-.9.976-1.035 1.96-1.035 1.96V30H1.915v-4.339l-.91-5.09.782-4.115s-.859-5.816-.782-7.451c.102-2.163 1.692-3.35 2.948-3.97a4.573 4.573 0 0 1 2.743-.408c.399.063.884.135 1.43.209 1.503.201 3.462.408 5.324.437 1.678.02 3.51-.172 4.948-.373a43.872 43.872 0 0 0 2.576-.432l5.575.62s1.061-.552 2.188-1.118l-.008-.016C28.023 2.596 29.075 1 29.075 1l2.14 1.761c1.606-.379 3.195.684 3.973 1.707.949 1.24 2.436 2.73 3.756 4.036.32 2.189-.833 3.35-.833 3.35l-2.884-.554-.5.052a3.64 3.64 0 0 1-1.41-.118l-1.397-.41c-1.23 2.322-2.192 4.656-3.089 7.28a4.17 4.17 0 0 1-.398.842 4.12 4.12 0 0 1-2.153 1.734 3.99 3.99 0 0 1-1.307.22h-1.474l-.24 2.213-.001.012L22.512 30Z" fill="#fff"/><path d="m28.447 18.935-.86 4.01V30h-2.601l-1.728-6.875v-.012l.24-2.213h1.475a3.99 3.99 0 0 0 1.307-.22 4.12 4.12 0 0 0 2.153-1.734l.014-.01ZM10.951 30h-2.5l-2.233-7.103c.462-.502 1.127-1 2.08-1.364l.155-.936c.804.115 1.646.188 2.498.222V30Z" fill="#fff"/><path d="m25.088 18.935-1.55 1.61-.04.355m-4.306 2.453L20.038 30h2.474l.746-6.875m-4.066.228v-6.066m0 6.066v-3.6c-2.013.794-5.192 1.184-8.241 1.066m-1.64-5.391-.858 5.17m20.288-16.63-.004.002m-5.25 16.93h.012m7.69-18.133.025-.006m-7.958 20.355.002.009m7.598-17.733c-1.007-.171-1.596-.446-2.12-1.422m-.008-.016C28.024 2.596 29.075 1 29.075 1l2.14 1.761M28.73 3.954l.008.016m-.008-.016.008.016m3.734-.174L31.214 2.76m-6.933 2.182s.884 1.53.718 2.98c.717.752 1.166 1.438.666 2.493-.577 1.213-1.717.936-2.166.712-.68.488-1.474 1.095-3.96 1.148-.603 1.226-3.038 3.23-5.704 2.03-2.666-1.2-3.102-3.692-2.974-4.655-1.627-.079-2.627-.461-3.05-2.083-.34-1.288.252-2.6.315-2.732m.005-.012-.005.012m.005-.012-.005.012m.005-.012 10.267.076M8.453 20.597l-.155.936c-.953.363-1.618.862-2.08 1.364m2.235-2.3c.804.115 1.646.188 2.498.222m12.307 2.306L24.986 30h2.602v-7.055l.858-4.01-.013.011m-5.175 4.179v-.012l.24-2.213m0 0h1.475a3.99 3.99 0 0 0 1.307-.22 4.12 4.12 0 0 0 2.153-1.734m2.781-16.185c1.607-.379 3.197.684 3.974 1.707.949 1.24 2.436 2.73 3.756 4.036.32 2.189-.833 3.35-.833 3.35l-2.884-.554-.5.052a3.64 3.64 0 0 1-1.41-.118l-1.397-.41c-1.23 2.322-2.192 4.656-3.089 7.28a4.17 4.17 0 0 1-.398.842m.304-14.976a197.667 197.667 0 0 0-2.188 1.118l-5.575-.62s-1.07.221-2.576.432M8.126 4.836c1.503.201 3.462.408 5.324.437 1.678.02 3.51-.172 4.948-.373M8.126 4.836a61.48 61.48 0 0 1-1.43-.21 4.573 4.573 0 0 0-2.743.41c-1.256.62-2.846 1.806-2.948 3.969-.077 1.635.782 7.451.782 7.451l-.782 4.115.91 5.09V30h3.268v-5.143s.134-.984 1.035-1.96m0 0L8.452 30h2.499v-9.181" stroke="#72D0CA" stroke-width="1.5" stroke-linecap="round" stroke-linejoin="round"/></svg>