<svg width="83" height="83" fill="none" xmlns="http://www.w3.org/2000/svg"><path d="M.004 35.608v11.846H11.84V59.3h11.836v11.846h11.837v11.846h11.836V71.146h11.836V59.3H71.16V47.454h11.836V35.608H71.16V23.762H59.324V11.846H47.487V0H35.651v11.846H23.815v11.846H11.979v11.916H.004Z" fill="#fff" fill-opacity=".4"/><path d="M35.72 57.877h10.895V46.982H35.72v10.895Zm10.895-21.855h10.896v10.896H46.615V36.023ZM35.72 46.919H24.824V36.023H35.72v10.895Z" fill="#CAE1DE"/><path d="M46.615 25.102H35.72v10.896h10.895V25.102ZM35.72 46.957H24.824V36.06H35.72v10.896ZM46.615 36.06h10.896v10.896H46.615V36.06Z" fill="#CAE1DE"/></svg>