<svg width="57" height="56" fill="none" xmlns="http://www.w3.org/2000/svg"><path d="M53.408 24.628C52.162 14.43 42.1 6.48 29.884 6.48c-7.418 0-14.05 2.925-18.384 7.51M6.36 24.614c.34-2.749 1.314-5.335 2.804-7.638" stroke="#5E8D66" stroke-width="2.5" stroke-miterlimit="10" stroke-linecap="round" stroke-linejoin="round"/><path d="M33.596 5.724c.027-.149.04-.298.04-.447 0-1.814-1.68-3.277-3.738-3.277s-3.751 1.463-3.751 3.277c0 .15.014.298.04.447" stroke="#72D0CA" stroke-width="2.5" stroke-miterlimit="10" stroke-linecap="round" stroke-linejoin="round"/><path d="m25.171 39.035 7.652-7.882m0 0 1.205-1.232a2.184 2.184 0 0 1 3.047-.095c.42.38.65.88.705 1.395m-4.957-.068a2.249 2.249 0 0 0-.704-1.327 2.184 2.184 0 0 0-3.047.095l-8.843 9.114m-9.02 13.827L2 54V40.05h9.21v12.812Zm30.878-23.036a2.184 2.184 0 0 0-3.048.095l-8.924 9.114H18.184l4.28-6.094c.257-.366.378-.786.378-1.205 0-.732-.365-1.463-1.029-1.924-1.03-.73-2.41-.555-3.128.393l-7.476 9.914v9.114l20.829-5.12 10.198-11.2a2.185 2.185 0 0 0-.15-3.087Z" stroke="#5E8D66" stroke-width="2.5" stroke-miterlimit="10" stroke-linecap="round" stroke-linejoin="round"/><path d="M53.855 28.298H5.914a1.844 1.844 0 0 1-1.842-1.842c0-1.016.826-1.842 1.842-1.842h47.941c1.016 0 1.842.826 1.842 1.842a1.844 1.844 0 0 1-1.842 1.842Z" stroke="#72D0CA" stroke-width="2.5" stroke-miterlimit="10" stroke-linecap="round" stroke-linejoin="round"/></svg>