<svg width="67" height="52" fill="none" xmlns="http://www.w3.org/2000/svg"><path d="M9 2h29c1.968 0 3.948 1.992 3.948 4v26.124M42 16h13.128c.866 0 1.663.419 2.182 1.082l7.136 9.498c.346.488.554 1.082.554 1.676V38.52c0 1.363-1.108 2.48-2.46 2.48H58" stroke="#5E8D66" stroke-width="2.5" stroke-miterlimit="10" stroke-linecap="round" stroke-linejoin="round"/><path d="M53 50a6 6 0 1 0 0-12 6 6 0 0 0 0 12Zm-35.763 0a6 6 0 1 0 0-12 6 6 0 0 0 0 12ZM2 41h10" stroke="#5E8D66" stroke-width="2.5" stroke-miterlimit="10" stroke-linecap="round" stroke-linejoin="round"/><path d="M28 41h14M11 28h22M2 14h24" stroke="#72D0CA" stroke-width="2.5" stroke-miterlimit="10" stroke-linecap="round" stroke-linejoin="round"/></svg>