<svg width="54" height="54" fill="none" xmlns="http://www.w3.org/2000/svg"><path d="M46.788 52H7.212C4.317 52 2 49.693 2 46.87V7.13C2 4.28 4.344 2 7.212 2h39.576C49.684 2 52 4.307 52 7.13v39.713C52 49.693 49.684 52 46.788 52Z" stroke="#5E8D66" stroke-width="2.5" stroke-miterlimit="10" stroke-linecap="round" stroke-linejoin="round"/><path d="M12.342 42.646a4.249 4.249 0 0 1-4.247-4.247V15.784a4.249 4.249 0 0 1 4.247-4.247 4.25 4.25 0 0 1 4.247 4.247V38.4a4.249 4.249 0 0 1-4.247 4.247Zm0 0 2.51 2.51m-2.51-2.51L9.86 45.128m0-36.1 2.482 2.482L14.852 9m9.652.028 2.482 2.482L29.496 9m.027 36.156-2.51-2.51-2.482 2.482m2.455-2.482a4.249 4.249 0 0 1-4.247-4.247V15.784a4.249 4.249 0 0 1 4.247-4.247 4.249 4.249 0 0 1 4.247 4.247V38.4c.028 2.344-1.875 4.247-4.247 4.247Zm14.672 0a4.249 4.249 0 0 1-4.247-4.247V15.784a4.25 4.25 0 0 1 4.247-4.247 4.25 4.25 0 0 1 4.247 4.247V38.4a4.249 4.249 0 0 1-4.247 4.247Zm0 0 2.51 2.51m-2.51-2.51-2.482 2.482m-.027-36.1 2.482 2.482L44.14 9" stroke="#72D0CA" stroke-width="2.5" stroke-miterlimit="10" stroke-linecap="round" stroke-linejoin="round"/><path d="M42 24.373v7.77A1.84 1.84 0 0 1 40.156 34H13.844A1.86 1.86 0 0 1 12 32.143v-7.74a1.84 1.84 0 0 1 1.844-1.857h5.959C21.111 21.048 23.937 20 27.208 20c3.272 0 6.097 1.048 7.405 2.546h5.513A1.822 1.822 0 0 1 42 24.373Z" fill="#fff" stroke="#5E8D66" stroke-width="2.5" stroke-miterlimit="10" stroke-linecap="round" stroke-linejoin="round"/></svg>