<svg width="52" height="54" fill="none" xmlns="http://www.w3.org/2000/svg"><path d="M40.934 52H11.066c-5.671 0-10.02-5-8.885-10.556L6.34 19.963c.567-3.889 4.159-6.852 8.318-6.852h22.684c4.16 0 7.562 2.778 8.318 6.852l4.16 21.481C50.952 47 46.604 52 40.933 52ZM26 2c-3.214 0-5.671 2.593-5.671 5.556 0 2.962 2.646 5.555 5.671 5.555 3.025 0 5.671-2.593 5.671-5.555C31.671 4.593 29.214 2 26 2Z" stroke="#5E8D66" stroke-width="2.5" stroke-miterlimit="10" stroke-linecap="round" stroke-linejoin="round"/><path d="M16.735 23.077h2.24v19.6H16.4v-16.8l-4.172 1.232-.644-2.24 5.152-1.792ZM35.564 40.27c-1.325 1.848-3.183 2.772-5.572 2.772-2.39 0-4.247-.924-5.572-2.772-1.326-1.848-1.988-4.312-1.988-7.392s.663-5.544 1.988-7.392c1.325-1.848 3.182-2.772 5.572-2.772s4.247.924 5.572 2.772c1.325 1.848 1.988 4.312 1.988 7.392s-.663 5.544-1.988 7.392Zm-9.24-1.764c.858 1.326 2.081 1.988 3.668 1.988 1.586 0 2.81-.662 3.668-1.988.877-1.325 1.316-3.201 1.316-5.628 0-2.426-.439-4.302-1.316-5.628-.859-1.344-2.081-2.016-3.668-2.016-1.587 0-2.81.663-3.668 1.988-.859 1.326-1.288 3.211-1.288 5.656 0 2.427.43 4.303 1.288 5.628Z" fill="#72D0CA"/></svg>