<svg width="83" height="83" viewBox="0 0 83 83" fill="none" xmlns="http://www.w3.org/2000/svg">
<path d="M0.00390002 35.6076L0.00389795 47.4538L11.8401 47.4538L11.8401 59.2999L23.6764 59.2999L23.6764 71.146L35.5126 71.146L35.5126 82.9921L47.3489 82.9921L47.3489 71.146L59.1851 71.146L59.1851 59.2999L71.1598 59.2999L71.1598 47.4538L82.996 47.4538L82.996 35.6077L71.1598 35.6077L71.1598 23.7615L59.3235 23.7615L59.3235 11.8461L47.4873 11.8461L47.4873 8.30226e-06L35.6511 6.23275e-06L35.6511 11.8461L23.8148 11.8461L23.8148 23.6922L11.9786 23.6922L11.9786 35.6076L0.00390002 35.6076Z" fill="white" fill-opacity="0.4"/>
<path d="M35.7198 57.8772L46.6152 57.8772L46.6152 46.9817L35.7198 46.9817L35.7198 57.8772ZM46.6152 36.0225L57.5107 36.0225L57.5107 46.918L46.6152 46.918L46.6152 36.0225ZM35.7198 46.918L24.8243 46.918L24.8243 36.0225L35.7198 36.0225L35.7198 46.918Z" fill="#CAE1DE"/>
<path d="M46.6152 25.1021L35.7197 25.1021L35.7197 35.9976L46.6152 35.9976L46.6152 25.1021ZM35.7197 46.9568L24.8242 46.9568L24.8242 36.0613L35.7197 36.0613L35.7197 46.9568ZM46.6152 36.0613L57.5107 36.0613L57.5107 46.9568L46.6152 46.9568L46.6152 36.0613Z" fill="#CAE1DE"/>
</svg>
