<svg width="51" height="54" viewBox="0 0 51 54" fill="none" xmlns="http://www.w3.org/2000/svg">
<path d="M25.8458 26.6154C32.6431 26.6154 38.1535 21.105 38.1535 14.3077C38.1535 7.51034 32.6431 2 25.8458 2C19.0484 2 13.5381 7.51034 13.5381 14.3077C13.5381 21.105 19.0484 26.6154 25.8458 26.6154Z" stroke="#5E8D66" stroke-width="2.5" stroke-miterlimit="10" stroke-linecap="round" stroke-linejoin="round"/>
<path d="M41.8919 33.7756L47.8077 40.6137C48.8891 41.8541 49.4934 43.4444 49.5252 45.0665L49.557 47.1656C49.5888 49.8372 47.4578 52 44.818 52H6.74721C4.01197 52 1.84921 49.6782 2.00824 46.9748L2.13546 45.0029C2.23088 43.4126 2.86698 41.9178 3.94836 40.7092L10.2458 33.7756" stroke="#5E8D66" stroke-width="2.5" stroke-miterlimit="10" stroke-linecap="round" stroke-linejoin="round"/>
<path d="M25.7668 32C27.2617 32 28.4385 33.2086 28.4385 34.6716L28.4385 40.4283L23.0634 40.4283L23.0634 34.6716C23.0634 33.2086 24.272 32 25.7668 32Z" fill="#72D0CA"/>
<path d="M25.7666 38.6736C23.5885 38.6736 21.8228 40.4393 21.8228 42.6174C21.8228 44.7956 23.5885 46.5613 25.7666 46.5613C27.9447 46.5613 29.7104 44.7956 29.7104 42.6174C29.7104 40.4393 27.9447 38.6736 25.7666 38.6736Z" fill="#72D0CA"/>
</svg>
