<svg width="60" height="56" viewBox="0 0 60 56" fill="none" xmlns="http://www.w3.org/2000/svg">
<path d="M57.6766 33.0813L31.195 53.5866C30.5061 54.1378 29.5141 54.1378 28.8252 53.5866L2.34356 33.0813C1.68221 32.5852 2.04044 31.5379 2.86713 31.5379H11.4371V3.13C11.4371 2.4961 11.9607 2 12.567 2H47.3706C48.0044 2 48.5004 2.52366 48.5004 3.13V31.5379H57.1255C57.9522 31.5103 58.3104 32.5576 57.6766 33.0813Z" stroke="#5E8D66" stroke-width="2.5" stroke-miterlimit="10" stroke-linecap="round" stroke-linejoin="round"/>
<path d="M22.7391 20.9692C24.9479 20.9692 26.7384 19.1784 26.7384 16.9692C26.7384 14.7601 24.9479 12.9692 22.7391 12.9692C20.5303 12.9692 18.7397 14.7601 18.7397 16.9692C18.7397 19.1784 20.5303 20.9692 22.7391 20.9692Z" stroke="#72D0CA" stroke-width="2.5" stroke-miterlimit="10" stroke-linecap="round" stroke-linejoin="round"/>
<path d="M37.5645 35.7695C39.7736 35.7695 41.5645 33.9787 41.5645 31.7695C41.5645 29.5604 39.7736 27.7695 37.5645 27.7695C35.3553 27.7695 33.5645 29.5604 33.5645 31.7695C33.5645 33.9787 35.3553 35.7695 37.5645 35.7695Z" stroke="#72D0CA" stroke-width="2.5" stroke-miterlimit="10" stroke-linecap="round" stroke-linejoin="round"/>
<path d="M37.4225 13.0793L22.5972 35.3485" stroke="#72D0CA" stroke-width="2.5" stroke-miterlimit="10" stroke-linecap="round" stroke-linejoin="round"/>
</svg>
