<svg width="54" height="54" viewBox="0 0 54 54" fill="none" xmlns="http://www.w3.org/2000/svg">
<path d="M46.7878 52H7.21237C4.31661 52 2 49.6927 2 46.8697V7.13029C2 4.28013 4.34419 2 7.21237 2H46.7878C49.6836 2 52.0002 4.30727 52.0002 7.13029V46.8426C52.0002 49.6927 49.6836 52 46.7878 52Z" stroke="#5E8D66" stroke-width="2.5" stroke-miterlimit="10" stroke-linecap="round" stroke-linejoin="round"/>
<path d="M12.3418 42.646C9.99766 42.646 8.09473 40.7431 8.09473 38.3989V15.7844C8.09473 13.4402 9.99766 11.5372 12.3418 11.5372C14.686 11.5372 16.589 13.4402 16.589 15.7844V38.3989C16.589 40.7431 14.686 42.646 12.3418 42.646ZM12.3418 42.646L14.8515 45.1557M12.3418 42.646L9.85976 45.1281M9.85976 9.02758L12.3418 11.5097L14.8515 9" stroke="#72D0CA" stroke-width="2.5" stroke-miterlimit="10" stroke-linecap="round" stroke-linejoin="round"/>
<path d="M24.5038 9.02758L26.9859 11.5097L29.4955 9M29.5231 45.1557L27.0135 42.646L24.5314 45.1281M26.9859 42.646C24.6417 42.646 22.7388 40.7431 22.7388 38.3989V15.7844C22.7388 13.4402 24.6417 11.5372 26.9859 11.5372C29.3301 11.5372 31.233 13.4402 31.233 15.7844V38.3989C31.2606 40.7431 29.3577 42.646 26.9859 42.646Z" stroke="#72D0CA" stroke-width="2.5" stroke-miterlimit="10" stroke-linecap="round" stroke-linejoin="round"/>
<path d="M41.6583 42.646C39.3141 42.646 37.4111 40.7431 37.4111 38.3989V15.7844C37.4111 13.4402 39.3141 11.5372 41.6583 11.5372C44.0024 11.5372 45.9054 13.4402 45.9054 15.7844V38.3989C45.9054 40.7431 44.0024 42.646 41.6583 42.646ZM41.6583 42.646L44.1679 45.1557M41.6583 42.646L39.1762 45.1281M39.1486 9.02758L41.6307 11.5097L44.1403 9" stroke="#72D0CA" stroke-width="2.5" stroke-miterlimit="10" stroke-linecap="round" stroke-linejoin="round"/>
<path d="M42 24.3733V32.1429C42 33.1912 41.1673 34 40.1561 34H13.8439C12.8327 34 12 33.1613 12 32.1429V24.4032C12 23.3548 12.8327 22.5461 13.8439 22.5461H19.803C21.1115 21.0484 23.9368 20 27.2082 20C30.4796 20 33.3048 21.0484 34.6134 22.5461H40.1264C41.1673 22.5161 42 23.3548 42 24.3733Z" fill="white" stroke="#5E8D66" stroke-width="2.5" stroke-miterlimit="10" stroke-linecap="round" stroke-linejoin="round"/>
</svg>
