<svg width="52" height="54" viewBox="0 0 52 54" fill="none" xmlns="http://www.w3.org/2000/svg">
<path d="M40.9342 52H11.0658C5.39459 52 1.04666 47 2.1809 41.4444L6.33979 19.963C6.90691 16.0741 10.4987 13.1111 14.6576 13.1111H37.3424C41.5013 13.1111 44.904 15.8889 45.6602 19.963L49.8191 41.4444C50.9533 47 46.6054 52 40.9342 52ZM26 2C22.7863 2 20.3288 4.59259 20.3288 7.55556C20.3288 10.5185 22.9754 13.1111 26 13.1111C29.0246 13.1111 31.6712 10.5185 31.6712 7.55556C31.6712 4.59259 29.2137 2 26 2Z" stroke="#5E8D66" stroke-width="2.5" stroke-miterlimit="10" stroke-linecap="round" stroke-linejoin="round"/>
<path d="M16.7354 23.0774H18.9754V42.6774H16.3994V25.8774L12.2274 27.1094L11.5834 24.8694L16.7354 23.0774ZM35.5639 40.2694C34.2385 42.1174 32.3812 43.0414 29.9919 43.0414C27.6025 43.0414 25.7452 42.1174 24.4199 40.2694C23.0945 38.4214 22.4319 35.9574 22.4319 32.8774C22.4319 29.7974 23.0945 27.3334 24.4199 25.4854C25.7452 23.6374 27.6025 22.7134 29.9919 22.7134C32.3812 22.7134 34.2385 23.6374 35.5639 25.4854C36.8892 27.3334 37.5519 29.7974 37.5519 32.8774C37.5519 35.9574 36.8892 38.4214 35.5639 40.2694ZM26.3239 38.5054C27.1825 39.8307 28.4052 40.4934 29.9919 40.4934C31.5785 40.4934 32.8012 39.8307 33.6599 38.5054C34.5372 37.18 34.9759 35.304 34.9759 32.8774C34.9759 30.4507 34.5372 28.5747 33.6599 27.2494C32.8012 25.9054 31.5785 25.2334 29.9919 25.2334C28.4052 25.2334 27.1825 25.896 26.3239 27.2214C25.4652 28.5467 25.0359 30.432 25.0359 32.8774C25.0359 35.304 25.4652 37.18 26.3239 38.5054Z" fill="#72D0CA"/>
</svg>
