<svg width="50" height="55" viewBox="0 0 50 55" fill="none" xmlns="http://www.w3.org/2000/svg">
<path d="M28.9993 38C31.2081 38 32.9987 36.2091 32.9987 34C32.9987 31.7909 31.2081 30 28.9993 30C26.7906 30 25 31.7909 25 34C25 36.2091 26.7906 38 28.9993 38Z" stroke="#72D0CA" stroke-width="3" stroke-miterlimit="10" stroke-linecap="round" stroke-linejoin="round"/>
<path d="M43.8247 52.8003C46.0338 52.8003 47.8247 51.0094 47.8247 48.8003C47.8247 46.5912 46.0338 44.8003 43.8247 44.8003C41.6156 44.8003 39.8247 46.5912 39.8247 48.8003C39.8247 51.0094 41.6156 52.8003 43.8247 52.8003Z" stroke="#72D0CA" stroke-width="3" stroke-miterlimit="10" stroke-linecap="round" stroke-linejoin="round"/>
<path d="M43.6827 30.1101L28.8574 52.3793" stroke="#72D0CA" stroke-width="3" stroke-miterlimit="10" stroke-linecap="round" stroke-linejoin="round"/>
<path d="M9.93686 52V4.00089C9.93686 2.88928 10.8261 2 11.9378 2H30.9907C36.9044 2 41.7065 6.80213 41.7065 12.7159C41.7065 18.6296 36.9044 23.4317 30.9907 23.4317H2" stroke="#5E8D66" stroke-width="2.5" stroke-miterlimit="10" stroke-linecap="round" stroke-linejoin="round"/>
<path d="M2 37.8605H31.7688" stroke="#5E8D66" stroke-width="2.5" stroke-miterlimit="10" stroke-linecap="round" stroke-linejoin="round"/>
</svg>
