<svg width="57" height="56" viewBox="0 0 57 56" fill="none" xmlns="http://www.w3.org/2000/svg">
<path d="M53.408 24.6278C52.1621 14.4301 42.0998 6.48047 29.8842 6.48047C22.4662 6.48047 15.8348 9.40531 11.5 13.9907" stroke="#5E8D66" stroke-width="2.5" stroke-miterlimit="10" stroke-linecap="round" stroke-linejoin="round"/>
<path d="M6.36084 24.6143C6.69941 21.8651 7.67449 19.2785 9.1642 16.9762" stroke="#5E8D66" stroke-width="2.5" stroke-miterlimit="10" stroke-linecap="round" stroke-linejoin="round"/>
<path d="M33.5955 5.72427C33.6226 5.5753 33.6361 5.42633 33.6361 5.27736C33.6361 3.46262 31.9568 2 29.8983 2C27.8398 2 26.147 3.46262 26.147 5.27736C26.147 5.42633 26.1605 5.5753 26.1876 5.72427" stroke="#72D0CA" stroke-width="2.5" stroke-miterlimit="10" stroke-linecap="round" stroke-linejoin="round"/>
<path d="M25.1714 39.0351L32.8231 31.1532M32.8231 31.1532L34.0284 29.9208C34.8545 29.0676 36.1953 29.027 37.0755 29.826C37.4954 30.2052 37.7256 30.7063 37.7798 31.2209M32.8231 31.1532C32.7554 30.6657 32.5121 30.1917 32.1194 29.826C31.2527 29.027 29.8984 29.0676 29.0723 29.9208L20.2288 39.0351M11.2091 52.8624L2 54V40.0509H11.2091V52.8624ZM42.0866 29.826C41.2064 29.027 39.8656 29.0676 39.0395 29.9208L30.1148 39.0351H18.1836L22.4631 32.9409C22.7205 32.5752 22.8423 32.1554 22.8423 31.7356C22.8423 31.0043 22.4767 30.2729 21.8131 29.8125C20.7838 29.0812 19.4025 29.2572 18.6847 30.2052L11.2091 40.1186V49.2329L32.0379 44.1137L42.2356 32.9138C43.0482 32.02 42.9805 30.6386 42.0866 29.826Z" stroke="#5E8D66" stroke-width="2.5" stroke-miterlimit="10" stroke-linecap="round" stroke-linejoin="round"/>
<path d="M53.8551 28.2979H5.9136C4.89789 28.2979 4.07178 27.4718 4.07178 26.4561C4.07178 25.4404 4.89789 24.6143 5.9136 24.6143H53.8551C54.8708 24.6143 55.6969 25.4404 55.6969 26.4561C55.6969 27.4718 54.8708 28.2979 53.8551 28.2979Z" stroke="#72D0CA" stroke-width="2.5" stroke-miterlimit="10" stroke-linecap="round" stroke-linejoin="round"/>
</svg>
