<svg width="67" height="52" viewBox="0 0 67 52" fill="none" xmlns="http://www.w3.org/2000/svg">
<path d="M9 2H38C39.9679 2 41.9482 3.99197 41.9482 6V32.1244" stroke="#5E8D66" stroke-width="2.5" stroke-miterlimit="10" stroke-linecap="round" stroke-linejoin="round"/>
<path d="M42 16H55.128C55.994 16 56.7907 16.419 57.3102 17.0824L64.4458 26.5796C64.7922 27.0684 65 27.662 65 28.2556V38.521C65 39.8827 63.8916 41 62.5407 41H58" stroke="#5E8D66" stroke-width="2.5" stroke-miterlimit="10" stroke-linecap="round" stroke-linejoin="round"/>
<path d="M25.982 12.006V24.2088M23.6467 9L25.982 12.0417L28.3533 9M28.3533 27L25.982 23.9582L23.6467 27M31.1916 15.0119L20.5928 21.0954M32.6287 11.4692L31.1557 15.0119L34.9641 15.5129M19.3353 24.5308L20.8084 20.9881L17 20.4871M20.8084 15.0119L31.4072 21.0954M20.8084 15.0119L17 15.5129M20.8084 15.0119L19.3713 11.4692M35 20.4513L31.1916 20.9523L32.6647 24.495" stroke="#72D0CA" stroke-width="2.5" stroke-miterlimit="10" stroke-linecap="round" stroke-linejoin="round"/>
<path d="M53 50C56.3137 50 59 47.3137 59 44C59 40.6863 56.3137 38 53 38C49.6863 38 47 40.6863 47 44C47 47.3137 49.6863 50 53 50Z" stroke="#5E8D66" stroke-width="2.5" stroke-miterlimit="10" stroke-linecap="round" stroke-linejoin="round"/>
<path d="M17.2368 50C20.5505 50 23.2368 47.3137 23.2368 44C23.2368 40.6863 20.5505 38 17.2368 38C13.9231 38 11.2368 40.6863 11.2368 44C11.2368 47.3137 13.9231 50 17.2368 50Z" stroke="#5E8D66" stroke-width="2.5" stroke-miterlimit="10" stroke-linecap="round" stroke-linejoin="round"/>
<path d="M2 41H12" stroke="#5E8D66" stroke-width="2.5" stroke-miterlimit="10" stroke-linecap="round" stroke-linejoin="round"/>
<path d="M28 41H42" stroke="#72D0CA" stroke-width="2.5" stroke-miterlimit="10" stroke-linecap="round" stroke-linejoin="round"/>
<path d="M2 27H14" stroke="#72D0CA" stroke-width="2.5" stroke-miterlimit="10" stroke-linecap="round" stroke-linejoin="round"/>
</svg>
