<svg width="52" height="47" fill="none" xmlns="http://www.w3.org/2000/svg"><path d="M51.824 20.148 43.376 45.01c-.39 1.127-1.43 1.923-2.6 1.923L11.273 47c-1.17 0-2.21-.73-2.664-1.923L.16 20.28a2.822 2.822 0 0 1 1.04-3.249L24.01.789l.455-.332c.91-.597 2.015-.597 2.86-.066l.65.464L50.785 16.9c1.039.73 1.494 2.055 1.039 3.249Z" fill="#C6202C"/><path d="M49.355 20.678 41.75 43.154c-.325 1.061-1.3 1.724-2.404 1.724l-26.644.067c-1.04 0-2.015-.663-2.405-1.724L2.63 20.745a2.363 2.363 0 0 1 .13-1.99c.195-.397.455-.729.78-.928L24.205 3.175l.455-.332c.78-.53 1.82-.53 2.6-.066l.584.398 20.6 14.52c.91.663 1.3 1.856.91 2.983Z" stroke="#fff" stroke-miterlimit="10"/><path d="M43.137 22.378c0-.793-.685-1.326-1.176-1.82 0 .273.09.546.09.819 0 .273 0 .546-.09.819-.09.364-.453.455-.814.455-.181 0-.272-.091-.272-.273-.09-.273-.271-.455-.452-.728-.272-.364-.724-.546-1.176-.546h-.362v-.273c0-.546-.09-1.001-.453-1.456-.27-.273-.542-.456-.904-.547-.272-.09-.362-.182-.543-.455-.362-.728-.814-1.365-1.628-1.729-.543-.273-.995-.364-1.629-.182-.271.091-.452.182-.633.364l-.09-.09c-.453-.729-1.086-1.093-1.9-1.184-.181 0-.453-.091-.724-.091h-.814c-.181 0-.453.091-.633.091-.724.182-1.357.455-1.81 1.001-.633.637-1.357 1.001-2.17 1.092l-1.9.273c-.905.091-1.81.182-2.624.273-.724.091-1.448.091-2.171.182-.905.091-1.81.273-2.714.546-.181.091-.272 0-.453-.09a1.494 1.494 0 0 0-1.085-.456 2.901 2.901 0 0 0-2.08.546c-.905.638-1.267 1.639-.996 2.73.18.547.362 1.184.543 1.73.09.455.271.91.362 1.274.18.638-.09 1.002-.543 1.366-.271.182-.452.273-.633.455-.362.273-.453.728-.362 1.183.18-.273.362-.637.904-.546-.452.364-.904.728-.995 1.274v.364c.09.273.09.455.272.637 0 .091.09.091.18.182v-.182c0-.273.181-.546.453-.728.09-.091.18-.091.271-.182.724-.273 1.176-.82 1.448-1.547.271-.82.271-1.547-.09-2.367-.272-.637-.543-1.183-.724-1.82-.272-.728-.362-1.456-.181-2.184.18-.82.723-1.274 1.538-1.366.361 0 .723.091.995.365l.09.09-.271.274c-.453.364-.543.91-.453 1.456.09.819.181 1.73.362 2.548l.272 1.639v.455c.633-1.275 1.357-2.458 3.528-3.004-1.719 1.001-2.352 2.549-3.619 3.823a4.28 4.28 0 0 1-.543 1.365c-.271.455-.542.819-.814 1.183-.18.273-.18.546-.09.82.271.727.362 1.455.271 2.275-.09.546-.271 1.183-.362 1.729v.546c0 .182.09.182.181.182h.272c0 .273.09.455.09.728.09.273.181.364.452.364h1.81c.09 0 .09 0 .18-.09 0-.274-.09-.547-.27-.729-.182-.182-.363-.364-.634-.546-.271-.273-.452-.546-.452-.91 0-.637.18-1.274.361-1.912.181-.546.543-.91 1.086-1.092l.814-.273h.09l.725.728c.18.091.27.273.452.273.362.182.633.273.905.547.452.455.542 1 .452 1.638 0 .09 0 .273-.09.364 0 .273.09.364.27.364h.272c.181 0 .271.09.271.273 0 .09 0 .273.091.364.09.455.271.637.633.637h1.629c.272-.091.363-.182.182-.455-.181-.364-.543-.637-.815-.91-.18-.182-.362-.273-.542-.455-.09-.182-.272-.273-.272-.455-.271-.728-.452-1.456-.633-2.185a3.547 3.547 0 0 1 .271-2.366 4.44 4.44 0 0 0 .272-.637c.09-.182.18-.273.271-.455.362.182.633.364.995.546.362.273.724.455 1.086.728.271.182.543.273.814.273h.18v-1.001c0-.273.182-.364.453-.364.453.09.905.182 1.267.364.543.182.995.273 1.538.455l.09.091c0 .364 0 .82-.09 1.183-.09.364 0 .637.362.91.18.091.361.182.452.273.362.182.543.546.543.91.09.456 0 .91-.181 1.366-.09.09-.09.273-.09.364 0 .182.09.182.18.273h.181c.181 0 .181 0 .181.182v.546c0 .364.09.455.362.455.543.091 1.085.091 1.538-.091.18-.091.271-.091.18-.364-.09-.455-.361-.82-.633-1.092-.361-.273-.452-.637-.452-1.092 0-.728 0-1.366.09-2.094v-.09c.182.09.272.09.362.181.815.364 1.267 1.092 1.267 2.003 0 .182 0 .364-.09.546 0 .364.09.455.361.455.453.09.453.09.543.546v.273c.09.364.272.546.633.546h1.538c.181 0 .272-.091.453-.182a3.268 3.268 0 0 0-.634-.91c-.18-.091-.27-.273-.452-.364-.452-.273-.724-.728-.905-1.184-.18-.455-.27-.91-.452-1.365a.583.583 0 0 1 0-.546v-.09l.181-.183.09.091c0 .091.091.182.091.273 0 .364.181.728.633.82.09-.456.272-.82.543-1.184.181.182.181.455.09.728 0 .455.091.91.362 1.275l.09.09c.182-.637.453-1.183.634-1.729.09-.182 0-.364 0-.546 0 .091.09.182.09.273 0 .182.091.273.091.455.09.091.181.273.272.364h.09c.18-.364.271-.637.452-1 .181-.365.181-.729.181-1.093l.09.091c.182.091.272.182.453.273.18.091.362.091.452-.09.09-.092.181-.092.272-.092.18 0 .452 0 .633-.091.271-.091.362-.364.362-.637-.09-.364 0-.637.271-.91l.272-.273c.271-.273.452-.637.452-1.092 0-.182.09-.364.271-.456.543-.364.724-.637.543-1.274 1.201.173 2.443-.903 2.443-2.093Zm-27.773-1.73c1.176-.818 2.171-1.91 3.89-1.273-1.448 0-2.533 1-3.89 1.274Zm-.362 7.555c.633-1.274.995-2.73 3.166-3.277-1.538.91-1.9 2.276-3.166 3.277Zm.452.91c.453-.91.724-1.911 2.262-2.275-1.086.546-1.357 1.547-2.262 2.275Zm.543.728c.452-.91.724-1.911 2.262-2.275-1.086.637-1.357 1.547-2.262 2.275Zm2.08-9.374c.815-.637 1.63-1.456 2.896-1.001-1.086 0-1.9.819-2.895 1Zm1.72 0c.542-.455 1.085-.91 1.9-.637-.724 0-1.267.546-1.9.637Zm11.308-4.005c-.634.364-.905 1.001-1.448 1.456.362-.637.634-1.365 1.448-1.456Zm-5.247 3.55c.633-1.275 1.176-2.64 2.895-2.913-1.267.728-1.81 2.093-2.895 2.913Zm2.261-1.366c.453-.91.815-2.002 2.172-2.184-.905.546-1.357 1.638-2.172 2.184Zm1.086 11.013c.362-1.001.633-2.093 1.81-2.366-.815.546-.996 1.638-1.81 2.366Zm.995 1.092c.09-1 .09-2.184 1.267-2.821-.814.819-.724 1.911-1.267 2.821Zm5.7-.546c0-.819-.453-.637-.272-1.365-.271.182-.18.546-.543.637.09-.364.09-.637.181-1.001-.09.091-.18.091-.362.182-.18 0-.09-.091-.09-.182 0-.82.543-1.547.904-2.184-.09.455-.09.819-.18 1.274.09-.273.271-.546.542-.728.181.455-.18.637-.271.91 0 .09-.09.273.09.364.362.182.272-.546.634-.273 0 .364-.724.718.18.637-.542.364-.18 1.274-.813 1.73Zm-1.267-2.548c.18-1.274.09-2.64 1.538-3.459-.905 1.001-.814 2.367-1.538 3.459Zm2.895-4.733c0 .091-.09.182-.09.364-.182.728-.272.82-.996.637-.904-.182-1.538-.728-1.9-1.547-.361-.91 0-2.366.905-3.003-.362 1.456.453 2.821 1.719 2.912.543 0 .452.273.362.637Z" fill="#F9D751"/></svg>