<svg width="45" height="45" viewBox="0 0 45 45" fill="none" xmlns="http://www.w3.org/2000/svg">
<circle cx="22.5" cy="22.5" r="22.5" fill="white"/>
<path d="M17.54 10H28.46C32.62 10 36 13.38 36 17.54V28.46C36 30.4597 35.2056 32.3776 33.7916 33.7916C32.3776 35.2056 30.4597 36 28.46 36H17.54C13.38 36 10 32.62 10 28.46V17.54C10 15.5403 10.7944 13.6224 12.2084 12.2084C13.6224 10.7944 15.5403 10 17.54 10ZM17.28 12.6C16.0388 12.6 14.8484 13.0931 13.9707 13.9707C13.0931 14.8484 12.6 16.0388 12.6 17.28V28.72C12.6 31.307 14.693 33.4 17.28 33.4H28.72C29.9612 33.4 31.1516 32.9069 32.0293 32.0293C32.9069 31.1516 33.4 29.9612 33.4 28.72V17.28C33.4 14.693 31.307 12.6 28.72 12.6H17.28ZM29.825 14.55C30.256 14.55 30.6693 14.7212 30.974 15.026C31.2788 15.3307 31.45 15.744 31.45 16.175C31.45 16.606 31.2788 17.0193 30.974 17.324C30.6693 17.6288 30.256 17.8 29.825 17.8C29.394 17.8 28.9807 17.6288 28.6759 17.324C28.3712 17.0193 28.2 16.606 28.2 16.175C28.2 15.744 28.3712 15.3307 28.6759 15.026C28.9807 14.7212 29.394 14.55 29.825 14.55ZM23 16.5C24.7239 16.5 26.3772 17.1848 27.5962 18.4038C28.8152 19.6228 29.5 21.2761 29.5 23C29.5 24.7239 28.8152 26.3772 27.5962 27.5962C26.3772 28.8152 24.7239 29.5 23 29.5C21.2761 29.5 19.6228 28.8152 18.4038 27.5962C17.1848 26.3772 16.5 24.7239 16.5 23C16.5 21.2761 17.1848 19.6228 18.4038 18.4038C19.6228 17.1848 21.2761 16.5 23 16.5ZM23 19.1C21.9657 19.1 20.9737 19.5109 20.2423 20.2423C19.5109 20.9737 19.1 21.9657 19.1 23C19.1 24.0343 19.5109 25.0263 20.2423 25.7577C20.9737 26.4891 21.9657 26.9 23 26.9C24.0343 26.9 25.0263 26.4891 25.7577 25.7577C26.4891 25.0263 26.9 24.0343 26.9 23C26.9 21.9657 26.4891 20.9737 25.7577 20.2423C25.0263 19.5109 24.0343 19.1 23 19.1Z" fill="#5E8D66"/>
</svg>
