<svg width="45" height="45" viewBox="0 0 45 45" fill="none" xmlns="http://www.w3.org/2000/svg">
<circle cx="22.5" cy="22.5" r="22.5" fill="white"/>
<path d="M22.6086 9C18.9236 9 15.9364 11.9873 15.9364 15.6722C15.9364 19.3572 18.9236 22.3447 22.6086 22.3447C26.2936 22.3447 29.2808 19.3572 29.2808 15.6722C29.2808 11.9873 26.2936 9 22.6086 9ZM22.6086 18.4305C21.0854 18.4305 19.8505 17.1955 19.8505 15.6723C19.8505 14.149 21.0854 12.9142 22.6086 12.9142C24.1319 12.9142 25.3667 14.149 25.3667 15.6723C25.3667 17.1955 24.1319 18.4305 22.6086 18.4305Z" fill="#5E8D66"/>
<path d="M24.9642 27.6538C27.6353 27.1096 29.236 25.8446 29.3207 25.7767C30.1023 25.1499 30.2279 24.0081 29.6011 23.2264C28.9743 22.4447 27.8326 22.3192 27.0508 22.9459C27.0343 22.9593 25.327 24.269 22.518 24.2709C19.7091 24.269 17.9657 22.9593 17.9492 22.9459C17.1674 22.3192 16.0257 22.4447 15.3989 23.2264C14.7721 24.0081 14.8977 25.1499 15.6793 25.7767C15.7651 25.8456 17.4319 27.1435 20.1779 27.6749L16.3508 31.6745C15.6553 32.3958 15.6762 33.5442 16.3975 34.2397C16.7496 34.5792 17.2033 34.7479 17.6566 34.7479C18.132 34.7479 18.6068 34.5622 18.9628 34.1929L22.5181 30.4056L26.4325 34.2175C27.1418 34.9256 28.2903 34.9244 28.9982 34.2155C29.7061 33.5064 29.7052 32.3577 28.9962 31.6498L24.9642 27.6538Z" fill="#5E8D66"/>
<path d="M22.518 24.2709C22.5135 24.2709 22.5224 24.2709 22.518 24.271C22.5136 24.2709 22.5225 24.2709 22.518 24.2709Z" fill="#5E8D66"/>
</svg>
