<svg width="137" height="30" viewBox="0 0 137 30" fill="none" xmlns="http://www.w3.org/2000/svg">
<g clip-path="url(#clip0_949_1260)">
<path d="M5.89603 6.51019C5.28656 7.41364 4.98182 8.43667 4.98182 9.59256C4.98182 10.4296 5.14081 11.24 5.47205 12.0505C5.79004 12.8609 6.16102 13.6448 6.57176 14.4021C6.691 14.6147 6.83675 14.9336 7.02224 15.3853C7.20774 15.837 7.39323 16.3419 7.57872 16.8866C7.76422 17.4446 7.92321 18.0159 8.06895 18.6138C8.20145 19.2117 8.28095 19.7697 8.28095 20.2746C8.28095 21.271 8.1352 22.2542 7.84371 23.2241C7.55222 24.194 7.14149 25.0974 6.61151 25.9477C6.08153 26.7848 5.4323 27.5554 4.67708 28.2462C3.92186 28.9371 3.06064 29.5217 2.11992 29.9734L0 25.6023C1.03346 25.0974 1.84168 24.3667 2.43791 23.3968C3.02089 22.4402 3.31238 21.4039 3.31238 20.3012C3.31238 20.0886 3.28588 19.8627 3.24613 19.6236C3.19313 19.3844 3.10039 19.0523 2.95464 18.6404C2.8089 18.2285 2.57041 17.6705 2.26567 16.9796C1.96093 16.2888 1.55019 15.3853 1.03346 14.2826C0.662476 13.512 0.397485 12.7547 0.238491 12.0239C0.0794971 11.2799 0 10.5093 0 9.69885C0 8.70239 0.132495 7.73251 0.410735 6.77591C0.688975 5.81931 1.08646 4.91585 1.61644 4.05226C2.14642 3.20195 2.79565 2.41807 3.55087 1.72719C4.31934 1.03632 5.16731 0.465013 6.10803 0L8.2147 4.46413C7.27398 4.92914 6.50551 5.60673 5.89603 6.51019Z" fill="#333333"/>
<path d="M38.3844 14.8673C38.3844 16.6742 38.0266 18.3749 37.3244 19.9825C36.6222 21.5901 35.6682 22.9851 34.4758 24.1942C33.2833 25.3899 31.8789 26.3465 30.2757 27.0374C28.6725 27.7283 26.9765 28.0737 25.1746 28.0737C23.3727 28.0737 21.6767 27.7283 20.0735 27.0374C18.4704 26.3465 17.0792 25.4032 15.8735 24.1942C14.681 22.9984 13.727 21.5901 13.0248 19.9825C12.3226 18.3749 11.9648 16.6742 11.9648 14.8673C11.9648 13.0604 12.3093 11.3598 13.0248 9.75218C13.727 8.14456 14.681 6.74952 15.8735 5.54049C17.0659 4.34474 18.4704 3.38814 20.0735 2.68398C21.6767 1.97982 23.3727 1.62109 25.1746 1.62109C26.9765 1.62109 28.6725 1.97982 30.2757 2.68398C31.8789 3.38814 33.2701 4.34474 34.4758 5.54049C35.6682 6.73624 36.6222 8.14456 37.3244 9.75218C38.0266 11.3598 38.3844 13.0604 38.3844 14.8673ZM33.4688 14.8673C33.4688 13.738 33.2436 12.6618 32.8063 11.6654C32.3691 10.6556 31.7729 9.77875 31.0044 9.02145C30.2492 8.26414 29.3615 7.65298 28.3677 7.21454C27.3608 6.7761 26.3008 6.55023 25.1746 6.55023C24.0484 6.55023 22.9752 6.7761 21.9815 7.21454C20.9745 7.65298 20.1 8.25085 19.3581 9.02145C18.6029 9.77875 18.0199 10.6689 17.5826 11.6654C17.1454 12.6751 16.9202 13.738 16.9202 14.8673C16.9202 15.9966 17.1322 17.0728 17.5826 18.0693C18.0199 19.079 18.6161 19.9559 19.3581 20.6999C20.1 21.4572 20.9878 22.0418 21.9815 22.4803C22.9884 22.9187 24.0484 23.1446 25.1746 23.1446C26.3008 23.1446 27.374 22.932 28.3677 22.4803C29.3747 22.0418 30.2492 21.4439 31.0044 20.6999C31.7596 19.9559 32.3691 19.0657 32.8063 18.0693C33.2568 17.0595 33.4688 15.9966 33.4688 14.8673Z" fill="#333333"/>
<path d="M68.7906 14.8673C68.7906 16.6742 68.4329 18.3749 67.7307 19.9825C67.0284 21.5901 66.0745 22.9851 64.882 24.1942C63.6896 25.3899 62.2851 26.3465 60.6819 27.0374C59.0787 27.7283 57.3828 28.0737 55.5809 28.0737C53.7789 28.0737 52.083 27.7283 50.4798 27.0374C48.8766 26.3465 47.4854 25.4032 46.2797 24.1942C45.0872 22.9984 44.1333 21.5901 43.4311 19.9825C42.7288 18.3749 42.3711 16.6742 42.3711 14.8673C42.3711 13.0604 42.7156 11.3598 43.4311 9.75218C44.1333 8.14456 45.0872 6.74952 46.2797 5.54049C47.4722 4.34474 48.8766 3.38814 50.4798 2.68398C52.083 1.97982 53.7789 1.62109 55.5809 1.62109C57.3828 1.62109 59.0787 1.97982 60.6819 2.68398C62.2851 3.38814 63.6763 4.34474 64.882 5.54049C66.0745 6.73624 67.0284 8.14456 67.7307 9.75218C68.4329 11.3598 68.7906 13.0604 68.7906 14.8673ZM63.8751 14.8673C63.8751 13.738 63.6498 12.6618 63.2126 11.6654C62.7754 10.6556 62.1791 9.77875 61.4107 9.02145C60.6554 8.26414 59.7677 7.65298 58.774 7.21454C57.767 6.7761 56.7071 6.55023 55.5809 6.55023C54.4547 6.55023 53.3814 6.7761 52.3877 7.21454C51.3808 7.65298 50.5063 8.25085 49.7643 9.02145C49.0091 9.77875 48.4261 10.6689 47.9889 11.6654C47.5517 12.6751 47.3264 13.738 47.3264 14.8673C47.3264 15.9966 47.5384 17.0728 47.9889 18.0693C48.4261 19.079 49.0224 19.9559 49.7643 20.6999C50.5063 21.4572 51.394 22.0418 52.3877 22.4803C53.3947 22.9187 54.4547 23.1446 55.5809 23.1446C56.7071 23.1446 57.7803 22.932 58.774 22.4803C59.781 22.0418 60.6554 21.4439 61.4107 20.6999C62.1659 19.9559 62.7754 19.0657 63.2126 18.0693C63.6631 17.0595 63.8751 15.9966 63.8751 14.8673Z" fill="#333333"/>
<path d="M134.629 6.51029C134.019 7.41374 133.715 8.43677 133.715 9.59266C133.715 10.4297 133.874 11.2401 134.205 12.0506C134.523 12.861 134.894 13.6449 135.305 14.4022C135.424 14.6148 135.57 14.9337 135.755 15.3854C135.941 15.8371 136.126 16.342 136.312 16.8867C136.497 17.4447 136.656 18.0161 136.802 18.6139C136.934 19.2118 137.014 19.7698 137.014 20.2747C137.014 21.2711 136.868 22.2543 136.577 23.2242C136.285 24.1941 135.874 25.0975 135.344 25.9478C134.814 26.7849 134.165 27.5555 133.41 28.2463C132.655 28.9372 131.793 29.5218 130.853 29.9735L128.746 25.5758C129.78 25.071 130.588 24.3402 131.184 23.3703C131.767 22.4137 132.058 21.3774 132.058 20.2747C132.058 20.0621 132.032 19.8362 131.992 19.5971C131.939 19.3579 131.846 19.0258 131.701 18.6139C131.555 18.2021 131.316 17.644 131.012 16.9532C130.707 16.2623 130.296 15.3588 129.78 14.2561C129.409 13.4988 129.144 12.7415 128.985 12.0107C128.826 11.2667 128.746 10.4961 128.746 9.68567C128.746 8.68921 128.879 7.71932 129.157 6.76273C129.435 5.80613 129.833 4.90267 130.363 4.03908C130.893 3.18877 131.542 2.40489 132.297 1.71401C133.052 1.02313 133.913 0.438544 134.854 -0.0131836L136.961 4.45094C136.02 4.92924 135.238 5.60683 134.629 6.51029Z" fill="#333333"/>
<path d="M91.4615 22.0418C91.3555 21.8027 91.2495 21.5502 91.1568 21.2978C90.5606 21.7761 89.9113 22.1614 89.1959 22.4803C88.1889 22.9187 87.1289 23.1446 86.0027 23.1446C84.8765 23.1446 83.8033 22.932 82.8096 22.4803C81.8026 22.0418 80.9282 21.4439 80.1862 20.6999C79.431 19.9559 78.848 19.0657 78.4108 18.0693C77.9735 17.0595 77.7483 15.9966 77.7483 14.8673C77.7483 13.738 77.9603 12.6618 78.4108 11.6654C78.848 10.6556 79.4442 9.77875 80.1862 9.02145C80.9282 8.26414 81.8159 7.65298 82.8096 7.21454C83.8166 6.7761 84.8765 6.55023 86.0027 6.55023C87.1289 6.55023 88.2021 6.7761 89.1959 7.21454C89.9113 7.5334 90.5738 7.93199 91.17 8.41028C91.2628 8.17113 91.3555 7.93199 91.4615 7.69284C92.0312 6.3908 92.7202 5.18177 93.5417 4.06573C92.7865 3.53429 91.9782 3.06928 91.1038 2.68398C89.5006 1.97982 87.8047 1.62109 86.0027 1.62109C84.2008 1.62109 82.5049 1.97982 80.9017 2.68398C79.2985 3.38814 77.9073 4.34474 76.7016 5.54049C75.5091 6.73624 74.5552 8.14456 73.8529 9.75218C73.1507 11.3598 72.793 13.0604 72.793 14.8673C72.793 16.6742 73.1375 18.3749 73.8529 19.9825C74.5552 21.5901 75.5091 22.9851 76.7016 24.1942C77.894 25.3899 79.2985 26.3465 80.9017 27.0374C82.5049 27.7283 84.2008 28.0737 86.0027 28.0737C87.8047 28.0737 89.5006 27.7283 91.1038 27.0374C91.9782 26.6654 92.7865 26.2004 93.5417 25.6689C92.7202 24.5396 92.018 23.3306 91.4615 22.0418Z" fill="#333333"/>
<path d="M124.479 24.3798C123.339 22.7589 123.193 20.6198 123.193 18.4409C123.193 17.75 123.207 17.0592 123.207 16.355C123.207 14.3886 123.048 12.3692 122.412 10.4825C121.789 8.62248 120.676 6.92186 119.298 5.52682C118.106 4.33107 116.701 3.37447 115.098 2.67031C113.495 1.96615 111.799 1.60742 109.997 1.60742C108.195 1.60742 106.499 1.96615 104.896 2.67031C103.293 3.37447 101.901 4.33107 100.696 5.52682C99.5033 6.72257 98.5493 8.1309 97.8471 9.73851C97.1448 11.3461 96.7871 13.0468 96.7871 14.8537C96.7871 16.6606 97.1316 18.3612 97.8471 19.9688C98.5493 21.5764 99.5033 22.9848 100.696 24.1805C101.888 25.3763 103.293 26.3328 104.896 27.0237C106.499 27.7146 108.195 28.06 109.997 28.06C111.799 28.06 113.495 27.7146 115.098 27.0237C116.701 26.3328 118.092 25.3895 119.298 24.1805C119.338 24.1406 119.364 24.1141 119.404 24.0742C119.749 25.2168 120.292 26.293 121.113 27.2629L124.479 24.3798ZM117.629 18.0689C117.191 19.0786 116.595 19.9555 115.827 20.6995C115.071 21.4569 114.184 22.0414 113.19 22.4799C112.183 22.9183 111.123 23.1442 109.997 23.1442C108.871 23.1442 107.797 22.9183 106.804 22.4799C105.797 22.0414 104.922 21.4436 104.18 20.6995C103.425 19.9555 102.842 19.0654 102.405 18.0689C101.968 17.0592 101.742 15.9963 101.742 14.8669C101.742 13.7376 101.954 12.6615 102.405 11.665C102.842 10.6553 103.438 9.77837 104.18 9.02107C104.922 8.26376 105.81 7.6526 106.804 7.21416C107.811 6.77571 108.871 6.54985 109.997 6.54985C111.123 6.54985 112.196 6.77571 113.19 7.21416C114.197 7.6526 115.071 8.25047 115.827 9.02107C116.582 9.77837 117.191 10.6685 117.629 11.665C118.066 12.6747 118.291 13.7376 118.291 14.8669C118.278 15.9963 118.066 17.0592 117.629 18.0689Z" fill="#333333"/>
</g>
<defs>
<clipPath id="clip0_949_1260">
<rect width="137" height="30" fill="white"/>
</clipPath>
</defs>
</svg>
