<svg width="143" height="126" fill="none" xmlns="http://www.w3.org/2000/svg"><path d="m141.746 54.013-23.107 66.655c-1.066 3.021-3.91 5.154-7.11 5.154L30.833 126c-3.2 0-6.043-1.955-7.287-5.155L.439 54.369a7.46 7.46 0 0 1 .355-5.866c.533-1.066 1.422-2.133 2.489-2.844L65.67 2.112l1.244-.889c2.489-1.6 5.51-1.6 7.821-.178l1.778 1.244 62.388 43.015c2.844 1.955 4.088 5.51 2.844 8.71Z" fill="#C6202C"/><path d="m134.992 55.435-20.796 60.256c-.889 2.844-3.555 4.621-6.577 4.621l-72.876.178c-2.843 0-5.51-1.778-6.576-4.622L7.193 55.613a6.222 6.222 0 0 1 .356-5.332c.533-1.067 1.244-1.956 2.132-2.489L66.204 8.51l1.245-.888c2.133-1.422 4.976-1.422 7.11-.178l1.6 1.066 56.344 38.927c2.489 1.777 3.555 4.977 2.489 7.998Z" stroke="#fff" stroke-miterlimit="10"/><path d="M117.985 59.991c0-2.127-1.872-3.554-3.216-4.88 0 .732.247 1.464.247 2.196 0 .732 0 1.464-.247 2.196-.248.976-1.238 1.22-2.227 1.22-.495 0-.743-.244-.743-.732-.247-.732-.742-1.22-1.237-1.952-.742-.976-1.979-1.464-3.217-1.464h-.989v-.732c0-1.464-.248-2.684-1.238-3.904-.742-.732-1.484-1.22-2.474-1.464-.742-.244-.99-.488-1.484-1.22-.99-1.952-2.227-3.66-4.454-4.636-1.485-.731-2.722-.975-4.454-.487-.742.244-1.237.488-1.732.976l-.248-.244c-1.237-1.952-2.969-2.928-5.196-3.172-.495 0-1.237-.244-1.98-.244H80.87c-.494 0-1.236.244-1.731.244-1.98.488-3.712 1.22-4.949 2.684-1.732 1.708-3.711 2.684-5.938 2.928l-5.197.731c-2.474.245-4.948.489-7.175.733-1.98.243-3.96.243-5.939.487a39.94 39.94 0 0 0-7.423 1.464c-.495.244-.742 0-1.237-.244a4.126 4.126 0 0 0-2.97-1.22c-1.979-.244-3.958.244-5.69 1.464-2.475 1.708-3.464 4.392-2.722 7.32.495 1.464.99 3.172 1.485 4.636.247 1.22.742 2.44.99 3.416.494 1.708-.248 2.684-1.485 3.66-.743.488-1.238.732-1.732 1.22-.99.732-1.237 1.952-.99 3.172.495-.732.99-1.708 2.474-1.464-1.237.976-2.474 1.952-2.721 3.416v.976c.247.732.247 1.22.742 1.708 0 .244.247.244.495.488v-.488c0-.732.495-1.464 1.237-1.952.247-.244.495-.244.742-.488 1.98-.732 3.217-2.196 3.96-4.148.741-2.196.741-4.148-.248-6.344-.743-1.708-1.485-3.172-1.98-4.88-.742-1.952-.99-3.904-.495-5.856.495-2.196 1.98-3.416 4.207-3.66.99 0 1.98.244 2.721.976l.248.244-.742.732c-1.237.976-1.485 2.44-1.237 3.904.247 2.196.494 4.636.99 6.832l.742 4.392v1.22c1.732-3.416 3.711-6.588 9.65-8.052-4.702 2.684-6.434 6.832-9.898 10.248-.247 1.22-.742 2.44-1.484 3.66-.743 1.22-1.485 2.196-2.227 3.172-.495.732-.495 1.464-.248 2.196.742 1.952.99 3.904.742 6.1-.247 1.464-.742 3.172-.99 4.636v1.463c0 .488.248.488.496.488h.742c0 .732.247 1.22.247 1.953.248.732.495.976 1.237.976h4.949c.248 0 .248 0 .495-.244 0-.732-.247-1.465-.742-1.953s-.99-.976-1.732-1.463c-.743-.732-1.237-1.464-1.237-2.44 0-1.708.494-3.416.99-5.124.494-1.464 1.484-2.44 2.969-2.928l2.226-.732h.248l1.98 1.952c.494.244.742.732 1.236.732.99.488 1.733.732 2.475 1.464 1.237 1.22 1.485 2.684 1.237 4.392 0 .244 0 .732-.247.976 0 .732.247.976.742.976h.742c.495 0 .742.244.742.732 0 .244 0 .731.248.975.247 1.22.742 1.709 1.732 1.709h4.453c.742-.244.99-.489.495-1.22-.495-.977-1.485-1.708-2.227-2.44-.495-.488-.99-.732-1.485-1.22-.247-.488-.742-.732-.742-1.22-.742-1.952-1.237-3.904-1.732-5.856-.495-2.196-.248-4.392.742-6.344.248-.488.495-.976.742-1.708.248-.488.495-.732.743-1.22.99.488 1.732.976 2.722 1.464.99.732 1.98 1.22 2.969 1.952.742.488 1.484.732 2.227.732h.495V75.85c0-.732.495-.976 1.237-.976 1.237.244 2.474.488 3.464.976 1.485.488 2.722.732 4.206 1.22l.248.244c0 .976 0 2.196-.248 3.172-.247.976 0 1.708.99 2.44.495.244.99.488 1.237.732.99.488 1.485 1.464 1.485 2.44.247 1.22 0 2.44-.495 3.66-.248.244-.248.732-.248.976 0 .488.248.488.495.732h.495c.495 0 .495 0 .495.488v1.463c0 .976.248 1.22.99 1.22 1.484.244 2.97.244 4.206-.244.495-.244.743-.244.495-.976-.247-1.22-.99-2.195-1.732-2.927-.99-.732-1.237-1.708-1.237-2.928 0-1.952 0-3.66.247-5.612v-.244c.495.244.743.244.99.488 2.227.976 3.464 2.928 3.464 5.368 0 .488 0 .976-.247 1.464 0 .976.247 1.22.99 1.22 1.237.244 1.237.244 1.484 1.464v.732c.248.975.743 1.463 1.732 1.463h4.207c.495 0 .742-.244 1.237-.488-.495-.975-.99-1.707-1.732-2.44-.495-.243-.743-.731-1.237-.975-1.238-.732-1.98-1.952-2.475-3.172-.495-1.22-.742-2.44-1.237-3.66a1.537 1.537 0 0 1 0-1.464v-.244l.495-.488.247.244c0 .244.248.488.248.732 0 .976.495 1.952 1.732 2.196.247-1.22.742-2.196 1.484-3.172.495.488.495 1.22.248 1.952 0 1.22.247 2.44.99 3.416l.247.244c.495-1.708 1.237-3.172 1.732-4.636.248-.488 0-.976 0-1.464 0 .244.248.488.248.732 0 .488.247.732.247 1.22.247.244.495.732.742.976h.248c.495-.976.742-1.708 1.237-2.684.495-.976.495-1.952.495-2.928l.247.244c.495.244.743.488 1.237.732.495.244.99.244 1.238-.244.247-.244.494-.244.742-.244.495 0 1.237 0 1.732-.244.742-.244.99-.976.99-1.708-.248-.976 0-1.708.742-2.44l.742-.732c.743-.732 1.237-1.708 1.237-2.928 0-.488.248-.976.743-1.22 1.484-.976 1.979-1.708 1.484-3.416 3.285.463 6.681-2.42 6.681-5.612Zm-75.963-4.636c3.217-2.196 5.939-5.124 10.64-3.416-3.959 0-6.928 2.684-10.64 3.416Zm-.99 20.252c1.733-3.416 2.722-7.32 8.66-8.784-4.206 2.44-5.195 6.1-8.66 8.784Zm1.238 2.44c1.237-2.44 1.98-5.124 6.186-6.1-2.97 1.464-3.712 4.148-6.186 6.1Zm1.484 1.952c1.238-2.44 1.98-5.124 6.186-6.1-2.969 1.708-3.711 4.148-6.186 6.1Zm5.691-25.132c2.227-1.708 4.454-3.904 7.918-2.684-2.969 0-5.196 2.196-7.918 2.684Zm4.702 0c1.484-1.22 2.969-2.44 5.196-1.708-1.98 0-3.464 1.464-5.196 1.708Zm30.93-10.735c-1.733.976-2.475 2.684-3.96 3.904.99-1.709 1.732-3.66 3.96-3.904Zm-14.352 9.515c1.732-3.416 3.217-7.075 7.918-7.807-3.464 1.951-4.949 5.611-7.918 7.807Zm6.186-3.66c1.237-2.44 2.227-5.367 5.938-5.855-2.474 1.464-3.711 4.392-5.938 5.855Zm2.969 29.524c.99-2.684 1.732-5.612 4.949-6.344-2.227 1.464-2.722 4.392-4.949 6.344Zm2.722 2.928c.247-2.684.247-5.856 3.464-7.564-2.227 2.196-1.98 5.124-3.464 7.564Zm15.588-1.464c0-2.196-1.237-1.708-.742-3.66-.742.488-.495 1.464-1.485 1.708.248-.976.248-1.708.495-2.684-.247.244-.495.244-.99.488-.494 0-.247-.244-.247-.488 0-2.196 1.485-4.148 2.474-5.856-.247 1.22-.247 2.196-.494 3.416a3.8 3.8 0 0 1 1.484-1.952c.495 1.22-.495 1.708-.742 2.44 0 .244-.248.732.247.976.99.488.743-1.464 1.732-.732 0 .976-1.98 1.925.495 1.708-1.484.976-.495 3.416-2.227 4.636Zm-3.464-6.832c.495-3.416.248-7.076 4.207-9.272-2.475 2.684-2.227 6.344-4.207 9.272Zm7.918-12.688c0 .244-.247.488-.247.976-.495 1.952-.743 2.196-2.722 1.708-2.474-.488-4.206-1.952-5.196-4.148-.99-2.44 0-6.344 2.474-8.052-.99 3.904 1.237 7.564 4.701 7.808 1.485 0 1.238.732.99 1.708Z" fill="#F9D751"/></svg>